<svg xmlns="http://www.w3.org/2000/svg" width="94.23" height="94.23" viewBox="0 0 94.23 94.23"><defs><style>.a{fill:#4590c0;}.b{fill:#fff;}</style></defs><g transform="translate(-441.579 -318)"><circle class="a" cx="47.115" cy="47.115" r="47.115" transform="translate(441.579 318)"/><g transform="translate(472.735 340.162)"><path class="b" d="M169.54,196.713a13.742,13.742,0,0,1-.093-4.814c.043-.31.083-.6.1-.881a2.4,2.4,0,0,0-1.56-2.314,4.334,4.334,0,0,0-3.483.04V175.651a4.007,4.007,0,0,0-3.936-4.062,3.8,3.8,0,0,0-1.9.51V170.37a3.934,3.934,0,1,0-7.867-.155,3.825,3.825,0,0,0-1.952-.536,4.036,4.036,0,0,0-3.936,4.048l-.05,3.933a3.65,3.65,0,0,0-1.8-.471,3.83,3.83,0,0,0-3.757,3.862c-.064,2.871-.107,4.071-.138,4.864-.045,1.276-.06,1.662-.06,6.162v8.569a20.962,20.962,0,0,0,1.01,5.545,25.16,25.16,0,0,1,.881,3.99,1.013,1.013,0,0,0-.955,1.012v6.093a1.016,1.016,0,0,0,1.017,1.017h22.464a1.016,1.016,0,0,0,1.017-1.017v-6.093a1.016,1.016,0,0,0-.95-1.012c.288-2.381,1.588-3.821,2.957-5.336,1.736-1.919,3.7-4.1,2.99-8.133Zm-7.99,13.467h-4.686a1.015,1.015,0,1,0,0,2.031h5.648v4.062H142.076V212.21h5.648a1.015,1.015,0,0,0,0-2.031H143.04a25.734,25.734,0,0,0-.964-4.531,19.234,19.234,0,0,1-.936-5v-8.569c0-4.464.014-4.84.06-6.088.029-.8.074-2.007.136-4.893a1.839,1.839,0,0,1,1.729-1.876,1.862,1.862,0,0,1,1.75,1.871l-.107,8.348a1.017,1.017,0,0,0,1,1.029h.014a1.016,1.016,0,0,0,1.014-1l.2-15.712a2,2,0,0,1,1.9-2.043,1.972,1.972,0,0,1,1.9,2.029l-.186,15.331a1.015,1.015,0,0,0,1,1.026h.014a1.014,1.014,0,0,0,1.014-1l.226-18.712a2,2,0,0,1,1.907-2.043,1.974,1.974,0,0,1,1.9,2.031v5.269l-.293,13.421a1.015,1.015,0,0,0,.993,1.036h.024a1.015,1.015,0,0,0,1.014-.993l.293-13.429a2.018,2.018,0,0,1,1.9-2.055,1.974,1.974,0,0,1,1.9,2.031v14.883a8.32,8.32,0,0,0-1.171,4.938,7.234,7.234,0,0,1-2.04.438c-2.986.39-7.983,1.04-7.983,9.19a1.015,1.015,0,0,0,2.031,0c0-2.881.664-4.8,2.033-5.864a8.436,8.436,0,0,1,4.181-1.312c1.543-.2,3-.391,3.674-1.562a1.012,1.012,0,0,0,.138-.512c-.012-2.021.079-3.55,1.348-4.8a2.324,2.324,0,0,1,2.464-.5c.226.1.379.243.371.343-.012.2-.045.443-.083.724a15.763,15.763,0,0,0,.1,5.445c.538,3.06-.8,4.543-2.5,6.419-1.5,1.664-3.193,3.533-3.493,6.7Z" transform="translate(-139.109 -166.308)"/><path class="b" d="M145.234,184.734h0a1.015,1.015,0,1,0,1.017,1.014A1.014,1.014,0,0,0,145.234,184.734Z" transform="translate(-132.051 -140.863)"/></g></g></svg>