<svg xmlns="http://www.w3.org/2000/svg" width="94.23" height="94.23" viewBox="0 0 94.23 94.23"><defs><style>.a{fill:#b1c2a7;}</style></defs><g transform="translate(-554.692 -318)"><circle class="a" cx="47.115" cy="47.115" r="47.115" transform="translate(554.692 318)"/><g transform="translate(578.564 342.25)"><path d="M230.557,180.628h-.464L225.736,168.9a2.639,2.639,0,0,0-2.467-1.717h-30.75a2.644,2.644,0,0,0-2.469,1.717L185.7,180.628h-.464a1.676,1.676,0,0,0-1.674,1.674v1.345a1.676,1.676,0,0,0,1.674,1.674h.248v15.626a.713.713,0,1,0,1.426,0V185.321H198.1a2.33,2.33,0,0,0,1.659-.688l8.136-8.136,8.138,8.136a2.327,2.327,0,0,0,1.657.686h11.2v1.891a.713.713,0,1,0,1.426,0v-1.891h.248a1.674,1.674,0,0,0,1.674-1.671V182.3a1.676,1.676,0,0,0-1.674-1.674ZM191.388,169.4a1.21,1.21,0,0,1,1.131-.788h30.75a1.21,1.21,0,0,1,1.131.788l4.171,11.231h-9.91l-9.109-9.107a2.342,2.342,0,0,0-3.317,0l-9.11,9.107h-9.91Zm39.417,14.25a.249.249,0,0,1-.248.248H217.688a.915.915,0,0,1-.65-.271l-8.64-8.64a.716.716,0,0,0-1.007,0l-8.643,8.64a.907.907,0,0,1-.65.271H185.231a.247.247,0,0,1-.248-.248V182.3a.247.247,0,0,1,.248-.248h12.19a.7.7,0,0,0,.5-.21l9.317-9.317a.922.922,0,0,1,1.3,0l9.317,9.317a.7.7,0,0,0,.5.21h12.19a.247.247,0,0,1,.248.248v1.345Z" transform="translate(-183.557 -167.185)"/><path d="M207.547,191.289a.712.712,0,0,0,.712-.712V177.9a.713.713,0,0,0-.712-.714h-9.6a.713.713,0,0,0-.712.714v12.676a.712.712,0,0,0,.712.712Zm-.714-4.5h-3.374v-3.376h3.374Zm-4.8,0h-3.376v-3.376h3.376Zm4.8,3.071h-8.176v-1.645h8.176Zm0-7.874h-3.374v-3.376h3.374Zm-4.8-3.376v3.376h-3.376v-3.376Z" transform="translate(-164.675 -153.373)"/><path d="M196.009,191.289a.713.713,0,0,0,.714-.712V177.9a.713.713,0,0,0-.714-.714h-9.6a.713.713,0,0,0-.712.714v12.676a.712.712,0,0,0,.712.712Zm-.712-4.5h-3.376v-3.376H195.3Zm-4.8,0h-3.374v-3.376h3.374Zm4.8,3.071h-8.176v-1.645H195.3Zm0-7.874h-3.376v-3.376H195.3Zm-4.8-3.376v3.376h-3.374v-3.376Z" transform="translate(-180.605 -153.373)"/><path d="M197.832,178.478h-4.61a.712.712,0,0,0-.712.712v3.074a.714.714,0,0,0,.712.714h4.61a.715.715,0,0,0,.714-.714V179.19A.713.713,0,0,0,197.832,178.478Zm-.712,3.074h-3.183V179.9h3.183Z" transform="translate(-171.192 -151.59)"/><path d="M199.762,176.9a3.787,3.787,0,1,0-3.788,3.786A3.791,3.791,0,0,0,199.762,176.9Zm-6.148,0a2.361,2.361,0,1,1,2.36,2.36,2.364,2.364,0,0,1-2.36-2.36Z" transform="translate(-171.638 -158.997)"/><path d="M231.519,193.037h-1.21V177.409a.713.713,0,0,0-1.426,0v15.629h-14.9v-14.46a.713.713,0,0,0-.714-.714H202.516a.713.713,0,0,0-.714.714v14.46H186.9v-1.89a.713.713,0,0,0-1.426,0v1.89h-1.21a.712.712,0,0,0-.712.712v3.267a.712.712,0,0,0,.712.712h47.25a.712.712,0,0,0,.712-.712v-3.267A.712.712,0,0,0,231.519,193.037Zm-28.29-5.2h1.017a.713.713,0,0,0,0-1.426h-1.017V179.29h9.331v13.748h-9.331ZM230.8,196.3H184.983v-1.838H230.8Z" transform="translate(-183.557 -154.049)"/></g></g></svg>