<svg xmlns="http://www.w3.org/2000/svg" xmlns:xlink="http://www.w3.org/1999/xlink" width="238.533" height="68.758" viewBox="0 0 238.533 68.758"><defs><style>.a,.c{fill:none;}.b{clip-path:url(#a);}.c{stroke:#fff;stroke-width:0.303px;}.d{fill:#666;}.e{fill:#fff;}.f{fill:#bdbdbd;}.g{fill:#616161;}</style><clipPath id="a"><rect class="a" width="238.533" height="68.758"/></clipPath></defs><g transform="translate(-375 -197.41)"><g transform="translate(375 197.41)"><g class="b"><rect class="c" width="238.108" height="68.334" transform="translate(0.212 0.212)"/></g><path class="d" d="M80.25,133.41l1.306-.326V112.516l-1.306-.326v-.817H92.657c4.244,0,6.4,2.579,6.4,5.027,0,3.07-2.154,5.257-8.291,5.583,6.791.229,8.846,3,8.846,5.714,0,3.885-3.036,6.006-8.259,6.529H80.25Zm9.175-11.752c1.338,0,2.449-2.057,2.449-5.225,0-2.644-.687-4.243-2.155-4.243l-.98.326v9.142Zm3,6.1c0-3.623-1.436-5.287-3-5.287h-.687v10.61l.98.326C91.319,133.41,92.428,130.961,92.428,127.761Z" transform="translate(-67.076 -91.273)"/><path class="d" d="M95.264,133.41l1.306-.326V112.516l-1.306-.326v-.817h9.795v.817l-1.306.326v20.568l1.306.326v.817H95.264Z" transform="translate(-61.094 -91.273)"/><path class="d" d="M103.2,133.41l1.306-.326V112.516l-1.306-.326v-.817h9.631v.817l-1.144.326v9.369h5.552v-9.369l-1.144-.326v-.817h9.632v.817l-1.308.326v20.568l1.308.326v.817H116.1v-.817l1.144-.326v-10.22H111.69v10.22l1.144.326v.817H103.2Z" transform="translate(-57.931 -91.273)"/><path class="d" d="M119.9,133.6l1.306-.326,7.052-20.372,5.81-1.991,7.412,22.364,1.306.326v.817H131.292V133.6l2.285-.326-1.991-6.5h-6.954l-2.155,6.5,2.285.326v.817H119.9Zm11.394-7.8-3.036-9.958-3.3,9.958Z" transform="translate(-51.279 -91.459)"/><path class="d" d="M158.463,133.41v.817H150.17l-4.341-10.774h-.491v9.631l1.176.326v.817H136.85v-.817l1.306-.326V112.516l-1.306-.326v-.817h12.569c3.625,0,6.629,1.828,6.629,5.583s-3.037,6.072-9.6,6.4l7.28,1.4,3.723,8.326Zm-10.088-16.128c0-2.808-.947-5.092-2.219-5.092l-.817.326v10.12h.359C147.4,122.636,148.374,120.515,148.374,117.281Z" transform="translate(-44.525 -91.273)"/><path class="d" d="M83.257,135.336h-2l-.32.948H79.567l1.941-5.363H83.02l1.941,5.363H83.578Zm-.337-1.008-.664-1.963-.657,1.963Z" transform="translate(-67.348 -83.485)"/><path class="d" d="M85.649,136.167a1.707,1.707,0,0,1-.745-.565,1.549,1.549,0,0,1-.3-.9H86a.671.671,0,0,0,.206.456.662.662,0,0,0,.459.157.716.716,0,0,0,.459-.134.445.445,0,0,0,.168-.369.441.441,0,0,0-.134-.33,1.087,1.087,0,0,0-.329-.214,5.422,5.422,0,0,0-.554-.192,6.118,6.118,0,0,1-.847-.319,1.578,1.578,0,0,1-.565-.474,1.324,1.324,0,0,1-.238-.818,1.4,1.4,0,0,1,.543-1.172,2.225,2.225,0,0,1,1.414-.425,2.252,2.252,0,0,1,1.429.425,1.514,1.514,0,0,1,.58,1.18H87.177a.556.556,0,0,0-.19-.41.676.676,0,0,0-.452-.148.561.561,0,0,0-.382.126.456.456,0,0,0-.145.362.449.449,0,0,0,.245.406,4.107,4.107,0,0,0,.764.313,7.243,7.243,0,0,1,.845.336,1.582,1.582,0,0,1,.561.467,1.244,1.244,0,0,1,.238.786,1.548,1.548,0,0,1-.234.833,1.635,1.635,0,0,1-.677.6,2.317,2.317,0,0,1-1.046.221A2.724,2.724,0,0,1,85.649,136.167Z" transform="translate(-65.339 -83.507)"/><path class="d" d="M89.882,136.167a1.71,1.71,0,0,1-.744-.565,1.54,1.54,0,0,1-.3-.9h1.39a.678.678,0,0,0,.207.456.662.662,0,0,0,.459.157.716.716,0,0,0,.459-.134.445.445,0,0,0,.168-.369.441.441,0,0,0-.134-.33,1.087,1.087,0,0,0-.329-.214,5.547,5.547,0,0,0-.554-.192,6.049,6.049,0,0,1-.847-.319,1.594,1.594,0,0,1-.566-.474,1.333,1.333,0,0,1-.236-.818,1.4,1.4,0,0,1,.543-1.172,2.22,2.22,0,0,1,1.414-.425,2.245,2.245,0,0,1,1.428.425,1.509,1.509,0,0,1,.58,1.18H91.411a.557.557,0,0,0-.192-.41.672.672,0,0,0-.45-.148.561.561,0,0,0-.382.126.485.485,0,0,0,.1.768,4.065,4.065,0,0,0,.764.313,7.245,7.245,0,0,1,.845.336,1.582,1.582,0,0,1,.561.467,1.244,1.244,0,0,1,.238.786,1.548,1.548,0,0,1-.234.833,1.635,1.635,0,0,1-.677.6,2.321,2.321,0,0,1-1.046.221A2.736,2.736,0,0,1,89.882,136.167Z" transform="translate(-63.652 -83.507)"/><path class="d" d="M94.493,131.967v1.085h1.749v1.008H94.493v1.177h1.979v1.046H93.187v-5.363h3.285v1.046Z" transform="translate(-61.922 -83.485)"/><path class="d" d="M103.089,130.921v5.363h-1.306v-3.216l-1.2,3.216H99.529l-1.207-3.225v3.225H97.016v-5.363H98.56l1.5,3.713,1.489-3.713Z" transform="translate(-60.396 -83.485)"/><path class="d" d="M106.9,134a1.406,1.406,0,0,1-.187,1.895,1.986,1.986,0,0,1-1.31.393h-2.5v-5.363h2.414a1.981,1.981,0,0,1,1.28.373,1.359,1.359,0,0,1,.215,1.8,1.3,1.3,0,0,1-.661.435A1.246,1.246,0,0,1,106.9,134Zm-2.689-.9h.856a.763.763,0,0,0,.494-.143.507.507,0,0,0,.171-.417.517.517,0,0,0-.171-.42.74.74,0,0,0-.494-.145h-.856Zm1.471,1.99a.53.53,0,0,0,.18-.432.555.555,0,0,0-.187-.443.768.768,0,0,0-.516-.161h-.948v1.184h.964A.776.776,0,0,0,105.682,135.081Z" transform="translate(-58.05 -83.485)"/><path class="d" d="M108.68,135.276h1.712v1.008h-3.018v-5.363h1.306Z" transform="translate(-56.269 -83.485)"/><path class="d" d="M115.573,130.921l-1.857,3.59v1.773H112.41v-1.773l-1.857-3.59h1.482l1.039,2.246,1.032-2.246Z" transform="translate(-55.003 -83.485)"/><path class="d" d="M118.732,131.967v1.085h1.749v1.008h-1.749v1.177h1.979v1.046h-3.285v-5.363h3.285v1.046Z" transform="translate(-52.264 -83.485)"/><path class="d" d="M122.562,135.276h1.712v1.008h-3.018v-5.363h1.306Z" transform="translate(-50.738 -83.485)"/><path class="d" d="M126.042,131.967v1.085h1.749v1.008h-1.749v1.177h1.979v1.046h-3.285v-5.363h3.285v1.046Z" transform="translate(-49.352 -83.485)"/><path class="d" d="M128.751,132.194a2.45,2.45,0,0,1,.958-.971,2.8,2.8,0,0,1,1.394-.347,2.66,2.66,0,0,1,1.635.5,2.425,2.425,0,0,1,.91,1.375h-1.438a1.165,1.165,0,0,0-.454-.513,1.285,1.285,0,0,0-.668-.175,1.25,1.25,0,0,0-.978.42,1.872,1.872,0,0,0,0,2.247,1.251,1.251,0,0,0,.978.421,1.273,1.273,0,0,0,.668-.176,1.157,1.157,0,0,0,.454-.513h1.438a2.408,2.408,0,0,1-.91,1.373,2.683,2.683,0,0,1-1.635.5,2.781,2.781,0,0,1-1.394-.348,2.445,2.445,0,0,1-.958-.965,3.086,3.086,0,0,1,0-2.832Z" transform="translate(-47.889 -83.502)"/><path class="d" d="M137.537,130.921v1.046h-1.421v4.317H134.81v-4.317h-1.421v-1.046Z" transform="translate(-45.904 -83.485)"/><path class="d" d="M139.006,130.921v5.363H137.7v-5.363Z" transform="translate(-44.186 -83.485)"/><path class="d" d="M141.393,136.008a2.626,2.626,0,0,1-1-.982,2.89,2.89,0,0,1,0-2.832,2.645,2.645,0,0,1,1-.977,2.914,2.914,0,0,1,2.773,0,2.594,2.594,0,0,1,.993.977,2.924,2.924,0,0,1,0,2.832,2.594,2.594,0,0,1-.993.982,2.906,2.906,0,0,1-2.769,0Zm2.414-1.268a1.855,1.855,0,0,0,0-2.265,1.318,1.318,0,0,0-1.028-.424,1.335,1.335,0,0,0-1.035.421,1.865,1.865,0,0,0,0,2.272,1.331,1.331,0,0,0,1.035.422A1.316,1.316,0,0,0,143.807,134.74Z" transform="translate(-43.262 -83.507)"/><path class="d" d="M150.146,136.284H148.84l-2.186-3.307v3.307h-1.306v-5.363h1.306l2.186,3.323v-3.323h1.306Z" transform="translate(-41.139 -83.485)"/><g class="b"><path class="d" d="M180.463,131.437q5.288-6.033,5.29-11.511a8.926,8.926,0,0,0-1.949-5.941q-1.951-2.32-6.4-2.32a8.691,8.691,0,0,0-6.893,2.716,11.812,11.812,0,0,0-2.716,7.17h-.927A12.2,12.2,0,0,1,170,113.685a9.822,9.822,0,0,1,7.4-2.854,10.114,10.114,0,0,1,6.615,2.182q2.666,2.182,2.668,6.914a15.482,15.482,0,0,1-2.926,8.54,41.124,41.124,0,0,1-7.24,8.192,57.634,57.634,0,0,1-8.633,6.335h19.909v.836H166.121v-.51A68.177,68.177,0,0,0,180.463,131.437Z" transform="translate(-32.862 -91.489)"/><path class="d" d="M184.479,118.581a10.784,10.784,0,0,1,3.11-5.662,10.975,10.975,0,0,1,12.88,0A10.72,10.72,0,0,1,203.6,118.6a39.63,39.63,0,0,1,.835,8.795,40.47,40.47,0,0,1-.835,8.911,10.857,10.857,0,0,1-3.132,5.732,10.875,10.875,0,0,1-12.88,0,10.936,10.936,0,0,1-3.11-5.732,40.387,40.387,0,0,1-.835-8.911A39.5,39.5,0,0,1,184.479,118.581Zm18.286.418a10.227,10.227,0,0,0-2.807-5.362,9.865,9.865,0,0,0-11.835,0A10.211,10.211,0,0,0,185.314,119a40.068,40.068,0,0,0-.741,8.4,41.009,41.009,0,0,0,.741,8.493,10.365,10.365,0,0,0,2.809,5.432,9.771,9.771,0,0,0,11.835,0,10.382,10.382,0,0,0,2.807-5.432,40.988,40.988,0,0,0,.744-8.493A40.047,40.047,0,0,0,202.765,119Z" transform="translate(-25.881 -91.489)"/><path class="d" d="M214.878,131.437q5.29-6.033,5.29-11.511a8.933,8.933,0,0,0-1.948-5.941q-1.951-2.32-6.4-2.32a8.691,8.691,0,0,0-6.893,2.716,11.812,11.812,0,0,0-2.716,7.17h-.929a12.2,12.2,0,0,1,3.134-7.866,9.822,9.822,0,0,1,7.4-2.854,10.112,10.112,0,0,1,6.613,2.182q2.668,2.182,2.668,6.914a15.49,15.49,0,0,1-2.924,8.54,41.169,41.169,0,0,1-7.24,8.192,57.78,57.78,0,0,1-8.633,6.335H222.21v.836H200.536v-.51A68.141,68.141,0,0,0,214.878,131.437Z" transform="translate(-19.15 -91.489)"/><path class="d" d="M218.895,118.581a10.784,10.784,0,0,1,3.11-5.662,10.975,10.975,0,0,1,12.88,0,10.72,10.72,0,0,1,3.132,5.686,39.544,39.544,0,0,1,.835,8.795,40.383,40.383,0,0,1-.835,8.911,10.856,10.856,0,0,1-3.132,5.732,10.875,10.875,0,0,1-12.88,0,10.936,10.936,0,0,1-3.11-5.732,40.387,40.387,0,0,1-.835-8.911A39.5,39.5,0,0,1,218.895,118.581Zm18.286.418a10.227,10.227,0,0,0-2.807-5.362,9.865,9.865,0,0,0-11.835,0A10.211,10.211,0,0,0,219.73,119a40.068,40.068,0,0,0-.741,8.4,41.01,41.01,0,0,0,.741,8.493,10.365,10.365,0,0,0,2.809,5.432,9.771,9.771,0,0,0,11.835,0,10.382,10.382,0,0,0,2.807-5.432,40.988,40.988,0,0,0,.744-8.493A40.047,40.047,0,0,0,237.181,119Z" transform="translate(-12.168 -91.489)"/><path class="e" d="M164.639,109.292c-.05,0-.094.006-.126.008h0a2.769,2.769,0,0,0-2.022.706,2.817,2.817,0,0,0-.71,1.5,2.507,2.507,0,0,0-.607.573,4.032,4.032,0,0,0-.751,2.815,1.092,1.092,0,0,0-.1.074,1.2,1.2,0,0,0-.425.989,8.643,8.643,0,0,0,.736,2.47l-.435,1.417a5.17,5.17,0,0,1-.86.25c-1.468.331-2.726.744-3.254,2.461a6.557,6.557,0,0,0-.347,2.061c-.011.306-.025.654-.073,1.163-.084.881-.164,1.9-.235,2.8-.057.733-.106,1.365-.145,1.762l-.024.248a2.477,2.477,0,0,1-.242,1.126,3.4,3.4,0,0,0-.273.758c-.127-.013-.27-.02-.429-.02a6.44,6.44,0,0,0-2.119.4c-2.078.736-3.3,1.368-2.791,3.949a9.663,9.663,0,0,0,.264,1.043,4.243,4.243,0,0,0,.309.775,1.318,1.318,0,0,0-.406.874.749.749,0,0,0,.376.619l.557,1.474-.4,1.126a.985.985,0,0,0-.717.719.921.921,0,0,0,.155.737,1.119,1.119,0,0,0,.762.446.663.663,0,0,1,.227.064,1.667,1.667,0,0,0,.723.148,1.543,1.543,0,0,0,.723-.168.234.234,0,0,1,.151-.039.24.24,0,0,1,.151.039,1.641,1.641,0,0,0,1.446,0,.24.24,0,0,1,.151-.039.234.234,0,0,1,.151.039,1.556,1.556,0,0,0,.723.168,1.532,1.532,0,0,0,.722-.168.239.239,0,0,1,.152-.039.236.236,0,0,1,.151.039,1.638,1.638,0,0,0,1.445,0,.234.234,0,0,1,.151-.039.24.24,0,0,1,.151.039,1.544,1.544,0,0,0,.723.168,1.566,1.566,0,0,0,.723-.168.234.234,0,0,1,.151-.039.238.238,0,0,1,.151.039,1.638,1.638,0,0,0,1.445,0,.238.238,0,0,1,.151-.039.246.246,0,0,1,.152.039,1.638,1.638,0,0,0,1.445,0,.242.242,0,0,1,.151-.039.246.246,0,0,1,.152.039,1.537,1.537,0,0,0,.722.168,1.556,1.556,0,0,0,.723-.168.234.234,0,0,1,.151-.039.24.24,0,0,1,.151.039,1.566,1.566,0,0,0,.723.168,1.543,1.543,0,0,0,.723-.168.311.311,0,0,1,.3,0,1.566,1.566,0,0,0,.723.168,1.543,1.543,0,0,0,.723-.168.314.314,0,0,1,.3,0,1.638,1.638,0,0,0,1.445,0,.246.246,0,0,1,.152-.039.24.24,0,0,1,.151.039,1.641,1.641,0,0,0,1.446,0,.236.236,0,0,1,.151-.039.246.246,0,0,1,.152.039,1.638,1.638,0,0,0,1.445,0,.24.24,0,0,1,.151-.039.246.246,0,0,1,.152.039,1.638,1.638,0,0,0,1.445,0,.316.316,0,0,1,.3,0,1.638,1.638,0,0,0,1.445,0,.244.244,0,0,1,.152-.039c.049,0,.049,0,.12.036a1.356,1.356,0,0,0,.668.175c.045,0,.094,0,.143-.007.371-.032.993-.085,1.183-.614a.808.808,0,0,0-.211-.839c-.179-1.165-.262-1.642-.306-1.856.028-.14.112-.474.291-1.094a1.016,1.016,0,0,0,.613-.805.848.848,0,0,0-.2-.67.986.986,0,0,0-.59-.31,5.258,5.258,0,0,0,.4-3.054c-.152-1.17-1.2-2.565-5.335-2.565h-.186l.015-.056a2.165,2.165,0,0,0-.189-1.362,2.169,2.169,0,0,1-.15-.5c.11-.463-.035-1.748-.447-5.009-.1-.807-.218-1.723-.317-2.569-.2-1.7-1.575-2.909-3.9-3.46v-.024a10.9,10.9,0,0,0-.313-1.677,10.854,10.854,0,0,1,.4-1.014c.076-.172.141-.32.193-.454a1.781,1.781,0,0,0-.018-1.474,1.071,1.071,0,0,0-.185-.232,4.469,4.469,0,0,0-.474-2.509,3.165,3.165,0,0,0-.487-.659,3.077,3.077,0,0,0-.727-1.782,2.661,2.661,0,0,0-1.928-.957h-.015Zm-2.563,10.824c.1,0,.147-.02.151-.038a8,8,0,0,0-.164-1.06l-.024.01-.424,1.028a2.567,2.567,0,0,0,.46.06m4.647-1.077a.269.269,0,0,1-.1-.021,7.913,7.913,0,0,0-.161,1.06c0,.018.045.038.15.038a2.7,2.7,0,0,0,.484-.064,7.921,7.921,0,0,0-.064-1.042c-.007-.069-.013-.115-.014-.145a.38.38,0,0,1-.3.175m-.678,1.37-.014-.015c-.085-.14-.035-.373.11-.846s.229-.736.255-.812a2.568,2.568,0,0,1-.573.72c-.027.509-.007.934.087.945l.092.006.043,0m-3.449-.7c.014-.183.022-.387.024-.579a2.817,2.817,0,0,1-.306-.41c.02.087.087.354.234.828.017.057.034.11.049.161m3.841-1.038v-.015l-.006.008Zm-4.186.011.02-.031c-.011-.018-.021-.039-.031-.059l0,.015a.658.658,0,0,1,.007.074m2.387-8.754h0a2.061,2.061,0,0,1,1.471.75,2.6,2.6,0,0,1,.578,1.636,2.623,2.623,0,0,1,.548.68,4.015,4.015,0,0,1,.352,2.54.49.49,0,0,1,.319.221,1.205,1.205,0,0,1-.029.922c-.046.119-.108.26-.18.425a10.392,10.392,0,0,0-.482,1.252l.006.029a13.8,13.8,0,0,1,.331,1.667.551.551,0,0,1-.41.473c1.72.253,4.069.984,4.317,3.085.1.836.21,1.72.317,2.575a34.2,34.2,0,0,1,.46,4.783,1.612,1.612,0,0,0,.173.867,1.659,1.659,0,0,1,.173.961,2.924,2.924,0,0,0-.123.9c.1-.007.439-.029.9-.029,1.659,0,4.475.262,4.7,2.01a3.981,3.981,0,0,1-.836,3.409,1.1,1.1,0,0,1,.231.083.855.855,0,0,0,.425.1,1.143,1.143,0,0,1,.131-.007.556.556,0,0,1,.4.117.21.21,0,0,1,.049.172c-.032.267-.348.355-.5.382a11.8,11.8,0,0,0-.418,1.636c.046.119.294,1.72.352,2.1a.717.717,0,0,0,.078.087c.08.08.164.164.133.248-.024.067-.119.151-.639.2-.031,0-.06,0-.088,0a.735.735,0,0,1-.376-.1.781.781,0,0,0-.413-.109.862.862,0,0,0-.427.1.99.99,0,0,1-.9,0,.948.948,0,0,0-.85,0,.993.993,0,0,1-.9,0,.948.948,0,0,0-.85,0,.99.99,0,0,1-.9,0,.948.948,0,0,0-.85,0,.99.99,0,0,1-.9,0,.852.852,0,0,0-.425-.1.862.862,0,0,0-.426.1.987.987,0,0,1-.9,0,.951.951,0,0,0-.852,0,.987.987,0,0,1-.9,0,.862.862,0,0,0-.427-.1.852.852,0,0,0-.425.1.99.99,0,0,1-.9,0,.948.948,0,0,0-.85,0,.99.99,0,0,1-.9,0,.948.948,0,0,0-.85,0,.9.9,0,0,1-.449.108.888.888,0,0,1-.447-.108.951.951,0,0,0-.852,0,.987.987,0,0,1-.9,0,.948.948,0,0,0-.85,0,.99.99,0,0,1-.9,0,.948.948,0,0,0-.85,0,.987.987,0,0,1-.9,0,.948.948,0,0,0-.85,0,.99.99,0,0,1-.9,0,.948.948,0,0,0-.85,0,.99.99,0,0,1-.9,0,.948.948,0,0,0-.85,0,.9.9,0,0,1-.449.108,1.045,1.045,0,0,1-.475-.1,1.292,1.292,0,0,0-.4-.109.481.481,0,0,1-.316-.183.286.286,0,0,1-.052-.232c.049-.224.355-.26.368-.261h0a.99.99,0,0,1,.185.017l.62-1.742-.73-1.933c-.141-.045-.242-.1-.245-.176-.007-.2.355-.566.442-.587.025-.007.11-.039.208-.074q-.04-.05-.08-.1a2.009,2.009,0,0,1-.2-.308,3.458,3.458,0,0,1-.3-.738,8.848,8.848,0,0,1-.248-.98c-.406-2.045.334-2.5,2.379-3.225a5.715,5.715,0,0,1,1.906-.364,4.1,4.1,0,0,1,1.01.134c.014,0,.017-.006.01-.018a2.011,2.011,0,0,1,.246-1.2,3.62,3.62,0,0,0,.336-1.6c.088-.9.229-2.979.38-4.569a11,11,0,0,1,.394-3.1c.424-1.375,1.375-1.71,2.786-2.026s1.285-.547,1.285-.547l.547-1.78a10.053,10.053,0,0,1-.775-2.432c0-.526.329-.587.485-.587a.5.5,0,0,1,.078.006s-.007-.1-.007-.26a3.54,3.54,0,0,1,.6-2.656,2.016,2.016,0,0,1,.7-.572,2.258,2.258,0,0,1,.572-1.446,2.213,2.213,0,0,1,1.586-.506c.022,0,.074-.01.1-.01" transform="translate(-39.57 -92.102)"/><path d="M161.372,112.069a4.124,4.124,0,0,0-.459,2.2s-.564-.1-.564.582a10.054,10.054,0,0,0,.775,2.432l-.547,1.78s.124.229-1.285.547-2.362.652-2.786,2.026a11,11,0,0,0-.394,3.1c-.151,1.59-.292,3.669-.38,4.569a3.627,3.627,0,0,1-.336,1.6,2.006,2.006,0,0,0-.246,1.2,4.914,4.914,0,0,0-2.926.248c-2.043.722-2.784,1.18-2.379,3.225s1,2.256,1,2.256a3.179,3.179,0,0,1,2.661-2.186c2.168-.3,4.353-.017,4.53-2.819s3-12.917,3-12.917l1.674-4.053Z" transform="translate(-39.389 -90.996)"/><path class="d" d="M165.559,116.221s-.15,1.433.071,1.46,5.164.094,5.528,3.183.908,6.827.778,7.346.5,1.291.347,1.826a2.851,2.851,0,0,0-.122.936s5.294-.434,5.606,1.955-.8,3.538-1.289,3.695c-.28.088-7.381.076-12.577.049-5.2.027-12.3.039-12.577-.049-.494-.157-1.6-1.306-1.289-3.695s5.606-1.955,5.606-1.955a2.844,2.844,0,0,0-.122-.934c-.155-.537.475-1.306.347-1.826s.414-4.255.778-7.345,5.308-3.264,5.528-3.289.2-1.391.2-1.391Z" transform="translate(-39.294 -89.356)"/><path class="f" d="M163.621,126.538c1.666-2.657,1.27-6.622.516-8.406l-1.983-.674c.008.077.017.157.025.235.277,2.871-.035,7.333-1.81,7.18-1.824-.158-1.744,2.856.238,1.189s1.349,3.132,3.014.477" transform="translate(-35.676 -88.849)"/><path class="f" d="M164.044,127.991c-1.824.515-1.27.078-4.243-1.071s-1.6-4.246-2.537-5.907c-1.046-1.847-1.694-2.117-2.152-1.586-.015.08-.029.161-.039.245-.364,3.089-.908,6.826-.779,7.346s-.5,1.289-.345,1.825a2.844,2.844,0,0,1,.122.934l-.152-.01c.11.12.222.242.333.365,1.031,1.15,1.5-.319,3.205-.28s1.077.319,2.464.161,4.2.158,5.657-.91.291-1.628-1.533-1.112" transform="translate(-37.724 -88.161)"/><path d="M156.6,119.188a12.7,12.7,0,0,0-.094,4.4c.317,2.618.238,4.177,1.85,5.128s4.864.715,6.052-.291,1.3-1.559,1.3-1.559a9.2,9.2,0,0,1-2.895,1.8c-1.045.171-2.921.779-4.2-.211a4.889,4.889,0,0,1-1.706-3.411,47.8,47.8,0,0,1-.3-5.852" transform="translate(-36.746 -88.16)"/><path class="f" d="M159.262,126.843a15.309,15.309,0,0,1-1.661.006.053.053,0,0,1-.056-.06H157.5c-.67,0-1.211-.014-1.881-.017,0,.032-.131-.006-.131-.006s-3.791-.309-5.145,1.042a25.923,25.923,0,0,0,3.6.225c3.056,0,5.532-.417,5.532-.931,0-.091-.077-.178-.218-.26" transform="translate(-39.147 -85.152)"/><path class="f" d="M159.791,117.213a7.273,7.273,0,0,0-4.233,1.646,8.818,8.818,0,0,1-.731,1.405q-.017.094-.029.193c-.059.5-.122,1.015-.186,1.533.036,0,1.605-1.4,1.647-1.4,1.428-2.379,4.5-1.73,4.5-2.562,0-.48-.373-.709-.964-.818" transform="translate(-37.448 -88.946)"/><path d="M155.906,118.347a13.923,13.923,0,0,0-.441,2.686c-.124,1.376-.106,2.177-.2,3s-.344,2.3.158,2.661.661.228.661.228-.731.327-.987-.652a15.391,15.391,0,0,1,.176-3.885c.035-.266.08-2.01.176-2.432s.334-1.463.4-1.551.063-.053.063-.053" transform="translate(-37.289 -88.497)"/><path d="M161.378,123.01a1.122,1.122,0,0,0-.866-1.463,2.128,2.128,0,0,0-1.875.281,2.087,2.087,0,0,1,2.031-.765c1.238.294,1.186,1.159,1.186,1.159Z" transform="translate(-35.844 -87.433)"/><path d="M163.9,131.711c1.54.008,3.246.015,4.892.018a4.93,4.93,0,0,0-2.52-.211c-5.982.494-8.234-1.663-7.917-.882a1.581,1.581,0,0,0,1.35.85,21.993,21.993,0,0,1-2.66-.642c-1.129-.376-2.051-3.159-1.831-1.874a4.49,4.49,0,0,0,1.025,2.134,5.255,5.255,0,0,1-3.23.364c-2.168-.287-2.986-2.829-2.986-2.829l-.043.036c-.034,1.909.9,2.847,1.341,2.987.281.088,7.381.076,12.579.049" transform="translate(-39.294 -84.396)"/><path d="M153.839,126.709c-.186.238.264,4.23,1.414,4.851s.635.766-.041.369a3.534,3.534,0,0,1-1.545-3.026,5.21,5.21,0,0,1,.172-2.194" transform="translate(-37.831 -85.163)"/><path d="M154.744,126.776c-.15.262.853,4.152,2.078,4.606s.736.67.014.372a3.535,3.535,0,0,1-1.955-2.781,5.2,5.2,0,0,1-.137-2.2" transform="translate(-37.415 -85.136)"/><path d="M152.266,126.9c-.185.239.229,4.155,1.379,4.776s.635.768-.039.371a3.661,3.661,0,0,1-1.612-3.075c-.08-1.692.273-2.071.273-2.071" transform="translate(-38.496 -85.086)"/><path d="M151.149,127.078c-.186.238.145,4.132,1.295,4.753s.635.766-.039.371a3.657,3.657,0,0,1-1.612-3.075c-.08-1.692.357-2.049.357-2.049" transform="translate(-38.974 -85.016)"/><path d="M168.426,126.9l-2.465.194-.745-.207s.077,2.815-3.426,3.53a4.272,4.272,0,0,1-5.118-2.534s.7,2.482,2.393,2.689c1.657.2-.8.494-1.91-.182.443.268,2.678,1.921,5.181,1.039,2.819-1,3.883-2.649,4.255-4.023.11-.408,1.187-.13,1.187-.13s-.694,4.36-4.457,4.906a4.466,4.466,0,0,0-1.067.236l2.14.008a5.22,5.22,0,0,0,3.141-2.061,6.556,6.556,0,0,0,.892-3.465m-11.3,3.472-.041-.034.041.034" transform="translate(-36.628 -85.094)"/><path class="e" d="M162.323,127.051a5.8,5.8,0,0,0,1.52-2.693c.157.052-.1,3.348-2.621,4.048a2.862,2.862,0,0,0,3.037-2.751,3.957,3.957,0,0,1-3.244,3.945s2.517-.337,2.984-.882a2.933,2.933,0,0,0,.968-2.019,30,30,0,0,0,.382-5.455c-.078-2,.389.909.26,2.1s-.1,3.66-.1,3.66.158.628.545-1.4c.467-2.45-.207-5.892.1-6.359.1-.143.284-.362.477-.607a6.873,6.873,0,0,0-3.47-1.313c-.255.245-.467.475-.467.475s.454,8.809-3.057,8.637c0,0,2.677,1.087,3.367-3.2a4.622,4.622,0,0,1-.417,2.691c-.733,1.292-2.895,1.87-3.647,1.454a2.929,2.929,0,0,0,3.383-.327" transform="translate(-35.724 -88.902)"/><path d="M156.905,120.966c0,1.19-.193,4.776,1.921,5.974s4.882.635,5.763-1.375c0,0-.229-.582-.617-.07a3.263,3.263,0,0,1-2.8,1.568c-1.692,0-3.12-.406-3.788-2.608a8.771,8.771,0,0,1-.477-3.489" transform="translate(-36.545 -87.451)"/><path d="M164.129,123.561c.08.846-.4,2.962-1.043,3.132,0,0,.488-.277.674-1.506a7.881,7.881,0,0,0,.092-1.956Z" transform="translate(-34.072 -86.549)"/><path d="M157.335,117.986s-.666,10.807.45,11.144c0,0-.7-.221-.792-.818s-1.61-.285-1.622-.078.924.361.589.488c-.306.117-1.5.278-1.549-.124s1.052-.947,1.531-1.025.087-.908.078-2.933c-.027-6.385,1.315-6.654,1.315-6.654" transform="translate(-37.529 -88.638)"/><path d="M166.178,127.064s-.8.26-1.583.585-.993,1.162-2.141,1.622c-1.643.657-3.758.5-4.718-.66a4.735,4.735,0,0,0,3.032.646,3.612,3.612,0,0,0,2.7-1.544,4.323,4.323,0,0,1-4.243.727,21.905,21.905,0,0,0,2.777-.661c.337-.208,1.375-.663,1.375-.663a1.217,1.217,0,0,0,.649.248,1.914,1.914,0,0,0,1.155-.157,1.772,1.772,0,0,1,1-.143" transform="translate(-36.203 -85.028)"/><path d="M162.142,121.749l-.19,2.085.043.372a8.566,8.566,0,0,0,.562-2.344,27.592,27.592,0,0,0-.013-4.169c-.116-.007-.192-.01-.215-.013-.166-.02-.122-.84-.089-1.242-.33-.067-.818-.161-1.317-.232l-1.832-.021-.02.011c0,.038,0,.19,0,.379-.034.32.032.864,1.141.916.7.034,1.973.442,2.089.934a26.167,26.167,0,0,1,.039,2.973s-1.661.22-1.81-.572c0,0-.3,1-2.265.74a1.535,1.535,0,0,0,1.19.26c.717-.13,1.012-.424,1.064-.545,0,0,.389.519,1.626.467" transform="translate(-35.994 -89.356)"/><path d="M159.608,120.482a6.955,6.955,0,0,0,.33-2.293s-.106,2.5.965,2.5c0,0-.7-.01-.811-.186s-.07-.3-.176-.131a1.431,1.431,0,0,1-.238.282Z" transform="translate(-35.457 -88.558)"/><path d="M157.231,127.2a2.567,2.567,0,0,0,.454.936,2.538,2.538,0,0,0,.778.681,3.125,3.125,0,0,0,.973.345,5.2,5.2,0,0,0,3.044-.445,3.565,3.565,0,0,0,.846-.6,2.865,2.865,0,0,0,.341-.394,1.924,1.924,0,0,0,.138-.224.946.946,0,0,0,.1-.242,1.379,1.379,0,0,1-.21.481,2.939,2.939,0,0,1-.33.414,3.555,3.555,0,0,1-.843.64,4.95,4.95,0,0,1-3.1.464,2.958,2.958,0,0,1-1-.368,2.6,2.6,0,0,1-.778-.719,2.5,2.5,0,0,1-.414-.966" transform="translate(-36.404 -84.968)"/><path d="M156.545,127.031a4.567,4.567,0,0,0,.517,1.419,3.872,3.872,0,0,0,.961,1.151,3.715,3.715,0,0,0,1.333.673,4.929,4.929,0,0,0,1.494.155,5.612,5.612,0,0,0,1.484-.238,4.6,4.6,0,0,0,2.4-1.734,4.751,4.751,0,0,0,.684-1.348,4.637,4.637,0,0,1-1.562,2.542,5.073,5.073,0,0,1-1.5.629,5.7,5.7,0,0,1-1.509.253,5.082,5.082,0,0,1-1.521-.169,3.671,3.671,0,0,1-1.358-.7,4.24,4.24,0,0,1-1.428-2.632" transform="translate(-36.678 -85.035)"/><path d="M155.61,126.92a6.012,6.012,0,0,0,.6,1.979,5.086,5.086,0,0,0,1.253,1.629,4.981,4.981,0,0,0,1.8.975,6.892,6.892,0,0,0,2.042.275,6.561,6.561,0,0,0,2.033-.32,6.142,6.142,0,0,0,1.817-.966A7.085,7.085,0,0,0,166.587,129a7.662,7.662,0,0,0,.987-1.822,5.362,5.362,0,0,1-2.261,3.5,6.6,6.6,0,0,1-1.9,1.07,6.7,6.7,0,0,1-2.089.264,7.256,7.256,0,0,1-2.107-.33,5.274,5.274,0,0,1-1.937-.931,5.86,5.86,0,0,1-1.309-1.784,3.523,3.523,0,0,1-.359-2.051" transform="translate(-37.067 -85.079)"/><path d="M154.758,126.827a6.666,6.666,0,0,0,0,1.017,6.917,6.917,0,0,0,.143,1,4.912,4.912,0,0,0,.792,1.843,3.776,3.776,0,0,0,.684.733,4.14,4.14,0,0,0,.854.531,5.78,5.78,0,0,0,1.962.478,5.941,5.941,0,0,1-1.017-.1,4.742,4.742,0,0,1-.979-.3,3.862,3.862,0,0,1-1.59-1.277,4.861,4.861,0,0,1-.783-1.886,6.434,6.434,0,0,1-.07-2.038" transform="translate(-37.41 -85.116)"/><path d="M153.788,126.79a7.749,7.749,0,0,0-.077.822c-.014.274-.015.55,0,.824a6.522,6.522,0,0,0,.256,1.619,4.11,4.11,0,0,0,.74,1.447,3.614,3.614,0,0,0,1.289,1,3.508,3.508,0,0,1-.734-.386,3.392,3.392,0,0,1-.617-.559,4.046,4.046,0,0,1-.778-1.47,6.249,6.249,0,0,1-.236-1.646,7.246,7.246,0,0,1,.159-1.649" transform="translate(-37.84 -85.131)"/><path d="M155.985,130.279a2.8,2.8,0,0,0-.917.291c-.238.131-.4-.036-.871-.08a2.074,2.074,0,0,0-1.067.106,1.728,1.728,0,0,1-1.137.027c-.334-.141-.4-.282-.713-.106s-.537.185.211.344a9.518,9.518,0,0,0,3,.067c1.34-.138,1.649-.227,1.684-.341s-.185-.308-.185-.308" transform="translate(-38.892 -83.741)"/><path d="M152.295,126.808a7.817,7.817,0,0,0-.239,1.695,5.092,5.092,0,0,0,.214,1.682,3.233,3.233,0,0,0,.884,1.424,3.9,3.9,0,0,0,1.477.832,4.015,4.015,0,0,1-.811-.292,3.382,3.382,0,0,1-.72-.48,3.226,3.226,0,0,1-.927-1.453,4.918,4.918,0,0,1-.194-1.716,6.373,6.373,0,0,1,.317-1.692" transform="translate(-38.501 -85.124)"/><path d="M151.119,127.105a7.09,7.09,0,0,0-.271,1.552,4.6,4.6,0,0,0,.152,1.551,3,3,0,0,0,.769,1.336,3.73,3.73,0,0,0,1.322.831,3.8,3.8,0,0,1-.733-.3,3.159,3.159,0,0,1-.645-.47,3.032,3.032,0,0,1-.812-1.365,4.464,4.464,0,0,1-.131-1.586,5.725,5.725,0,0,1,.35-1.545" transform="translate(-38.987 -85.005)"/><path d="M166.41,126.975a6.032,6.032,0,0,1-.246,1.983,5.046,5.046,0,0,1-.926,1.779,4.359,4.359,0,0,1-1.6,1.2,5.334,5.334,0,0,1-.957.308,6.41,6.41,0,0,1-.993.13,6.216,6.216,0,0,0,1.916-.51,4.4,4.4,0,0,0,1.558-1.193,5.12,5.12,0,0,0,.93-1.735,6.723,6.723,0,0,0,.232-.968,6.363,6.363,0,0,0,.09-.993" transform="translate(-34.63 -85.057)"/><path d="M167.32,126.771a7.424,7.424,0,0,1,.069,1.856,5.68,5.68,0,0,1-.446,1.81,2.322,2.322,0,0,1-1.958,1.927,4.342,4.342,0,0,1-.961.117,3.893,3.893,0,0,0,1.7-.667,3.407,3.407,0,0,0,.656-.636,3.8,3.8,0,0,0,.467-.785,5.824,5.824,0,0,0,.463-1.773,8.462,8.462,0,0,0,.052-.923,8.2,8.2,0,0,0-.042-.926" transform="translate(-33.698 -85.138)"/><path d="M168.512,126.883a8.431,8.431,0,0,1,.143,1.625,6.847,6.847,0,0,1-.2,1.624,3.513,3.513,0,0,1-.734,1.463,2.422,2.422,0,0,1-.643.51,2.474,2.474,0,0,1-.775.255,2.479,2.479,0,0,0,1.358-.818,3.526,3.526,0,0,0,.694-1.435,7.251,7.251,0,0,0,.217-1.6c.01-.27.008-.54,0-.811s-.029-.541-.06-.811" transform="translate(-32.788 -85.094)"/><path d="M169.793,127.291a7.508,7.508,0,0,1,.106,1.471,6.2,6.2,0,0,1-.2,1.467,3.226,3.226,0,0,1-.689,1.31,2.212,2.212,0,0,1-.587.456,2.347,2.347,0,0,1-.7.228,2.311,2.311,0,0,0,1.231-.737,3.267,3.267,0,0,0,.647-1.285,6.505,6.505,0,0,0,.224-1.442c.015-.243.018-.489.013-.734s-.017-.489-.039-.734" transform="translate(-32.226 -84.931)"/><path d="M154.751,130.975c-1.64,0-4.524.246-4.648,1.963-.151,2.081.822,3.523,1.27,3.664.1.032,1.179.069,5.773.069,1.933,0,4.348-.007,6.8-.02,2.446.013,4.858.02,6.792.02,4.6,0,5.679-.036,5.777-.069.449-.141,1.583-1.273,1.271-3.664-.224-1.709-3.009-1.963-4.65-1.963-.547,0-.924.031-.927.031l-.027,0,0-.028a2.884,2.884,0,0,1,.122-.944,1.614,1.614,0,0,0-.171-.926,1.659,1.659,0,0,1-.175-.9,35.557,35.557,0,0,0-.461-4.763c-.108-.854-.22-1.738-.319-2.575-.3-2.593-3.883-3.068-5.408-3.152l-.1-.007c-.227-.027-.129-1.161-.1-1.46l-3.131-.034c0,.284,0,1.363-.222,1.39-.013,0-.084.189-.123.19-1.528.11-4.927.5-5.234,3.112-.1.838-.358,1.687-.466,2.542a23.2,23.2,0,0,0-.229,4.674c.066.262-.288.67-.407.983a1.618,1.618,0,0,0,.024.977,5.9,5.9,0,0,1,.2.919h-.273l-.027,0s-.38-.031-.929-.031m2.394,5.75c-3.693,0-5.64-.024-5.788-.071-.54-.169-1.747-1.343-1.435-3.723.228-1.748,3.07-2.107,4.728-2.107a6.046,6.046,0,0,1,1.007.126,2.981,2.981,0,0,0-.123-.9,1.655,1.655,0,0,1,.173-.959,1.612,1.612,0,0,0,.173-.867,34.016,34.016,0,0,1,.459-4.777c.109-.856.221-1.741.319-2.577.312-2.656,3.934-3.2,5.476-3.307a.731.731,0,0,0,.076-.007c.136-.015.185-.805.176-1.363v-.027l3.246.035,0,.029c-.073.692-.074,1.415.048,1.431l.092.006c1.538.085,5.15.568,5.459,3.2.1.836.21,1.72.317,2.575a34.2,34.2,0,0,1,.46,4.783,1.609,1.609,0,0,0,.173.867,1.659,1.659,0,0,1,.173.961,2.924,2.924,0,0,0-.123.9c.1-.007.439-.028.9-.028,1.659,0,4.475.26,4.7,2.008.31,2.38-.768,3.553-1.308,3.724-.148.048-2.1.071-5.794.071-1.934,0-4.346-.007-6.792-.02-2.45.013-4.865.02-6.8.02" transform="translate(-39.337 -89.363)"/><path d="M164.614,127.218c-4.847,0-10.5-.415-10.582-.422a.027.027,0,0,1-.025-.028.027.027,0,0,1,.029-.025c.129.008,13.632.34,16.5-.008a.028.028,0,0,1,.014.053,28.03,28.03,0,0,1-5.939.431" transform="translate(-37.689 -85.153)"/><path class="d" d="M157.931,126.163a2.341,2.341,0,0,0,.583.182,4.314,4.314,0,0,1,1.078-.137c.527.045,1.117.22,1.421.2s.231.692-1.534.459a2.1,2.1,0,0,0,1.246.113c.675-.157,1.515-.338,1.67.035s-1.337,1.211-3.439.964a3.777,3.777,0,0,1-2.829-1.414,1.8,1.8,0,0,1,1.8-.4" transform="translate(-36.844 -85.425)"/><path d="M158.91,127.979c2.1.246,3.6-.592,3.439-.965a.308.308,0,0,0-.189-.166,2.147,2.147,0,0,0-.944.141,7.567,7.567,0,0,1-1.731.207c-.354,0-.639.277-.986.234s-1.176-.277-.994-.614a1.4,1.4,0,0,1,.752-.492V126.3a3.573,3.573,0,0,1-.373-.14,1.311,1.311,0,0,0-.7-.1,3.72,3.72,0,0,0-.947.72,4.225,4.225,0,0,0,2.668,1.2" transform="translate(-36.799 -85.425)"/><path d="M156.164,126.572a3.814,3.814,0,0,0,2.8,1.389,6.522,6.522,0,0,0,.752.045,3.605,3.605,0,0,0,2.622-.8.178.178,0,0,0,.036-.169c-.056-.137-.22-.2-.5-.2a5.593,5.593,0,0,0-1.141.185,2.009,2.009,0,0,1-.442.049,2.089,2.089,0,0,1-.822-.164l-.158-.076.173.024a5.061,5.061,0,0,0,.647.048c.729,0,.993-.218.993-.365a.088.088,0,0,0-.1-.087h-.01a3.422,3.422,0,0,1-.687-.09c-.232-.042-.5-.092-.738-.112-.053,0-.109-.007-.162-.007a2.642,2.642,0,0,0-.668.1,1.163,1.163,0,0,1-.245.045,2.336,2.336,0,0,1-.594-.183,1.239,1.239,0,0,0-.52-.11,2.012,2.012,0,0,0-1.243.487m3.555,1.487a6.925,6.925,0,0,1-.758-.043,3.728,3.728,0,0,1-2.853-1.438.058.058,0,0,1,.017-.045,2.062,2.062,0,0,1,1.282-.5,1.3,1.3,0,0,1,.543.115,2.274,2.274,0,0,0,.572.18,1.123,1.123,0,0,0,.232-.045,2.7,2.7,0,0,1,.681-.1c.055,0,.112,0,.166.007.246.021.512.07.744.113a3.315,3.315,0,0,0,.673.088.145.145,0,0,1,.168.141c0,.145-.22.418-1.047.418-.129,0-.267-.006-.415-.02a2.209,2.209,0,0,0,.575.08,1.98,1.98,0,0,0,.429-.048,5.7,5.7,0,0,1,1.154-.186c.3,0,.481.078.547.236a.232.232,0,0,1-.041.22,3.655,3.655,0,0,1-2.668.826" transform="translate(-36.852 -85.433)"/><path class="d" d="M158.48,126.4a8.114,8.114,0,0,0-1.334.538,1.292,1.292,0,0,1-1.3.1c-.51-.19-.71-.831-.485-.986a3.325,3.325,0,0,1,1.169-.45,14.983,14.983,0,0,1,1.947.794" transform="translate(-37.185 -85.604)"/><path d="M161.625,126.259a1.875,1.875,0,0,0-.881.431c-.008.08-.194.115.053.088a.848.848,0,0,1,.74.283,1.79,1.79,0,0,0,.916.52c.291.045-.828-1.322-.828-1.322" transform="translate(-35.035 -85.342)"/><path class="d" d="M162.414,126.68a4.8,4.8,0,0,1-.922.4,2.509,2.509,0,0,0-.922-.176c-.527.043-1.084.245-1.386.227s-.347.692,1.418.46a2.1,2.1,0,0,1-1.246.112c-.674-.157-1.513-.337-1.67.035s1.287,1.214,3.3.847a4.188,4.188,0,0,0,2.8-1.389,1.054,1.054,0,0,0-1.375-.519" transform="translate(-36.227 -85.215)"/><path d="M163.269,126.654a5.6,5.6,0,0,0-.59.129s-.442.208-.719.33-.657-.13-.847-.13.415.122.364.441-.355.754-1.558.787a2.358,2.358,0,0,1-1.885-.579c-.066-.092-.358-.158-.338.236.2.406,1.523,1.01,3.284.689a4.188,4.188,0,0,0,2.8-1.389,1.075,1.075,0,0,0-.512-.515" transform="translate(-36.22 -85.185)"/><path d="M158.217,127.555c-.277,0-.439.067-.5.2a.2.2,0,0,0,.038.176,3,3,0,0,0,2.251.724,5.555,5.555,0,0,0,.979-.089,4.164,4.164,0,0,0,2.783-1.369,1.106,1.106,0,0,0-.916-.586,1.016,1.016,0,0,0-.422.1,4.68,4.68,0,0,1-.933.406.615.615,0,0,1-.215-.06,1.443,1.443,0,0,0-.571-.122c-.043,0-.088,0-.133.006a5.91,5.91,0,0,0-.748.13,2.711,2.711,0,0,1-.643.1h-.008a.114.114,0,0,0-.123.112c0,.117.19.34.908.34a5.015,5.015,0,0,0,.641-.048l.175-.022-.159.074a2.089,2.089,0,0,1-.822.164,1.987,1.987,0,0,1-.441-.049,5.621,5.621,0,0,0-1.143-.185m1.793,1.158h0a3.051,3.051,0,0,1-2.3-.748.24.24,0,0,1-.043-.228c.067-.158.246-.235.547-.235a5.588,5.588,0,0,1,1.155.185,1.876,1.876,0,0,0,.428.048,2.179,2.179,0,0,0,.573-.08q-.218.021-.407.021c-.759,0-.962-.248-.962-.394a.171.171,0,0,1,.19-.166,2.744,2.744,0,0,0,.626-.1,5.78,5.78,0,0,1,.755-.131c.048,0,.094-.007.138-.007a1.469,1.469,0,0,1,.59.126.605.605,0,0,0,.2.056,4.476,4.476,0,0,0,.909-.4,1.05,1.05,0,0,1,.446-.1,1.142,1.142,0,0,1,.849.441c.049.059.129.169.119.211-.018.1-.759,1.035-2.823,1.411a5.562,5.562,0,0,1-.99.091" transform="translate(-36.235 -85.223)"/><path class="d" d="M160.869,126.663a3.6,3.6,0,0,1,1.368.775,1.875,1.875,0,0,0,2.025-.173c.236-.257.18-.6.007-.613a5.8,5.8,0,0,0-2.031-.34c-1.246.017-1.369.351-1.369.351" transform="translate(-34.955 -85.321)"/><path d="M158.426,117.225c-.024.222.3-.171.294.05-.006.5-.152,1.656-.162,2.165a19.186,19.186,0,0,0,.039,2.179,7.217,7.217,0,0,0,.379,2.018,2.4,2.4,0,0,0,.424.951,1.4,1.4,0,0,0,.422.345,1.229,1.229,0,0,0,.255.062,1.936,1.936,0,0,0,.267.018,1.483,1.483,0,0,0,.979-.355,2.515,2.515,0,0,0,.628-.868,7.449,7.449,0,0,0,.544-2.109,17.6,17.6,0,0,0,.133-2.19c0-.731-.02-1.466-.084-2.2a20.269,20.269,0,0,1,.031,4.4,9.319,9.319,0,0,1-.189,1.088,5.613,5.613,0,0,1-.35,1.05,2.639,2.639,0,0,1-.647.9,1.6,1.6,0,0,1-.488.287,1.643,1.643,0,0,1-.557.1,2.31,2.31,0,0,1-.28-.02,1.45,1.45,0,0,1-.278-.07,1.425,1.425,0,0,1-.478-.3,2.575,2.575,0,0,1-.59-.944,5.911,5.911,0,0,1-.292-1.067,10.331,10.331,0,0,1-.143-1.095,22.415,22.415,0,0,1,.144-4.4" transform="translate(-36.006 -88.95)"/><path d="M164.032,119.681c.055.913.087,1.828.1,2.742s.018,1.829-.007,2.744c-.017.457-.039.915-.083,1.37-.024.228-.05.457-.094.684a2.27,2.27,0,0,1-.088.338.613.613,0,0,1-.082.162c-.036.048-.073.091-.112.134a2.949,2.949,0,0,1-1.127.786,3.765,3.765,0,0,1-.661.192c-.112.021-.227.038-.34.05s-.229.014-.34.038c.11-.029.227-.032.338-.053s.225-.038.336-.063a3.684,3.684,0,0,0,.647-.21,2.9,2.9,0,0,0,1.087-.792c.036-.042.071-.087.1-.131a.614.614,0,0,0,.069-.143,2.309,2.309,0,0,0,.081-.326c.042-.222.066-.449.087-.675.041-.453.06-.91.074-1.365.032-.913.032-1.826.031-2.741,0-.457,0-.913-.01-1.37Z" transform="translate(-34.822 -87.963)"/><path d="M163.884,124.436c-.15.8-.027,1.127-.238,1.356a3.831,3.831,0,0,1-2.389,1.322,4.206,4.206,0,0,0,1.622-.475c.7-.414.873-.678.959-1.022a12.125,12.125,0,0,0,.186-1.383c0-.071-.141.2-.141.2" transform="translate(-34.8 -86.154)"/><path d="M157.925,118.046a20.906,20.906,0,0,0-.164,2.439,14.744,14.744,0,0,0,.15,2.433,8.109,8.109,0,0,0,.268,1.184,4.366,4.366,0,0,0,.5,1.1,2.368,2.368,0,0,0,.863.812,2.223,2.223,0,0,0,1.158.238,2.014,2.014,0,0,0,.586-.1,1.781,1.781,0,0,0,.523-.28,2.821,2.821,0,0,0,.75-.929,7.764,7.764,0,0,0,.706-2.316,18.125,18.125,0,0,0,.22-2.43c.025-.814.015-1.631-.041-2.444a21.166,21.166,0,0,1-.1,4.888,9.812,9.812,0,0,1-.255,1.2,5.956,5.956,0,0,1-.446,1.147,2.916,2.916,0,0,1-.773.964,1.9,1.9,0,0,1-.55.3,2.117,2.117,0,0,1-.615.109,2.34,2.34,0,0,1-1.208-.253,2.463,2.463,0,0,1-.9-.849,4.481,4.481,0,0,1-.506-1.123,7.708,7.708,0,0,1-.263-1.2,14.922,14.922,0,0,1-.122-2.447,21.188,21.188,0,0,1,.215-2.436" transform="translate(-36.216 -88.732)"/><path d="M157.85,118.345c0,.608-.291,5.339,1.163,6.687s3.172.424,3.832-1.666.529.424.055,1.137-1.35,1.93-2.7,1.639-2.07-1.137-2.405-3.481a13,13,0,0,1,.053-4.317" transform="translate(-36.238 -88.495)"/><path d="M157.509,117.766c-.113.972-.176,1.948-.2,2.926-.011.488-.01.976.007,1.464a13.316,13.316,0,0,0,.115,1.459,7.684,7.684,0,0,0,.338,1.417,4.966,4.966,0,0,0,.657,1.289,2.987,2.987,0,0,0,1.082.934,2.6,2.6,0,0,0,1.37.194,2.86,2.86,0,0,0,1.394-.352,3.139,3.139,0,0,0,.989-1.035,5.58,5.58,0,0,0,.578-1.331,9.909,9.909,0,0,0,.308-1.425,17.593,17.593,0,0,0,.151-2.923c-.014-.976-.059-1.954-.15-2.928.108.973.169,1.949.2,2.928a17.748,17.748,0,0,1-.123,2.934,9.584,9.584,0,0,1-.3,1.44,5.748,5.748,0,0,1-.583,1.354,3.251,3.251,0,0,1-1.017,1.071c-.211.133-.3.309-.541.38a3.587,3.587,0,0,1-.754.152,3.391,3.391,0,0,1-1.566-.371,3.073,3.073,0,0,1-1.115-.968,5,5,0,0,1-.666-1.316,7.556,7.556,0,0,1-.334-1.435,13.574,13.574,0,0,1-.1-1.467q-.017-.734.008-1.468c.036-.979.116-1.955.246-2.924" transform="translate(-36.398 -88.85)"/><path d="M157.3,119.5a17.718,17.718,0,0,0,.547,4.794,3.026,3.026,0,0,0,4.723,1.6s-.053.951-1.287,1.057a3.241,3.241,0,0,1-3.419-2.063c-.951-1.973-.564-5.392-.564-5.392" transform="translate(-36.409 -88.034)"/><path d="M157,117.7q-.04,1.624-.046,3.25c0,.543,0,1.084,0,1.625s.02,1.082.063,1.622a7.453,7.453,0,0,0,.292,1.587,4.238,4.238,0,0,0,.731,1.424,3.067,3.067,0,0,0,1.28.933,4.219,4.219,0,0,0,1.576.262,4.083,4.083,0,0,0,1.569-.288,3.269,3.269,0,0,0,1.273-.95,4.6,4.6,0,0,0,.772-1.4,7.564,7.564,0,0,0,.366-1.573,19.273,19.273,0,0,0,.035-3.24q-.059-1.626-.152-3.247.117,1.619.2,3.244a19.144,19.144,0,0,1-.017,3.253,7.666,7.666,0,0,1-.361,1.589,4.684,4.684,0,0,1-.779,1.433c-.345.427-.187.685-.7.9a7.789,7.789,0,0,1-2.214.387,4.286,4.286,0,0,1-1.611-.275,3.161,3.161,0,0,1-1.312-.968,4.3,4.3,0,0,1-.738-1.454,7.451,7.451,0,0,1-.287-1.605c-.041-.541-.049-1.084-.055-1.625s0-1.085.006-1.626q.031-1.626.1-3.25" transform="translate(-36.538 -88.754)"/><path d="M156.561,118.884c-.043,1.066-.036,2.134.014,3.2a23.45,23.45,0,0,0,.336,3.176,10.579,10.579,0,0,0,.4,1.542,5.251,5.251,0,0,0,.315.729,2.833,2.833,0,0,0,.452.64,2.029,2.029,0,0,0,.645.436,4.325,4.325,0,0,0,.747.259,6.067,6.067,0,0,0,1.573.172,5.8,5.8,0,0,0,1.563-.236,4.293,4.293,0,0,0,1.4-.713,3.551,3.551,0,0,0,.991-1.214,4.4,4.4,0,0,0,.417-1.52q.128-1.592.185-3.193c.02-.533.032-1.067.034-1.6s0-1.067-.039-1.6c.045.531.057,1.066.066,1.6s0,1.067-.01,1.6q-.04,1.6-.155,3.2a4.348,4.348,0,0,1-.417,1.552,3.612,3.612,0,0,1-1.012,1.249c-.425.336-.372.464-.887.621a10.484,10.484,0,0,1-2.137.358,6.107,6.107,0,0,1-1.6-.18,4.248,4.248,0,0,1-.762-.267,2.666,2.666,0,0,1-.357-.194,1.784,1.784,0,0,1-.315-.263,2.872,2.872,0,0,1-.466-.664,5.259,5.259,0,0,1-.319-.741,10.136,10.136,0,0,1-.39-1.556,23.477,23.477,0,0,1-.308-3.19c-.034-1.067-.024-2.135.036-3.2" transform="translate(-36.694 -88.281)"/><path d="M158.643,126.235a.85.85,0,0,0-.371,0,1.753,1.753,0,0,0-.4.14c-.127.06-.246.134-.372.207s-.252.141-.383.206a2.438,2.438,0,0,1-.84.234,2.657,2.657,0,0,1-.435,0,4.539,4.539,0,0,1-.517-.015,4.529,4.529,0,0,0,.944-.062,2.776,2.776,0,0,0,.805-.249c.129-.059.253-.126.379-.194a3.37,3.37,0,0,1,.389-.2,1.17,1.17,0,0,1,.8-.066" transform="translate(-37.164 -85.369)"/><path d="M156.9,124.718c-.113-.006-.227-.011-.338-.01s-.225,0-.337.006a5.284,5.284,0,0,0-.667.069,3.5,3.5,0,0,0-.645.171,2.4,2.4,0,0,0-.3.138,2.321,2.321,0,0,0-.285.179,1.792,1.792,0,0,1,.259-.222,2.185,2.185,0,0,1,.3-.169,2.623,2.623,0,0,1,.657-.2,3.4,3.4,0,0,1,.684-.046,3.237,3.237,0,0,1,.677.084" transform="translate(-37.563 -85.991)"/><path d="M155.928,119.174l-.018.908-.027.908-.059,1.812c-.025.6-.042,1.21-.062,1.814-.01.3-.018.6-.022.906,0,.151-.006.3,0,.453,0,.076,0,.151.006.227a.937.937,0,0,0,.029.224,1.883,1.883,0,0,1-.063-.45c-.01-.151-.015-.3-.02-.453-.007-.3-.008-.606-.007-.909,0-.6.021-1.21.038-1.814s.049-1.21.084-1.814.071-1.207.123-1.811" transform="translate(-37.021 -88.165)"/><path d="M155.928,118.308a1.016,1.016,0,0,0-.129.248,2.464,2.464,0,0,0-.089.266,5.6,5.6,0,0,0-.126.545c-.069.366-.115.737-.148,1.11s-.06.745-.076,1.117-.034.75-.059,1.124c-.055.747-.13,1.494-.182,2.239a6.466,6.466,0,0,0,0,1.116,1.5,1.5,0,0,0,.147.533.639.639,0,0,0,.427.327.659.659,0,0,1-.26-.1.682.682,0,0,1-.19-.21,1.5,1.5,0,0,1-.173-.538,6.463,6.463,0,0,1-.029-1.127c.034-.75.11-1.495.157-2.242s.069-1.5.158-2.243c.045-.373.1-.745.179-1.112a5.581,5.581,0,0,1,.148-.544,1.642,1.642,0,0,1,.245-.5" transform="translate(-37.281 -88.51)"/><path d="M154.824,120.919l-.028.713-.034.713-.07,1.426c-.028.475-.046.951-.067,1.425l-.015.357-.006.179c0,.031,0,.057,0,.087a.153.153,0,0,0,.028.067.32.32,0,0,0,.138.088.834.834,0,0,0,.169.043,2.7,2.7,0,0,0,.354.032,2.186,2.186,0,0,1-.358,0,1,1,0,0,1-.178-.035.355.355,0,0,1-.165-.092.187.187,0,0,1-.043-.1c0-.029,0-.064,0-.092V125.2c0-.477.024-.952.043-1.429s.055-.951.094-1.425.083-.95.141-1.422" transform="translate(-37.475 -87.47)"/><path d="M160.888,126.567a2.991,2.991,0,0,1,.522.2,2.734,2.734,0,0,1,.471.3,2.127,2.127,0,0,0,.972.46,1.886,1.886,0,0,0,.54,0,1.492,1.492,0,0,0,.515-.155c.165-.081.33-.172.5-.242a3.267,3.267,0,0,1,.534-.162,4.016,4.016,0,0,0-.513.208c-.168.078-.323.175-.487.267a1.527,1.527,0,0,1-.538.183,2.042,2.042,0,0,1-.569,0,1.754,1.754,0,0,1-.541-.182,2.763,2.763,0,0,1-.464-.32,2.717,2.717,0,0,0-.448-.32,3.634,3.634,0,0,0-.5-.245" transform="translate(-34.947 -85.22)"/><path d="M162.255,126.591a4.207,4.207,0,0,1,1.407-.115,5,5,0,0,1,.7.1c.116.025.229.057.343.076a3.126,3.126,0,0,0,.344.045,3.038,3.038,0,0,0,1.365-.173,1.333,1.333,0,0,0,.559-.389.765.765,0,0,0,.152-.3.878.878,0,0,0,.007-.347.8.8,0,0,1-.119.682,1.382,1.382,0,0,1-.569.431,2.479,2.479,0,0,1-.691.186,3.215,3.215,0,0,1-1.067-.032c-.119-.022-.232-.056-.345-.081a6.008,6.008,0,0,0-.689-.115,5.078,5.078,0,0,0-.7-.031,4.042,4.042,0,0,0-.7.066" transform="translate(-34.403 -85.651)"/><path d="M163.678,118.048a21.619,21.619,0,0,1,.34,2.731c.064.916.082,1.835.077,2.754s-.041,1.836-.131,2.751a9.764,9.764,0,0,1-.22,1.362,2.977,2.977,0,0,1-.239.647,1.188,1.188,0,0,1-.2.28.663.663,0,0,1-.3.169.828.828,0,0,0,.477-.461,2.984,2.984,0,0,0,.215-.647,9.8,9.8,0,0,0,.189-1.356c.074-.913.1-1.829.108-2.745s-.006-1.832-.052-2.747c-.022-.457-.056-.915-.1-1.372s-.092-.912-.164-1.365" transform="translate(-34.105 -88.614)"/><path d="M164.309,118.568c.14.824.249,1.653.344,2.482s.165,1.664.215,2.5a24.214,24.214,0,0,1,.018,2.509,8.706,8.706,0,0,1-.151,1.247,3.248,3.248,0,0,1-.185.6.879.879,0,0,1-.4.473.652.652,0,0,0,.228-.208,1.434,1.434,0,0,0,.144-.275,3.16,3.16,0,0,0,.159-.6,9,9,0,0,0,.122-1.242c.029-.832.006-1.667-.042-2.5s-.113-1.666-.19-2.5c-.038-.415-.081-.831-.126-1.246s-.091-.829-.14-1.245" transform="translate(-33.646 -88.407)"/><path d="M165.632,119.44c.084.958.147,1.917.2,2.877s.091,1.921.113,2.884c.007.48.01.962,0,1.443-.007.241-.015.481-.034.722-.01.12-.021.242-.038.362a1.2,1.2,0,0,1-.1.361.233.233,0,0,1-.034.045c-.015.014-.024.02-.038.031s-.049.038-.074.056a1.808,1.808,0,0,1-.155.1,2.03,2.03,0,0,1-.336.145,2.985,2.985,0,0,1-.715.134,5.669,5.669,0,0,1-.723,0l-.359-.022a1.278,1.278,0,0,0-.358.006,1.279,1.279,0,0,1,.358-.021l.361.011a6.141,6.141,0,0,0,.717-.02,2.951,2.951,0,0,0,.7-.145,1.843,1.843,0,0,0,.32-.148,1.156,1.156,0,0,0,.147-.1.834.834,0,0,0,.07-.053.186.186,0,0,0,.052-.055,1.183,1.183,0,0,0,.08-.334c.015-.117.027-.236.035-.355.017-.239.024-.48.028-.719.008-.478,0-.959-.007-1.439-.014-.961-.052-1.92-.09-2.881Z" transform="translate(-34.112 -88.059)"/><path d="M161.886,122.146a1.576,1.576,0,0,0-1.8-1.092,2.023,2.023,0,0,0-1.5.986l-.048-.027A2.082,2.082,0,0,1,160.082,121a1.631,1.631,0,0,1,1.858,1.141Z" transform="translate(-35.883 -87.44)"/><path d="M158.815,120.3a4.016,4.016,0,0,1-.523-.034l.01-.055c.015,0,1.628.25,2.169-.632l.024-.038.024.039c0,.007.466.769,2.046.424l.013.053c-1.442.315-1.969-.259-2.082-.414a2,2,0,0,1-1.68.656" transform="translate(-35.982 -88.019)"/><path class="d" d="M158.767,112.183s-.13-2.363,2.082-2.313c2.2.049,2.035,2.379,2.035,2.379Z" transform="translate(-35.793 -91.872)"/><path d="M160.847,109.87c-.049,0-.1,0-.144,0a.214.214,0,0,0-.063.024s.629.3.537.709c-.087.38-1.863.547-2.37,1.011a2.777,2.777,0,0,0-.034.285c.4.081,1.991-.512,2.429-.371.537.173.889.592,1.47.6.028,0,.171-.06.2-.062a2.091,2.091,0,0,0-2.024-2.2" transform="translate(-35.79 -91.872)"/><path class="f" d="M159,110.775a2.078,2.078,0,0,0,1.484.5c.9,0,1.631-.394,1.664-.889a1.97,1.97,0,0,0-1.391-.52,1.8,1.8,0,0,0-1.756.9" transform="translate(-35.7 -91.872)"/><path d="M159.133,110.837a.172.172,0,1,0,.172.172.172.172,0,0,0-.172-.172m0,.421a.25.25,0,1,1,.249-.249.25.25,0,0,1-.249.249" transform="translate(-35.746 -91.518)"/><path d="M159.174,110.963a.086.086,0,0,1-.087.087.087.087,0,1,1,0-.175.087.087,0,0,1,.087.088" transform="translate(-35.7 -91.472)"/><path d="M159.578,110.688a.172.172,0,1,0,.172.172.172.172,0,0,0-.172-.172m0,.422a.25.25,0,1,1,.25-.25.251.251,0,0,1-.25.25" transform="translate(-35.569 -91.577)"/><path d="M159.62,110.814a.087.087,0,1,1-.088-.088.089.089,0,0,1,.088.088" transform="translate(-35.522 -91.531)"/><path d="M160.024,110.614a.172.172,0,1,0,.172.172.172.172,0,0,0-.172-.172m0,.421a.25.25,0,1,1,.249-.249.249.249,0,0,1-.249.249" transform="translate(-35.391 -91.607)"/><path d="M160.065,110.74a.087.087,0,1,1-.088-.088.088.088,0,0,1,.088.088" transform="translate(-35.345 -91.561)"/><path d="M160.469,110.614a.172.172,0,1,0,.172.172.172.172,0,0,0-.172-.172m0,.421a.25.25,0,1,1,.25-.249.248.248,0,0,1-.25.249" transform="translate(-35.214 -91.607)"/><path d="M160.511,110.74a.088.088,0,0,1-.088.088.088.088,0,0,1,0-.176.088.088,0,0,1,.088.088" transform="translate(-35.168 -91.561)"/><path d="M160.84,110.688a.172.172,0,1,0,.172.172.172.172,0,0,0-.172-.172m0,.422a.25.25,0,1,1,.25-.25.251.251,0,0,1-.25.25" transform="translate(-35.066 -91.577)"/><path d="M160.882,110.814a.087.087,0,1,1-.088-.088.089.089,0,0,1,.088.088" transform="translate(-35.02 -91.531)"/><path d="M161.286,110.762a.172.172,0,1,0,.172.173.172.172,0,0,0-.172-.173m0,.422a.25.25,0,1,1,.249-.249.25.25,0,0,1-.249.249" transform="translate(-34.888 -91.547)"/><path d="M161.327,110.888a.087.087,0,1,1-.087-.087.087.087,0,0,1,.087.087" transform="translate(-34.842 -91.501)"/><path d="M161.8,111.258a.169.169,0,0,1-.138.071.172.172,0,0,1,0-.344.161.161,0,0,1,.09.027c-.007-.031-.015-.063-.024-.1a.258.258,0,0,0-.066-.01.25.25,0,0,0,0,.5.244.244,0,0,0,.152-.055c0-.031-.008-.063-.014-.1" transform="translate(-34.741 -91.459)"/><path d="M161.7,111.111a.087.087,0,1,1-.087-.088.087.087,0,0,1,.087.088" transform="translate(-34.694 -91.413)"/><path d="M161.642,110.741a.172.172,0,1,1-.158-.277l-.048-.067a.246.246,0,0,0-.178.236.25.25,0,0,0,.249.25.247.247,0,0,0,.168-.066l-.034-.077" transform="translate(-34.8 -91.662)"/><path d="M161.55,110.591a.087.087,0,1,1-.088-.087.088.088,0,0,1,.088.087" transform="translate(-34.753 -91.62)"/><path d="M161.137,110.391a.172.172,0,1,0,.172.172.172.172,0,0,0-.172-.172m0,.422a.25.25,0,1,1,.25-.25.25.25,0,0,1-.25.25" transform="translate(-34.947 -91.695)"/><path d="M161.179,110.517a.087.087,0,1,1-.088-.088.089.089,0,0,1,.088.088" transform="translate(-34.901 -91.649)"/><path d="M160.692,110.317a.172.172,0,1,0,.172.172.172.172,0,0,0-.172-.172m0,.422a.25.25,0,1,1,.249-.25.251.251,0,0,1-.249.25" transform="translate(-35.125 -91.725)"/><path d="M160.733,110.443a.087.087,0,1,1-.087-.088.087.087,0,0,1,.087.088" transform="translate(-35.079 -91.679)"/><path d="M160.246,110.243a.172.172,0,1,0,.172.172.172.172,0,0,0-.172-.172m0,.421a.25.25,0,1,1,.25-.249.249.249,0,0,1-.25.249" transform="translate(-35.302 -91.755)"/><path d="M160.288,110.369a.087.087,0,1,1-.088-.088.087.087,0,0,1,.088.088" transform="translate(-35.256 -91.708)"/><path d="M159.8,110.317a.172.172,0,1,0,.172.172.172.172,0,0,0-.172-.172m0,.422a.25.25,0,1,1,.249-.25.251.251,0,0,1-.249.25" transform="translate(-35.48 -91.725)"/><path d="M159.842,110.443a.087.087,0,0,1-.087.088.088.088,0,0,1,0-.176.087.087,0,0,1,.087.088" transform="translate(-35.434 -91.679)"/><path d="M159.281,110.466a.171.171,0,1,0,.172.172.172.172,0,0,0-.172-.172m0,.421a.25.25,0,1,1,.25-.249.249.249,0,0,1-.25.249" transform="translate(-35.687 -91.666)"/><path d="M159.323,110.591a.087.087,0,1,1-.088-.087.088.088,0,0,1,.088.087" transform="translate(-35.641 -91.62)"/><path d="M159.254,110.264a.25.25,0,1,0,.337-.236c-.038.021-.074.042-.11.064l.024,0a.172.172,0,1,1-.172.172.169.169,0,0,1,.021-.08c-.035.027-.067.053-.1.083" transform="translate(-35.598 -91.809)"/><path d="M159.546,110.22a.089.089,0,0,1-.088.088.087.087,0,1,1,.088-.088" transform="translate(-35.552 -91.767)"/><path d="M159.949,109.939a.172.172,0,1,1-.172.172.172.172,0,0,1,.172-.172m0,.421a.249.249,0,0,0,.108-.474,2.534,2.534,0,0,0-.294.06.247.247,0,0,0-.063.165.249.249,0,0,0,.249.249" transform="translate(-35.421 -91.866)"/><path d="M159.991,110.072a.087.087,0,1,1-.087-.088.087.087,0,0,1,.087.088" transform="translate(-35.375 -91.827)"/><path d="M160.543,109.946a.172.172,0,1,0,.172.172.172.172,0,0,0-.172-.172m0,.421a.25.25,0,1,1,.25-.249.251.251,0,0,1-.25.249" transform="translate(-35.184 -91.873)"/><path d="M160.585,110.072a.087.087,0,1,1-.088-.088.087.087,0,0,1,.088.088" transform="translate(-35.138 -91.827)"/><path d="M160.989,110.431a.251.251,0,0,0,.249-.25v-.008c-.029-.02-.06-.039-.091-.057a.146.146,0,0,1,.014.066.172.172,0,1,1-.208-.168c-.032-.014-.067-.028-.1-.041a.25.25,0,0,0,.137.459" transform="translate(-35.007 -91.832)"/><path d="M161.03,110.146a.087.087,0,1,1-.088-.088.088.088,0,0,1,.088.088" transform="translate(-34.961 -91.797)"/><path d="M158.84,112.205l4.064.064a2.634,2.634,0,0,0-.564-1.737,1.924,1.924,0,0,0-1.445-.587h-.069a1.852,1.852,0,0,0-1.405.537,2.623,2.623,0,0,0-.582,1.723m4.116.12-4.167-.067v-.024c-.234-.148-.213-1.287.435-1.972a2.217,2.217,0,0,1,1.586-.506c.024,0,.078-.01.1-.01a2.061,2.061,0,0,1,1.471.75,2.707,2.707,0,0,1,.576,1.8Z" transform="translate(-35.839 -91.921)"/><path class="d" d="M158.465,116.713s-1.417-2.537.122-4.6a3.272,3.272,0,0,1,5.208.242,4.693,4.693,0,0,1-.354,4.455Z" transform="translate(-36.15 -91.449)"/><path class="d" d="M158.465,116.713s-1.417-2.537.122-4.6a3.272,3.272,0,0,1,5.208.242,4.693,4.693,0,0,1-.354,4.455Z" transform="translate(-36.15 -91.449)"/><path class="f" d="M159.8,112.879c.92,0,1.666-.415,1.666-.926,0-.485-.675-.884-1.533-.922a2.866,2.866,0,0,0-1.5,1.039c-.06.08-.113.161-.165.242a1.978,1.978,0,0,0,1.535.566" transform="translate(-35.993 -91.409)"/><path d="M158.464,116.713l4.976.1a4.693,4.693,0,0,0,.354-4.455,3.32,3.32,0,0,0-4.117-1.126l-.062.032a4.2,4.2,0,0,1,2.205.372c.632.492.152.694-.536.659a3.345,3.345,0,0,0-2.893,1.6c-.183.394-.354.562-.519.629a5.463,5.463,0,0,0,.592,2.194" transform="translate(-36.149 -91.448)"/><path d="M158.39,113.064a.172.172,0,1,0,.172.172.173.173,0,0,0-.172-.172m0,.421a.25.25,0,1,1,.25-.249.251.251,0,0,1-.25.249" transform="translate(-36.042 -90.631)"/><path d="M158.432,113.19a.087.087,0,1,1-.088-.088.087.087,0,0,1,.088.088" transform="translate(-35.996 -90.584)"/><path d="M158.048,113.31a.172.172,0,0,1-.172.172h-.006v.077h.006a.25.25,0,0,0,.249-.25.247.247,0,0,0-.234-.248c0,.025,0,.05-.007.077a.172.172,0,0,1,.164.171" transform="translate(-36.15 -90.6)"/><path d="M157.876,113.352a.087.087,0,1,0,0-.175c0,.057-.006.116-.007.173h.006" transform="translate(-36.15 -90.555)"/><path d="M158.07,112.693a.172.172,0,1,1-.15.255c-.006.034-.013.067-.018.1a.251.251,0,1,0,.09-.42c-.008.034-.017.066-.024.1a.164.164,0,0,1,.1-.035" transform="translate(-36.137 -90.778)"/><path d="M158.135,112.819a.087.087,0,1,1-.087-.088.087.087,0,0,1,.087.088" transform="translate(-36.114 -90.732)"/><path d="M158.167,113.509a.172.172,0,1,0,.172.172.172.172,0,0,0-.172-.172m0,.422a.25.25,0,1,1,.25-.25.25.25,0,0,1-.25.25" transform="translate(-36.131 -90.453)"/><path d="M158.209,113.635a.087.087,0,1,1-.088-.087.088.088,0,0,1,.088.087" transform="translate(-36.085 -90.407)"/><path d="M158.613,112.693a.172.172,0,1,0,.172.172.172.172,0,0,0-.172-.172m0,.421a.25.25,0,1,1,.25-.249.25.25,0,0,1-.25.249" transform="translate(-35.953 -90.778)"/><path d="M158.655,112.819a.088.088,0,1,1-.088-.088.088.088,0,0,1,.088.088" transform="translate(-35.907 -90.732)"/><path d="M158.237,112.665a.172.172,0,1,1,.172-.172.172.172,0,0,1-.172.172m.249-.172a.249.249,0,0,0-.249-.249.271.271,0,0,0-.1.021c-.049.109-.092.218-.129.326a.25.25,0,0,0,.48-.1" transform="translate(-36.096 -90.926)"/><path d="M158.283,112.447a.087.087,0,0,1-.087.088.087.087,0,1,1,0-.175.086.086,0,0,1,.087.087" transform="translate(-36.055 -90.88)"/><path d="M158.613,112.247a.172.172,0,1,0,.172.172.173.173,0,0,0-.172-.172m0,.422a.25.25,0,1,1,.25-.25.251.251,0,0,1-.25.25" transform="translate(-35.953 -90.956)"/><path d="M158.655,112.373a.088.088,0,1,1-.176,0,.088.088,0,0,1,.176,0" transform="translate(-35.907 -90.91)"/><path d="M158.984,111.95a.172.172,0,1,0,.172.172.172.172,0,0,0-.172-.172m0,.422a.25.25,0,1,1,.25-.25.25.25,0,0,1-.25.25" transform="translate(-35.805 -91.074)"/><path d="M159.026,112.076a.087.087,0,1,1-.088-.088.089.089,0,0,1,.088.088" transform="translate(-35.759 -91.028)"/><path d="M158.635,112.048a.172.172,0,1,1-.172-.172.173.173,0,0,1,.172.172m-.414.06a.249.249,0,1,0,.242-.31.353.353,0,0,0-.042,0c-.074.1-.14.2-.2.306" transform="translate(-36.01 -91.104)"/><path d="M158.506,112a.087.087,0,1,1-.088-.088.088.088,0,0,1,.088.088" transform="translate(-35.966 -91.058)"/><path d="M158.836,111.505a.172.172,0,1,0,.172.172.172.172,0,0,0-.172-.172m0,.421a.25.25,0,1,1,.249-.249.25.25,0,0,1-.249.249" transform="translate(-35.865 -91.252)"/><path d="M158.877,111.631a.087.087,0,1,1-.087-.088.087.087,0,0,1,.087.088" transform="translate(-35.818 -91.206)"/><path d="M159.207,111.282a.172.172,0,1,0,.172.172.172.172,0,0,0-.172-.172m0,.422a.25.25,0,1,1,.25-.25.25.25,0,0,1-.25.25" transform="translate(-35.717 -91.34)"/><path d="M159.247,111.408a.087.087,0,1,1-.087-.088.087.087,0,0,1,.087.088" transform="translate(-35.67 -91.294)"/><path d="M159.058,112.321a.172.172,0,0,0,0,.344.172.172,0,1,0,0-.344m0,.422a.25.25,0,1,1,.25-.25.25.25,0,0,1-.25.25" transform="translate(-35.776 -90.926)"/><path d="M159.1,112.447a.087.087,0,1,1-.088-.087.088.088,0,0,1,.088.087" transform="translate(-35.73 -90.88)"/><path d="M159.43,112.1a.173.173,0,1,0,.172.173.173.173,0,0,0-.172-.173m0,.422a.25.25,0,1,1,.249-.249.25.25,0,0,1-.249.249" transform="translate(-35.628 -91.015)"/><path d="M159.471,112.225a.087.087,0,1,1-.087-.088.087.087,0,0,1,.087.088" transform="translate(-35.582 -90.969)"/><path d="M159.281,111.653a.172.172,0,1,0,.172.172.172.172,0,0,0-.172-.172m0,.422a.25.25,0,1,1,.25-.25.25.25,0,0,1-.25.25" transform="translate(-35.687 -91.192)"/><path d="M159.323,111.779a.087.087,0,1,1-.088-.088.089.089,0,0,1,.088.088" transform="translate(-35.641 -91.147)"/><path d="M159.578,111.052a.172.172,0,1,1-.172.172.173.173,0,0,1,.172-.172m0,.422a.249.249,0,0,0,.1-.475,3.244,3.244,0,0,0-.316.092.254.254,0,0,0-.038.133.25.25,0,0,0,.249.25" transform="translate(-35.569 -91.422)"/><path d="M159.62,111.185a.087.087,0,1,1-.088-.087.088.088,0,0,1,.088.087" transform="translate(-35.522 -91.383)"/><path d="M159.652,111.431a.172.172,0,1,0,.172.172.173.173,0,0,0-.172-.172m0,.421a.25.25,0,1,1,.25-.249.249.249,0,0,1-.25.249" transform="translate(-35.539 -91.281)"/><path d="M159.694,111.557a.087.087,0,1,1-.088-.088.087.087,0,0,1,.088.088" transform="translate(-35.493 -91.235)"/><path d="M159.727,111.8a.172.172,0,1,0,.171.172.172.172,0,0,0-.171-.172m0,.421a.25.25,0,1,1,.249-.249.25.25,0,0,1-.249.249" transform="translate(-35.51 -91.133)"/><path d="M159.768,111.928a.087.087,0,1,1-.087-.088.087.087,0,0,1,.087.088" transform="translate(-35.463 -91.087)"/><path d="M159.949,112.1a.173.173,0,0,0,0,.345.173.173,0,0,0,0-.345m0,.422a.25.25,0,1,1,.25-.249.249.249,0,0,1-.25.249" transform="translate(-35.421 -91.015)"/><path d="M159.991,112.225a.087.087,0,1,1-.087-.088.087.087,0,0,1,.087.088" transform="translate(-35.375 -90.969)"/><path d="M160.024,111.059a.172.172,0,1,0,.172.172.173.173,0,0,0-.172-.172m0,.422a.25.25,0,1,1,.249-.25.25.25,0,0,1-.249.25" transform="translate(-35.391 -91.429)"/><path d="M160.065,111.185a.087.087,0,1,1-.088-.087.088.088,0,0,1,.088.087" transform="translate(-35.345 -91.383)"/><path d="M160.321,111.8a.172.172,0,1,0,.171.172.172.172,0,0,0-.171-.172m0,.421a.25.25,0,1,1,.249-.249.25.25,0,0,1-.249.249" transform="translate(-35.273 -91.133)"/><path d="M160.362,111.928a.087.087,0,1,1-.087-.088.087.087,0,0,1,.087.088" transform="translate(-35.227 -91.087)"/><path d="M160.024,111.505a.172.172,0,1,0,.172.172.172.172,0,0,0-.172-.172m0,.421a.25.25,0,1,1,.249-.249.25.25,0,0,1-.249.249" transform="translate(-35.391 -91.252)"/><path d="M160.065,111.631a.087.087,0,1,1-.175,0,.087.087,0,1,1,.175,0" transform="translate(-35.345 -91.206)"/><path d="M160.469,110.973a.172.172,0,1,1-.172.172.172.172,0,0,1,.172-.172m0,.422a.251.251,0,0,0,.25-.25.254.254,0,0,0-.071-.175c-.106-.015-.213-.025-.319-.032a.251.251,0,0,0,.14.457" transform="translate(-35.214 -91.447)"/><path d="M160.511,111.111a.088.088,0,0,1-.088.088.088.088,0,0,1,0-.176.088.088,0,0,1,.088.088" transform="translate(-35.168 -91.413)"/><path d="M160.4,111.356a.172.172,0,1,0,.172.172.172.172,0,0,0-.172-.172m0,.422a.25.25,0,1,1,.249-.25.25.25,0,0,1-.249.25" transform="translate(-35.243 -91.311)"/><path d="M160.436,111.482a.087.087,0,1,1-.087-.087.087.087,0,0,1,.087.087" transform="translate(-35.197 -91.265)"/><path d="M160.766,111.208a.172.172,0,1,0,.172.172.172.172,0,0,0-.172-.172m0,.421a.25.25,0,1,1,.25-.249.25.25,0,0,1-.25.249" transform="translate(-35.096 -91.37)"/><path d="M160.808,111.334a.09.09,0,0,1-.088.088.089.089,0,0,1-.088-.088.088.088,0,0,1,.088-.088.089.089,0,0,1,.088.088" transform="translate(-35.049 -91.324)"/><path d="M161.137,111.127a.172.172,0,1,1-.172.172.172.172,0,0,1,.172-.172m0,.421a.25.25,0,0,0,.25-.249.266.266,0,0,0-.017-.088,3.471,3.471,0,0,0-.341-.137.249.249,0,0,0,.108.474" transform="translate(-34.947 -91.392)"/><path d="M161.179,111.26a.087.087,0,1,1-.088-.088.087.087,0,0,1,.088.088" transform="translate(-34.901 -91.353)"/><path d="M161.063,111.505a.172.172,0,1,0,.172.172.172.172,0,0,0-.172-.172m0,.421a.25.25,0,1,1,.25-.249.25.25,0,0,1-.25.249" transform="translate(-34.977 -91.252)"/><path d="M161.105,111.631a.09.09,0,0,1-.088.088.089.089,0,0,1-.088-.088.088.088,0,0,1,.088-.088.089.089,0,0,1,.088.088" transform="translate(-34.931 -91.206)"/><path d="M160.989,111.95a.172.172,0,1,0,.172.172.172.172,0,0,0-.172-.172m0,.422a.25.25,0,1,1,.249-.25.25.25,0,0,1-.249.25" transform="translate(-35.007 -91.074)"/><path d="M161.03,112.076a.087.087,0,1,1-.088-.088.089.089,0,0,1,.088.088" transform="translate(-34.961 -91.028)"/><path d="M160.692,111.653a.172.172,0,1,0,.172.172.172.172,0,0,0-.172-.172m0,.422a.25.25,0,1,1,.249-.25.25.25,0,0,1-.249.25" transform="translate(-35.125 -91.192)"/><path d="M160.733,111.779a.087.087,0,1,1-.175,0,.087.087,0,1,1,.175,0" transform="translate(-35.079 -91.147)"/><path d="M160.543,112.1a.173.173,0,1,0,.172.173.173.173,0,0,0-.172-.173m0,.422a.25.25,0,1,1,.25-.249.251.251,0,0,1-.25.249" transform="translate(-35.184 -91.015)"/><path d="M160.585,112.225a.087.087,0,1,1-.088-.088.087.087,0,0,1,.088.088" transform="translate(-35.138 -90.969)"/><path d="M161.137,112.321a.172.172,0,1,0,.172.172.173.173,0,0,0-.172-.172m0,.422a.25.25,0,1,1,.25-.25.25.25,0,0,1-.25.25" transform="translate(-34.947 -90.926)"/><path d="M161.179,112.447a.087.087,0,1,1-.088-.087.088.088,0,0,1,.088.087" transform="translate(-34.901 -90.88)"/><path d="M161.508,111.356a.172.172,0,1,1-.172.172.172.172,0,0,1,.172-.172m0,.422a.25.25,0,0,0,.25-.25.241.241,0,0,0-.02-.1,2.7,2.7,0,0,0-.234-.154.25.25,0,0,0,0,.5" transform="translate(-34.8 -91.311)"/><path d="M161.55,111.482a.087.087,0,1,1-.088-.087.088.088,0,0,1,.088.087" transform="translate(-34.753 -91.265)"/><path d="M161.8,111.728a.172.172,0,0,0-.172.172.172.172,0,0,0,.344,0,.171.171,0,0,0-.172-.172m0,.421a.25.25,0,1,1,.25-.249.249.249,0,0,1-.25.249" transform="translate(-34.681 -91.163)"/><path d="M161.847,111.854a.087.087,0,1,1-.088-.088.087.087,0,0,1,.088.088" transform="translate(-34.635 -91.117)"/><path d="M162.176,112.37a.248.248,0,0,0,.159-.059c-.011-.025-.021-.052-.032-.077a.168.168,0,0,1-.127.057.172.172,0,0,1-.014-.343c-.014-.024-.028-.048-.043-.071a.25.25,0,0,0,.057.492" transform="translate(-34.533 -91.072)"/><path d="M162.218,112.076a.087.087,0,1,1-.088-.088.089.089,0,0,1,.088.088" transform="translate(-34.487 -91.028)"/><path d="M161.36,111.728a.171.171,0,0,0-.172.172.172.172,0,0,0,.344,0,.171.171,0,0,0-.172-.172m0,.421a.25.25,0,1,1,.249-.249.25.25,0,0,1-.249.249" transform="translate(-34.859 -91.163)"/><path d="M161.4,111.854a.086.086,0,0,1-.087.087.087.087,0,1,1,0-.175.087.087,0,0,1,.087.088" transform="translate(-34.813 -91.117)"/><path d="M161.508,112.1a.173.173,0,0,0,0,.345.173.173,0,0,0,0-.345m0,.422a.25.25,0,1,1,.25-.249.249.249,0,0,1-.25.249" transform="translate(-34.8 -91.015)"/><path d="M161.55,112.225a.087.087,0,1,1-.088-.088.087.087,0,0,1,.088.088" transform="translate(-34.753 -90.969)"/><path d="M161.88,112.173a.172.172,0,1,0,.171.172.172.172,0,0,0-.171-.172m0,.422a.25.25,0,1,1,.249-.25.25.25,0,0,1-.249.25" transform="translate(-34.652 -90.986)"/><path d="M161.921,112.3a.087.087,0,1,1-.087-.088.087.087,0,0,1,.087.088" transform="translate(-34.606 -90.939)"/><path d="M161.508,112.47a.172.172,0,1,0,.172.172.173.173,0,0,0-.172-.172m0,.421a.25.25,0,1,1,.25-.249.249.249,0,0,1-.25.249" transform="translate(-34.8 -90.867)"/><path d="M161.55,112.6a.087.087,0,1,1-.175,0,.087.087,0,1,1,.175,0" transform="translate(-34.753 -90.821)"/><path d="M161.731,112.841a.172.172,0,1,0,.172.172.172.172,0,0,0-.172-.172m0,.422a.25.25,0,1,1,.25-.25.252.252,0,0,1-.25.25" transform="translate(-34.711 -90.719)"/><path d="M161.773,112.967a.088.088,0,0,1-.088.088.088.088,0,0,1,0-.176.088.088,0,0,1,.088.088" transform="translate(-34.665 -90.673)"/><path d="M161.954,113.138a.172.172,0,1,0,.172.172.172.172,0,0,0-.172-.172m0,.422a.25.25,0,1,1,.249-.25.251.251,0,0,1-.249.25" transform="translate(-34.622 -90.601)"/><path d="M161.995,113.264a.087.087,0,0,1-.087.088.088.088,0,0,1-.088-.088.087.087,0,0,1,.088-.087.085.085,0,0,1,.087.087" transform="translate(-34.576 -90.555)"/><path d="M162.028,113.658a.172.172,0,1,0,.172.172.172.172,0,0,0-.172-.172m0,.421a.25.25,0,1,1,.25-.249.25.25,0,0,1-.25.249" transform="translate(-34.593 -90.394)"/><path d="M162.07,113.784a.088.088,0,1,1-.088-.088.088.088,0,0,1,.088.088" transform="translate(-34.547 -90.348)"/><path d="M162.325,113.63a.171.171,0,1,1,.172-.172.172.172,0,0,1-.172.172m0-.421a.25.25,0,1,0,.192.408c.008-.1.014-.2.017-.3a.251.251,0,0,0-.208-.112" transform="translate(-34.474 -90.542)"/><path d="M162.367,113.412a.089.089,0,0,1-.088.088.087.087,0,1,1,.088-.088" transform="translate(-34.428 -90.496)"/><path d="M161.954,112.544a.172.172,0,1,0,.172.172.172.172,0,0,0-.172-.172m0,.422a.25.25,0,1,1,.249-.25.25.25,0,0,1-.249.25" transform="translate(-34.622 -90.837)"/><path d="M161.995,112.67a.087.087,0,0,1-.087.088.088.088,0,0,1-.088-.088.087.087,0,0,1,.088-.087.085.085,0,0,1,.087.087" transform="translate(-34.576 -90.791)"/><path d="M162.251,112.743a.247.247,0,0,0,.2-.108c-.01-.043-.021-.087-.034-.129a.174.174,0,1,1-.036-.119c-.014-.042-.028-.084-.043-.127a.244.244,0,0,0-.091-.017.25.25,0,1,0,0,.5" transform="translate(-34.504 -90.926)"/><path d="M162.292,112.447a.087.087,0,1,1-.087-.087.087.087,0,0,1,.087.087" transform="translate(-34.458 -90.88)"/><path d="M162.251,112.841a.172.172,0,1,0,.172.172.172.172,0,0,0-.172-.172m0,.422a.25.25,0,1,1,.249-.25.251.251,0,0,1-.249.25" transform="translate(-34.504 -90.719)"/><path d="M162.292,112.967a.087.087,0,1,1-.087-.088.087.087,0,0,1,.087.088" transform="translate(-34.458 -90.673)"/><path d="M158.551,116.723l4.943.1a4.688,4.688,0,0,0,.345-4.415A3.1,3.1,0,0,0,161.124,111a3,3,0,0,0-2.446,1.166c-1.453,1.949-.235,4.356-.127,4.559m4.973.15-5.005-.1-.008-.014c-.014-.025-1.707-2.864-.176-4.918a3.531,3.531,0,0,1,2.784-1.005,3.246,3.246,0,0,1,2.769,1.537,4.749,4.749,0,0,1-.355,4.483Z" transform="translate(-36.22 -91.486)"/><path class="d" d="M161.091,112.345a2.466,2.466,0,0,0-2.842,2.291c-.236,3.095,1.383,3.991,2.5,4.082.973.077,2.387-.545,2.556-3.128.154-2.363-.973-3.114-2.219-3.244" transform="translate(-36.008 -90.891)"/><path d="M160.9,117.912c-2.044-.018-2.661-3.032-2.573-4.142,0,0-.027.07-.066.19,0,.034-.007.067-.01.1-.236,3.095,1.383,3.991,2.5,4.082a2.034,2.034,0,0,0,.913-.14,1.856,1.856,0,0,0-.769-.092" transform="translate(-36.008 -90.318)"/><path d="M159.281,114.046a1.265,1.265,0,0,1-.769.122,1.408,1.408,0,0,0,.578.158,2.438,2.438,0,0,0,.991-.152c.05-.064-.045-.085-.045-.085a3.519,3.519,0,0,0-.755-.042" transform="translate(-35.894 -90.214)"/><path d="M159.718,113.477a1.4,1.4,0,0,0-1.389.213,3.107,3.107,0,0,0-.084.527c0,.042,0,.081-.007.122.513-.007.619-.592,1.274-.48.786.143.881,1.415.881,1.415a4.943,4.943,0,0,0,.1-.863c.027-.571-.772-.934-.772-.934" transform="translate(-36.003 -90.472)"/><path d="M160.763,112.506a7.122,7.122,0,0,0,.778-.083,3.168,3.168,0,0,0-.449-.078,2.466,2.466,0,0,0-2.842,2.291,6.875,6.875,0,0,0,0,1.113l.049.035s-.434-3.123,2.465-3.278" transform="translate(-36.008 -90.891)"/><path d="M161.656,113.959s.224-.007.25.087-.315.241-.747.341l-.032.045s.379.022.555.022.189.031.172.055a2.142,2.142,0,0,1-.512.052c-.234.006.7.169,1.021.013.222-.112.259,2.007-.727,2.994a2.29,2.29,0,0,1-2.414.343,1.375,1.375,0,0,0-.15-.064,2.559,2.559,0,0,0,1.342.513c.975.077,2.389-.545,2.558-3.128a4.011,4.011,0,0,0-.291-2c-1.31.155-1.026.727-1.026.727" transform="translate(-35.671 -90.533)"/><path d="M160.537,112.345a3.038,3.038,0,0,0-.92.059.5.5,0,0,0,.043.039,2.964,2.964,0,0,1,1.681.617c.447.531.3.765.228.772s-1.228.21-1.245,1.015.031,1.534-.168,1.552-.043.19.19.138.337-.268.475-.268.225-.359.052-.477c0,0-.143-.916.078-1.141a.9.9,0,0,1,1.129-.25c.481.246.457.393.67.31a2.313,2.313,0,0,0-2.214-2.366" transform="translate(-35.454 -90.891)"/><path d="M160.836,112.367a2.412,2.412,0,0,0-2.552,2.279c-.215,2.823,1.14,3.945,2.479,4.051.052,0,.1.007.157.007,1.047,0,2.131-.825,2.37-3.109.213-2.022-.386-3.194-2.194-3.216-.082,0-.169-.013-.26-.013m.084,6.391h0c-.055,0-.108,0-.161-.006-1.366-.109-2.748-1.246-2.53-4.11a2.452,2.452,0,0,1,2.607-2.33c.092,0,.182.006.266.014a2.392,2.392,0,0,1,1.653.794,3.436,3.436,0,0,1,.59,2.479c-.152,2.328-1.352,3.158-2.425,3.158" transform="translate(-36.016 -90.899)"/><path d="M159.842,113.357a.217.217,0,0,0,.175.144.18.18,0,0,0,.178-.252.207.207,0,0,0-.313-.046.3.3,0,0,1,.172-.133c.1-.02.317.02.357.176a.322.322,0,0,1-.169.394c-.151.049-.487-.01-.4-.284" transform="translate(-35.37 -90.599)"/><path d="M159.98,116.06s-.224.078-.19.187c.041.138.252-.143.529-.021s.33-.169.166-.211a1.454,1.454,0,0,0-.5.045" transform="translate(-35.386 -89.428)"/><path class="d" d="M161.992,114.609s.127-.915.622-.847c.58.078.5.717.347,1.124a14.812,14.812,0,0,0-.727,1.886c-.18.691-.744.51-.657.06a5.521,5.521,0,0,0,.415-2.224" transform="translate(-34.677 -90.323)"/><path d="M162.806,115.092c.207-.489.036-1-.316-.917-.38.094-.506,1.091-.506,1.091l-.036.052a7.8,7.8,0,0,1-.371,1.354c-.087.45.477.631.657-.06a9.82,9.82,0,0,1,.572-1.519" transform="translate(-34.677 -90.161)"/><path d="M162.556,113.9c-.4,0-.509.768-.51.775a4.175,4.175,0,0,1-.28,1.74,2.073,2.073,0,0,0-.109.344.317.317,0,0,0,.053.267.2.2,0,0,0,.158.076c.12,0,.275-.108.355-.411a8.931,8.931,0,0,1,.512-1.373c.069-.152.127-.285.169-.394a1.081,1.081,0,0,0,.031-.819.432.432,0,0,0-.334-.2.248.248,0,0,0-.045,0m-.719,3.365a.273.273,0,0,1-.211-.1.4.4,0,0,1-.069-.33,2.345,2.345,0,0,1,.119-.378,4.4,4.4,0,0,0,.3-1.842c0-.039.127-.878.6-.878a.358.358,0,0,1,.055,0,.508.508,0,0,1,.4.241,1.2,1.2,0,0,1-.029.92c-.046.119-.109.262-.18.424a9.43,9.43,0,0,0-.545,1.46c-.092.354-.283.48-.431.48" transform="translate(-34.684 -90.331)"/><path d="M161.643,116.1l.19.312a8.66,8.66,0,0,0-.164,1.081c.025.13.606.008.674-.008a7.971,7.971,0,0,0-.069-1.254,3.381,3.381,0,0,1,.155-.434,14.318,14.318,0,0,1,.329,1.661c0,.337-.475.606-1.073.5-.5-.087-.537-.182-.285-.994.183-.594.242-.866.242-.866" transform="translate(-34.803 -89.511)"/><path d="M161.68,116.213c-.034.1-.113.355-.246.783-.137.447-.19.681-.116.8.053.087.175.122.38.158a1.575,1.575,0,0,0,.253.022c.442,0,.789-.218.789-.5a12.594,12.594,0,0,0-.309-1.573,2.354,2.354,0,0,0-.122.345c0,.011.007.088.017.183.1,1.005.08,1.085.032,1.1a2.724,2.724,0,0,1-.5.069c-.126,0-.193-.027-.2-.081a7.762,7.762,0,0,1,.164-1.082Zm.271,1.821a1.5,1.5,0,0,1-.262-.024c-.222-.039-.355-.078-.418-.183-.085-.14-.035-.373.11-.846.182-.587.263-.839.264-.842l.018-.057.206.348,0,.011a7.867,7.867,0,0,0-.164,1.07c0,.018.045.038.15.038a2.556,2.556,0,0,0,.484-.066,7.905,7.905,0,0,0-.064-1.04c-.013-.117-.018-.175-.018-.189a2.956,2.956,0,0,1,.158-.443l.032-.076.02.08a14.068,14.068,0,0,1,.33,1.667c0,.309-.371.552-.843.552" transform="translate(-34.811 -89.535)"/><path class="d" d="M158.545,114.609s-.127-.915-.624-.847c-.579.078-.5.717-.345,1.124a14.637,14.637,0,0,1,.726,1.886c.18.691.744.51.659.06a5.5,5.5,0,0,1-.415-2.224" transform="translate(-36.312 -90.323)"/><path d="M158.956,116.833a5.521,5.521,0,0,1-.415-2.224s-.127-.915-.624-.847a.477.477,0,0,0-.443.417l.024.015s.442-.224.545.355a6.067,6.067,0,0,0,.354,1.35c.165.39.225,1.228-.05.926a.523.523,0,0,0-.043-.038c.185.674.738.494.653.046" transform="translate(-36.308 -90.323)"/><path d="M157.994,113.887a.247.247,0,0,0-.045,0,.431.431,0,0,0-.337.2,1.088,1.088,0,0,0,.031.825c.042.112.1.245.169.4a8.955,8.955,0,0,1,.519,1.387c.08.306.238.415.358.415a.207.207,0,0,0,.161-.077.324.324,0,0,0,.053-.268,2.124,2.124,0,0,0-.11-.348,4.239,4.239,0,0,1-.283-1.759s-.113-.779-.516-.779m.722,3.38h0c-.148,0-.338-.126-.431-.48a9.433,9.433,0,0,0-.545-1.46c-.073-.162-.134-.3-.18-.424a1.2,1.2,0,0,1-.029-.92.508.508,0,0,1,.4-.241.359.359,0,0,1,.055,0c.471,0,.594.839.6.875a4.411,4.411,0,0,0,.3,1.845,2.338,2.338,0,0,1,.119.378.4.4,0,0,1-.069.33.271.271,0,0,1-.211.1" transform="translate(-36.32 -90.331)"/><path class="d" d="M158.895,116.1l-.19.312a8.658,8.658,0,0,1,.164,1.081c-.025.13-.606.008-.674-.008a7.968,7.968,0,0,1,.069-1.254,3.381,3.381,0,0,0-.155-.434,14.317,14.317,0,0,0-.329,1.661c0,.337.475.606,1.073.5.5-.087.537-.182.285-.994-.183-.594-.242-.866-.242-.866" transform="translate(-36.186 -89.511)"/><path d="M158.895,116.013l-.19.312a8.658,8.658,0,0,1,.164,1.081c-.018.094-.326.056-.522.022-.074.077-.176.092-.322,0a1.031,1.031,0,0,0-.245-.109v.049c0,.337.475.606,1.073.5.5-.087.537-.182.285-.994-.183-.594-.242-.866-.242-.866" transform="translate(-36.186 -89.425)"/><path d="M158.122,115.908a12.6,12.6,0,0,0-.309,1.573c0,.28.347.5.79.5a1.557,1.557,0,0,0,.252-.022c.206-.036.327-.071.38-.158.074-.122.021-.355-.116-.8-.131-.427-.2-.689-.228-.8l-.15.246a8.008,8.008,0,0,1,.162,1.082c-.011.055-.078.081-.2.081a5.313,5.313,0,0,1-.534-.022c-.046-.013-.039-.138.062-1.144.01-.1.017-.172.017-.183a2.352,2.352,0,0,0-.122-.345m.481,2.126h0c-.473,0-.843-.243-.843-.552a14.107,14.107,0,0,1,.329-1.667l.02-.08.032.076a2.954,2.954,0,0,1,.158.443c0,.014-.006.071-.018.189a7.625,7.625,0,0,0-.063,1.04,2.52,2.52,0,0,0,.482.066c.1,0,.147-.02.151-.038a8.136,8.136,0,0,0-.165-1.07l0-.011.232-.378.014.066s.062.277.242.863c.145.473.2.708.11.846-.063.1-.2.144-.418.183a1.5,1.5,0,0,1-.26.024" transform="translate(-36.194 -89.535)"/><path d="M159.542,115.766a2.527,2.527,0,0,0,.271.33c.214.217.312.052.468.088a.365.365,0,0,0,.4-.092c.088-.11.164-.331.2-.345a3.842,3.842,0,0,1-1.341.02" transform="translate(-35.484 -89.531)"/><path class="d" d="M159.562,115.763l.008.013a.533.533,0,0,0,.54.266.535.535,0,0,1,.292-.015c.2.039.2-.229.2-.229s-.091.018-.1,0a4.686,4.686,0,0,1-.94-.029" transform="translate(-35.476 -89.524)"/><path d="M159.542,115.766a3.663,3.663,0,0,0,.3.319.294.294,0,0,0,.172.087c.062,0,.129-.032.217-.034a.738.738,0,0,1,.116.02.505.505,0,0,0,.1.01.273.273,0,0,0,.18-.066c.1-.091.148-.246.249-.355a1.32,1.32,0,0,0-.088.2.682.682,0,0,1-.117.2.323.323,0,0,1-.221.1.661.661,0,0,1-.119-.008.731.731,0,0,0-.1-.017c-.06,0-.133.035-.221.028a.336.336,0,0,1-.211-.117,1.749,1.749,0,0,1-.261-.364" transform="translate(-35.484 -89.531)"/><path d="M160.247,115.817a6.152,6.152,0,0,1-.807-.053v-.013a5.308,5.308,0,0,0,1.643-.027l0,.013a4.014,4.014,0,0,1-.84.08" transform="translate(-35.524 -89.539)"/><path class="d" d="M161.075,115.792c-.266.071-.275-.055-.407-.171-.218-.194-.4.115-.4.115a.269.269,0,0,0-.438-.088c-.117.108-.218.2-.3.187a7.62,7.62,0,0,0,.815.041,5.117,5.117,0,0,0,.731-.084" transform="translate(-35.489 -89.606)"/><path d="M161.052,115.805a.289.289,0,0,1-.243.006c-.076-.049-.117-.119-.179-.161a.167.167,0,0,0-.185-.029.414.414,0,0,0-.154.145l-.042.063-.029-.067a.243.243,0,0,0-.3-.134.649.649,0,0,0-.165.112.626.626,0,0,1-.207.1c.063-.031.1-.091.147-.137a.874.874,0,0,1,.172-.134.345.345,0,0,1,.259,0,.322.322,0,0,1,.166.161l-.07,0a.446.446,0,0,1,.19-.176.229.229,0,0,1,.14-.014.253.253,0,0,1,.119.064c.064.057.1.133.159.176a.289.289,0,0,0,.221.029" transform="translate(-35.481 -89.617)"/><path d="M159.528,115.768c.26-.008.519.006.773,0s.513-.029.773-.045a2.874,2.874,0,0,1-.771.126,3.6,3.6,0,0,1-.776-.083" transform="translate(-35.489 -89.539)"/><path d="M159.689,115.777a.285.285,0,0,1-.2-.063c-.07-.063-.171-.024-.172.038s.035.113.2.064a.439.439,0,0,1,.19-.011Z" transform="translate(-35.573 -89.556)"/><path d="M160.487,115.752a.282.282,0,0,0,.2-.064c.07-.062.171-.024.172.038s-.035.112-.2.064a.426.426,0,0,0-.19-.01Z" transform="translate(-35.115 -89.567)"/><path d="M160.226,115.945a.252.252,0,0,1-.276-.2.482.482,0,0,0-.041-.085.222.222,0,0,0-.131-.067c-.081-.022-.182-.05-.192-.173a.256.256,0,0,1,.138-.27.237.237,0,0,0,.126-.155,6.529,6.529,0,0,0,.025-1.018.026.026,0,0,1,.025-.028.027.027,0,0,1,.029.025,6.243,6.243,0,0,1-.028,1.032.289.289,0,0,1-.148.19.2.2,0,0,0-.113.221c.006.08.062.1.151.124a.254.254,0,0,1,.162.09.541.541,0,0,1,.046.1.2.2,0,0,0,.225.162c.162,0,.2-.083.235-.178a.674.674,0,0,1,.046-.1.3.3,0,0,1,.171-.1c.092-.029.148-.053.15-.12a.168.168,0,0,0-.109-.175.306.306,0,0,1-.171-.215,6.5,6.5,0,0,1-.025-1.032.027.027,0,1,1,.053,0A6.568,6.568,0,0,0,160.6,115a.251.251,0,0,0,.143.18.216.216,0,0,1,.136.221c0,.112-.1.144-.187.172a.263.263,0,0,0-.141.077.606.606,0,0,0-.041.085.27.27,0,0,1-.285.213" transform="translate(-35.466 -90.246)"/><path d="M159.858,114.473c0,.215.022.379-.115.436s-.264.264-.166.4.2.1.26.12.048.232.246.273.264-.014.264-.014.021-.26-.08-.211c-.129.063-.176-.027-.281-.137s-.137-.109-.19-.109a.115.115,0,0,1-.07-.194c.092-.1.189-.1.189-.287a.551.551,0,0,0-.057-.273" transform="translate(-35.484 -90.038)"/><path d="M160.292,114.126h-.008a.029.029,0,0,1-.017-.035,1.267,1.267,0,0,1,1.17-.722,1.2,1.2,0,0,1,.975.439.027.027,0,0,1-.006.038.029.029,0,0,1-.039-.007,1.144,1.144,0,0,0-.927-.417,1.212,1.212,0,0,0-1.122.687.03.03,0,0,1-.027.018" transform="translate(-35.196 -90.479)"/><path d="M160.385,114.126a.027.027,0,0,1-.025-.018,1.215,1.215,0,0,0-1.123-.687,1.144,1.144,0,0,0-.927.417.027.027,0,1,1-.045-.031,1.2,1.2,0,0,1,.975-.439,1.265,1.265,0,0,1,1.171.722.027.027,0,0,1-.015.035h-.01" transform="translate(-35.994 -90.479)"/><path d="M160.548,114.113a1.7,1.7,0,0,1,.422-.115,1.6,1.6,0,0,1,.44-.006c.147.015.287.052.428.074.071.011.141.024.213.032a.594.594,0,0,0,.211,0l0,.01a.577.577,0,0,1-.218.025c-.073,0-.145,0-.217-.008-.145-.01-.289-.036-.428-.039s-.283,0-.424.011-.285.017-.429.028Z" transform="translate(-35.083 -90.235)"/><path d="M162.24,114.182h0a.78.78,0,0,1-.322-.183,1.009,1.009,0,0,0-.543-.259.86.86,0,0,0-.806.435.015.015,0,0,1-.018.007.013.013,0,0,1-.006-.018.883.883,0,0,1,.832-.45,1.015,1.015,0,0,1,.555.264.806.806,0,0,0,.312.179c.007,0,.011.008.01.015a.012.012,0,0,1-.013.011" transform="translate(-35.085 -90.343)"/><path d="M161.291,114.309a2.654,2.654,0,0,1-.722-.12.013.013,0,0,1-.008-.017.014.014,0,0,1,.017-.01,2.57,2.57,0,0,0,.737.12,1.881,1.881,0,0,0,.579-.115.933.933,0,0,1,.238-.055.014.014,0,0,1,.014.014.015.015,0,0,1-.014.014.79.79,0,0,0-.229.053,1.944,1.944,0,0,1-.587.115h-.024" transform="translate(-35.078 -90.182)"/><path d="M160.064,114.123c-.145-.01-.287-.021-.429-.027s-.283-.014-.424-.011-.282.029-.428.038c-.071.007-.144.01-.218.01a.6.6,0,0,1-.217-.025l0-.01a.6.6,0,0,0,.211,0c.071-.008.141-.021.213-.032.141-.022.281-.059.429-.074a1.593,1.593,0,0,1,.439.006,1.686,1.686,0,0,1,.422.115Z" transform="translate(-35.959 -90.235)"/><path d="M158.373,114.182a.013.013,0,0,1-.013-.011c0-.007,0-.015.01-.015a.806.806,0,0,0,.312-.179,1.015,1.015,0,0,1,.555-.264.883.883,0,0,1,.832.45.013.013,0,0,1-.006.018.015.015,0,0,1-.018-.007.862.862,0,0,0-.805-.435,1,1,0,0,0-.541.259.794.794,0,0,1-.323.183h0" transform="translate(-35.955 -90.343)"/><path d="M159.285,114.309h-.024a1.944,1.944,0,0,1-.587-.115.829.829,0,0,0-.229-.053.015.015,0,0,1-.014-.014.014.014,0,0,1,.014-.014.865.865,0,0,1,.238.055,1.881,1.881,0,0,0,.579.115,2.638,2.638,0,0,0,.737-.12.014.014,0,0,1,.017.01.013.013,0,0,1-.008.017,2.654,2.654,0,0,1-.722.12" transform="translate(-35.926 -90.182)"/><path d="M160.132,113.1a.278.278,0,1,0,.278.277.278.278,0,0,0-.278-.277m0,.61a.332.332,0,1,1,.333-.333.332.332,0,0,1-.333.333" transform="translate(-35.381 -90.609)"/><path d="M157.959,130.623a8.358,8.358,0,0,1,1.215,0c.3-.053.687-.336,1.075-.088s.441.281.758.141.6-.44,1.021-.194.442.211,1.094.071.793.14,1.127.193a4.017,4.017,0,0,0,1.04-.141c.44-.052,1.035.33,1.24.2s.68.312-.482.312-1.182-.406-3.155-.124a47.09,47.09,0,0,1-5.9.213,6.134,6.134,0,0,1,.971-.582" transform="translate(-36.504 -83.697)"/><path class="g" d="M177.757,130.83a19.693,19.693,0,0,0-.571,2.162c.052.13.362,2.18.362,2.18l-27.408-.12.727-2.046-.649-2.064Z" transform="translate(-39.229 -83.521)"/><path d="M176.417,132.391a.131.131,0,0,1,0-.052H152.072s8.1.45,13.773.45,10.347.519,10.485.969a3.18,3.18,0,0,0,.39.812h.06s-.312-2.05-.364-2.18" transform="translate(-38.46 -82.92)"/><path d="M150.2,130.942l.193.614a1.531,1.531,0,0,0,.716.192c.589,0,1.349-.347,1.73-.138a2.186,2.186,0,0,0,1.73.207c.657-.242.624-.277,1.126-.122a3.288,3.288,0,0,0,1.643.173c1.056-.052,2.215-.1,3.046-.1s1.108-.19,1.765-.155.8.172,1.315.207,1-.4,1.833-.207.814.329,1.4.207.622-.26,1.141-.122.52.347,1.229.173a4.6,4.6,0,0,1,2.007,0,3.626,3.626,0,0,0,1.748-.12c.536-.157.571-.243,1.108-.138a4.656,4.656,0,0,0,1.211.172c.571,0,.554-.225,1.073-.1a5.765,5.765,0,0,0,1.124.122l.109.008c.144-.5.289-.978.289-.978Z" transform="translate(-39.207 -83.521)"/><path d="M176.935,132.412H150.669a.027.027,0,0,1-.027-.027.027.027,0,0,1,.027-.028h26.267a.028.028,0,0,1,.027.028.027.027,0,0,1-.027.027" transform="translate(-39.03 -82.913)"/><path d="M151.531,131.357a7.1,7.1,0,0,0,.183.723,4.239,4.239,0,0,0,.287.688,1.566,1.566,0,0,1-.385-.656,2.146,2.146,0,0,1-.083-.373,1.587,1.587,0,0,1,0-.382" transform="translate(-38.68 -83.311)"/><path d="M152.347,131.357c.053.248.109.488.185.723a4.239,4.239,0,0,0,.287.688,1.568,1.568,0,0,1-.386-.656,2.144,2.144,0,0,1-.081-.373,1.519,1.519,0,0,1,0-.382" transform="translate(-38.355 -83.311)"/><path d="M153.164,131.357a7.1,7.1,0,0,0,.183.723,4.365,4.365,0,0,0,.287.688,1.566,1.566,0,0,1-.385-.656,2.022,2.022,0,0,1-.081-.373,1.517,1.517,0,0,1,0-.382" transform="translate(-38.029 -83.311)"/><path d="M153.981,131.357a7.1,7.1,0,0,0,.183.723,4.359,4.359,0,0,0,.285.688,1.6,1.6,0,0,1-.385-.656,2.144,2.144,0,0,1-.081-.373,1.518,1.518,0,0,1,0-.382" transform="translate(-37.704 -83.311)"/><path d="M154.8,131.357c.053.248.109.488.185.723a4.358,4.358,0,0,0,.285.688,1.58,1.58,0,0,1-.385-.656,2.025,2.025,0,0,1-.081-.373,1.517,1.517,0,0,1,0-.382" transform="translate(-37.378 -83.311)"/><path d="M155.783,131.349c.045.241.077.477.115.713s.08.468.123.709a2.1,2.1,0,0,1-.227-.694,3.137,3.137,0,0,1-.032-.364,2,2,0,0,1,.021-.365" transform="translate(-36.99 -83.314)"/><path d="M156.674,131.349c.045.241.076.477.115.713s.078.468.123.709a2.1,2.1,0,0,1-.227-.694,2.856,2.856,0,0,1-.032-.364,2,2,0,0,1,.021-.365" transform="translate(-36.635 -83.314)"/><path d="M157.565,131.349c.045.241.076.477.115.713s.078.468.123.709a2.033,2.033,0,0,1-.227-.694,2.856,2.856,0,0,1-.032-.364,2,2,0,0,1,.021-.365" transform="translate(-36.28 -83.314)"/><path d="M158.456,131.349c.045.241.076.477.115.713s.078.468.122.709a2.061,2.061,0,0,1-.225-.694,2.858,2.858,0,0,1-.032-.364,2,2,0,0,1,.021-.365" transform="translate(-35.925 -83.314)"/><path d="M159.449,131.356a5.992,5.992,0,0,1,.084.7c.013.235.025.47.015.709a3.088,3.088,0,0,1-.12-.7,3.354,3.354,0,0,1,.021-.71" transform="translate(-35.533 -83.311)"/><path d="M160.275,131.356a1.823,1.823,0,0,1,.13.337,2.779,2.779,0,0,1,.073.354,1.928,1.928,0,0,1-.027.722c-.022-.241-.043-.474-.076-.708s-.07-.466-.1-.7" transform="translate(-35.192 -83.311)"/><path d="M161.122,131.349a1.405,1.405,0,0,1,.164.331,2.1,2.1,0,0,1,.1.357,1.733,1.733,0,0,1-.021.734c-.018-.245-.041-.481-.081-.717s-.1-.467-.157-.7" transform="translate(-34.854 -83.314)"/><path d="M162.013,131.349a1.326,1.326,0,0,1,.18.326,1.839,1.839,0,0,1,.1.358,1.518,1.518,0,0,1-.043.738,4.369,4.369,0,0,0-.059-.72,4.93,4.93,0,0,0-.179-.7" transform="translate(-34.499 -83.314)"/><path d="M162.972,131.356a1.743,1.743,0,0,1,.1.344,2.551,2.551,0,0,1,.045.358,2.241,2.241,0,0,1-.014.362,1.264,1.264,0,0,1-.1.348,5.665,5.665,0,0,0,.007-.7c-.01-.235-.032-.468-.046-.708" transform="translate(-34.117 -83.311)"/><path d="M163.789,131.356a1.741,1.741,0,0,1,.1.344,2.364,2.364,0,0,1,.046.358,2.092,2.092,0,0,1-.015.362,1.217,1.217,0,0,1-.1.348,5.16,5.16,0,0,0,.007-.7c-.01-.235-.032-.468-.045-.708" transform="translate(-33.792 -83.311)"/><path d="M164.606,131.356a1.741,1.741,0,0,1,.1.344,2.555,2.555,0,0,1,.045.358,1.962,1.962,0,0,1-.014.362,1.217,1.217,0,0,1-.1.348,5.4,5.4,0,0,0,.007-.7c-.01-.235-.032-.468-.045-.708" transform="translate(-33.466 -83.311)"/><path d="M165.422,131.356a1.741,1.741,0,0,1,.1.344,2.366,2.366,0,0,1,.046.358,2.094,2.094,0,0,1-.014.362,1.264,1.264,0,0,1-.1.348,5.662,5.662,0,0,0,.007-.7c-.011-.235-.034-.468-.046-.708" transform="translate(-33.141 -83.311)"/><path d="M166.239,131.356a1.741,1.741,0,0,1,.1.344,2.368,2.368,0,0,1,.045.358,2.093,2.093,0,0,1-.014.362,1.218,1.218,0,0,1-.1.348,5.165,5.165,0,0,0,.007-.7c-.01-.235-.032-.468-.045-.708" transform="translate(-32.815 -83.311)"/><path d="M167.055,131.356a1.745,1.745,0,0,1,.1.344,2.555,2.555,0,0,1,.045.358,1.961,1.961,0,0,1-.014.362,1.263,1.263,0,0,1-.1.348,5.4,5.4,0,0,0,.007-.7c-.01-.235-.032-.468-.046-.708" transform="translate(-32.49 -83.311)"/><path d="M167.872,131.356a1.739,1.739,0,0,1,.1.344,2.2,2.2,0,0,1,.045.358,1.963,1.963,0,0,1-.014.362,1.215,1.215,0,0,1-.1.348,5.665,5.665,0,0,0,.007-.7c-.011-.235-.034-.468-.046-.708" transform="translate(-32.165 -83.311)"/><path d="M168.689,131.356a1.739,1.739,0,0,1,.1.344,2.366,2.366,0,0,1,.045.358,2.1,2.1,0,0,1-.014.362,1.219,1.219,0,0,1-.1.348,5.165,5.165,0,0,0,.007-.7c-.01-.235-.032-.468-.045-.708" transform="translate(-31.839 -83.311)"/><path d="M151.531,133.8a1.586,1.586,0,0,1,0-.382,2.161,2.161,0,0,1,.083-.375,1.57,1.57,0,0,1,.385-.654,4.174,4.174,0,0,0-.287.687,7.038,7.038,0,0,0-.183.724" transform="translate(-38.68 -82.9)"/><path d="M152.347,133.8a1.517,1.517,0,0,1,0-.382,2.159,2.159,0,0,1,.081-.375,1.572,1.572,0,0,1,.386-.654,4.174,4.174,0,0,0-.287.687,7.426,7.426,0,0,0-.185.724" transform="translate(-38.355 -82.9)"/><path d="M153.164,133.8a1.516,1.516,0,0,1,0-.382,2.037,2.037,0,0,1,.081-.375,1.57,1.57,0,0,1,.385-.654,4.3,4.3,0,0,0-.287.687,7.034,7.034,0,0,0-.183.724" transform="translate(-38.029 -82.9)"/><path d="M153.981,133.8a1.517,1.517,0,0,1,0-.382,2.159,2.159,0,0,1,.081-.375,1.6,1.6,0,0,1,.385-.654,4.29,4.29,0,0,0-.285.687,7.034,7.034,0,0,0-.183.724" transform="translate(-37.704 -82.9)"/><path d="M154.8,133.8a1.516,1.516,0,0,1,0-.382,2.039,2.039,0,0,1,.081-.375,1.584,1.584,0,0,1,.385-.654,4.289,4.289,0,0,0-.285.687,7.413,7.413,0,0,0-.185.724" transform="translate(-37.378 -82.9)"/><path d="M155.783,133.81a1.992,1.992,0,0,1-.021-.365,3.165,3.165,0,0,1,.032-.364,2.087,2.087,0,0,1,.227-.692c-.043.239-.087.473-.123.709s-.07.471-.115.712" transform="translate(-36.99 -82.9)"/><path d="M156.674,133.81a1.994,1.994,0,0,1-.021-.365,2.879,2.879,0,0,1,.032-.364,2.089,2.089,0,0,1,.227-.692c-.045.239-.088.473-.123.709s-.07.471-.115.712" transform="translate(-36.635 -82.9)"/><path d="M157.565,133.81a1.991,1.991,0,0,1-.021-.365,2.879,2.879,0,0,1,.032-.364,2.026,2.026,0,0,1,.227-.692c-.045.239-.088.473-.123.709s-.07.471-.115.712" transform="translate(-36.28 -82.9)"/><path d="M158.456,133.81a1.992,1.992,0,0,1-.021-.365,2.882,2.882,0,0,1,.032-.364,2.054,2.054,0,0,1,.225-.692c-.043.239-.087.473-.122.709s-.07.471-.115.712" transform="translate(-35.925 -82.9)"/><path d="M159.462,133.786a2.127,2.127,0,0,1-.042-.351c-.006-.117,0-.235,0-.352a2.6,2.6,0,0,1,.126-.694c0,.236-.01.467-.022.7s-.028.463-.063.7" transform="translate(-35.534 -82.9)"/><path d="M160.232,133.81a5.175,5.175,0,0,0,.183-.7,3.512,3.512,0,0,0,.053-.72,1.423,1.423,0,0,1,.049.738,1.947,1.947,0,0,1-.1.358,1.369,1.369,0,0,1-.182.324" transform="translate(-35.209 -82.9)"/><path d="M161.122,133.81c.063-.238.124-.47.168-.7a3.79,3.79,0,0,0,.07-.716,1.442,1.442,0,0,1,.032.736,2.074,2.074,0,0,1-.1.357,1.555,1.555,0,0,1-.169.329" transform="translate(-34.854 -82.9)"/><path d="M162.013,133.81a4.257,4.257,0,0,0,.187-.7,3.826,3.826,0,0,0,.05-.72,1.485,1.485,0,0,1,.052.738,1.763,1.763,0,0,1-.1.359,1.237,1.237,0,0,1-.186.323" transform="translate(-34.499 -82.9)"/><path d="M162.972,133.8c.014-.241.036-.474.046-.708a5.66,5.66,0,0,0-.007-.7,1.251,1.251,0,0,1,.1.348,2.223,2.223,0,0,1,.014.361,2.551,2.551,0,0,1-.045.358,1.755,1.755,0,0,1-.1.345" transform="translate(-34.117 -82.9)"/><path d="M163.789,133.8c.013-.241.035-.474.045-.708a5.156,5.156,0,0,0-.007-.7,1.2,1.2,0,0,1,.1.348,2.076,2.076,0,0,1,.015.361,2.364,2.364,0,0,1-.046.358,1.754,1.754,0,0,1-.1.345" transform="translate(-33.792 -82.9)"/><path d="M164.606,133.8c.013-.241.035-.474.045-.708a5.394,5.394,0,0,0-.007-.7,1.2,1.2,0,0,1,.1.348,1.947,1.947,0,0,1,.014.361,2.555,2.555,0,0,1-.045.358,1.754,1.754,0,0,1-.1.345" transform="translate(-33.466 -82.9)"/><path d="M165.422,133.8c.013-.241.035-.474.046-.708a5.658,5.658,0,0,0-.007-.7,1.251,1.251,0,0,1,.1.348,2.078,2.078,0,0,1,.014.361,2.366,2.366,0,0,1-.046.358,1.754,1.754,0,0,1-.1.345" transform="translate(-33.141 -82.9)"/><path d="M166.239,133.8c.013-.241.035-.474.045-.708a5.161,5.161,0,0,0-.007-.7,1.206,1.206,0,0,1,.1.348,2.077,2.077,0,0,1,.014.361,2.368,2.368,0,0,1-.045.358,1.754,1.754,0,0,1-.1.345" transform="translate(-32.815 -82.9)"/><path d="M167.055,133.8c.014-.241.036-.474.046-.708a5.394,5.394,0,0,0-.007-.7,1.25,1.25,0,0,1,.1.348,1.946,1.946,0,0,1,.014.361,2.555,2.555,0,0,1-.045.358,1.758,1.758,0,0,1-.1.345" transform="translate(-32.49 -82.9)"/><path d="M167.872,133.8c.013-.241.035-.474.046-.708a5.66,5.66,0,0,0-.007-.7,1.2,1.2,0,0,1,.1.348,1.948,1.948,0,0,1,.014.361,2.2,2.2,0,0,1-.045.358,1.752,1.752,0,0,1-.1.345" transform="translate(-32.165 -82.9)"/><path d="M168.689,133.8c.013-.241.035-.474.045-.708a5.161,5.161,0,0,0-.007-.7,1.207,1.207,0,0,1,.1.348,2.081,2.081,0,0,1,.014.361,2.366,2.366,0,0,1-.045.358,1.751,1.751,0,0,1-.1.345" transform="translate(-31.839 -82.9)"/><path d="M150.2,135.032l27.338.122c-.109-.716-.317-2.045-.357-2.144a16.118,16.118,0,0,1,.559-2.145l-27.465.113.642,2.036,0,.008Zm27.4.176h-.032l-27.446-.122.737-2.074-.783-2.075.162-.014,27.574-.113-.011.035a17.8,17.8,0,0,0-.571,2.145c.052.131.352,2.1.365,2.187Z" transform="translate(-39.253 -83.529)"/><path class="g" d="M150.486,131.224c.431.077.438.208.874.208s.438-.208.874-.208.436.208.874.208.436-.208.874-.208.436.208.874.208.438-.208.874-.208.436.208.873.208.438-.208.874-.208.438.208.874.208.436-.208.874-.208.436.208.873.208.438-.208.874-.208.438.208.875.208.436-.208.873-.208.438.208.874.208.436-.208.874-.208.436.208.874.208.438-.208.874-.208.438.208.874.208.438-.208.875-.208.436.208.874.208.436-.208.874-.208.438.208.874.208.436-.208.874-.208.438.208.874.208.438-.208.874-.208.438.208.874.208.438-.208.875-.208.436.208.874.208.438-.208.875-.208.438.208.874.208c0,0,.513-.046.552-.371s-.552-.253-.552-.253c-.436,0-.436-.208-.874-.208s-.438.208-.875.208-.438-.208-.874-.208-.438.208-.875.208-.436-.208-.874-.208-.436.208-.874.208-.436-.208-.874-.208-.438.208-.874.208-.436-.208-.874-.208-.438.208-.874.208-.438-.208-.874-.208-.438.208-.875.208-.436-.208-.874-.208-.436.208-.874.208-.438-.208-.874-.208-.438.208-.874.208-.436-.208-.874-.208-.436.208-.873.208-.438-.208-.875-.208-.436.208-.874.208-.436-.208-.873-.208-.438.208-.874.208-.436-.208-.874-.208-.436.208-.874.208-.436-.208-.873-.208-.436.208-.874.208-.438-.208-.874-.208-.438.208-.874.208-.438-.208-.874-.208-.436.208-.874.208-.45-.313-.874-.208c-.151.038-.882.468,0,.624" transform="translate(-39.262 -83.621)"/><path d="M175,131.3a.913.913,0,0,1,.449.108.852.852,0,0,0,.425.1.862.862,0,0,0,.427-.1.989.989,0,0,1,.9,0,.85.85,0,0,0,.424.1c.027,0,.491-.055.527-.345a.16.16,0,0,0-.036-.13.5.5,0,0,0-.358-.1c-.073,0-.127.006-.127.006h0a.941.941,0,0,1-.452-.1.836.836,0,0,0-.425-.1.846.846,0,0,0-.427.1,1.013,1.013,0,0,1-.9,0,.836.836,0,0,0-.425-.1.846.846,0,0,0-.427.1,1.01,1.01,0,0,1-.9,0,.846.846,0,0,0-.427-.1.836.836,0,0,0-.425.1,1.013,1.013,0,0,1-.9,0,.836.836,0,0,0-.425-.1c-.213,0-.22.1-.33.157a1.167,1.167,0,0,1-.51.137,1,1,0,0,1-.482-.192.936.936,0,0,0-.85,0,1.013,1.013,0,0,1-.9,0,.939.939,0,0,0-.852,0,1.013,1.013,0,0,1-.9,0,.936.936,0,0,0-.85,0,1.013,1.013,0,0,1-.9,0,.936.936,0,0,0-.85,0,1.013,1.013,0,0,1-.9,0,.936.936,0,0,0-.85,0,1.01,1.01,0,0,1-.9,0,.939.939,0,0,0-.852,0,1.01,1.01,0,0,1-.9,0,.936.936,0,0,0-.85,0,1.013,1.013,0,0,1-.9,0,.936.936,0,0,0-.85,0,1.01,1.01,0,0,1-.9,0,.936.936,0,0,0-.85,0,1.013,1.013,0,0,1-.9,0,.936.936,0,0,0-.85,0,1.013,1.013,0,0,1-.9,0,.936.936,0,0,0-.85,0,.917.917,0,0,1-.449.1.754.754,0,0,1-.429-.131.516.516,0,0,0-.284-.1.7.7,0,0,0-.154.02c-.1.025-.413.208-.407.355,0,.094.143.169.406.215a1.714,1.714,0,0,1,.39.115,1.073,1.073,0,0,0,.478.092.852.852,0,0,0,.425-.1.99.99,0,0,1,.9,0,.948.948,0,0,0,.85,0,.99.99,0,0,1,.9,0,.948.948,0,0,0,.85,0,.987.987,0,0,1,.9,0,.951.951,0,0,0,.852,0,.9.9,0,0,1,.448-.108.913.913,0,0,1,.449.108.948.948,0,0,0,.85,0,.987.987,0,0,1,.9,0,.951.951,0,0,0,.852,0,.987.987,0,0,1,.9,0,.948.948,0,0,0,.85,0,.99.99,0,0,1,.9,0,.948.948,0,0,0,.85,0,.99.99,0,0,1,.9,0,.852.852,0,0,0,.425.1.862.862,0,0,0,.427-.1.987.987,0,0,1,.9,0,.852.852,0,0,0,.425.1.862.862,0,0,0,.427-.1.987.987,0,0,1,.9,0,.951.951,0,0,0,.852,0,.99.99,0,0,1,.9,0,.948.948,0,0,0,.85,0,.989.989,0,0,1,.9,0,.948.948,0,0,0,.85,0,.99.99,0,0,1,.9,0,.951.951,0,0,0,.852,0A.913.913,0,0,1,175,131.3m2.625.263h0a.921.921,0,0,1-.45-.106.852.852,0,0,0-.425-.1.862.862,0,0,0-.427.1,1,1,0,0,1-.9,0,.852.852,0,0,0-.425-.1.862.862,0,0,0-.427.1,1,1,0,0,1-.9,0,.862.862,0,0,0-.427-.1.852.852,0,0,0-.425.1,1,1,0,0,1-.9,0,.948.948,0,0,0-.85,0,1,1,0,0,1-.9,0,.948.948,0,0,0-.85,0,1,1,0,0,1-.9,0,.951.951,0,0,0-.852,0,1,1,0,0,1-.9,0,.948.948,0,0,0-.85,0,1,1,0,0,1-.9,0,.948.948,0,0,0-.85,0,1,1,0,0,1-.9,0,.948.948,0,0,0-.85,0,1,1,0,0,1-.9,0,.948.948,0,0,0-.85,0,1,1,0,0,1-.9,0,.948.948,0,0,0-.85,0,1,1,0,0,1-.9,0,.948.948,0,0,0-.85,0,1,1,0,0,1-.9,0,.948.948,0,0,0-.85,0,1,1,0,0,1-.9,0,.948.948,0,0,0-.85,0,1,1,0,0,1-.9,0,.948.948,0,0,0-.85,0,.915.915,0,0,1-.449.106,1.137,1.137,0,0,1-.5-.1,1.68,1.68,0,0,0-.379-.112c-.3-.052-.579-.129-.583-.255-.007-.2.354-.566.442-.587.062-.015.5-.192.555-.192.136,0-.028.386.063.44a.693.693,0,0,0,.4.123.869.869,0,0,0,.425-.1.99.99,0,0,1,.9,0,.96.96,0,0,0,.85,0,.99.99,0,0,1,.9,0,.96.96,0,0,0,.85,0,.987.987,0,0,1,.9,0,.963.963,0,0,0,.852,0,.888.888,0,0,1,.448-.108.9.9,0,0,1,.449.108.96.96,0,0,0,.85,0,.987.987,0,0,1,.9,0,.963.963,0,0,0,.852,0,.987.987,0,0,1,.9,0,.96.96,0,0,0,.85,0,.99.99,0,0,1,.9,0,.96.96,0,0,0,.85,0,.99.99,0,0,1,.9,0,.869.869,0,0,0,.425.1.88.88,0,0,0,.427-.1.987.987,0,0,1,.9,0,.869.869,0,0,0,.425.1.88.88,0,0,0,.427-.1.892.892,0,0,1,.447-.108c.225,0,.283-.124.392-.073a1.036,1.036,0,0,0,.793.112,1.805,1.805,0,0,1,.6-.178c.225,0,.3.193.413.246a.96.96,0,0,0,.85,0,.989.989,0,0,1,.9,0,.96.96,0,0,0,.85,0,.99.99,0,0,1,.9,0,.963.963,0,0,0,.852,0,.989.989,0,0,1,.9,0,.869.869,0,0,0,.425.1.88.88,0,0,0,.427-.1.989.989,0,0,1,.9,0,.871.871,0,0,0,.427.1s.053-.006.13-.006a.562.562,0,0,1,.4.117.212.212,0,0,1,.049.172c-.041.343-.554.393-.576.394Z" transform="translate(-39.308 -83.724)"/><path class="g" d="M177.264,134.468c-.436.038-.438-.207-.875-.207s-.438.207-.875.207-.438-.207-.874-.207-.438.207-.874.207-.438-.207-.875-.207-.438.207-.874.207-.436-.207-.874-.207-.436.207-.874.207-.436-.207-.874-.207-.438.207-.874.207-.438-.207-.874-.207-.438.207-.874.207-.438-.207-.875-.207-.436.207-.874.207-.436-.207-.874-.207-.436.207-.874.207-.436-.207-.874-.207-.436.207-.874.207-.436-.207-.873-.207-.438.207-.875.207-.436-.207-.874-.207-.436.207-.873.207-.436-.207-.874-.207-.436.207-.874.207-.436-.207-.873-.207-.436.207-.874.207-.436-.207-.874-.207-.438.207-.874.207-.438-.207-.874-.207-.436.207-.874.207-.441-.157-.874-.207c-.169-.02-.389-.176-.344-.383s.344-.239.344-.239c.438,0,.438.207.874.207s.438-.207.874-.207.436.207.874.207.436-.207.874-.207.438.207.874.207.438-.207.874-.207.436.207.873.207.438-.207.874-.207.438.207.874.207.436-.207.873-.207.438.207.874.207.438-.207.875-.207.436.207.873.207.438-.207.874-.207.438.207.874.207.438-.207.874-.207.438.207.874.207.438-.207.874-.207.438.207.875.207.436-.207.874-.207.436.207.874.207.436-.207.874-.207.438.207.874.207.438-.207.874-.207.438.207.874.207.436-.207.874-.207.438.207.875.207.436-.207.874-.207.436.207.874.207.438-.207.875-.207.438.207.875.207c0,0,.3-.091.376.091s.687.441-.376.531" transform="translate(-39.359 -82.402)"/><path d="M177.669,133.926c-.024.085-.1.269-.277.235-.234-.043-.449-.285-.951-.208s-.606.32-.839.252-.7-.389-1.039-.32-.916.355-1.219.2-.345-.19-.9-.06.035.147-1.116.027a4.58,4.58,0,0,0-1.47-.008c-.407.017-.338-.192-.771-.053a1.326,1.326,0,0,1-1.029-.017c-.415-.138-.779.207-1.254.1s-.624-.38-1.056-.165a1.178,1.178,0,0,1-1.064.113c-.406-.13-.467-.3-.829-.1a1.9,1.9,0,0,1-1.117.094c-.224-.042-.38-.18-.631-.069s-.26.252-.684.13-.467-.3-.934-.138-.545.364-.891.19-.667-.329-.979-.173-.622.372-.847.208a.982.982,0,0,0-1.029-.138c-.527.182-.614-.138-1.047-.078s-.432-.12-.829.087a.8.8,0,0,1-.849-.008,1.063,1.063,0,0,0-.847.06.611.611,0,0,1-.632-.008c-.294-.113-.1-.355-.622-.173s-.537.329-.866.234-1.038-.354-1.151-.345a.118.118,0,0,0-.077.059c-.031.2.182.345.345.365.434.05.438.207.874.207s.438-.207.874-.207.436.207.874.207.436-.207.874-.207.438.207.874.207.438-.207.874-.207.436.207.873.207.438-.207.874-.207.438.207.874.207.436-.207.873-.207.438.207.875.207.436-.207.874-.207.436.207.873.207.438-.207.874-.207.438.207.874.207.438-.207.874-.207.438.207.874.207.438-.207.875-.207.436.207.874.207.436-.207.874-.207.436.207.874.207.436-.207.874-.207.438.207.874.207.438-.207.874-.207.438.207.874.207.436-.207.874-.207.438.207.875.207.436-.207.874-.207.436.207.874.207.438-.207.875-.207.439.245.875.207c.976-.083.544-.309.406-.485" transform="translate(-39.358 -82.345)"/><path d="M176.4,134.243a.833.833,0,0,1,.438.113.67.67,0,0,0,.351.1q.04,0,.084,0c.456-.039.573-.109.593-.159s-.056-.126-.122-.19a.543.543,0,0,1-.117-.144.188.188,0,0,0-.193-.1.532.532,0,0,0-.151.022h-.008a.894.894,0,0,1-.447-.106.862.862,0,0,0-.427-.1.852.852,0,0,0-.425.1,1,1,0,0,1-.9,0,.948.948,0,0,0-.85,0,1,1,0,0,1-.9,0,.948.948,0,0,0-.85,0,1,1,0,0,1-.9,0,.948.948,0,0,0-.85,0,1,1,0,0,1-.9,0,.948.948,0,0,0-.85,0,1,1,0,0,1-.9,0,.951.951,0,0,0-.852,0,1,1,0,0,1-.9,0,.951.951,0,0,0-.852,0,1,1,0,0,1-.9,0,.862.862,0,0,0-.427-.1.852.852,0,0,0-.425.1,1,1,0,0,1-.9,0,.948.948,0,0,0-.85,0,1,1,0,0,1-.9,0,.951.951,0,0,0-.852,0,1,1,0,0,1-.9,0,.948.948,0,0,0-.85,0,1,1,0,0,1-.9,0,.948.948,0,0,0-.85,0,1,1,0,0,1-.9,0,.948.948,0,0,0-.85,0,1,1,0,0,1-.9,0,.948.948,0,0,0-.85,0,1,1,0,0,1-.9,0,.948.948,0,0,0-.85,0,1,1,0,0,1-.9,0,.852.852,0,0,0-.425-.1s-.277.032-.317.218a.233.233,0,0,0,.042.189.427.427,0,0,0,.278.162,1.312,1.312,0,0,1,.417.113.991.991,0,0,0,.454.094.852.852,0,0,0,.425-.1,1,1,0,0,1,.9,0,.948.948,0,0,0,.85,0,1,1,0,0,1,.9,0,.948.948,0,0,0,.85,0,1,1,0,0,1,.9,0,.85.85,0,0,0,.424.1.863.863,0,0,0,.427-.1,1,1,0,0,1,.9,0,.948.948,0,0,0,.85,0,1,1,0,0,1,.9,0,.948.948,0,0,0,.85,0,1,1,0,0,1,.9,0,.948.948,0,0,0,.85,0,1,1,0,0,1,.9,0,.948.948,0,0,0,.85,0,1,1,0,0,1,.9,0,.951.951,0,0,0,.852,0,1,1,0,0,1,.9,0,.951.951,0,0,0,.852,0,1,1,0,0,1,.9,0,.863.863,0,0,0,.427.1.852.852,0,0,0,.425-.1,1,1,0,0,1,.9,0,.948.948,0,0,0,.85,0,1,1,0,0,1,.9,0,.948.948,0,0,0,.85,0,1,1,0,0,1,.9,0,.951.951,0,0,0,.852,0,1,1,0,0,1,.9,0,.852.852,0,0,0,.425.1.862.862,0,0,0,.427-.1.9.9,0,0,1,.449-.106m.789.264a.736.736,0,0,1-.376-.1.781.781,0,0,0-.413-.109.836.836,0,0,0-.425.1,1,1,0,0,1-.9,0,.936.936,0,0,0-.85,0,1,1,0,0,1-.9,0,.936.936,0,0,0-.85,0,1,1,0,0,1-.9,0,.936.936,0,0,0-.85,0,1,1,0,0,1-.9,0,.936.936,0,0,0-.85,0,1,1,0,0,1-.9,0,.939.939,0,0,0-.852,0,1,1,0,0,1-.9,0,.939.939,0,0,0-.852,0,1,1,0,0,1-.9,0,.846.846,0,0,0-.427-.1.836.836,0,0,0-.425.1,1,1,0,0,1-.9,0,.936.936,0,0,0-.85,0,1,1,0,0,1-.9,0,.939.939,0,0,0-.852,0,1,1,0,0,1-.9,0,.936.936,0,0,0-.85,0,1,1,0,0,1-.9,0,.936.936,0,0,0-.85,0,1,1,0,0,1-.9,0,.936.936,0,0,0-.85,0,1,1,0,0,1-.9,0,.936.936,0,0,0-.85,0,1,1,0,0,1-.9,0,.936.936,0,0,0-.85,0,.915.915,0,0,1-.449.106,1.027,1.027,0,0,1-.475-.1,1.292,1.292,0,0,0-.4-.109.475.475,0,0,1-.316-.183.285.285,0,0,1-.05-.232c.048-.224.354-.26.366-.261h0a.917.917,0,0,1,.45.106.936.936,0,0,0,.85,0,1,1,0,0,1,.9,0,.936.936,0,0,0,.85,0,1,1,0,0,1,.9,0,.936.936,0,0,0,.85,0,1,1,0,0,1,.9,0,.834.834,0,0,0,.424.1.846.846,0,0,0,.427-.1,1,1,0,0,1,.9,0,.936.936,0,0,0,.85,0,1,1,0,0,1,.9,0,.936.936,0,0,0,.85,0,1,1,0,0,1,.9,0,.936.936,0,0,0,.85,0,1,1,0,0,1,.9,0,.936.936,0,0,0,.85,0,1,1,0,0,1,.9,0,.939.939,0,0,0,.852,0,1,1,0,0,1,.9,0,.939.939,0,0,0,.852,0,1,1,0,0,1,.9,0,.846.846,0,0,0,.427.1.836.836,0,0,0,.425-.1,1,1,0,0,1,.9,0,.936.936,0,0,0,.85,0,1,1,0,0,1,.9,0,.936.936,0,0,0,.85,0,1,1,0,0,1,.9,0,.939.939,0,0,0,.852,0,1,1,0,0,1,.9,0,.836.836,0,0,0,.425.1.846.846,0,0,0,.427-.1,1,1,0,0,1,.9,0,.862.862,0,0,0,.422.1.587.587,0,0,1,.162-.024.243.243,0,0,1,.243.13.482.482,0,0,0,.106.127c.081.081.164.164.133.248-.024.067-.119.151-.639.2-.031,0-.06,0-.088,0" transform="translate(-39.366 -82.41)"/></g><rect class="d" width="101.584" height="0.423" transform="translate(10.255 45.415)"/></g></g></svg>