<svg xmlns="http://www.w3.org/2000/svg" width="94.23" height="94.23" viewBox="0 0 94.23 94.23"><defs><style>.a{fill:#31b900;}</style></defs><g transform="translate(-232 -318)"><circle class="a" cx="47.115" cy="47.115" r="47.115" transform="translate(232 318)"/><g transform="translate(257.994 332.621)"><path d="M90.326,209.96l-2.6-23.433a8.716,8.716,0,0,0-8.671-7.762h-1.8a2.874,2.874,0,0,0-1.8-1.8v-2.231h1.51a.913.913,0,0,0,.76-1.421,9.7,9.7,0,0,0-5.124-3.855,3.843,3.843,0,1,0-5.881,0,9.711,9.711,0,0,0-5.126,3.855.915.915,0,0,0,.76,1.421h1.512v2.231a2.872,2.872,0,0,0-1.8,1.8h-1.8a8.714,8.714,0,0,0-8.671,7.762l-2.6,23.433a8.718,8.718,0,0,0,4.45,8.6.927.927,0,0,0,.44.114.914.914,0,0,0,.443-1.714,6.83,6.83,0,0,1-1.8-1.436,6.9,6.9,0,0,1-1.714-5.36l2.6-23.436a6.892,6.892,0,0,1,6.857-6.136H61.9v2.079H60.247a4.814,4.814,0,0,0-4.79,4.288l-2.6,23.433a4.82,4.82,0,0,0,4.79,5.35h.421a4.809,4.809,0,0,0-1.045,2.993v1.19a2.865,2.865,0,0,0,.914,5.581H81.366a2.865,2.865,0,0,0,.914-5.581v-.3a8.718,8.718,0,0,0,8.045-9.662ZM73.618,176.81H70.561v-2.079h3.057Zm-5.986-9.826A2.015,2.015,0,1,1,69.649,169,2.017,2.017,0,0,1,67.633,166.984Zm2.017,3.843a7.86,7.86,0,0,1,5.329,2.079H64.318A7.861,7.861,0,0,1,69.649,170.827Zm-.914,3.9v2.079H65.68v-2.079Zm-5.007,4.95v0h0a1.039,1.039,0,0,1,1.038-1.038H74.53a1.041,1.041,0,0,1,1.04,1.038v2.993H63.728v-2.988Zm1.952,34.233v-2.079h7.936v2.079Zm5.983-3.9H67.633v-2.017a.062.062,0,0,1,.064-.062h3.9a.061.061,0,0,1,.062.062v2.017Zm2.238,0h-.41v-2.017A1.892,1.892,0,0,0,71.6,206.1H67.7a1.892,1.892,0,0,0-1.89,1.891v2.017H65.4a9.855,9.855,0,0,1-5.576-8.852v-3.9A9.849,9.849,0,0,1,65.4,188.4h8.5a9.85,9.85,0,0,1,5.579,8.85v3.9A9.853,9.853,0,0,1,73.9,210.01Zm-.283-23.436H65.68V184.5h7.938Zm-18.2,26.345a2.954,2.954,0,0,1-.745-2.326l2.6-23.433a2.987,2.987,0,0,1,2.974-2.664h3.607v2.66a11.679,11.679,0,0,0-5.86,10.1v3.9a11.686,11.686,0,0,0,5.86,10.1v2.657H57.642a2.959,2.959,0,0,1-2.229-1Zm25.952,10.759H57.933a1.039,1.039,0,1,1,0-2.079h16.6a.913.913,0,1,0,0-1.826H58.845v-1.04a3,3,0,0,1,2.993-2.993H77.459a3,3,0,0,1,2.993,2.993v1.04H78.438a.913.913,0,1,0,0,1.826h2.929a1.039,1.039,0,0,1,0,2.079Zm5.429-8.157a6.9,6.9,0,0,1-4.607,2.276,4.811,4.811,0,0,0-.955-2.057h.421a4.817,4.817,0,0,0,4.79-5.35l-2.6-23.433a4.788,4.788,0,0,0-3.14-4,.914.914,0,0,0-.626,1.717,2.972,2.972,0,0,1,1.95,2.481l2.6,23.436a2.991,2.991,0,0,1-2.974,3.321h-6.21v-2.657a11.684,11.684,0,0,0,5.857-10.1v-3.9a11.677,11.677,0,0,0-5.857-10.1V184.5h1.038a.913.913,0,0,0,.914-.912v-2.993h1.655a6.89,6.89,0,0,1,6.855,6.136l2.6,23.436a6.9,6.9,0,0,1-1.717,5.36Z" transform="translate(-48.918 -163.141)"/><path d="M61.562,175.173a.913.913,0,0,0-1.369,1,5.955,5.955,0,0,1-.376,4.471l-1.26-.629a.913.913,0,0,0-1.055.171,8.523,8.523,0,0,0-2.193,7.7.914.914,0,0,0,1.774-.441,6.751,6.751,0,0,1,1.276-5.49l1.333.667a.912.912,0,0,0,1.055-.171,6.353,6.353,0,0,0,1.517-4.383,11.706,11.706,0,0,1,1.486,1.7,6.476,6.476,0,0,1,.44,7.44.913.913,0,1,0,1.586.907,8.271,8.271,0,0,0-.536-9.4A14.306,14.306,0,0,0,61.562,175.173Z" transform="translate(-40.347 -146.718)"/></g></g></svg>