<svg xmlns="http://www.w3.org/2000/svg" xmlns:xlink="http://www.w3.org/1999/xlink" width="107.299" height="58.45" viewBox="0 0 107.299 58.45"><defs><style>.a{fill:none;}.b{fill:#fff;}.c{clip-path:url(#a);}.d{fill:#233a7a;}.e{fill:red;}.f{fill:#231e21;}</style><clipPath id="a"><path class="a" d="M0,0H107.3V-58.45H0Z"/></clipPath></defs><g transform="translate(0 58.45)"><path class="b" d="M78.3-28.568h29V-58.45h-29Z"/><g class="c"><g transform="translate(22.245 -40.704)"><path class="d" d="M0,0V17.555H13.271V13.709H4.293V10.088h7.86V6.422H4.266v-2.6h8.566V0ZM36.936,11.613c-.077,2.958,1.122,4.919,3.606,5.792a10.143,10.143,0,0,0,7.782-.317,5.01,5.01,0,0,0,2.929-4.914A4.287,4.287,0,0,0,48.317,7.82c-1.671-.634-3.422-1.037-5.125-1.582-.758-.244-1.653-.319-2.007-1.315a1.754,1.754,0,0,1,1.972-1.689c1.727-.028,3.2.369,3.545,2.423h4.059a14.983,14.983,0,0,0-.266-1.674c-1.177-4.221-7.009-6.033-11-3.43A5.127,5.127,0,0,0,37.061,5.48,4.354,4.354,0,0,0,40.119,9.6c1.87.65,3.787,1.161,5.694,1.7.666.188,1.191.474,1.222,1.255.035.856-.556,1.225-1.222,1.461-2.321.825-3.989.02-5.03-2.4ZM-6.637,10.225C-8.729,6.567-10.6,3.289-12.474.022h-4.238V17.558h4.067V6.7c2.209,3.93,4.183,7.445,6.083,10.828h3.978V.046H-6.637ZM14.181.008c1.653,6,3.254,11.813,4.844,17.581h4.311c.721-3.616,1.439-7.205,2.253-11.278.839,4.045,1.584,7.63,2.336,11.258H31.8C33.414,11.726,35.025,5.905,36.645.046H32.28c-.76,3.309-1.5,6.537-2.349,10.225-.755-3.746-1.409-7-2.06-10.233h-4.6c-.629,3.067-1.243,6.059-1.978,9.64C20.466,6.032,19.789,3.034,19.1.008ZM62.665,13.564V23.5h-84.91V-5.671H54.123V13.564Z"/></g><g transform="translate(84.32 -34.408)"><path class="e" d="M0,0H4.062V-17.966h-6.7v4.17H0ZM8.042-9.819c-2.79,2.957-2.967,5.836-.516,8.356a6.559,6.559,0,0,0,9.2-.03,5.528,5.528,0,0,0-.544-8.342c1.984-2.187,2.068-4.988.213-6.884a6.34,6.34,0,0,0-8.485-.055c-2.032,2.036-1.982,4.618.137,6.955M2.871,5.387H-5.671V-23.69H22.6V5.387Z"/></g><g transform="translate(98.491 -40.333)"><path class="e" d="M0,0C-.127,1.279-.733,2.13-1.982,2.153A1.913,1.913,0,0,1-3.988.087a1.822,1.822,0,0,1,1.935-2.08C-.756-2.019-.194-1.18,0,0"/></g><g transform="translate(98.204 -47.446)"><path class="e" d="M0,0C-.119,1-.535,1.793-1.655,1.844A1.6,1.6,0,0,1-3.46.175,1.646,1.646,0,0,1-1.83-1.7C-.762-1.788-.152-1.136,0,0"/></g><g transform="translate(30.624 -5.696)"><path class="f" d="M0,0C0-4.568,3.261-5.716,5.607-5.716a4.537,4.537,0,0,1,4.872,3.483l-3.3,1.065C6.84-2.5,6.3-2.807,5.568-2.807,4.395-2.807,3.937-1.7,3.937.021c0,1.6.279,2.868,1.591,2.868.636,0,1.372-.328,1.73-1.762l3.261,1.127A4.988,4.988,0,0,1,5.468,5.7C2.963,5.7,0,4.507,0,0"/></g><g transform="translate(42.019 -11.207)"><path class="f" d="M0,0H3.937V1.7h.02A3.656,3.656,0,0,1,7.278-.2h.04V3.38C7.158,3.36,6.6,3.3,6.323,3.3a3.634,3.634,0,0,0-2.386,1v6.679H0Z"/></g><g transform="translate(56.556 -6.864)"><path class="f" d="M0,0C-.159-1.311-.736-1.721-1.67-1.721-2.445-1.721-3.062-1.25-3.3,0ZM-7.258,1.168A5.41,5.41,0,0,1-1.65-4.548c2.107,0,5.13.778,5.13,6.248v.615H-3.341A1.819,1.819,0,0,0-1.213,4.1a6.513,6.513,0,0,0,3.063-1L3.261,5.552A8.5,8.5,0,0,1-1.511,6.863c-2.923,0-5.747-1.249-5.747-5.695"/></g><g transform="translate(66.936 -3.708)"><path class="f" d="M0,0V-1.557C-1.908-1.5-2.744-.984-2.744-.144c0,.533.378.779.876.779A2.536,2.536,0,0,0,0,0M-6.581.532c0-2.458,2.207-3.954,6.581-4.159V-3.77c0-.533-.258-.922-1.173-.922A5.688,5.688,0,0,0-4.454-3.5L-6.065-5.8A7.718,7.718,0,0,1-.556-7.7c3.141,0,4.394,1.516,4.394,4.609V.819a7.683,7.683,0,0,0,.3,2.663H.239A5.381,5.381,0,0,1,0,1.885,4.2,4.2,0,0,1-3.539,3.647,2.908,2.908,0,0,1-6.581.532"/></g><g transform="translate(73.301 -3.524)"><path class="f" d="M0,0V-4.773H-1.73v-2.91H0v-3.688H3.937v3.688H6.661v2.91H3.937V-.9C3.937.266,4.216.553,5.329.553A4.461,4.461,0,0,0,6.363.43V3.257a17.763,17.763,0,0,1-2.406.185C.338,3.442,0,2.131,0,0"/></g></g><path class="f" d="M81.1-12.272h3.938v-3.114H81.1Zm0-3.114,0,15.16h3.938V-11.207H81.1Z"/><g transform="translate(93.386 -11.207)"><path class="f" d="M0,0-1.889,6.536h-.04L-3.8,0H-7.835l3.758,10.981H-.1L3.658,0Z"/></g><g class="c"><g transform="translate(103.647 -6.864)"><path class="f" d="M0,0C-.159-1.311-.736-1.721-1.67-1.721-2.445-1.721-3.062-1.25-3.3,0ZM-7.258,1.168A5.41,5.41,0,0,1-1.65-4.548c2.107,0,5.13.778,5.13,6.248v.615H-3.34A1.817,1.817,0,0,0-1.213,4.1a6.505,6.505,0,0,0,3.063-1L3.261,5.552A8.5,8.5,0,0,1-1.511,6.863c-2.923,0-5.747-1.249-5.747-5.695"/></g></g></g></svg>