<svg xmlns="http://www.w3.org/2000/svg" width="164.887" height="127.943" viewBox="0 0 164.887 127.943"><defs><style>.a{fill:#2a5984;}.b{fill:#be3b41;}.c{fill:#fff;}.d{fill:#1d1d1b;}</style></defs><g transform="translate(-17.9 -12.644)"><g transform="translate(52.106 12.644)"><path class="a" d="M149.329,149.942l-.429-1.191,18.532-7.051,14.864,5.526-.476,1.191-14.34-5.336Z" transform="translate(-120.696 -80.216)"/><g transform="translate(29.545 16.367)"><path class="b" d="M152.328,79.836a1.106,1.106,0,0,1-.191-1.858c1.048-1.143,6.241-5.526,17.723-5.479s16.15,5.765,16.15,5.765-7.051-7.194-23.487-4.526c0,0,16.007-2.382,23.535,5.288,0,0-5.05-4.288-14.007-4.812-8.957-.476-14.578,1.239-19.295,4.192v1.429Z" transform="translate(-151.716 -60.351)"/><path class="b" d="M176.836,51.438v-.476a9.851,9.851,0,0,1,5.383-1.191c3.573.1,4.812,1.048,5.05,1.239v.333a.4.4,0,0,0,0-.619s-2.525-1.81-7.861-1.048c0,0,4.383-1.048,7.861.81,0,0-1.382-1.334-5.145-1.286-3.716.048-4.859,1-5.479,1.334a.9.9,0,0,0,.191.905" transform="translate(-164.743 -48.151)"/><path class="b" d="M178.02,49.1a.318.318,0,0,1-.048-.524c.286-.333,1.763-1.572,5.05-1.572s4.621,1.62,4.621,1.62-2-2.049-6.717-1.286c0,0,4.574-.667,6.717,1.525a7.04,7.04,0,0,0-4-1.382,8.768,8.768,0,0,0-5.526,1.191V49.1Z" transform="translate(-165.403 -47)"/><path class="b" d="M155.7,66.469s.667-10.148,10.052-13.53a14.956,14.956,0,0,1,19.724,10.338S183,54.7,174.185,52.748c-8.814-2-16.913,4.859-17.389,13.34Z" transform="translate(-153.802 -49.604)"/><path class="b" d="M161.5,65.658A13.041,13.041,0,0,1,170.409,53.7a13.4,13.4,0,0,0-8.147,11.863Z" transform="translate(-156.839 -50.508)"/><path class="b" d="M166.6,64.22s0-10.529,8.766-11.72c0,0-7.527.333-8.147,11.529Z" transform="translate(-159.509 -49.88)"/><path class="b" d="M171.5,63.672S171.211,55.049,176.4,53c0,0-4.526,1.81-4.288,10.576Z" transform="translate(-162.072 -50.142)"/><path class="b" d="M178.4,63.8s.048-6.146,1.62-9.1a29.8,29.8,0,0,0-1.1,9.052Z" transform="translate(-165.687 -51.032)"/><path class="b" d="M184.6,63.718s.238-5.622.572-8.718c0,0-.048,8-.048,8.671Z" transform="translate(-168.934 -51.189)"/><path class="b" d="M189.934,64a73.269,73.269,0,0,0-.333-8,63.636,63.636,0,0,1,.667,8.051Z" transform="translate(-171.552 -51.712)"/><path class="b" d="M195.615,66.127A34.219,34.219,0,0,0,194.9,59.6a25.678,25.678,0,0,1,1.048,6.622Z" transform="translate(-174.327 -53.597)"/><path class="b" d="M200.991,67.541A33.861,33.861,0,0,0,199.8,61.3a24.537,24.537,0,0,1,1.429,6.289Z" transform="translate(-176.892 -54.487)"/><path class="b" d="M206.2,70.312a22.033,22.033,0,0,0-1.1-4.812,19.083,19.083,0,0,1,1.334,4.907Z" transform="translate(-179.667 -56.686)"/><path class="b" d="M211.41,73.625a13.1,13.1,0,0,0-.81-3.525,11.982,11.982,0,0,1,1.1,3.716Z" transform="translate(-182.547 -59.095)"/><path class="b" d="M215.472,75.744A17.315,17.315,0,0,0,214.9,72.6a14.64,14.64,0,0,1,.81,3.287Z" transform="translate(-184.798 -60.404)"/><path class="b" d="M214.6,70.6a13.444,13.444,0,0,1,.524,1.525l.286.191a9.663,9.663,0,0,0-.524-1.572Z" transform="translate(-184.641 -59.357)"/><path class="b" d="M212.058,70.367a6.928,6.928,0,0,0-.429-1.477L211.2,68.7a7.921,7.921,0,0,1,.476,1.572Z" transform="translate(-182.861 -58.362)"/><path class="b" d="M208.4,68.71a8.826,8.826,0,0,0-.524-1.62L207.4,66.9a7.308,7.308,0,0,1,.381,1.62Z" transform="translate(-180.871 -57.419)"/><path class="b" d="M203.853,67.258a11.659,11.659,0,0,0-.381-1.667L202.9,65.4a6.443,6.443,0,0,1,.381,1.715Z" transform="translate(-178.515 -56.634)"/><path class="b" d="M198.848,66.21a13.241,13.241,0,0,0-.238-1.667l-.81-.143s.191,1.286.191,1.715Z" transform="translate(-175.845 -56.11)"/><path class="b" d="M193.4,65.515s-.048-1.191-.1-1.62l-.905-.1a11.66,11.66,0,0,1,.1,1.715Z" transform="translate(-173.018 -55.796)"/></g><path class="b" d="M187.9,65.42l-.048-1.62H186.9v1.667Z" transform="translate(-140.593 -39.429)"/><g transform="translate(0)"><path class="b" d="M181.892,64l-.858.1a12.753,12.753,0,0,0-.143,1.572l.333-.048s.048-.953.1-1.286l.524-.1Z" transform="translate(-137.443 -39.534)"/><path class="b" d="M175.2,66.667s.1-1.1.191-1.477L176.01,65l-.048.238-.429.1-.143,1.286Z" transform="translate(-134.467 -40.057)"/><path class="b" d="M170,67.672a8.049,8.049,0,0,1,.381-1.477l.238-.1-.381,1.525Z" transform="translate(-131.744 -40.633)"/><path class="b" d="M180.593,35a.972.972,0,0,1-.381-1.572c.762-1.1,2.334-1.239,3.287-1.239a5.63,5.63,0,0,1,3.24.858,1.044,1.044,0,0,1-.1,1.906v-1.1a8.242,8.242,0,0,0-6.1.048V35Z" transform="translate(-136.954 -22.877)"/><path class="b" d="M190.467,41.164V36.733a.333.333,0,1,0-.667,0v4.288c.238.048.429.1.667.143" transform="translate(-142.111 -25.083)"/><path class="b" d="M182.286,41.774V37.343a.143.143,0,0,0-.286,0v4.574l.286-.143" transform="translate(-138.027 -25.501)"/><path class="b" d="M192.886,41.869V37.343a.143.143,0,1,0-.286,0v4.431a.677.677,0,0,0,.286.1" transform="translate(-143.577 -25.501)"/><path class="b" d="M184.033,36.4a.326.326,0,0,0-.333.333v.238h.1a.225.225,0,0,1,.238.238v3.907c.1,0,.191-.048.286-.048V36.733a.285.285,0,0,0-.286-.333" transform="translate(-138.917 -25.083)"/><path class="b" d="M187.029,36a.427.427,0,0,0-.429.429v.1a.225.225,0,0,1,.238.238v4h.572V36.429a.42.42,0,0,0-.381-.429" transform="translate(-140.436 -24.873)"/><path class="b" d="M184.82,28.538a2.6,2.6,0,0,1,2.239,1.715c.143.048.286.143.429.191a2.7,2.7,0,0,0-5.288,0,6.346,6.346,0,0,1,4.335-.333,2.457,2.457,0,0,0-1.715-1.572" transform="translate(-138.132 -20.841)"/><path class="b" d="M186.286,23.8a1.287,1.287,0,0,0-1,2.1,3.172,3.172,0,0,1,1.286-.143c.476-.429.476-.81.238-1.1a1.075,1.075,0,0,0-.905-.381.906.906,0,0,1,1.286.81,1.228,1.228,0,0,1-.286.762c.143.048.238.048.381.1a1.294,1.294,0,0,0,.286-.81,1.322,1.322,0,0,0-1.286-1.334" transform="translate(-139.598 -18.485)"/><path class="b" d="M187.717,14.862a1.848,1.848,0,0,0-.333-1.048c.905-.429,0-.81,0-.81-.524-.81-.619,0-.619,0-.476.286-.715.429-.524.715s.858.048.238.429c-.619.429.191.238-.238.762a1.171,1.171,0,0,0-.048,1.572c.381.429.286,1.525.286,1.525l.429.1c-.191-2.62.476-2,.286-2.477a1.772,1.772,0,0,1-.048-1c-.048.476.619,1.191.143,1.572-.429.333-.286,1.715-.238,1.953l.238.048c0-1.81.048-1.906.619-1.953.524-.048-.191-.81-.191-1.382" transform="translate(-140.075 -12.644)"/><path class="a" d="M234.115,118.21a3.8,3.8,0,0,0-.715-.81v7.861l.715.429Z" transform="translate(-164.939 -67.493)"/><path class="a" d="M140.443,102.988a3.413,3.413,0,0,1-.762,2.049s-1.1,1.143.429,2.382v-1.906s3.621-4.812,20.915-5.05c17.294-.286,23.011,4.05,23.821,5.145v1.429a1.538,1.538,0,0,0,.048-2.334c-1.239-1.143-9.242-7.766-32.348-5,0,0,22.249-3.954,32.015,3.811,0,0-3.573-5.479-19.724-5.812,0,.048-17.913-.572-24.392,5.288" transform="translate(-115.67 -57.178)"/><path class="a" d="M148.455,87.962V86.295s6.384-4.383,18.866-4.1c12.53.286,16.817,3.621,17.723,4.288v1.143a1.351,1.351,0,0,0,.048-2.144S176.182,79.1,157.6,81.864c0,0,15.245-3.621,27.489,2.858,0,0-4.859-4.669-17.913-4.526s-17.056,3.478-19.152,4.574c0,.1-1,1.143.429,3.192" transform="translate(-120.06 -48.012)"/><path class="a" d="M224.233,98.359l-.048-3.668c0-.048-.048-.191-.143-.191-.048,0-.143.048-.143.1l.048,3.668a.511.511,0,0,1,.286.1" transform="translate(-159.965 -55.503)"/><path class="a" d="M221.629,97.045l-.048-3.907c0-.1-.1-.238-.191-.238s-.191.048-.191.143l.048,3.811a2.828,2.828,0,0,0,.381.191" transform="translate(-158.552 -54.665)"/><path class="a" d="M217.567,95.58l-.048-3.954c0-.191-.143-.381-.333-.333-.191,0-.286.1-.286.238l.048,3.907a1.319,1.319,0,0,1,.619.143" transform="translate(-156.3 -53.819)"/><path class="a" d="M212.854,94.078l-.048-4.05a.417.417,0,0,0-.381-.429c-.191,0-.381.143-.333.333l.048,3.954c.238.048.476.143.715.191" transform="translate(-153.779 -52.937)"/><path class="a" d="M207.148,92.774l-.048-4a.572.572,0,0,0-.524-.572c-.286,0-.476.143-.476.429l.048,3.954a7.4,7.4,0,0,0,1,.191" transform="translate(-150.645 -52.204)"/><path class="a" d="M200.833,91.921v-.1l-.048-3.811a.6.6,0,0,0-.619-.619c-.333,0-.619.191-.572.524l.048,3.907a10.03,10.03,0,0,1,1.191.1" transform="translate(-147.236 -51.78)"/><path class="a" d="M193.728,91.426v-.048l-.048-3.811a.651.651,0,0,0-.667-.667.627.627,0,0,0-.619.715l.048,3.811h0a5.788,5.788,0,0,1,1.286,0" transform="translate(-143.467 -51.524)"/><path class="a" d="M171.224,87.9a.586.586,0,0,0-.524.619v.1h.048a.427.427,0,0,1,.429.429l.048,3.525c.191-.048.429-.048.619-.1l-.048-3.907c0-.429-.238-.667-.572-.667" transform="translate(-132.111 -52.047)"/><path class="a" d="M165.329,90.158l.048,3.525h0c.1,0,.191-.048.333-.048l-.1-4a.326.326,0,0,0-.333-.333c-.191,0-.333.191-.381.381a.44.44,0,0,1,.429.476" transform="translate(-129.074 -52.78)"/><path class="a" d="M178.419,87a.662.662,0,0,0-.619.572.673.673,0,0,1,.476.667l.048,3.383c.238,0,.476-.048.715-.048l-.048-3.907a.579.579,0,0,0-.572-.667" transform="translate(-135.828 -51.576)"/><path class="a" d="M185.919,86.6a.631.631,0,0,0-.619.619h0a.574.574,0,0,1,.381.572l.048,3.383a6.075,6.075,0,0,0,.905-.048l-.048-3.954a.713.713,0,0,0-.667-.572" transform="translate(-139.755 -51.367)"/><path class="a" d="M160.176,91.753l.048,3.24c.048,0,.143-.048.191-.048l-.048-3.811a.326.326,0,0,0-.333-.333.409.409,0,0,0-.333.286.735.735,0,0,1,.476.667" transform="translate(-126.351 -53.566)"/><path class="a" d="M155.776,93.305l.048,3.1a.36.36,0,0,0,.191-.048l-.048-3.621a.326.326,0,0,0-.333-.333.409.409,0,0,0-.333.286.626.626,0,0,1,.476.619" transform="translate(-124.047 -54.403)"/><path class="a" d="M152.081,94.858l.048,2.906a.36.36,0,0,0,.191-.048l-.048-3.43a.275.275,0,0,0-.286-.286.307.307,0,0,0-.286.286.665.665,0,0,1,.381.572" transform="translate(-122.162 -55.241)"/><path class="a" d="M168.218,129.474a102.7,102.7,0,0,0-14.769.1A94.728,94.728,0,0,1,164.979,129c1.048.048,2.144.048,3.24.143,16.15.81,17.389,3.668,17.484,3.954-.715-3.954-18.294-5.669-32.348-4.431-14.1,1.239-14.007,4.431-14.054,4.288v1.1c.381-1.763,11.815-4.716,28.918-3.859,16.15.81,17.389,3.668,17.484,3.954-.429-2.573-8.194-4.192-17.484-4.669" transform="translate(-115.67 -73.183)"/><path class="a" d="M162.5,134.143l-12.482,4.478,12.482-4.907,21.772,8h2.287L162.454,133l-.333.143-22.82,8.623h5.812c6.622-2.477,16.913-6.384,17.341-6.575.429.143,10.386,3.764,18.056,6.575h2.477Z" transform="translate(-115.67 -75.661)"/><path class="a" d="M145.505,139.867l-8.147-.048,8.814-.191.667-.238V139.2l-10.338.191h-.524v.905c-.667.143-4.383,1.286-4.478,1.286s-7.1.429-7.1.429l7.194.286,5.431-1.239v-.715c.619,0,4.764-.1,7.48-.143Z" transform="translate(-107.868 -78.907)"/><path class="a" d="M205.634,139.867l8.147-.048-8.814-.191-.667-.238V139.2l10.338.191h.524v.905c.667.143,4.431,1.286,4.526,1.286s7.051.429,7.051.429l-7.241.238-5.383-1.191v-.715c-.619,0-4.764-.1-7.48-.143Z" transform="translate(-149.703 -78.907)"/><path class="a" d="M230.353,115.224a6.1,6.1,0,0,0-.953-.524v8.337a7.941,7.941,0,0,1,.953.381Z" transform="translate(-162.845 -66.079)"/><path class="a" d="M144.3,123.771c.286-.1.572-.238.905-.381V115.1c-.333.191-.619.333-.905.524Z" transform="translate(-118.288 -66.289)"/><path class="a" d="M140.9,118.362v7.575c.191-.143.381-.238.667-.429V117.6c-.286.333-.476.572-.667.762" transform="translate(-116.508 -67.598)"/><path class="a" d="M184.2,107.9v9.195h.715v-5.908a.953.953,0,0,1,1.906,0v5.908h.715V107.8c-1.143.048-2.287.1-3.335.1" transform="translate(-139.179 -62.467)"/><path class="a" d="M175.2,108.3v9.195c.429,0,.858-.048,1.239-.048v-6a.858.858,0,1,1,1.715,0v5.955h.333V108.2c-1.191,0-2.239.048-3.287.1" transform="translate(-134.467 -62.676)"/><path class="a" d="M193.4,107.8v9.29h.381v-5.955a.858.858,0,0,1,1.715,0v6c.381,0,.762.048,1.1.048V107.9c-1.1-.1-2.144-.1-3.192-.1" transform="translate(-143.996 -62.467)"/><path class="a" d="M166.9,108.938v9.147c.572-.048,1.1-.1,1.667-.143v-5.86a.753.753,0,0,1,.762-.762.728.728,0,0,1,.476.191V108.7a18.885,18.885,0,0,0-2.906.238" transform="translate(-130.121 -62.938)"/><path class="a" d="M202.2,108.1v2.858a.769.769,0,0,1,.429-.143.753.753,0,0,1,.762.762v5.908q.929.071,1.715.143v-9.242c-.905-.1-1.906-.191-2.906-.286" transform="translate(-148.603 -62.624)"/><path class="a" d="M159.3,109.976v2.906a.677.677,0,0,1,.286-.1.631.631,0,0,1,.619.619v5.383c.524-.1,1.1-.143,1.667-.191v-9.1a24.37,24.37,0,0,0-2.573.476" transform="translate(-126.142 -63.357)"/><path class="a" d="M212.263,113.1a.631.631,0,0,1,.619-.619.883.883,0,0,1,.333.1v-2.954c-.858-.191-1.763-.381-2.716-.524v9.195c.476.048.953.143,1.334.191.143,0,.286.048.429.048Z" transform="translate(-152.949 -63.147)"/><path class="a" d="M153,111.572v8.718c.143-.048.238-.048.381-.1v-5.479a.381.381,0,1,1,.762,0v5.336c.286-.048.524-.1.858-.143V111q-.929.214-2,.572" transform="translate(-122.843 -64.142)"/><path class="a" d="M149.2,116.478a.4.4,0,0,1,.333-.381V113c-.048,0-.048,0-.1.048-.476.191-.858.333-1.239.524V122l1-.286Z" transform="translate(-120.33 -65.189)"/><path class="a" d="M224.6,112.5v3.144a.4.4,0,0,1,.333.381v5.241c.333.1.715.143,1,.238v-8.48c-.429-.191-.858-.333-1.334-.524" transform="translate(-160.332 -64.927)"/><path class="a" d="M218.2,110.6v9.052c.333.048.619.1.905.143v-5.383a.381.381,0,1,1,.762,0v5.526c.143,0,.238.048.333.048v-8.814c-.572-.191-1.286-.381-2-.572" transform="translate(-156.981 -63.933)"/><path class="c" d="M95.3,116.141h9.719l4.812-15.341,5.193,15.436,16.055.1L119.6,124.525s10.433,4.669,24.3.572,20.867-6.432,39.638.953V141.39H95.3Z" transform="translate(-92.632 -58.802)"/><path class="b" d="M189.811,146.613s-6.05-.953-16.436,4.335c-9.719,4.955-28.3,10.386-36.874-.1,0,0,8.1,6.717,22.63,2.906,14.578-3.764,15.483-9.719,30.681-7.146" transform="translate(-114.204 -82.461)"/><path class="a" d="M113.711,129.448l-2.477-1.239c-.333.238-.572.381-.572.381s1.382,4.145,2.334,7.051c-2.477-1.81-6-4.383-6-4.383s-3.525,2.573-6,4.383c.953-2.906,2.334-7.051,2.334-7.051s-3.573-2.573-6-4.335h7.432l.286-.858s1.048-3.335,2-6.193c.953,2.906,2.287,7.051,2.287,7.051h7.432c-1.429,1.048-3.24,2.334-4.478,3.24.715.333,1.572.715,2.62,1.191,2.906-2.1,9.528-6.908,9.528-6.908s-11.767.048-13.292.048c-.476-1.429-4.05-12.625-4.05-12.625l-1.191,3.668s-2.43,7.575-2.906,9c-1.525,0-13.292-.048-13.292-.048s9.576,6.908,10.767,7.766c-.476,1.429-4.145,12.625-4.145,12.625s9.528-6.956,10.719-7.861c1.191.905,10.719,7.861,10.719,7.861s-3.668-11.2-4.145-12.625c0-.1.048-.1.1-.143" transform="translate(-89.7 -63.2)"/><path class="b" d="M210.726,153.224s-12.577-6.432-24.44-2.144-27.251,14.483-40.686,6.575c0,0,8.575,8.575,24.3,3.859,15.722-4.764,19.819-13.959,40.829-8.29" transform="translate(-118.968 -84.356)"/><path class="b" d="M156.332,144.932s-8.575,4.145-16.246,3.621S124.794,145.6,117.6,136.5a40.43,40.43,0,0,0,38.732,8.433" transform="translate(-104.308 -77.493)"/><path class="b" d="M261.619,164.083a47.757,47.757,0,0,0-17.437-6.908c-9.909-1.667-16.055,1.286-22.582,4.859,0-.048,16.1-8.766,40.019,2.049" transform="translate(-158.761 -88.068)"/></g></g><g transform="translate(17.9 98.664)"><path class="d" d="M23.045,202.018a1.7,1.7,0,0,0,.905-.238,1.923,1.923,0,0,0,.619-.619,2.553,2.553,0,0,0,.333-.905,4.087,4.087,0,0,0,.1-1.1V193.3h3.144v5.86a8.479,8.479,0,0,1-.286,2.239,4.513,4.513,0,0,1-.953,1.763,4.107,4.107,0,0,1-1.62,1.191,5.757,5.757,0,0,1-2.287.429,5.111,5.111,0,0,1-2.334-.476,3.734,3.734,0,0,1-1.572-1.239,4.774,4.774,0,0,1-.905-1.763,7.772,7.772,0,0,1-.286-2.144V193.3h3.144v5.86a8.506,8.506,0,0,0,.1,1.1,4,4,0,0,0,.333.905,1.549,1.549,0,0,0,.619.619A2.014,2.014,0,0,0,23.045,202.018Z" transform="translate(-17.9 -193.252)"/><path class="d" d="M53.375,196.964a10.082,10.082,0,0,0-1-.524c-.286-.143-.619-.238-.953-.381a4.446,4.446,0,0,0-1.048-.191,1.384,1.384,0,0,0-.667.143.5.5,0,0,0-.238.429.541.541,0,0,0,.143.381,1.663,1.663,0,0,0,.429.286,5.177,5.177,0,0,0,.667.238c.238.1.572.143.905.286a9.965,9.965,0,0,1,1.429.524,6.089,6.089,0,0,1,1.1.667,2.658,2.658,0,0,1,.667.953,4.083,4.083,0,0,1-.143,3.1,2.491,2.491,0,0,1-1,1.1,4.542,4.542,0,0,1-1.382.619,5.919,5.919,0,0,1-1.572.191,11.682,11.682,0,0,1-1.286-.1,6.24,6.24,0,0,1-1.286-.286,5.443,5.443,0,0,1-1.239-.429,7.751,7.751,0,0,1-1.1-.524l1.334-2.716a9.361,9.361,0,0,0,1.191.619q.5.214,1.143.429a4.11,4.11,0,0,0,1.334.191,1.339,1.339,0,0,0,.715-.143.387.387,0,0,0,.191-.381.582.582,0,0,0-.191-.429,3.172,3.172,0,0,0-.572-.286,4.024,4.024,0,0,0-.81-.238c-.286-.1-.619-.191-.953-.286a5.448,5.448,0,0,1-1.286-.572,3.434,3.434,0,0,1-.905-.667,1.994,1.994,0,0,1-.524-.858,3.83,3.83,0,0,1,.143-2.763,3.3,3.3,0,0,1,.953-1.191,3.624,3.624,0,0,1,1.334-.715,6.051,6.051,0,0,1,1.62-.238,5.493,5.493,0,0,1,1.239.143l1.143.286c.381.143.715.238,1.048.381a7.167,7.167,0,0,1,.858.429Z" transform="translate(-32.508 -193.2)"/><path class="d" d="M83.7,204.686V193.3h4.907a3.254,3.254,0,0,1,1.525.333,3.762,3.762,0,0,1,1.191.905,4.517,4.517,0,0,1,.81,1.286,3.823,3.823,0,0,1,.286,1.429,3.882,3.882,0,0,1-.286,1.477,4.376,4.376,0,0,1-.762,1.286,3.059,3.059,0,0,1-1.191.858,3.254,3.254,0,0,1-1.525.333H86.8v3.478Zm3.1-6.193h1.667a.658.658,0,0,0,.524-.286,1.535,1.535,0,0,0,.238-.953,1.194,1.194,0,0,0-.286-.953.755.755,0,0,0-.572-.238H86.8Z" transform="translate(-52.352 -193.252)"/><path class="d" d="M108.6,204.686V193.3h5.241a3.254,3.254,0,0,1,1.525.333,3.762,3.762,0,0,1,1.191.905,4.518,4.518,0,0,1,.81,1.286,3.823,3.823,0,0,1,.286,1.429,4.1,4.1,0,0,1-.429,1.858,3.364,3.364,0,0,1-1.191,1.382l2.382,4.192h-3.525l-2-3.478H111.7v3.478Zm3.144-6.193H113.7a.6.6,0,0,0,.524-.333,1.578,1.578,0,0,0,.238-.905,1.29,1.29,0,0,0-.286-.905.908.908,0,0,0-.572-.333H111.7v2.477Z" transform="translate(-65.389 -193.252)"/><path class="d" d="M143.5,201.971v2.716h-8.1V193.3h7.956v2.716H138.5v1.62h4.145v2.525H138.5v1.81Z" transform="translate(-79.421 -193.252)"/><path class="d" d="M165.575,196.964a10.083,10.083,0,0,0-1-.524c-.286-.143-.619-.238-.953-.381a4.446,4.446,0,0,0-1.048-.191,1.384,1.384,0,0,0-.667.143.5.5,0,0,0-.238.429.541.541,0,0,0,.143.381,1.663,1.663,0,0,0,.429.286,5.177,5.177,0,0,0,.667.238c.238.1.572.143.905.286a9.965,9.965,0,0,1,1.429.524,6.089,6.089,0,0,1,1.1.667,2.658,2.658,0,0,1,.667.953,4.083,4.083,0,0,1-.143,3.1,2.491,2.491,0,0,1-1,1.1,4.542,4.542,0,0,1-1.382.619,5.919,5.919,0,0,1-1.572.191,11.682,11.682,0,0,1-1.286-.1,6.24,6.24,0,0,1-1.286-.286,5.442,5.442,0,0,1-1.239-.429,7.751,7.751,0,0,1-1.1-.524l1.334-2.716a9.362,9.362,0,0,0,1.191.619q.5.214,1.143.429a4.111,4.111,0,0,0,1.334.191,1.339,1.339,0,0,0,.715-.143.387.387,0,0,0,.191-.381.582.582,0,0,0-.191-.429,3.172,3.172,0,0,0-.572-.286,4.024,4.024,0,0,0-.81-.238c-.286-.1-.619-.191-.953-.286a5.448,5.448,0,0,1-1.286-.572,7.445,7.445,0,0,1-.905-.667,1.994,1.994,0,0,1-.524-.858,3.83,3.83,0,0,1,.143-2.763,3.3,3.3,0,0,1,.953-1.191,3.624,3.624,0,0,1,1.334-.715,6.051,6.051,0,0,1,1.62-.238,5.493,5.493,0,0,1,1.239.143l1.143.286c.381.143.715.238,1.048.381a7.166,7.166,0,0,1,.858.429Z" transform="translate(-91.254 -193.2)"/><path class="d" d="M184.2,204.686V193.3h3.144v11.386Z" transform="translate(-104.972 -193.252)"/><path class="d" d="M198.9,204.686V193.3h4.383a6.579,6.579,0,0,1,2.477.429,4.9,4.9,0,0,1,1.81,1.239,4.991,4.991,0,0,1,1.1,1.81,6.616,6.616,0,0,1,.381,2.191,6,6,0,0,1-.429,2.334,4.861,4.861,0,0,1-2.954,2.954,6.17,6.17,0,0,1-2.334.429Zm6.956-5.717a3.129,3.129,0,0,0-.191-1.191,3.723,3.723,0,0,0-.524-.953,2.619,2.619,0,0,0-.81-.619,2.647,2.647,0,0,0-1.1-.238H202v5.908h1.239a2.647,2.647,0,0,0,1.1-.238,2.619,2.619,0,0,0,.81-.619,2.251,2.251,0,0,0,.476-.953A1.875,1.875,0,0,0,205.856,198.969Z" transform="translate(-112.669 -193.252)"/><path class="d" d="M235.1,201.971v2.716H227V193.3h7.956v2.716H230.1v1.62h4.145v2.525H230.1v1.81Z" transform="translate(-127.382 -193.252)"/><path class="d" d="M254.244,199.112v5.574H251.1V193.3h2.43l4.574,5.765V193.3h3.144v11.386H258.77Z" transform="translate(-140 -193.252)"/><path class="d" d="M288.419,196.116h-3.287v8.671h-3.144v-8.671H278.7V193.4h9.671v2.716Z" transform="translate(-154.451 -193.305)"/><path class="d" d="M305.5,204.686V193.3h3.144v11.386Z" transform="translate(-168.483 -193.252)"/><path class="d" d="M321.954,193.3h2.858l3.954,11.386h-3.192l-.667-2.239h-3.049l-.667,2.239H318Zm2.477,7.1-1-3.525-1.048,3.525Z" transform="translate(-175.028 -193.252)"/><path class="d" d="M346.6,204.686V193.3h3.144v8.671h5.145v2.716Z" transform="translate(-190.003 -193.252)"/><path class="d" d="M59.9,242.271v2.716H51.8V233.6h7.956v2.716H54.944v1.62h4.1v2.525H54.9v1.81Z" transform="translate(-35.65 -214.353)"/><path class="d" d="M75.9,245.086V233.7h3.144v8.671H84.19v2.716Z" transform="translate(-48.268 -214.405)"/><path class="d" d="M107.7,242.271v2.716H99.6V233.6h7.956v2.716H102.7v1.62h4.145v2.525H102.7v1.81Z" transform="translate(-60.677 -214.353)"/><path class="d" d="M122,239.222a6,6,0,0,1,.381-2.049,4.865,4.865,0,0,1,1.143-1.81,6.236,6.236,0,0,1,1.81-1.286,5.676,5.676,0,0,1,2.43-.476,6.03,6.03,0,0,1,2.858.667,4.415,4.415,0,0,1,1.81,1.81l-2.382,1.715a1.355,1.355,0,0,0-.429-.667,2.24,2.24,0,0,0-.572-.429,2.755,2.755,0,0,0-.667-.238,3.145,3.145,0,0,0-.667-.048,2.143,2.143,0,0,0-1.143.286,3.784,3.784,0,0,0-.81.667,2.251,2.251,0,0,0-.476.953,4.249,4.249,0,0,0-.143,1.048,3.2,3.2,0,0,0,.191,1.143,2.335,2.335,0,0,0,.524.953,2.761,2.761,0,0,0,.81.667,2.826,2.826,0,0,0,1.1.238,3.442,3.442,0,0,0,1.334-.333,1.829,1.829,0,0,0,.953-1.1l2.525,1.525a3.7,3.7,0,0,1-.762,1.143,4.058,4.058,0,0,1-1.191.81,6.336,6.336,0,0,1-1.429.524,8.37,8.37,0,0,1-1.477.191,5.414,5.414,0,0,1-2.334-.524,5.587,5.587,0,0,1-1.81-1.334,6.113,6.113,0,0,1-1.191-1.906A6.781,6.781,0,0,1,122,239.222Z" transform="translate(-72.405 -214.353)"/><path class="d" d="M158.519,236.416h-3.287v8.671h-3.144v-8.671H148.8V233.7h9.671v2.716Z" transform="translate(-86.437 -214.405)"/><path class="d" d="M175.6,245.086V233.7h3.144v11.386Z" transform="translate(-100.47 -214.405)"/><path class="d" d="M194.665,245.182a5.247,5.247,0,0,1-2.334-.476,6.235,6.235,0,0,1-1.81-1.286,5.408,5.408,0,0,1-1.191-1.858,5.735,5.735,0,0,1-.429-2.144,5.384,5.384,0,0,1,.429-2.144,5.978,5.978,0,0,1,1.191-1.81,6.468,6.468,0,0,1,1.858-1.286,5.389,5.389,0,0,1,2.334-.476,5.247,5.247,0,0,1,2.334.476,5.587,5.587,0,0,1,1.81,1.334A4.685,4.685,0,0,1,200,237.368a5.555,5.555,0,0,1,.429,2.144,5.384,5.384,0,0,1-.429,2.144,5.691,5.691,0,0,1-1.191,1.81,6.467,6.467,0,0,1-1.858,1.286A6.738,6.738,0,0,1,194.665,245.182Zm-2.573-5.765a4.06,4.06,0,0,0,.143,1.1,2.98,2.98,0,0,0,.476.953,1.861,1.861,0,0,0,.81.667,2.243,2.243,0,0,0,1.143.238,2.446,2.446,0,0,0,1.191-.286,2.889,2.889,0,0,0,.81-.667,3.57,3.57,0,0,0,.476-.953,4.325,4.325,0,0,0,.143-1.1,4.061,4.061,0,0,0-.143-1.1,3.57,3.57,0,0,0-.476-.953,2.76,2.76,0,0,0-.81-.667,2.878,2.878,0,0,0-1.143-.238,2.708,2.708,0,0,0-1.143.238,2.26,2.26,0,0,0-.81.667,3.571,3.571,0,0,0-.476.953A3.2,3.2,0,0,0,192.092,239.417Z" transform="translate(-107.433 -214.405)"/><path class="d" d="M223.144,239.412v5.574H220V233.6h2.43L227,239.365V233.6h3.144v11.386H227.67Z" transform="translate(-123.717 -214.353)"/><path class="d" d="M252.1,244.877c0-.715.048-1.382.1-1.953a4.475,4.475,0,0,1,.381-1.477,3.286,3.286,0,0,1,.858-1.143,6.052,6.052,0,0,1,1.477-.905c.333-.143.667-.333.953-.476a4.721,4.721,0,0,0,.81-.524,1.591,1.591,0,0,0,.524-.619,1.4,1.4,0,0,0,.191-.762.872.872,0,0,0-.333-.81,1.17,1.17,0,0,0-.715-.238,2.308,2.308,0,0,0-1.239.333,5.033,5.033,0,0,0-1.1.81l-1.858-2.049a2.889,2.889,0,0,1,.81-.667,3.983,3.983,0,0,1,1.1-.572,5.738,5.738,0,0,1,1.286-.381,7.4,7.4,0,0,1,1.477-.143,4.444,4.444,0,0,1,3,.953,3.386,3.386,0,0,1,1.048,2.716,4.169,4.169,0,0,1-.143,1.143,3.16,3.16,0,0,1-.429.905,2.552,2.552,0,0,1-.715.715c-.286.191-.619.429-.953.619-.238.143-.476.238-.667.381a6.971,6.971,0,0,0-.619.429,4.294,4.294,0,0,0-.476.429,1.006,1.006,0,0,0-.191.476h4.24v2.716H252.1Z" transform="translate(-140.524 -214.196)"/><path class="d" d="M278.393,245.229a4.711,4.711,0,0,1-2.239-.524,5.674,5.674,0,0,1-1.62-1.382,7.01,7.01,0,0,1-1-1.858,5.88,5.88,0,0,1-.333-2,6.223,6.223,0,0,1,.381-2.049,6.012,6.012,0,0,1,1.048-1.858,4.868,4.868,0,0,1,1.62-1.334,4.461,4.461,0,0,1,2.144-.524,4.349,4.349,0,0,1,2.239.572,5.782,5.782,0,0,1,1.62,1.382,6.345,6.345,0,0,1,1,1.858,5.807,5.807,0,0,1,.333,1.953,6.5,6.5,0,0,1-.381,2.1,6.012,6.012,0,0,1-1.048,1.858,5.521,5.521,0,0,1-1.62,1.334A5.07,5.07,0,0,1,278.393,245.229Zm-2-5.765a7.8,7.8,0,0,0,.1,1.048,5.606,5.606,0,0,0,.333.953,2.243,2.243,0,0,0,.619.715,1.466,1.466,0,0,0,.905.286,1.61,1.61,0,0,0,.953-.286,2.243,2.243,0,0,0,.619-.715,3.234,3.234,0,0,0,.333-.953,7.1,7.1,0,0,0,.1-1,7.786,7.786,0,0,0-.1-1.048,5.6,5.6,0,0,0-.333-.953,2.243,2.243,0,0,0-.619-.715,1.466,1.466,0,0,0-.905-.286,1.61,1.61,0,0,0-.953.286,2.243,2.243,0,0,0-.619.715,3.235,3.235,0,0,0-.333.953A7.112,7.112,0,0,0,276.392,239.465Z" transform="translate(-151.572 -214.405)"/><path class="d" d="M297.3,244.877c0-.715.048-1.382.1-1.953a4.476,4.476,0,0,1,.381-1.477,3.286,3.286,0,0,1,.858-1.143,6.052,6.052,0,0,1,1.477-.905c.333-.143.667-.333.953-.476a4.722,4.722,0,0,0,.81-.524,1.591,1.591,0,0,0,.524-.619,1.4,1.4,0,0,0,.191-.762.872.872,0,0,0-.333-.81,1.17,1.17,0,0,0-.715-.238,2.308,2.308,0,0,0-1.239.333,5.033,5.033,0,0,0-1.1.81l-1.858-2.049a2.89,2.89,0,0,1,.81-.667,5.907,5.907,0,0,1,1.1-.572,5.738,5.738,0,0,1,1.286-.381,7.4,7.4,0,0,1,1.477-.143,4.444,4.444,0,0,1,3,.953,3.386,3.386,0,0,1,1.048,2.716,4.169,4.169,0,0,1-.143,1.143,3.16,3.16,0,0,1-.429.905,2.552,2.552,0,0,1-.715.715,6.542,6.542,0,0,1-.953.619c-.238.143-.476.238-.667.381a6.971,6.971,0,0,0-.619.429,4.294,4.294,0,0,0-.476.429,1.006,1.006,0,0,0-.191.476h4.24v2.716H297.3Z" transform="translate(-164.19 -214.196)"/><path class="d" d="M323.593,245.229a4.71,4.71,0,0,1-2.239-.524,5.674,5.674,0,0,1-1.62-1.382,7.01,7.01,0,0,1-1-1.858,5.881,5.881,0,0,1-.333-2,6.222,6.222,0,0,1,.381-2.049,6.013,6.013,0,0,1,1.048-1.858,4.869,4.869,0,0,1,1.62-1.334,4.461,4.461,0,0,1,2.144-.524,4.349,4.349,0,0,1,2.239.572,6.183,6.183,0,0,1,2.906,5.193,6.5,6.5,0,0,1-.381,2.1,6.013,6.013,0,0,1-1.048,1.858,5.521,5.521,0,0,1-1.62,1.334A4.693,4.693,0,0,1,323.593,245.229Zm-1.953-5.765a7.791,7.791,0,0,0,.1,1.048,5.608,5.608,0,0,0,.333.953,2.243,2.243,0,0,0,.619.715,1.466,1.466,0,0,0,.905.286,1.61,1.61,0,0,0,.953-.286,2.243,2.243,0,0,0,.619-.715,3.234,3.234,0,0,0,.333-.953,7.1,7.1,0,0,0,.1-1,7.786,7.786,0,0,0-.1-1.048,5.6,5.6,0,0,0-.333-.953,2.243,2.243,0,0,0-.619-.715,1.466,1.466,0,0,0-.905-.286,1.61,1.61,0,0,0-.953.286,2.243,2.243,0,0,0-.619.715,3.234,3.234,0,0,0-.333.953A3.567,3.567,0,0,0,321.64,239.465Z" transform="translate(-175.238 -214.405)"/></g><g transform="translate(68.447 137.682)"><rect class="b" width="60.6" height="2.906"/></g></g></svg>