<?xml version="1.0" encoding="utf-8"?>
<!-- Generator: Adobe Illustrator 23.0.6, SVG Export Plug-In . SVG Version: 6.00 Build 0)  -->
<svg version="1.1" id="Layer_1" xmlns="http://www.w3.org/2000/svg" xmlns:xlink="http://www.w3.org/1999/xlink" x="0px" y="0px"
	 viewBox="0 0 386.9 81.6" style="enable-background:new 0 0 386.9 81.6;" xml:space="preserve">
<style type="text/css">
	.st0{fill:#00ABFF;}
	.st1{fill:none;stroke:#231F20;stroke-width:0.5494;stroke-miterlimit:10;}
	.st2{fill:#231F20;}
</style>
<polygon class="st0" points="13.6,22.7 13.6,56.9 25,56.9 25,45.7 40.1,45.7 40.1,37.2 25,37.2 25,31.2 41.2,31.2 41.2,22.7 "/>
<polygon class="st0" points="42.2,22.7 53.6,22.7 53.6,47.4 67.8,47.4 67.8,56.9 42.2,56.9 "/>
<path class="st0" d="M84.1,43.9h7.1l-3.5-10L84.1,43.9z M95.7,56.9L94,52H81.2l-1.8,4.8H67.8l14.4-34.2h11.6l13.9,34.2H95.7z"/>
<g>
	<path class="st0" d="M127.5,31.7c-2.3-0.8-4.1-1.2-5.6-1.2c-1.4,0-2.1,0.5-2.1,1.5c0,0.8,0.4,1.4,1.3,1.8c0.9,0.4,2.3,0.9,4.3,1.4
		c2.4,0.7,4.5,1.4,6.1,2c1.6,0.7,3,1.8,4.2,3.2c1.2,1.5,1.8,3.4,1.8,5.8c0,2.5-0.6,4.5-1.9,6.2c-1.3,1.7-3,2.9-5.2,3.7
		c-2.2,0.8-4.6,1.2-7.3,1.2c-3,0-6.1-0.5-9.2-1.5c-3.1-1-5.7-2.4-8-4.1l4.2-8.5c1.7,1.5,3.9,2.8,6.5,3.8c2.6,1.1,4.8,1.6,6.5,1.6
		c0.8,0,1.5-0.2,2-0.5c0.5-0.3,0.7-0.8,0.7-1.4c0-0.8-0.5-1.4-1.4-1.8c-0.9-0.4-2.4-0.9-4.4-1.4c-2.4-0.6-4.4-1.3-6-1.9
		c-1.6-0.7-3-1.7-4.2-3.1c-1.2-1.4-1.8-3.3-1.8-5.6c0-2.3,0.6-4.3,1.8-6c1.2-1.7,2.9-3,5.1-3.9c2.2-0.9,4.8-1.4,7.7-1.4
		c2.7,0,5.3,0.4,8,1.1c2.7,0.7,5,1.7,6.9,3l-4.1,8.6C131.9,33.4,129.8,32.5,127.5,31.7"/>
</g>
<polygon class="st0" points="151.8,51.3 151.8,44.5 157.9,44.5 173.7,26.7 173.7,22.7 162.4,22.7 162.4,35.9 151.8,35.9 151.8,22.7 
	140.5,22.7 140.5,56.9 146.8,56.9 "/>
<g>
	<line class="st1" x1="180.3" y1="22" x2="140.8" y2="67.6"/>
</g>
<path class="st2" d="M197.4,53.3h7.1l-3.5-10L197.4,53.3z M209,66.2l-1.7-4.8h-12.8l-1.8,4.8h-11.6L195.5,32h11.6l13.9,34.2H209z"/>
<g>
	<path class="st2" d="M239.3,42c-1.4-0.9-2.8-1.3-4.1-1.3c-1.3,0-2.5,0.4-3.6,1c-1.1,0.7-1.9,1.7-2.5,2.9c-0.6,1.2-0.9,2.6-0.9,4.2
		s0.3,3,0.9,4.2c0.6,1.3,1.4,2.2,2.5,3c1.1,0.7,2.3,1.1,3.6,1.1c1.2,0,2.6-0.4,4-1.1c1.4-0.7,2.7-1.7,3.8-2.9l6.5,7
		c-1.9,2.1-4.2,3.8-6.9,5.1c-2.7,1.3-5.3,1.9-8,1.9c-3.4,0-6.5-0.8-9.3-2.3c-2.7-1.5-4.9-3.7-6.5-6.4c-1.6-2.7-2.3-5.8-2.3-9.2
		c0-3.4,0.8-6.4,2.4-9.1c1.6-2.7,3.8-4.8,6.6-6.3c2.8-1.5,6-2.3,9.5-2.3c2.6,0,5.2,0.6,7.9,1.7c2.6,1.2,4.8,2.7,6.6,4.6l-6.5,7.8
		C241.9,44,240.7,42.8,239.3,42"/>
</g>
<polygon class="st2" points="286,66.2 272.5,66.2 265.2,54.3 262,57.9 262,66.2 250.7,66.2 250.7,32 262,32 262,44.5 272.2,32 
	285.2,32 273,45.7 "/>
<g>
	<path class="st2" d="M170.6,57.1c-0.6,0.5-1.5,0.8-2.5,0.8h-5.4v-5.2h5.4c1,0,1.9,0.2,2.5,0.7c0.6,0.5,1,1.1,1,1.8
		C171.6,56,171.3,56.6,170.6,57.1 M176.6,47.9c1.8-0.5,3.2-1.4,4.2-2.8c1-1.3,1.6-2.8,1.6-4.5c0-1.7-0.6-3.2-1.7-4.5
		c-1.1-1.3-2.7-2.3-4.7-3c-0.7-0.2-1.4-0.4-2.1-0.6l-7,7.8h1.2c0.8,0,1.4,0.2,1.9,0.7c0.5,0.4,0.7,1,0.7,1.7c0,0.7-0.2,1.4-0.7,1.8
		c-0.5,0.5-1.1,0.7-1.9,0.7h-5.4V45l-11.3,12.6v8.6h18.2c2.8,0,5.2-0.4,7.2-1.2s3.7-1.9,4.8-3.4c1.1-1.5,1.7-3.2,1.7-5.1
		c0-2.1-0.6-4-1.9-5.6C180.3,49.4,178.6,48.4,176.6,47.9"/>
	<path class="st2" d="M314.8,65.2v1h-24l0-1.4l14.2-14.9c1.8-1.9,3.3-3.8,4.3-5.7c1.1-1.8,1.6-3.5,1.6-4.8c0-2.2-0.8-4-2.5-5.2
		s-3.9-1.9-6.8-1.9c-1.8,0-3.6,0.4-5.4,1.1c-1.8,0.8-3.4,1.8-4.7,3.1l-0.7-0.7c1.4-1.4,3.1-2.5,5-3.3c1.9-0.8,3.8-1.2,5.8-1.2
		c3.2,0,5.7,0.7,7.6,2.2c1.8,1.4,2.8,3.4,2.8,6c0,1.5-0.6,3.2-1.7,5.2c-1.1,2-2.6,4-4.6,6l-13.9,14.7H314.8z"/>
	<path class="st2" d="M319.4,36.4c-2.2,2.8-3.3,6.9-3.3,12.3c0,5.3,1.1,9.4,3.3,12.3c2.2,2.9,5.4,4.3,9.5,4.3c4.1,0,7.3-1.4,9.5-4.3
		c2.2-2.9,3.3-7,3.3-12.3c0-5.3-1.1-9.4-3.3-12.3c-2.2-2.8-5.4-4.3-9.5-4.3C324.8,32.2,321.6,33.6,319.4,36.4 M339.2,35.7
		c2.4,3,3.6,7.4,3.6,13c0,5.7-1.2,10-3.6,13s-5.8,4.5-10.2,4.5c-4.4,0-7.8-1.5-10.2-4.6c-2.4-3-3.6-7.4-3.6-13c0-5.6,1.2-10,3.6-13
		c2.4-3,5.8-4.5,10.2-4.5C333.4,31.2,336.8,32.7,339.2,35.7"/>
</g>
<polygon class="st2" points="340.3,31.3 350.6,31.3 350.6,66.2 349.7,66.2 349.7,32.3 340.3,32.3 "/>
<g>
	<path class="st2" d="M365.1,31.6c2.4,0,4.4,0.5,6,1.6c1.6,1,2.8,2.3,3.6,3.9c0.8,1.5,1.2,3,1.2,4.5c0,1.8-0.5,3.4-1.4,5
		c-0.9,1.6-2.2,2.8-3.9,3.8c-1.7,1-3.7,1.4-5.9,1.4c-3.1,0-5.5-0.9-7.4-2.6c-1.8-1.8-2.8-4.1-2.8-7.2c0-2.1,0.4-3.9,1.3-5.4
		c0.9-1.6,2.1-2.8,3.7-3.6C361.2,32.1,363.1,31.6,365.1,31.6 M355.6,62.8l-0.5,0.9c1.5,0.7,3,1.2,4.6,1.6c1.6,0.4,3.2,0.6,4.6,0.6
		c2.8,0,5.2-0.8,7.3-2.3c2.1-1.5,3.6-3.7,4.7-6.5c1.1-2.8,1.7-6.1,1.7-9.8c0-5.4-1.1-9.5-3.4-12.4c-2.3-2.9-5.5-4.3-9.7-4.3
		c-3.5,0-6.2,1-8.3,3c-2.1,2-3.1,4.7-3.1,8.2c0,3.4,1,6.1,3,8c2,1.9,4.7,2.9,8.2,2.9c3.2,0,5.9-0.8,8.1-2.5c2.1-1.7,3.5-4,4-7
		c0.1,1.8,0.2,3.1,0.2,4c0,5.6-1.1,10-3.4,13.1c-2.2,3.1-5.4,4.7-9.4,4.7c-1.4,0-2.9-0.2-4.4-0.6C358.3,64,356.9,63.5,355.6,62.8"/>
</g>
</svg>
