<?xml version="1.0" encoding="utf-8"?>
<!-- Generator: Adobe Illustrator 24.3.0, SVG Export Plug-In . SVG Version: 6.00 Build 0)  -->
<svg version="1.1"
	 id="svg124" xmlns:cc="http://creativecommons.org/ns#" xmlns:dc="http://purl.org/dc/elements/1.1/" xmlns:inkscape="http://www.inkscape.org/namespaces/inkscape" xmlns:rdf="http://www.w3.org/1999/02/22-rdf-syntax-ns#" xmlns:sodipodi="http://sodipodi.sourceforge.net/DTD/sodipodi-0.dtd" xmlns:svg="http://www.w3.org/2000/svg"
	 xmlns="http://www.w3.org/2000/svg" xmlns:xlink="http://www.w3.org/1999/xlink" x="0px" y="0px" viewBox="0 0 453.7 521"
	 style="enable-background:new 0 0 453.7 521;" xml:space="preserve">
<style type="text/css">
	
		.st0{fill-rule:evenodd;clip-rule:evenodd;fill:#FFF;stroke:#999;stroke-width:0.7368;stroke-linecap:square;stroke-linejoin:bevel;stroke-miterlimit:3;}
	
		.st1{fill-rule:evenodd;clip-rule:evenodd;fill:#FFF;stroke:#999;stroke-width:0.7368;stroke-linecap:square;stroke-linejoin:bevel;stroke-miterlimit:10;}
	
		.st2{fill-rule:evenodd;clip-rule:evenodd;fill:#FFF;stroke:#999;stroke-width:0.7365;stroke-linecap:square;stroke-linejoin:bevel;stroke-miterlimit:10;}
	
		.st3{fill-rule:evenodd;clip-rule:evenodd;fill:#FFF;stroke:#999;stroke-width:0.7368;stroke-linecap:square;stroke-linejoin:bevel;stroke-miterlimit:10;}
	
		.st4{fill-rule:evenodd;clip-rule:evenodd;fill:#FFF;stroke:#999;stroke-width:0.7368;stroke-linecap:square;stroke-linejoin:bevel;stroke-miterlimit:10;}
</style>
<sodipodi:namedview  bordercolor="#666666" borderopacity="1" fit-margin-bottom="0" fit-margin-left="0" fit-margin-right="0" fit-margin-top="0" gridtolerance="10" guidetolerance="10" id="namedview126" inkscape:current-layer="svg124" inkscape:cx="333.13035" inkscape:cy="546.90602" inkscape:pageopacity="0" inkscape:pageshadow="2" inkscape:window-height="709" inkscape:window-maximized="1" inkscape:window-width="1366" inkscape:window-x="0" inkscape:window-y="0" inkscape:zoom="1.3231789" objecttolerance="10" pagecolor="#ffffff" showgrid="false">
	</sodipodi:namedview>
<desc  id="desc2">Generated with Qt</desc>
<g id="g6">
</g>
<g id="g8" transform="scale(11.8081)">
</g>
<g id="g14" transform="scale(11.8081)">
</g>
<g id="g16" transform="scale(11.8081)">
</g>
<g id="g18" transform="scale(11.8081)">
</g>
<g id="g20" transform="scale(11.8081)">
</g>
<g id="g26" transform="scale(11.8081)">
</g>
<g id="g42" transform="scale(0.999751)">
	<path id="path32" inkscape:connector-curvature="0" class="st0" d="M97.5,200.5l-1.1,0.5l-1.1,2.1l-0.3,1.1l1,2.9l1.1,2.6l-0.6,1.4
		l0.1,0.7l-3.1-0.7l-0.8-1l-1.8-1.3l-1.3-0.5l-1.6-0.1l-1.5,0.8l-0.8,1.1l-0.3,1l-0.3,2l-1.1-0.2l-0.2,1.4l-1.6,1.4l-1.7,0.5
		l-0.2,1.1l-0.3,2.4l-0.4,1l-2.6,1.9l-2.1-0.4l-2.5-1.4l-1.3,0.3l-1.3,0.8l-0.2,0.8l-0.9,1.6l-0.8,0.2l-1.9-0.8l-5.6,0l-3.3-0.9
		l-3.4-3.5l-0.7,0.2l-1.8-2.3l0.3-1l-1.4-1.5l-1.8-1.7l-1.5-0.6l-4.2,1.2l-1.4,0.5l-1,0.5l-0.7,0.7l-2.6-0.2l-1,1.3l-0.8,0.6
		l0.1,1.3l-0.8,1.4l-3.8,0.5l-0.2,1.5l2.3,3.2l0.5,0.4l-0.1,5.1l1.3,0.5l0.2,0.8L35,232l1,0.3l0.4,0.9l-0.6,2.8l-0.7,0.8l0.1,1.6
		l-0.7,1.2l0.9,0.6l1.5,1.4l0.8,2.1l0.9,0.8l-0.4,1l0.6,1.3l0.1,2l0.5,3.8l0.2,0.8l0.4,0.8l-0.2,1.9L40,257l-0.2,0.8l1.2,0.8
		l0.9,3.7l2.8-0.3l1,1.4l3.2,0.1l1.1,0.5l0.3,0.4l-0.1,1.4l0.8,4l0.5,1.6l1-0.2l0.9,0.6l1.3,0.3l1.3,0.6l0.3,0.4l-0.2,1.6l0.9,0.5
		l2.5,2.3l1.4,0.5l3.1,0.5l1.7,0.5l-0.2,1.9l1.6,0.4l4.1,1.5l0.9,0.9l0,1.5l-1.1,1.1l-1.5,1.3l0.6,1.7l1.6,0.1l0.7,0.4l0.8-0.7
		l1.1-0.6l1.9,0.4l0.2,0.7l1.3-0.4l0.9,1.5l0.8,0.1l4.1,0.8l1.4,0.5l0-0.7l0.7-0.2l0-0.7l0.9-0.6l-0.3-1l-0.2-1.4l0.3-1.3l0.5-0.3
		l0-0.5l0.6-0.6l0.2-1.1l-0.3-1.7l-1-1.3l-1.8-1.2l-0.5-1.1l-2.4-1.5l-2.7-0.5l-3.8-1.2l0.6-1.4l0.4-3.1l1.2-1.8l1.8-1l0.1-3l1-0.2
		l4.6-2.6l2.3-0.3l5.3,0.8l1.1-0.1l1.7-1.2l3.1-1.1l0.8-0.6l1.2-0.3l0.3-0.8l0.7-0.4l2.4-0.6l1.5,0l0.7-1.3l1.7-0.9l1.5-0.9l0.8,0
		l0.6,0.4l0.3,0.5l2.3,1.1l0.1-0.6l0-1.1l-0.6-0.9l-1-1.1l1.4-0.1l0.2,0.8l0.6,0.3l0.7-0.3l0.7,0.2l0.5,0.4l0.6,0.9l-0.7,1.6
		l0.3,0.8l1-0.2l0.5-0.5l-0.2-0.5l0.3-1.5l-0.6-1.5l-0.5-0.4l-0.9-0.3l1.2-0.8l1.7,0.2l1.7,0.7l1.8,1.1l1.6,0.6l0.4-0.7l0.2-1.4
		l2.2,0.7l-0.1,0.8l1.4-0.5l-0.4-0.8l0.4-0.6l-0.6-0.6l0.9-0.3l2,0l1-0.4l0.4-0.8l-0.1-0.8l-0.6-1.9l1-0.1l0.8-0.6l0.9-1.7l0.6,1.1
		l1.6-2.4l-0.1-0.8l0.3-1.7l0.7-0.9l0.9,0l0.4-1.1l0.4-3.1l0.6-2.7l0-0.7l-0.2-1l-0.7-0.8l-0.2-0.4l0.7-1l0.2-0.6l-0.2-0.7l-0.5-0.9
		l0-0.4l0.2-1.1l0.9-2.3l-1.9-0.4l-1.7,0.7l-3-0.6l-1.2-0.6l0.5-2.3l0.7-1.4l-2.7-1.2l-0.5-0.7l-0.6-0.1l-0.2-0.7l0.2-2l1.7-1.7
		l-1.1-0.8l-2.1-1l1.3-1.9l0.1-0.6l-0.6-0.2l-0.9,0.1l-0.2-0.4l0.6-0.3l0.7-0.8l-0.2-0.7l-0.6-1.2l-0.7-0.7l-1-0.6l-1,0l-1,0.3
		l-1.1,0.4l-0.7,0.2l-0.7,0l-1.4-0.2l-0.4,0.4l-0.4,0.9l-2.3-0.5l-2.6-1.1l-0.9,0.2l-1.9,1.6l-0.5,1.2l-0.6,0.6l-1.1,0.1l-0.7-0.3
		l-1.4-1.3l-0.4-0.7l0.1-2.2l-0.3-0.2l-0.8,0.1l-1-0.1l-0.8,0.1l-0.9,0.5l-0.7-0.1l-0.6-0.3l-1.8-0.8l-0.8-0.8L97.5,200.5z"/>
	<path id="path36" inkscape:connector-curvature="0" class="st1" d="M160.2,262.2l-1.1,1l-0.9,0.6l-0.6,0l-0.8-0.5l-0.7,1.8
		l-0.9,4.1l-0.7,0.7l-1,0.2l-0.6-0.4l-0.3-5.3l-0.8-0.5l-2-0.4l-2.6-0.9l-0.5-1.2l-1,0.8l-0.5,1.3l-0.2,2.4l-0.1,0.2l-1.1,0
		l-0.2,0.4l0.2,0.5l0.8,0.8l0.4,0.7l-0.5,2.5l-0.8,2.5l-0.8,3l-0.4,0.9l-0.3,0.3l-0.6-0.1l-1.1-0.5l-1.7-0.1l-1.2,0.6l-0.6,1.3
		l0.1,0.7l0.7,1.1l0.3,1.6l-0.2,1.7l-0.5,1.4l-2.3-0.6l-2.2,0.3l-0.8-0.3l-0.4-0.5l-0.3-1.6l-0.3-0.7l-1.6-0.9l-1.4,0l-0.5,1
		l-0.2,1.4l-0.4,0.6l-0.8,0.1l-0.2,0.4l-0.8-0.1l-0.8,0.2l-0.6,1.2l-1.6,0.2l-0.4-0.3l0-1.1l-0.1-0.8l-1-0.6l0-1.4l-1.1,0L119,283
		l-0.7,0.5l-1.2-0.1l-1.1,0.2l-1.4-0.2l-0.5,0.8l-0.7,2.1l-1.3,0.5l-0.7,1.5l-0.8,0.7l-1,1.9l-1.5-0.3l-1.5,0.1l-2.6,0.5l-1.2,0.3
		l-0.8,0l0-0.6l0.3-1.2l-1.2-1.1l0.3-2.6l-2.2-1l-3.6,0.2l-8.7,1.2l0-0.5l0.6-0.6l0.2-1.1l-0.3-1.7l-1-1.3l-1.8-1.2l-0.5-1.1
		l-2.4-1.5l-2.7-0.5l-3.8-1.2l0.6-1.4l0.3-3.1l1.2-1.8l1.8-1l0.1-3l1-0.2l4.6-2.6l2.3-0.3l5.3,0.8l1.1-0.1l1.7-1.2l3.1-1.1l0.8-0.6
		l1.2-0.3l0.3-0.8l0.7-0.4l2.4-0.6l1.5,0l0.7-1.3l1.7-0.9l1.5-0.9l0.8,0l0.6,0.4l0.3,0.5l2.3,1.1l0.1-0.6l0-1.1l-0.6-0.9l-1-1.1
		l1.4-0.1l0.2,0.8l0.6,0.3l0.7-0.3l0.7,0.2l0.5,0.4l0.6,0.9l-0.7,1.6l0.3,0.8l1-0.2l0.5-0.5l-0.2-0.5l0.3-1.5l-0.6-1.5l-0.5-0.4
		l-0.9-0.3l1.2-0.8l1.7,0.2l1.7,0.7l1.8,1.1l1.6,0.6l0.4-0.7l0.2-1.4l2.2,0.7l-0.1,0.8l1.4-0.5l-0.4-0.8l0.4-0.6l-0.6-0.6l0.9-0.3
		l2,0l1-0.4l0.4-0.8l-0.1-0.8l-0.6-1.9l1-0.1l0.8-0.6l0.9-1.7l0.6,1.1l1.6-2.4l-0.1-0.7l0.3-1.7l0.7-0.9l0.9,0l0.4-1.1l0.4-3.1
		l1.7-0.1l1.2-0.5l2.3,0.1l0.5,0.5l2.4,1l0.5,0.4l0.8,1.1l1,0.6l1,0.3l0.5,0.4l0.4,1.3l0.5,0.2l1.2,1l0.3,0.7l0.4,0.5l-0.7,2.4
		l-0.9,0.5l-0.8,0.8l-0.1,0.6l-0.8,1.3l0,0.7l0.4,0.6l2.9,2.4l-0.2,1.5l0.2,0.4l3.8,0.2l1.9,0.6l0.4,0.5l0,1.1l-1,0.8l0.7,0.9l1.1,1
		l0.8,1.3L160.2,262.2"/>
</g>
<g id="g70" transform="scale(0.999751)">
	<path id="path44" inkscape:connector-curvature="0" class="st0" d="M264.5,306.5l-0.3,0.4l0.4,1.2l-0.1,0.5l-0.9-0.7l-0.9-0.4
		l-0.7-0.6l-1.5,0.6l0.1,0l-1.9,0.5l-0.4,0.6l-0.1,0.6l-0.6,0.3l-0.8,0.4l-0.4,0.7l0.2,1.2l0.3,0.6l-0.4,0.5l-1.7,0.9l-0.6,0.5
		l-0.3,0.9l0.1,0.6l1.1,0.1l0.8,0.3l0.5,0.5l-0.5,1.7l-1.3,0.1l-1.1-0.3l-1.2-0.1l-0.3,0.3l-0.1,0.8l0.2,0.7l-0.3,0.9l-1.7,0.8
		l-0.4,1.1l-0.4,0.7l-1.4,1.4l0.2,0.7l1.4,0.5l0.2,1l-0.4,0.6l-0.6,0.5l0.3,1.1l-1.1,1.9l-0.1,1.4l-1.4,0.7l-0.7-0.2l-2,0.6l0.6,1
		l0.8,0.4l0.1,0l0.5,0.9l-0.4,1.1l-0.1,0.7l0.1,0.8l-0.5,0.6l-0.7,0.3l0,0.2l0.5,0.3l0.3,0.5l-0.2,0.5l-0.8,0.4l-2.4,0.7l-0.8,0.8
		l-0.2,0.5l-0.3,0.4l0.4,0.1l1.4,0.8l1.3,1l0.4,0.2l0.4,0.4l0.7,0.2l1.3,0.7l1.6,0l0.6-0.3l1.1,0l0.2,0.9l0.3,0.4l0.3,0.3l0.8,0.4
		l0.4,0.7l0.7,0.3l1-0.1l0.4,0.3l0.1,0.3l0.6,0.4l0.3-0.3l0.2-0.6l0.3-0.2l0.8,0.3l0.5,0.6l1,0.8l0.6,0.7l0.9,0.7l0.7,0.8l1.5,2.3
		l0.5,0.5l1.4,0.7l1.3,1.1l0.6,0.2l1.3,0.6l1.4,0.2l0.5-0.3l0.6-1.3l0.3-0.5l0.3-0.8l1.3,0.4l1.9,1.7l0.3,0.6l0,1.8l0.8,0.7l1,0.6
		l0.3-0.1l0.2-0.3l0.9-0.6l0.6,0.1l1.1,0.3l1.6-0.5l0.7-0.3l0.5-0.1l1.1,0.1l1.4,0.5l1.4,0.1l1.1-0.1l0.3-0.2l-0.1-0.2l-1-0.9
		l-0.2-0.3l-0.1-0.5l-0.4-0.8l0.3-0.6l0.4-0.3l0.5-0.8l0.2-0.1l0.3,0l1,0.3l1.1,0.7l1.6,1.4l0.5,0l1.7-0.9l1.5-1.2l0.4-0.8l0.3-1.4
		l-0.3-0.9l-0.2-0.2l0-1l-0.3-0.5l0-0.1l1.2-1l0.9-0.5l0.4,0.3l0.3,1l0.2,0.3l0.4,0.1l0.3-0.1l1.1-0.6l0.7-0.2l0.3,0.1l0.7,0.6
		l1.6-1.3l0.6-1l0.2-1.1l-0.2-1l-0.9-0.1l-1.8,0.1l-0.6-0.4l-0.1-0.7l0.5-0.5l1.7-0.9l0.7-0.6l0.4-0.6l-2-1.7l-1.1-0.5l-0.3-1
		l-0.4-0.6l-0.6-0.7l-0.6-0.4l-0.3-0.5l-0.7-0.7l-1.4-0.6l-0.2-0.7l0.7-1.1l0-0.2l0-0.2l-0.8-1.7l-0.7-0.7l-0.2-0.7l-0.1-0.3
		l0.5-2.3l0.2-0.1l0.5-0.5l0.6,0l0.4,1.4l0.5,0.3l0.3-0.4l0.2-0.6l-0.1-0.8l-0.2-0.6l1.1-1.3l0-0.6l-0.2-1.1l-1.4-0.4l-0.1-0.3
		l0.3-0.4l0.7-0.2l0.1-1.8l0.3-0.4l1.7-0.2l-0.1-1l-0.3-0.3l-0.6-0.3l-0.7-0.2l-0.5,0.1l-2.9-0.4l-0.9,0.5l-2,1.7l-0.6-0.5l0.1-0.7
		l-1-0.3l-1.3,0.9l-0.9-0.2l-0.8,0.1l-0.9-0.7l-0.9-0.3l-0.3,0.8l-0.8-0.3l-0.6-0.4l0.3-0.9l-0.8-1l-0.6-1l0.4-1.1l0.8,0.3l1.2-0.3
		l0.9,0l-0.4-1l-0.8-0.8l-1,0.2l-2.8-1.4l-0.4,0.5l-0.8,0.5l-1.3,1.1l-1.2-0.5l-1.2-0.4l-2.9-1.4l0.6-0.6l0.2-1l-1,0.3l-0.7,0.4
		l-0.7,0.6l-0.6-0.6l-0.5-0.7l-0.8-0.6l-2.8-1.1l0.7-0.7l0.4-1l-0.2-0.8l-0.7,0.1l-1.2-0.6L264.5,306.5z"/>
	<path id="path46" inkscape:connector-curvature="0" class="st1" d="M279.5,278.4l0,1l0.7,0.7l0.9,0.6l1.6,0.4l1.3,0.2l0.3,0.6
		l-0.7,0.5l0.4,0.5l1.4,0.4l1.3,0l1,0.2l0.3,1.4l1,1.6l1.1,0.3l1,0.5l0.6,0.5l1.7,0.5l0.8,0.5l-0.1,1.3l-0.9,0.5l0.4,0.7l2.1,1.9
		l0.8,1.3l0.3,1.5l-1.2,1.1l-2.5,1.2l-0.4,0.4l0.3,0.5l1,0.8l1.1,0.6l1.8,2.2l-0.2,0.9l0.1,1l-0.3,1.6l-0.6,0.2l-2.1-0.3l-1,0.5
		l0.3,1l2.6,1l2,0.5l1.1,0.4l0.1,0l0.1,0l1.7,0.1l1.8-0.1l0.3,0.9l-0.7,0.9l-2.6,1.4l0.2,1.1l0.6,0.5l0.2,1.3l-0.5,0.7l-0.8,0
		l-0.3-0.6l-1.7-0.9l-1.1,0.1l0.2,2.5l0.2,1l1.2-0.3l0.5-1.1l2,0.5l1.2-0.2l1,0.3l0.6,1.2l-1.4,1.5l-2.6,0.7l-0.1-1l-0.3-0.3
		l-0.6-0.3l-0.7-0.2l-0.5,0.1l-2.9-0.4l-0.9,0.5l-2,1.7l-0.6-0.5l0.1-0.7l-1-0.3l-1.3,0.9l-0.9-0.2l-0.8,0.1l-0.9-0.7l-0.9-0.3
		l-0.3,0.8l-0.8-0.3l-0.6-0.4l0.3-0.9l-0.8-1l-0.6-1l0.4-1.1l0.8,0.3l1.2-0.3l0.9,0l-0.4-1l-0.8-0.8l-1,0.2l-2.8-1.4l-0.4,0.5
		l-0.8,0.5l-1.3,1.1l-1.2-0.5l-1.2-0.4l-2.9-1.4l0.6-0.6l0.2-1l-1,0.3l-0.7,0.4l-0.7,0.6l-0.6-0.6l-0.5-0.7l-0.8-0.6l-2.8-1.1
		l0.7-0.7l0.4-1l-0.2-0.8l-0.7,0.1l-1.2-0.6l-0.9-0.2l-0.3,0.4l0.4,1.3l-0.1,0.5l-0.9-0.7l-0.9-0.4l-0.7-0.6l0.1-0.2l0.2-0.3
		l-0.1-0.4l-0.2-0.4l-0.8-0.5l-0.6-0.6l-0.5-0.3l-1.2-0.1l-1-0.4l-0.6,0l-0.7,0.2l-0.8,0.1l-0.4-0.5l-0.6-0.5l-0.9-0.3l-0.9-0.5
		l-0.9-0.4l-1.4-1.1l-0.4-0.7l-0.2-1.6l0-0.9l0.2-0.8l0.1-2.2l-0.3-1.8l0.1-0.7l0.2-0.4l1.8-1.1l1.2-1.1l1.8-0.5l2.1,0l1.4-0.1
		l1.2-0.3l1-0.4l2.3-1.3l0.3-0.6l0.1-1l-0.1-0.8l-0.4-0.8l-0.9-0.8l-0.9-0.1l-0.1-0.5l0.2-0.8l0.6-0.8l0.6-0.5l0.8-0.6l1.5-0.1
		l0.8-0.4l1.4-1.1l0.9-0.1l1,0.2l1.4,0.7l0.6,0.1l0.8-0.1l1.1-0.5l0.9-0.6l0.7-0.5l0.3-0.6l0.7-0.4l0.4,0.3l0.7,0.7l2.3,0.8
		L279.5,278.4"/>
	<path id="path48" inkscape:connector-curvature="0" class="st1" d="M238.1,275.4l1.1,0.2l1.4-0.9l0.7,0.1l1.8,1.2l0.6,0.7l1.7,1.1
		l0.5,0.5l-0.6,1.4l-0.2,0.9l0.2,0.8l0.4,0.6l0.4,1.1l0.5,0.9l0.8,1l0.8,0.4l1,0.1l1.5,0.4l1.2,1l0.3,0.9l1.5,1.7l-1.2,1.1l-1.8,1.1
		l-0.2,0.4l-0.1,0.7l0.3,1.8l-0.1,2.2l-0.2,0.8l0,0.9l0.2,1.6l0.4,0.7l1.4,1.1l0.9,0.4l0.9,0.5l0.9,0.3l0.6,0.5l0.4,0.5l0.8-0.1
		l0.7-0.2l0.6,0l1,0.4l1.2,0.1l0.5,0.3l0.6,0.6l0.8,0.5l0.2,0.4l0.1,0.4l-0.2,0.3l-0.1,0.2l-1.5,0.6l0.1,0l-1.9,0.5l-0.4,0.6
		l-0.1,0.6l-0.6,0.3l-0.8,0.4l-0.4,0.7l0.2,1.2l0.3,0.6l-0.4,0.5l-1.7,0.9l-0.6,0.5l-0.3,0.9l0.1,0.6l-3.1-1.5l-0.8-0.2l-0.7-0.8
		l-1.2-0.2l-1.6,0.5l-1,0l-0.8-0.5l-1-0.4l-0.7,0.3l-0.7-0.4l-1.3-0.5l-0.5,0.8l-1,1.2l-2-1l0.3-0.7l-0.1-0.9l0.2-1.2l-2.8-0.2
		l-0.9-0.3l-1.1-0.5l-0.3-3l-0.4-1.5l-0.3-3.1l-1-2.5l-0.7-0.2l-0.8-0.1l-0.8,0.2l-0.5-0.9l-1-0.2l-1,0.7l-0.8,0.2l-0.7,0.5l-0.5,1
		l-1-0.4l-2.1-0.3l-1.6,2.8l-1.5-0.1l-0.5,0.6l2,2.2l-0.4,1.1l-1.7,1.7l-1,0.2l-0.9-0.4l-1.5-1.1l-1.4,2.7l-1.2,1.8l-2.6-1l-0.5-0.3
		l-3.6-0.5l0.1-0.1l-0.9,0.4l-0.9,1.1l-0.7,1.1l-0.4,0.4l-0.5-0.1l-0.9-1l-0.3-0.8l-1.8-0.9l-2.4-0.7l-0.5-0.2l-0.3-0.1l-0.7-0.4
		l-0.7-0.4h0l-1.4,0l-1.1,0.2l-1-0.3l-1,0.1L189,308l-0.2-0.1l-0.3-0.7l-0.4-0.9l0.6-2l0.5-1.8l0.1-1.6l-1.3-0.3l-1.9-0.1l-0.5-0.4
		l0.1-0.5l0.5-1.1l0-1.2l0.2-1l-0.4-1.3l0.6-1.6l0.3-1.2l-0.3-1.1l-0.6-0.9l-1-0.7l-0.8-1.1l1-0.6l2.2-1.5l0.7,0.2l0.2-0.2l-0.4-0.5
		l0.3-1.3l0.5-1.5l0.3-0.2l1.3,0.1l2.4-0.7l0.1-1.1l-0.4-1.9l0.2-1.4l1.5,0.3l1.3,0.8l1,1.7l0.7,0.6l1,0.3l1.1,0l0.4-0.3l0.7-1.1
		l0.5-0.2l0.6,0.1l0.3,0.2l1.4,0.7l0.7,0l2.4-1.2l1.3-3.2l0.3-0.3l0.5-0.1l4.6,0.5l2.2,0.1l1.1-0.6l1-0.3l0.9-0.6l0.5-0.2l1.4,0.4
		l1.9-0.6l1.4,0.4l1.5,0.3l3.1-1.8l1.1,0.5l1.8,0.5l2,0.7l0.7-0.5l0.1-0.8l-0.8-0.6l-0.9-0.4l-0.3-0.6l0.6-0.7l0.8-0.1l1.3,1.2
		l0.5,0l1.8,0.6l1.1,1.2L238.1,275.4"/>
	<path id="path50" inkscape:connector-curvature="0" class="st1" d="M219.8,234.4l0.7,0.2l1.2-0.4l1.4,0.4l1.1,0.7l-0.6,1.5l0,0.7
		l0.7,1.1l-0.1,1l0.2,1.2l0.3,0.6l-1.1,1.9l1.2,1.1l0.4,0.6l-0.1,0.7l0.2,0.7l-1.2,2.6l1.3,1l0.5,0.6l-0.1,0.6l-0.6,0.8l-0.2,0.8
		l-0.3,0.6l0.2,0.8l-0.6,0.3l-1.7,0.1l-0.9,0.7l-0.7,1.6l0.1,0.5l2.1,2.1l-1,1.1l-0.3,0.1l-1.7-1.2l-0.8,0l-0.9,0.7l-0.5,0l-2.1-0.6
		l-2.2,4.6l-0.8,1.3l-0.6,0.3l-2-0.2l-0.3,1.2l0.6,3.4l2.5,1.2l0.3,0.8l2.2,1.8l0.4,0.6l-0.7,1.3l0.7,0.7l-1.1,0.6l-2.2-0.1
		l-4.6-0.5l-0.5,0.1l-0.3,0.3l-1.3,3.2l-2.4,1.2l-0.7,0l-1.4-0.7l-0.3-0.2l-0.6-0.1l-0.5,0.2l-0.7,1.1l-0.4,0.3l-1.1,0l-1-0.3
		l-0.7-0.6l-1-1.7l-1.3-0.8l-1.5-0.3l-0.2,1.4l0.4,1.9l-0.1,1.1L190,283l-1.3-0.1l-0.3,0.2l-0.5,1.5l-0.3,1.3l0.4,0.5l-0.2,0.2
		l-0.7-0.2l-2.2,1.5l-1,0.6l-1-1.1l-1-0.8l-1.1-0.5l-0.9-0.1l-0.2,0.2l-0.6,0.9l-0.6,2.1l-0.2,2.8l-0.3,0.6l0,1.3l-1.3,0.4l-0.5,2.2
		l-0.4,0.4l-4.3,0.2l-3.1-0.7l-1.2-0.9l-0.5-1.3l-0.3-1.3l-0.9-0.1l-1.1,0.2l-2.9,1.9l-0.3,0.4l-0.2,0.4l-0.1,0.8l-1,0.6l-4.7-1.4
		l-2.4-0.4l-0.3,1l0.6,0.4l1.2,0.4l0.9,0.2l-0.4,2.1l-0.3,0.4l-0.3,0l-1.9-0.7l-2.1-1l-0.4-0.5l0.5-1.2l0.3-1.3l-0.3-0.4l0.3-0.9
		l0-0.8l0.6-2.4l-1.8-0.4l-0.3,0.5l-0.6,0.1l0-1.1l-1.2,0.2l-0.9,2.4l-0.6,1.9l-1,0.6l-2.3,0l-0.3-1l-0.5-0.2l-2.4-0.4l-0.8-0.8
		l-0.1-1.1l0.4-1.5l-2.1-0.2l-0.3-0.3l0-0.3l0.6-1.1l0.2-0.8l0-1.5l0.5-1.4l0.2-1.7l-0.3-1.6l-0.7-1.1l-0.1-0.7l0.6-1.3l1.2-0.6
		l1.7,0.1l1.1,0.5l0.6,0.1l0.3-0.3l0.4-0.9l0.8-3l0.8-2.5l0.5-2.5l-0.4-0.7l-0.8-0.8l-0.2-0.5l0.2-0.4l1.1,0l0.1-0.2l0.2-2.4
		l0.5-1.3l1-0.8l0.5,1.2l2.6,0.9l2,0.4l0.8,0.5l0.3,5.3l0.6,0.4l1-0.2l0.7-0.7l0.9-4.1l0.7-1.8l0.8,0.5l0.6,0l0.9-0.6l1.1-1l0-0.8
		l-0.8-1.3l-1.1-1l-0.7-0.9l1-0.8l0-1.1l-0.4-0.5l-1.9-0.6l-3.8-0.2l-0.2-0.4l0.2-1.5l0.8-0.5l0.8-1.3l0.6-1.4l-0.4-1l-0.1-1.5
		l1,0.1l0.8-0.2l1.8-0.8l0.6-0.6l3.9-0.5l1,0.2l1.3,0.1l1-0.2l1.8,0.1l1.1-0.1l0.8-1.2l0.9,0.3l1.7,0.4l3.5,1.2l1.1-0.9l0.9-1.1
		l0.4-1.2l0.1-1.4l-0.1-1.2l0.3-0.7l0.8-0.6l1.2-0.2l1.9,0l1.4-1.1l0.3-0.6l0.6-0.6l-0.5-0.6l-1.2-0.9l-0.1-0.8l0.2-0.8l1.5-1.1
		l0.7,0.7l1.1,1.5l0.4,0.9l0.9,0.2l0.3,2.4l2,0.9l1.2-0.1l2,0.2l-0.2,2.5l1.7,0.9l1.5,0.3l0.9-0.1l1.1-1.1l1-0.1l0.9,0.3l0.5,0.8
		l-0.6,1.3l1.4,0.7l0.8,0.2l1.1-1l0.8-1.5l3.1-3.1l-1.6-1.7l-1.8-1.2l0.2-0.8l3.1-1.2l0.9,0.5l0.7,1.4l2.1-0.1l2.2-1l0.2-1l0.8-0.4
		l0.8-0.8l1.2-0.3l1.1-1.6l1-1.9l0.8,0.2l0.3,0.4l0.1,1.3l0.3,0.9l0.5,0.8L219.8,234.4"/>
	<path id="path52" inkscape:connector-curvature="0" class="st1" d="M126.9,100.7l1,0.3l0.2-0.1l0.7,0.5l-0.6,2.5l-0.1,3.6l-0.2,5.8
		l-2.1,3.2l-2.5,2.8l-1.1,2.8l1.4,2.3l1.6,0.8l0.8,3.9l0.9,1.9l1.7,1.6l2.1,1.5l0.6,1.7l0.9,1.2l1.1,0.3l0.4,1.6l0.4,1.6l0.8,0.3
		l2.1-0.3l0.7-1v-1.4l0.4-1.5l1.7-0.3l1.7-0.1l-0.1-1.7l1.1,0.6l1,0.2l0.7-0.6l2.2,0.4l0.7,0.1l0,0l0.6,1.7l-0.2,1.6l1.2,2.5
		l1.8,0.8l1.8-0.1l1.6-0.7l1.9-0.3l2.1,0.5l1.5,0.7l2-0.2l1.3,0.5l0.9,1.2l0,0l0,0l0.3,0.8l0.8,1.5l0.9,0.4l0.1,1.1l1.5,0.1l1.3-0.2
		l0.3,0.1l0.2,0.5l-0.8,2.1l0.4,0.2l0.9,0.1l0.9,0.8l0.7,0.1l0.8-0.1l1.4-0.6l0.7,0l0.6-0.2l0.5-0.4l0.6-0.2l1.2-0.1l1.1-0.5l0.7,0
		l1.5-0.4l0.6,0.1l0.6,0.3l1.7,0l2.1-2.7l0.4,0.1l0.6,0.4l3.5,1.4l1,0.2l0.9-0.1l1.1-0.6l1-0.2l1.2,0.1l1.1,0.4l1.2,0.8l0.9,0.9
		l-0.7,2l-0.2,1.2l-0.7,1.3l-0.9,1.2l-0.3,1.1l0.4,1.1l-0.3,1.1l-0.1,0.8l-0.8,0.4l-1,0.1l-1.4,0.7l-1.8-0.2l-0.6,0.7l-1.2,0.3
		l-1.2,0l-0.6,0.5l-1.5,0.2l-0.9,0.4l-0.3,0.7l0,0.9l0.1,1.4l-0.2,1l-0.6,0.8l-0.9,2.1l0.6,0.7l0.3,2.2l0.7,0.6l0.7,0.3l1.4,1
		l2.3,0.4l0.1,0.9l-1,0.4l-1.7,0l-1.2-0.5l-0.9-0.7l-1.4-0.2l-1.9-1.3l-1.1-0.4l-0.8,0l-0.8,0.5l-3.3,0l-1.7,0.4l-0.4,1.2l-0.3,1.7
		l0.5,1.4l0.3,1.2l0.5,1.4l-0.2,1l-0.5,1.1l-1.2,0.6l-1.4-0.1l-1-0.8l-0.7-0.9l-0.1-1l-3-0.6l-0.8-0.4l-1.4-0.3l-0.7-0.7l-0.6,0.5
		l-0.2,0.6l0.8,1.1l1.4,1.5l0,1.3l1.2,3.5l1.2,1.2l0.4,1l-0.5,0.5l-0.9,0.6l-1.7,1.7l-0.4,0.8l-0.2,1l-0.7,2.1l0.1,1.1l-0.2,1.3
		l-0.9,1.7l-1.5,2.2l-0.8,0.5l-1.2,0.3l-0.8-0.2l-1.2-0.5l-0.9-0.8l-1.6-1l-0.9-0.2l-1.1,0.4l-0.7,0.5l-1.3,0.2l-3.9-1.8l-1.4,0.1
		l-1.1-0.2l-4,0.1l0.2-0.7l1.1-1.4l0.5-0.9l0.3-0.9l-0.6-0.7l-0.2-0.6l-0.5-2.4l-0.6-1.1l-0.3-2.2l0.2-1.3l-0.1-1.3l-0.4-1l-0.9-1.5
		l-1.2-0.6l-1.1-0.2l-2.2,0.1l-2.1-0.8l-1.5-0.1l-0.4-0.9l0.1-2l-0.5-0.8l-0.9-0.7l-0.8-1.8l-1-1.1l-0.3-0.9l-1.3-1.9l0.8-0.8l0.2-1
		l0.9-1.1l0.2-0.8l-0.5-0.6l-2-1.7l-0.4-0.7l0.1-0.5l0.4-0.4l1-0.9l0.9-1.3l-0.2-1.4l0-2l-0.5-0.2l0.6-0.5l-1.5-1.1l-1.2-0.3
		l-2.3-0.3l-1.3,0.8l-0.9,0.8l-0.5,1.1l-0.7,0.7l-1.3-1.5l-0.7-0.5l-0.8,0.2l-1.2-0.1l-0.9-0.2l-0.9-0.4l-0.6-1.9l0-1l-0.4-0.9
		l-0.7-0.3l-1.3,0.2l-4,1.5l-1.3,0l-0.8-0.4l-0.6-1.1l-0.5-0.4l-0.6-0.3l-1.4-0.5l-0.9-0.6l-0.1-0.9l0.4-1.3l0.5-0.3l0.1,0l0.1,0
		l0.1-0.1l0.1-0.1l0.1-0.1l0-0.1l0-0.1l0-0.1l0-0.1v-0.1l0-0.1l0-0.1l0-0.1l0-0.1l-0.1-0.1l-0.1-0.1l-0.1,0l-0.1,0l-0.1,0l-0.4-0.3
		l-0.8-0.2l-1.1-0.3l-2.4-0.9l-3-0.6l-0.6-0.7l-0.1-0.7l0.2-0.9l0.7-0.8l0.7-0.5l1.5-2.3l0.3-1.1l-0.3-1.8l-0.1-1.2l0.2-0.5l0.1-0.8
		l-0.6-1.2l-1-0.4l0.1-1.2l0.5-0.7l0.2-1.4l-0.9-2l-0.5-1.4L92,125l0.6-1.3l-0.9-1.4l-0.9-0.9l-0.1-0.9l0.2-0.9l0.7-1.3l0.5-1.4
		l0.1-1.6l0.5-0.1l1,0l1,0.2l1,0.1l0.7-0.1l0.3,0l1-0.5l1.2-0.8l1.9-1.1l1-0.2l0.8-0.4l0.9,0.1l1,0.6l0.2,0.2l0.4,0.4l0.8-0.3
		l2.2-3.2l0.6-0.6l0.9,0.2l0.6-0.7l0.1-0.9l0-1.2l0.3-1.1l1.1-0.5l0.6-0.1l0.5-0.1l1.2,0.4l0.9,0.7l0.8,0.9l0.7-0.4l0.8-0.8l0.6-0.9
		l0.9-0.6l1.8,0.1l1.8-0.3l2.5-1.7l0.5-1.2l0.6-0.6L126.9,100.7"/>
	<path id="path54" inkscape:connector-curvature="0" class="st1" d="M247.7,84.3l0.3,0.4l0.6-0.1l0.8-0.5l0.8-0.3l0.5,0l0.6,0.5
		l0.4,0l0.4-0.3l1.2,0.7l0.8,1l0.7,0.4l-0.4,1l1,1l1,0.3l3-0.3l-1.1,1.3l-0.9,0.5l-0.8,0.7l-0.3,0.6l-0.1,0.6l-0.8,0.9l-0.1,0.5
		l0.7,1l0,0.6l-0.4,1.1l0,1.1l-0.3,0.5l-0.3,0.9l-1.4,2.1l-0.1,0.4l0.3,1.9l-0.5,0.7l-1.3,1l-0.2,0.4l-0.2,0.8l-0.1,0.6l0.3,0.8
		l-0.2,0.6l-1.3,0.7l-0.6,0.7l-0.7,0.4l-1.1,0.1l-0.7,0.3l-0.2,0.6l0.2,0.9l-0.1,0.5l-0.5,0.8l-0.2,0.7l0.3,0.5l1,0.3v0.9l2.3,2.5
		l0.4,1.5l-0.1,0.6l-0.4,0.2l-1,0.1l-0.9,0.3l-0.6,0.7l-0.3,0.8l0.1,0.7l1.5,1.8l0,0.4l-0.2,0.6l-1,0.7l-1.6,0.8l-0.2,1l-0.4,0.6
		l-0.5,0.3l0.1,1.1l-0.1,0.3l-0.8,0.6l-0.1,0.6l-0.2,0.6l-0.9,1l0.2,0.6l0.4,0.8l0.5,0.4l1.1,1.3l0.6,1.4l0.4,1.8l-0.7,0.5l-1.2,0.2
		l-0.8,0.4l-0.4,0.7l-0.2,0.8l0.2,0.7l1.5,2.1l0.8,0.3l1.5,0.8l0.7,0.8l0.5,1.5l-0.4,0.8l-0.6,0.6l-0.2,0.7l0,1.1l0.5,0.7l0.8,0.5
		l-1.9,0.5l-5.8,0.4l-0.9-0.1l-2-0.9l-1.3-0.2l-2,0.3l-1.8,0.1l-1.3-0.2l-0.7-0.4l-1.7-1.5l-1.1-0.6l-0.9,0.6l-1.1,0.6l-1.1-0.1
		l-0.9-0.8l-2-0.7l0.5-0.8l-1.2-0.3L220,148l-0.5,0l-0.9,0.9l-0.6,0.7l-0.5,0.1l-0.6-0.6l-0.4-0.9l-0.7-0.7l-0.7-0.4l-1-0.2
		l-1.1-0.1l-1.2,0.5l-0.4,1.1l-0.8,0.6l-1.7,0.6l-1.4-0.2l-2.7-1.4l-1.1,0.5l-0.6,1.2l-1.1,0.2l-1.7-0.6l-1.3,0.4l-0.7,0.1l-0.9-0.9
		l-1.2-0.8l-1.1-0.4l-1.2-0.1l-1,0.2l-1.1,0.6l-0.9,0.1l-1-0.2l-3.5-1.4l-0.6-0.4l-0.4-0.1l-2.1,2.7l-1.7,0l-0.6-0.3l-0.6-0.1
		l-1.5,0.4l-0.7,0l-1.1,0.5l-1.2,0.1l-0.6,0.2l-0.5,0.4l-0.6,0.2l-0.7,0l-1.4,0.6l-0.8,0.1l-0.7-0.1l-0.9-0.8l-0.9-0.1l-0.4-0.2
		l0.8-2.1l-0.2-0.5l-0.3-0.1l-1.3,0.2l-1.5-0.1l-0.1-1.1l-0.9-0.4l-0.8-1.5l-0.3-0.8l0,0l0,0l1.1-1.6l0.8-0.7l0.3-0.8l2-0.3l0.2-0.5
		l-0.2-1l1-2.6l0.9-0.7l0.7-0.2l0.5-0.4l0.1-0.5l-0.2-0.7l-2-2.6l0.2-0.5l0.9-0.2l0.6-0.4l0.4-0.5l2.2-1l1.5,0.2l1.5-0.3l1,0.3
		l0.8-0.1l1.5-1l1.1-1.1l2.2-0.9l0.9-0.7l0.2-1l0.6-0.7l1-0.2l1.7,0.3l0.8-0.3l0.6-1.7l0.5,0.1l0.6,0.8l0.6,0.6l0.6,0.3l0.7-0.6
		l0.8-1.1l0-0.7l-0.1-0.5l-2.4-0.9l-0.4-0.7l0.8-2.2l0.1-1.2l-0.3-1.5l0.3-0.9l-1.2-1.4l-0.1-0.6l0.2-0.7l1.4-1.4l0.1-1.2l0.3-1.1
		l1.8-2l-0.4-0.9l-0.9-0.4l-2.3-0.5l0-0.8l0.3-0.6l0.1-2l-0.7-0.7l-0.7-0.2l-0.5-0.3l0-0.4l1.3-0.4l0.4-1l0.2-1.3l0.3-1.1l0.8-0.3
		l1.3,1.3l0.4,0.3l0.7,0.2l0.8,0l0.6-0.3l0.5-0.9l0.9-0.6l0.8-0.9l0.5-0.7l0.3-1.4l0.3-0.9l1-1.2l2.7-0.6l0.7-0.6l0.7-0.2l1,0.6
		l0.6,0.8l0.7,0.5l1.1-0.5l0.9,0.5l0.2,1.8l0.3,0.7l1,0.1l0-1l0.1-1l1.5-0.6l1.1-0.3l0.6,0.1l0.3,0.6l1.5,0.3l1.2,0l1.6,0.5l1.4-0.6
		l4.2,0.4L223,90l1-1.3l1.7-1.5l1.1-0.7l0.2-1l0.7-0.9l2.5-0.1l0.3,0.1l-0.1,1.8l0.3,0.1l0.5-0.3l0.8,0.6l1.2,0.4l1.5-0.9l0.3-0.1
		l2.2,0.9l0.7,0.2l0.4-0.4l0.5-0.1l1.2,0.2l2.5-0.3l1.7-1.7l1.2-2l-0.3-1.4l0.1-0.3l2.1,1.1l0.7,0.5L247.7,84.3"/>
	<path id="path56" inkscape:connector-curvature="0" class="st1" d="M131.7,284.3l0.4,0.5l0.8,0.3l2.2-0.3l2.3,0.6l0,1.5l-0.2,0.8
		l-0.6,1.1l0,0.3l0.3,0.3l2.1,0.2l-0.4,1.5l0.1,1.1l0.8,0.8l2.4,0.4l0.5,0.2l0.3,1l2.3,0l1-0.6l0.6-1.9l0.9-2.4l1.2-0.2l0,1.1
		l0.6-0.1l0.3-0.5l1.8,0.4l-0.6,2.4l0,0.8l-0.3,0.9l-1.8-0.2l-2.1-0.2l0.1,0.9l-0.1,1.8l0.9,0.6l0.6,2.1l-0.5,0.2l-0.6,0.2l-0.3,1.1
		l-1,0.5l-0.4,0.9l0.4,0.9l0.4,2l-1.2,1.4l0.7,0.8l0.1,0.1l0.2,0.6l-0.3,1.2l0.1,1.1l-0.6,2.1l-0.3,0.4l-1.7-0.1l-0.8,2l-0.8,0.5
		l-1.1,0.1l-0.4,0.8l0.5,0.9l0.5,0.5l0.2,1.2l-0.5-0.1l-0.9,0.1l-1.2,0l-1.3,0.5l-0.3,0.8l0.2,0.5l1.9,0.4l0.7,0.4l0,0.4l-0.4,0.3
		l0.1,0.3l0.7,0.5l0.9,0l0.4-0.5l0.8,0.2l0.7,0.5l1.1,1.3l0.9,0.5l0.7,0.3l0.8,0.1l0.8,0.5l-1.6,2l-0.5,0.5l-1,0.4l-2.3-0.7
		l-0.8,0.1l-0.9,0.7l-0.5,0.7l1.3,0.6l0.8,0.2l0.9,0l0.6,0.3l0.5,0.6l0.3,0.8l0.1,0.6l0.7,0.5l0.9-0.1l0.8-0.3l0.5,0.2l-0.2,1.1
		l-0.3,0.9l-0.6,1.7l-0.6,1.3l-0.6,0.8l-0.9,0.6l-0.8,0.1l-0.9,0.4l-2.6-0.7l-0.9-0.5l-0.3-1.6l0.3-0.9l-1.1-1.3l-1.3-1l-0.9-0.3
		l-1.8-0.3l-1,0.3l-1.1,1.3l-0.3,0.3l-1,0.2l-2.3,0l-0.5-0.4l-0.1-0.1l-0.5-0.2l-0.9,0.1l-2,0.1l0,0l-0.2,0.6l0.2,0.7l0.8,0.8l1.3,1
		l0.6,0l0.8-1l1.2,0.3l0,1.1l-1.4,0.2l-0.4,0.6l-0.6,0.5l-0.7,0l-0.9-0.3l-0.6,0l-0.7,0.2l-0.6,0.7l-1.4,1.6l-0.5,0.7l-0.1,0.8
		l1.1,0.6l-0.2,1.1l0.8,0.1l0.9,0.5l0.7,0.3l-0.2,0.7l-0.2,0.8l0.1,0.8l-0.1,0.9l-0.2,0.9l-0.6,1l-0.4,0.6l-0.2,1l0.1,0.8l0.4,0.7
		l0.7,0.3l1,0.3l1.1,0.3l1,0.5l0.2,0.9l-0.1,0.6l-0.7,0.5l-0.5,0.3l-0.2,0.7l0.3,0.9l0.2,0.7l0.8,0.6l0.8,0.5l0.1,1l0.6,0.4l1.7,0.5
		l-1.2,1.1l-0.8,0.5l-0.9-0.1l-0.8-0.3l-0.5,0.6l-0.5,1l-0.8,0.9l-1,0.7l-0.7-0.2l-0.6-0.7l-1.3-0.8l-1.4-0.9l-2-0.7l0.1-0.6l0-1.2
		l-0.8-1l-1.3-0.5l-1.2-0.5l-1-0.3l-1-0.5l-0.3,0.4l-0.1,1.2l-0.6,0.7l-2.6-0.8l-0.7,0.7l-0.7,0.5l-0.8-0.1l-0.7-0.5l-0.6-0.2
		l-0.6,0l-1.2-0.5l-1.5-0.7l-0.5,0.7l-1.1-0.4l-0.3-0.1l-1.3-0.3l-1.2-0.2l-1.6,0l0.2-0.9l1.2-0.8l-0.1-1l0.3-1l-1-0.8l1.3-1.3
		l-1.3-0.8l-1.5-0.5l-1.9,0.1L91,354l0-1.3l-0.7-0.9l0.7-1.1l1.3-1.2l0.4,0.6l0.4,0.8l1.2,0.1l1.2,0.3l1.3-2.8l-0.6-0.6l0.7-1l1-1.1
		l0.6-0.4l0.1-0.5l-0.6-0.3l-1.2,0.4l-1-0.3l-1.3-0.3l0-0.7l0.1-0.9l0.5-0.1l0.5-0.1l0.3,0.1l0.7,0.1l1,0l1.2-0.4l0.2-0.8l-0.6-0.6
		l-0.9-0.1l-0.9-0.4l-0.2-0.7l-0.1-0.9l0.6-0.8l0.8-0.2l1.4-0.2l2.5,0.4l0.1-1.4l-0.1-0.4l-0.6-0.6l1.5-0.2l0.3-0.4l0.4-0.4l1.4-0.8
		l0.3-0.7l-0.2-0.8l-0.4-0.5l-2-0.7l-0.1,1l-0.3,0.6l-1.4,2.1l-0.3,0.2l-0.3,0.2l-0.9,0.1l-0.9,0.8l-0.9-0.2l-0.4-0.6l0.2-0.2
		l1.5-1.5l-0.7-1.3l-0.7-0.5l-2.4,0l-3-1.2l0.8-1.6l0.6-0.5l1.3-0.8l1.3-0.5l1.2-1l1.8-0.1l0.4-0.4l0.2-0.6l-0.1-2l0.7-0.8l0.8,0
		l0.7-0.1l0.7-0.4l1.5-1.5l4.3,0.4l0.7,0.3l-0.1,1.6l-0.2,0.8l0.2,0.7l1.3,0.3l1.1,0l0.6-0.2l0.5-0.4l0.1-0.7v-0.5l-1.6-1.7
		l-0.7-0.6l-0.4-0.9l-0.3-2L109,317l-1.2-0.3l-1.5-0.2l-0.2-0.3l0.8-0.6l0.3-0.6l0.1-1.3l-2.2-0.4l-1.4-1.2l-1.9-0.8l-0.5-1.5
		l1.5-3.7l-3.6-1.9l-0.6-0.1l-1-1.4l-0.6-1.3l-0.9-1.1l-1.7,0.7l0-1.3l-0.4-0.6l0.7-0.3l0-0.4l-3.8-0.9l0.1-1.4l-0.4-1.1l-0.3-0.6
		l-2.3-0.9l-1-0.5l0-1.3l-1-0.5l0-0.7l0.9-0.6l-0.3-1l-0.2-1.4l0.3-1.3l0.5-0.3l8.7-1.2l3.6-0.2l2.2,1l-0.3,2.6l1.2,1.1l-0.3,1.2
		l0,0.6l0.8,0l1.2-0.3l2.6-0.5l1.5-0.1l1.5,0.3l1-1.9l0.8-0.7l0.7-1.5l1.3-0.5l0.7-2.1l0.5-0.8l1.4,0.2l1.1-0.2l1.2,0.1l0.7-0.5
		l0.6-1.2l1.1,0l0,1.4l1,0.6l0.1,0.8l0,1.1l0.4,0.3l1.6-0.2l0.6-1.2l0.8-0.2l0.8,0.1l0.2-0.4l0.8-0.1l0.4-0.6l0.2-1.4l0.5-1l1.4,0
		l1.6,0.9l0.3,0.7L131.7,284.3"/>
	<path id="path58" inkscape:connector-curvature="0" class="st1" d="M228.4,298.8l0.5,0.9l0.8-0.2l0.8,0.1l0.7,0.2l1,2.5l0.3,3.1
		l0.4,1.5l0.3,3l1.1,0.5l0.9,0.3l2.8,0.2l-0.2,1.2l0.1,0.9l-0.3,0.7l2,1l1-1.2l0.5-0.8l1.3,0.5l0.7,0.4l0.7-0.3l1,0.4l0.8,0.5l1,0
		l1.6-0.5l1.2,0.2l0.7,0.8l0.8,0.2l3.1,1.5l1.1,0.1l0.8,0.3l0.5,0.5l-0.5,1.7l-1.3,0.1l-1.1-0.3l-1.2-0.1l-0.3,0.3l-0.1,0.8l0.2,0.7
		l-0.3,0.9l-1.7,0.8l-0.4,1.1l-0.4,0.7l-1.4,1.4l0.2,0.7l1.4,0.5l0.2,1l-0.4,0.6l-0.6,0.5l0.3,1.1l-1.1,1.9l-0.1,1.4l-1.4,0.7
		l-0.7-0.2l-2,0.6l0.6,1l0.8,0.4l0.1,0l0.5,0.9l-0.4,1.1l-0.1,0.7l0.1,0.8l-0.5,0.6l-0.7,0.3l0,0.2l0.5,0.3l0.3,0.5l-0.2,0.5
		l-0.8,0.4l-2.4,0.7l-0.8,0.8l-0.2,0.5l-0.3,0.4l0.4,0.1l1.4,0.8l1.3,1l0.4,0.2l0.4,0.4l0.7,0.2l1.3,0.7l1.6,0l0.6-0.3l1.1,0
		l0.2,0.9l0.3,0.4l0.3,0.3l0.8,0.4l0.4,0.7l0.7,0.3l1-0.1l0.4,0.3l0.1,0.3l0.6,0.4l0.3-0.3l0.2-0.6l0.3-0.2l0.8,0.3l0.5,0.6l1,0.8
		l0.6,0.7l0.9,0.7l0.7,0.8l1.5,2.3l0.5,0.5l1.4,0.7l1.3,1.1l0.6,0.2l1.3,0.6l1.4,0.2l0.5-0.3l0.6-1.3l0.3-0.5l0.3-0.8l1.3,0.4
		l1.9,1.7l0.3,0.6l0,1.8l0.8,0.7l1,0.6l-0.7,1.5l0.4,0.4l-0.7,0.4l-0.6,0.2l-0.6,0.4l-0.9-0.3l-0.2,0.1l-0.7,0l-1.3,0.3l0.2,1.2
		l-0.1,0.2l-0.8,0.3l-0.5,0.5l-0.3,0.7l-0.2,0l-1.1-0.7l-0.7-0.5l-0.6,0.9l-0.1,0.5l-0.5,1l-0.6,0.5l-0.9,0.4l-0.8,0.6l-0.4,0
		l-0.6-0.4l0.2-0.6l-0.2-0.4l-0.6-0.2l-0.7,0.3l-1.3-0.7l-0.1-0.6l-0.5-0.9l-0.7-0.9l-0.4-0.3l-0.8,0.9l-0.1,0.6l0.3,1.6l-1.8,1.5
		l-0.9,0.3l-0.6-0.3l-0.2-0.5l0.6-0.7l0.3-0.6l1.2-0.3l0.3-0.3l0-0.6l-0.6-0.8l-0.5-0.2l-1.5,0.4l-0.6-0.1l-0.6-0.3l-0.2,0l-0.1,0.4
		l0.5,1.3l0,0.6l-0.2,0.8l-0.5,0.7l-0.8,0.1l-0.8,0.3l-1.2,1l-0.2-0.1l-0.1-1l-0.3-0.5l-0.3-0.2l-0.3-0.1l-0.3,0l-1,0.4l-0.6,0.2
		l-0.2,0l-1-0.6l-1.8-1.4l-0.5-0.1l-0.3-0.4l-0.2-0.7l-0.5-0.3l-0.4-0.1l-1.2,0.1l-0.6-0.5l-0.7-0.4l-0.2,0.1l-0.9-0.4l-0.4,0.4
		l0,0.3l-0.1,0.2l-0.5,0.1l-0.8,1.7l-0.1,1.4l-0.4,0.9l0.1,0.3l0.3,0l0.2,0.1l0.3-0.1l0.2-0.3l1.4,0.7l1,0.9l0.4,0.9l0.5-0.1
		l0.2-0.3l0.8-0.2l0.7,0.3l0.4,0.6l0.1,0.9l0.2,0.4l0.8,0.8l0.1,0.4l0,0.2l-0.2,0.1l-0.9,0.2l-0.7,0.4l-0.8,0.1l-0.8,0.5l-0.3,0
		l-0.8-0.5l-0.2-0.5l-0.3-0.3l-0.1-0.4l-0.4-0.4l-0.6-0.5l-0.4-0.1l-0.5,0.3l-1.1-0.1l-0.7,0.2l-0.8,1l-0.2,0.1l-0.3,0L231,377
		l-0.1,0l-0.3,0.7l-0.3,0.3l-0.2,0.6l-0.6,1.4l-0.5,1.6l-0.4,1.7l-0.4,1.6l-0.1,1l-0.3,1l0,1.1l-1.3-0.7l-1.1-0.5l-0.9-0.6l-0.8-0.4
		l-0.6-0.2l-0.5,0.4l-0.5,0.8l-0.4,0.6l-0.6-0.1l-0.7,0.2l-0.6,0.4l-0.5,0.1l-0.4-0.3l-0.3-0.6l-0.1-0.6l-0.4-0.6l-0.5-0.6l-0.2-0.4
		l0.3-0.5l0.4-0.3l-0.3-0.5l-0.8-0.4l-0.7-0.4l-0.3-0.5l0.3-0.5l0.7,0.2l0.7,0.4l0.9,0.5l0.7-0.2l0.6-0.1l0.6-0.5l-0.3-0.7l-0.5-0.8
		l-0.7-0.6l-1-0.3l-0.9-0.1l-0.7-0.6l0.1-0.9l0.5-0.8l0.4-0.6l0.1-2.5l0.1-1.4l0.2-1l0.3-0.9l0.4-0.6l0.7-0.5l-0.1-0.8l0.5-0.8
		l-0.2-0.6l-0.6-1.1l0.1-0.6l0.4-1l0.5-0.4l0.9,0.2l0.9,0.4l0.6-0.3l0.2-1.3l0.2-1.5l-0.2-1.6l-0.5-1.3l0.2-1.5l0-0.8l1.6-0.2
		l-0.2-1.5l0.3-1.5l-1.2-0.3l-1.1,0l-0.3-0.5v-2.1l0.1-1.6l0.4-1.7l0.3-1.7l-0.3-1l-0.5-1.5l0.4-1.1l0.7-0.9l0.5-2.4l0.1-1.5
		l0.2-0.8l0.5-1.4l0-0.1l0.6-0.9l0.5-0.6l0.2-1l0.4-2.3l0.6-2.1l0-1.6l0.8-2.7l-0.7-0.3l-1.9-0.4l-0.2-0.3l0.1-0.6l-0.5,0l-1.4-0.5
		l-0.9-0.4l-1.2-1.3l-1.7-1l-1.2-1.1l-0.8-0.5l0-0.4l0.2-0.3l1.9-1.1l-0.4-0.4l-1.3-0.4l-1,0l-1.7-0.2l0-0.8l-0.3-0.9l-0.8,0.2
		l-0.4-0.3l-1-1.9l1.2-1.8l1.4-2.7l1.5,1.1l0.9,0.4l1-0.2l1.7-1.7l0.4-1.1l-2-2.2l0.5-0.6l1.5,0.1l1.6-2.8l2.1,0.3l1,0.4l0.5-1
		l0.7-0.5l0.8-0.2l1-0.7L228.4,298.8"/>
	<path id="path62" inkscape:connector-curvature="0" class="st1" d="M212.9,184.6l0-0.3l-3.7-0.2l-1.5-0.4l-3.5-2.3l-0.6-2l-0.4-2.6
		l-0.3-1.2l-0.7-0.5l-1.2-0.5h-1.4l-1.2,0.5l-2,1.7l-4.1,1.3l-1.4-1.6l-2.5-1l-0.1-0.9l-2.3-0.4l-1.4-1l-0.7-0.3l-0.7-0.6l-0.3-2.2
		l-0.6-0.7l0.9-2.1l0.6-0.8l0.2-1l-0.1-1.4l0-0.9l0.3-0.7l0.9-0.4l1.5-0.2l0.6-0.5l1.2,0l1.2-0.3l0.6-0.7l1.8,0.2l1.4-0.7l1-0.1
		l0.8-0.4l0.1-0.8l0.3-1.1l-0.4-1.1l0.3-1.1l0.9-1.2l0.7-1.3l0.2-1.2l0.7-2l0.7-0.1l1.3-0.4l1.7,0.6l1.1-0.2l0.6-1.2l1.1-0.5
		l2.7,1.4l1.4,0.2l1.7-0.6l0.8-0.6l0.4-1.1l1.2-0.5l1.1,0.1l1,0.2l0.7,0.4l0.7,0.7l0.4,0.9l0.6,0.6l0.5-0.1l0.6-0.7l0.9-0.9l0.5,0
		l0.8,0.4l1.2,0.3l-0.5,0.8l2,0.7l0.9,0.8l1.1,0.1l1.1-0.6l0.9-0.6l1.1,0.6l1.7,1.5l0.7,0.4l1.3,0.2l1.8-0.1l2-0.3l1.3,0.2l2,0.9
		l0.9,0.1l5.8-0.4l1.9-0.5l1,0.3l0.8,0.5l0.2,0.6l-0.1,0.7l-0.4,0.6l-1.4,1.3l0.1,1.5l0.4,1.1l0.6,0.5l0.9,0.5l0.8,0.3l0.1,0.4
		l-1.1,0.8l-1,0.4l-1.4,0.3l-0.5,0.3l0,0.5l0.3,1.4l-0.2,0.6l0.3,1l0.5,0.6l0.5,0.1l2.5-0.1l0.7,0.8l0.3,0.5l-0.5,0.5l0.1,0.8
		l0.3,0.4l0.1,0.7l-1.6,2l0.3,0.7l-0.9,1.1l-1.1,1.9l0.7,0.8l1,2l0.2,1.1l-0.2,0.7l-2,1.3l-0.3,0.4l0.3,0.8l0.6,0.7l0.5,0.7l0.3,0.8
		l0.2,2.5l-1,1.3l-3.8-0.5l-1.5,0.9l-0.5-0.2l-0.9-1.2l-1.2-0.9l-2,0.6l-0.9,0l-1.7-1.4l-1.2,0.5l-1.4,0.2l-1.2-0.7l-1.1-0.4
		l-0.2-0.5l0.4-2.8l-0.6-0.4l-1.1,0.2l-0.5,0.2l-1.9,0.2l-1-0.1l-1.1-0.3l-1.1,0.7l-0.9,0.5l-1.6,0.1l-1.2-0.7l-1.8-0.5l-1.5,0.3
		l-1.4,0.9l-0.7,1.7l-0.6,0.6l-0.8-0.2L212.9,184.6"/>
	<path id="path64" inkscape:connector-curvature="0" class="st1" d="M186.3,296.6l-0.2,1l0,1.2l-0.5,1.1l-0.1,0.5l0.5,0.4l1.9,0.1
		l1.3,0.3l-0.1,1.6l-0.5,1.8l-0.6,2l0.4,0.9l0.3,0.7l0.2,0.1l0.4,0.1l1-0.1l1,0.3l1.1-0.2l1.4,0h0l0.7,0.4l0.7,0.4l0.3,0.1l0.5,0.2
		l2.4,0.7l1.8,0.9l0.3,0.8l0.9,1l0.5,0.1l0.4-0.4l0.7-1.1l0.9-1.1l0.9-0.4l-0.1,0.1l3.6,0.5l0.5,0.3l2.6,1l1,1.9l-0.5-0.2l-2.2,0.2
		l-0.8,1l-0.4,0.4l-0.6,0l-0.8-0.2l-1,0.1l-0.6,0.6l0.1,0.9l0.4,0.6l-0.4,0.6l-0.6,0.2l-0.5-0.7l-0.1,0.2l-0.4,0.6l0.3,1.4l0,1
		l0.5,0.7l-0.6,1.7l-1.1,0.2l-1.3,0.6l-1.4,0.2l-0.9,0.4l-2.1,2.3l-0.8,0.1l-0.2,0l-1.5-0.4l-1.3-0.1l-0.1,0.1l-0.5,0.5l-0.9,1.6
		l-0.5,0.1L191,328l-0.1,0.2l-0.5,0.9l-0.5,1.2l-0.6,0l-1.8,0l-0.8-0.2l-0.9,0.3l-0.4,0.6l-0.1,0.9l0.1,0.8l0,1.5l0.1,0.8l0.2,0.4
		l0.2,0.5l-0.1,1.4l0.3,0.6l0.8,0.8l0.2,0.6l0.1,0.8l-0.3,0.5l-0.7,0.5l-1,0.4l-1.3,0.3l-1.5,0l-1.2-0.1l-1.6,0.1l-0.6,0.1l-0.5,0.5
		l-0.5,0.3l-1,0.4l-0.9,0.7l-0.5,0.8l-0.8,0.7l-1,0.2l-0.8,0.9l-0.9,0.5l-1.1,0.1l-0.6-0.4l-0.3-0.7l0.1-0.8l0.5-1l0.1-1.5l0.3-0.1
		l-0.1-0.3l0.1-0.6l0-0.6l-0.4-1.2l0.4-1.8l-1-0.5l-0.7-0.3l-1,0.9l-0.9,0.5l-0.8,0l-0.8-0.2l-0.1-0.5l-0.3-0.5l-0.5-0.5l-1.2,0.1
		l-1,0.3l-1.8-0.1l-0.8-0.2l-0.3-0.4l0-0.7l0.3-0.5l0.2-0.4l1.7,0.1l1.3,0.3l0.4,0.1l0.5-0.1l0.2,0l0.7-0.2l0.4-0.5l-0.3-0.4l-1.2-1
		l-2.1-1.5l-0.8,0.3l-0.6-0.1l-0.7-0.4l-0.6-0.7l0.3-0.6l0.4-1.1l0.4-0.6l0.5-0.2l0.7-0.1l0.8,0l0.6,0.9l1.5,0.2l1.2-0.2l-0.1-1.2
		l0.1-0.9l-1.5,0l-0.2-0.7l0.5-0.7l-0.6-0.2l-0.2,0l-0.8,0l-0.5-0.1l-0.4-0.4l0.3-1.5l-0.2-0.7l-0.8-0.1l-0.5,0.4l-0.7,0.1l-2.5-0.1
		l-0.8,0.6l-0.5,0.2l-2-0.2l-2,0l-0.5,0.9l-0.6,0.2l-0.6,0l-1,0.2l-2.2-0.7l-0.3-0.6l-0.2-1.6l-0.4-0.8l-1.4-1l-0.9-0.4l-1.3,0
		l-2.3-0.8l-0.2-1.2l-0.5-0.5l-0.5-0.9l0.4-0.8l1.1-0.1l0.8-0.5l0.8-2l1.7,0.1l0.3-0.4l0.6-2.1l-0.1-1.1l0.3-1.2l-0.2-0.6l-0.1-0.1
		l-0.7-0.8l1.2-1.4l-0.4-2l-0.4-0.9l0.4-0.9l1-0.5l0.3-1.1l0.6-0.2l0.5-0.2l-0.6-2.1l-0.9-0.6l0.1-1.8l-0.1-0.9l2.1,0.2l1.8,0.2
		l0.3,0.4l-0.3,1.3l-0.5,1.2l0.4,0.5l2.1,1l1.9,0.7l0.3,0l0.3-0.4l0.4-2.1l-0.9-0.2l-1.2-0.4l-0.6-0.4l0.3-1l2.4,0.4l4.7,1.4l1-0.6
		l0.1-0.8l0.2-0.4l0.3-0.4l2.9-1.9l1.1-0.2l0.9,0.1l0.3,1.3l0.5,1.3l1.2,0.9l3.1,0.7l4.3-0.2l0.4-0.4l0.5-2.2l1.3-0.4l0-1.3l0.3-0.6
		l0.2-2.8l0.6-2.1l0.6-0.9l0.2-0.2l0.9,0.1l1.1,0.5l1,0.8l1,1.1l0.8,1.1l1,0.7l0.6,0.9l0.3,1.1l-0.3,1.2l-0.6,1.6L186.3,296.6"/>
	<path id="path66" inkscape:connector-curvature="0" class="st1" d="M171.8,199.9l1.7,2.5l0.6,0.5l2.4-0.2l2.9,0.5l2.8,0l0.8,0.2
		l0,0.5l-0.1,0.8l0.1,1.5l0.2,0.7l2.3,0.2l0.9,0.5l-0.2,2.4l-0.4,1.1l0.8,1.6l0.5,0.6l2,0.7l2.5,0.6l2.6,0.4l2.4,1.4l1.8-0.5
		l1.1,0.7l1.4,1.6l0.2,0.2l-0.4,0.5l1.1,1.8l1,0.2l2.8-0.3l0.8,0l1.1,1l-0.3,0.9l0.2,1.3l-1,1.7l0.1,0.7l-1,2.7l0.9,0.7l3.5-0.3
		l1.7,0l0.7-0.1l0.5-0.6l1.5-0.4l1.6,0.2l1.4,0.8l-1,1.9l-1.1,1.6l-1.2,0.3l-0.8,0.8l-0.8,0.4l-0.2,1l-2.2,1l-2.1,0.1l-0.7-1.4
		l-0.9-0.5l-3.1,1.2l-0.2,0.8l1.8,1.2l1.6,1.7l-3.1,3.1L203,244l-1.1,1l-0.8-0.2l-1.4-0.7l0.6-1.3l-0.5-0.8l-0.9-0.3l-1,0.1
		l-1.1,1.1l-0.9,0.1l-1.5-0.3l-1.7-0.9l0.2-2.5l-2-0.2l-1.2,0.1l-2-0.9l-0.3-2.4l-0.9-0.2l-0.4-0.9l-1.1-1.5l-0.7-0.7l-1.5,1.1
		l-0.2,0.8l0.1,0.8l1.2,0.9l0.5,0.6l-0.6,0.6l-0.3,0.6l-1.4,1.1l-1.9,0l-1.2,0.2l-0.8,0.6l-0.3,0.7l0.1,1.2l-0.1,1.4l-0.4,1.2
		l-0.9,1.1l-1.1,0.9l-3.5-1.2l-1.7-0.4l-0.9-0.3l-0.8,1.2l-1.1,0.1l-1.8-0.1l-1,0.2l-1.3-0.1l-1-0.2l-3.9,0.5l-0.6,0.6l-1.8,0.8
		l-0.8,0.2l-1-0.1l0.1,1.5l0.4,1l-0.6,1.4l-0.8,1.3l-0.8,0.5l-2.9-2.4l-0.4-0.6l0-0.7l0.8-1.3l0.1-0.6l0.8-0.8l0.9-0.5l0.7-2.4
		l-0.4-0.5l-0.3-0.7l-1.2-1l-0.5-0.2l-0.4-1.3l-0.5-0.4l-1-0.3l-1-0.6l-0.8-1.1l-0.5-0.4l-2.4-1l-0.5-0.5l-2.3-0.1l-1.2,0.5
		l-1.7,0.1l0.6-2.7l0-0.7l-0.2-1l-0.7-0.8l-0.2-0.4l0.7-1l0.2-0.6l-0.2-0.7l-0.5-0.9l0-0.4l0.2-1.1l0.9-2.3l-1.9-0.4l-1.7,0.7
		l-3-0.6l-1.2-0.6l0.5-2.3l0.7-1.4l-2.7-1.2l-0.5-0.7l-0.6-0.1l-0.2-0.7l0.2-2l1.7-1.7l1.4-1.8l0.3-0.9l-0.1-0.7l0.7-1.5l-0.2-1.7
		l-0.6-1.2l-0.5-1.3l0.8-0.9l0.9-0.6l1.9-0.1l1.3,0.1l1.3-0.2l0.5-0.6l0.2-0.6l1.3-1.1l4-0.1l1.1,0.2l1.4-0.1l3.9,1.8l1.3-0.2
		l0.7-0.5l1.1-0.4l0.9,0.2l1.6,1l0.9,0.8l1.2,0.5l0.8,0.2l1.2-0.3l0.8-0.5l1.5-2.2l0.9-1.7l1.1,0.7l1.5,1.1l0.9,0.3l0.9,0l1-0.6
		l0.9-1l1.7-1.6l0.8,0.7l0.6,0.8L171.8,199.9"/>
	<path id="path68" inkscape:connector-curvature="0" class="st1" d="M185.8,176l1.7,0l1-0.4l2.5,1l1.4,1.6l4.1-1.3l2-1.7l1.2-0.5
		h1.4l1.2,0.5l0.7,0.5l0.3,1.2l0.4,2.6l0.6,2l3.5,2.3l1.5,0.4l3.7,0.2l0,0.3l1.4,1l0.8,0.2l0.6-0.6l0.7-1.7l1.4-0.9l1.5-0.3l1.8,0.5
		l1.2,0.7l1.6-0.1l0.9-0.5l1.1-0.7l1.1,0.3l1,0.1l1.9-0.2l0.5-0.2l1.1-0.2l0.6,0.4l-0.4,2.8l0.2,0.5l1.1,0.4l1.2,0.7l1.4-0.2
		l1.2-0.5l1.7,1.4l0.9,0l2-0.6l1.2,0.9l0.9,1.2l0.5,0.2l1.5-0.9l3.8,0.5l-0.7,1.2l-0.1,1.2l1.6,2.5l-0.3,0.9l-1.6,1.9l-0.3,1
		l0.3,0.6l1,0.9l1.3,1l1,0.5l1,0.7l0.7,1.6l-0.1,1.7l0.1,0.5l1.8,1.6l2,2l1.6,0.6l1,0.7l0.4,0.6l0,0.1l-0.8,2l-0.5,1.1l-1.7,2.7
		l-0.1,0.8l0.1,1.2l1.8,0.9l0.1,0.5l-1.1,2l0.7,0.7l1.8,0.5l0.7,0.4l0,0.5l-0.6,0.5l-1.5,0.8l-0.8,0.3l-2.3,0.4l-0.5,0.6l0,0.7
		l0.6,1.1l0.5,0.7l-0.4,0.6l-2.5,0.2l-0.7,0.4l-1.2,1.2l-1.1,0.8l-0.4,0.1l-0.7-0.4l0.2-1l-0.1-0.8l-0.9-0.9l-2.5-0.1l-0.3-0.3
		l-1-0.5l-2.1-0.3l-1-1.3l-0.7,0.6l-0.6,0.9l-2.1,0l-1.6,2.7l-0.8,2.1l-0.9,0.1l-0.8-0.1l-1.6,0.2l-2.2-0.5l-0.8,0l-0.5,0.3
		l-0.8,1.4l-0.4,0.1l-1.3-0.9l-0.4,0.2l-0.3,1.4l-1,0.3l-0.8-0.4l-1.1-0.7l-1.4-0.4l-1.2,0.4l-0.7-0.2l-0.2-1.5l-0.5-0.8l-0.3-0.9
		l-0.1-1.3l-0.3-0.4l-0.8-0.2l-1.4-0.8l-1.6-0.2l-1.5,0.4l-0.5,0.6l-0.7,0.1l-1.7,0l-3.5,0.3l-0.9-0.7l1-2.7l-0.1-0.7l1-1.7
		l-0.2-1.3l0.3-0.9l-1.1-1l-0.8,0l-2.8,0.3l-1-0.2l-1.1-1.8l0.4-0.5l-0.2-0.2l-1.4-1.6l-1.1-0.7l-1.8,0.5l-2.4-1.4l-2.6-0.4
		l-2.5-0.6l-2-0.7l-0.5-0.6l-0.8-1.6l0.4-1.1l0.2-2.4l-0.9-0.5l-2.3-0.2l-0.2-0.7l-0.1-1.5l0.1-0.8l0-0.5l-0.8-0.2l-2.8,0l-2.9-0.5
		l-2.4,0.2l-0.6-0.5l-1.7-2.5l-0.5-0.9l-0.6-0.8l-0.8-0.7l-1.7,1.6l-0.9,1l-1,0.6l-0.9,0l-0.9-0.3l-1.5-1.1l-1.1-0.7l0.2-1.3
		l-0.1-1.1l0.7-2.1l0.2-1l0.4-0.8l1.7-1.7l0.9-0.6l0.5-0.5l-0.4-1l-1.2-1.2l-1.2-3.5l0-1.3l-1.4-1.5l-0.8-1.1l0.2-0.6l0.6-0.5
		l0.7,0.7l1.4,0.3l0.8,0.4l3,0.6l0.1,1l0.7,0.9l1,0.8l1.4,0.1l1.2-0.6l0.5-1.1l0.2-1l-0.5-1.4l-0.3-1.2l-0.5-1.4l0.3-1.7l0.4-1.2
		l1.7-0.4l3.3,0l0.8-0.5l0.8,0l1.1,0.4l1.9,1.3l1.4,0.2l0.9,0.7L185.8,176"/>
</g>
<g id="g74" transform="scale(0.999751)">
	<path id="path72" inkscape:connector-curvature="0" class="st2" d="M274.7,253.1l-0.2,0.3l-1,0.4l0,1l-0.3,1.1l0,1.6l-0.3,0.6
		l-0.2,0.3l0.3,0.2l1,0.9l1.2,0.6l0.5,0.6l0.4,0.7l0.1,0.6l-0.2,1.1l-0.4,0.3l-0.7,0.2l-1.4,0.6l-0.9,0.1l-0.4,0.3l-1.6,1.9
		l-0.2,0.4l0,1.7l0.2,0.7l1,1.4l1,0.9l0.5,0.3l0.9,0.7l1.2,1.5l0.5,0.4l0.4,0.7l0.1,0.9l-0.4-0.3l-0.7,0.4l-0.3,0.6l-0.7,0.5
		l-0.9,0.6l-1.1,0.5l-0.8,0.1l-0.6-0.1l-1.4-0.7l-1-0.2l-0.9,0.1l-1.4,1.1l-0.8,0.4l-1.5,0.1l-0.8,0.6l-0.6,0.5l-0.6,0.8l-0.2,0.8
		l0.1,0.5l0.9,0.1l0.9,0.8l0.4,0.8l0.1,0.8l-0.1,1l-0.3,0.6l-2.3,1.3l-1,0.4l-1.2,0.3l-1.4,0.1l-2.1,0l-1.8,0.5l-1.5-1.7l-0.3-0.9
		l-1.2-1l-1.5-0.4l-1-0.1l-0.8-0.4l-0.8-1L246,283l-0.4-1.1l-0.4-0.6l-0.2-0.8l0.2-0.9l0.6-1.4l-0.5-0.5l-1.7-1.1L243,276l-1.8-1.2
		l-0.7-0.1l-1.4,0.9l-1.1-0.2l-0.9-0.5l-1.1-1.2l-1.8-0.6l-0.5,0l-1.3-1.2l-0.8,0.1l-0.6,0.7l0.3,0.6l0.9,0.4l0.8,0.6l-0.1,0.8
		l-0.7,0.5l-2-0.7l-1.8-0.5l-1.1-0.5l-3.1,1.8l-1.5-0.3l-1.4-0.4l-1.9,0.6l-1.4-0.4l-0.5,0.2l-0.9,0.6l-1,0.3l-0.7-0.7l0.7-1.3
		l-0.4-0.6l-2.2-1.8l-0.3-0.8l-2.5-1.2l-0.6-3.4l0.3-1.2l2,0.2l0.6-0.3l0.8-1.3l2.2-4.6l2.1,0.6l0.5,0l0.9-0.7l0.8,0l1.7,1.2
		l0.3-0.1l1-1.1l-2.1-2.1l-0.1-0.5l0.7-1.6l0.9-0.7l1.7-0.1l0.6-0.3l-0.2-0.8l0.3-0.6l0.2-0.8l0.6-0.8l0.1-0.6l-0.5-0.6l-1.3-1
		l1.2-2.6l-0.2-0.7l0.1-0.7l-0.4-0.6l-1.2-1.1l1.1-1.9l-0.3-0.6l-0.2-1.2l0.1-1l-0.7-1.1l0-0.7l0.6-1.5l0.8,0.4l1-0.3l0.3-1.4
		l0.4-0.2l1.3,0.9l0.4-0.1l0.8-1.4l0.5-0.3l0.8,0l2.2,0.5l1.6-0.2l0.8,0.1l0.9-0.1l0.8-2.1l1.6-2.7l2.1,0l0.6-0.9l0.7-0.6l1,1.3
		l2.1,0.3l1,0.5l0.3,0.3l2.5,0.1l0.9,0.9l0.1,0.8l-0.2,1l0.7,0.4l0.4-0.1l1.1-0.8l1.2-1.2l0.7-0.4l2.5-0.2l0.4-0.6l0.9,0.2l0.8,0.1
		l0.7,0.3l0.4,0.4l0.5,0.7l-0.1,1.3l0.9,1.3l-0.5,2.9l-2.5-0.2l0,1.7l0.3,0.9l0.8,0.8l0.8,0.3l0.6,0.1l0.7-0.2h0.8l-0.3,0.5
		l-0.7,0.3l0.5,0.5l1.1,0.7l1.2,1.7l1,0.2l0.3,0l0.6,0.6l-0.2,1l0.6,0.7l0.5,0.2l0.8-0.2l0.6,0.1l0.8,0.5l0.5,0.6l0.5,0.8l-0.1,0.7
		l0.2,0.9l1.1,0.4l0.4-0.4l0.8-0.5l0.6-0.1l1.4,0.1l0.8,0.2l-0.2,0.5l-0.2,1.1l0.1,0.5l0.9,1L274.7,253.1"/>
</g>
<g id="g80" transform="scale(0.999751)">
	<path id="path76" inkscape:connector-curvature="0" class="st3" d="M212.6,313.5l0.4,0.3l0.8-0.2l0.3,0.9l0,0.8l1.7,0.2l1,0
		l1.3,0.4l0.4,0.4l-1.9,1.1l-0.2,0.3l0,0.4l0.8,0.5l1.2,1.1l1.7,1l1.2,1.3l0.9,0.4l1.4,0.5l0.5,0l-0.1,0.6l0.2,0.3l1.9,0.4l0.7,0.3
		l-0.8,2.7l0,1.6l-0.6,2.1l-0.4,2.3l-0.2,1l-0.5,0.6l-0.6,0.9l0,0.1l-0.5,1.4l-0.2,0.8l-0.1,1.5l-0.5,2.4l-0.7,0.9l-0.4,1.1l0.5,1.5
		l0.3,1l-0.3,1.7l-0.4,1.7l-0.1,1.6v2.1l0.3,0.5l1.1,0l1.2,0.3l-0.3,1.5l0.2,1.5L222,357l0,0.8l-0.2,1.5l0.5,1.3l0.2,1.6l-0.2,1.5
		l-0.2,1.3l-0.6,0.3l-0.9-0.4l-0.9-0.2l-0.5,0.4l-0.4,1l-0.1,0.6l0.6,1.1l0.2,0.6l-0.5,0.8l0.1,0.8l-0.7,0.5l-0.4,0.6l-0.3,0.9
		l-0.2,1l-0.1,1.4l-0.1,2.5l-0.4,0.6l-0.5,0.8l-0.1,0.9l0.7,0.6l0.9,0.1l1,0.3l0.7,0.6l0.5,0.8l0.3,0.7L220,383l-0.6,0.1l-0.7,0.2
		l-0.9-0.5l-0.7-0.4l-0.7-0.2l-0.3,0.5l0.3,0.5l0.7,0.4l0.8,0.4l0.3,0.5l-0.4,0.3l-0.3,0.5l0.2,0.4l0.5,0.6l0.4,0.6l0.1,0.6l0.3,0.6
		l0.4,0.3l0.5-0.1l0.6-0.4l0.7-0.2l0.6,0.1l0.4-0.6l0.5-0.8l0.5-0.4l0.6,0.2l0.8,0.4l0.9,0.6l1.1,0.5l1.3,0.7l-0.2,1.5l0.9,0.7
		l0,1.3l0.1,1l-0.2,0.6l-1.3,0.1l-1.5-0.1l-1.7-0.1l-1.7,0.2l0.1,1l-0.1,0.9l0.5,0.9l0.6,0.8l0.2,0.6l-0.6,1.2l0.8,0.3l0.5-0.7
		l1,0.4l0.1,0.4l0.2,0.4l0,0.5l-0.2,0.7l-0.5,0.1l-0.5-0.2l-0.5,0.2l0.3,0.5l0.6,0.5l0.3,0.6l0.5,0.7l0.4-0.1l0.2-0.8l0.8-0.4
		l0.5,0.2l0.8,0.6l0.4,0.7l0.8,0.3l0.7,0.1l0.2,0.1l0.3,0l0.7-0.3l1.3-0.2l0.7-0.4l-0.5-0.6l-1.2-0.3l-1-1l-0.1-1.1l0.1-0.7l0.5-0.1
		l0.6,0.3l0.8,0.3l0.7,0.6l1,0.4l0.9,0.2l0.6-0.4l1.1,0.2l0.2,0.7l-0.2,0.2l-0.9,0.1l-0.8-0.1l-0.1,0.1l0.3,0.4l0.7,0.4l0.8,0.1
		l0.8,0l0.4-0.2l0.2,0l0.9,0.8l0,0.1l0.1,0.4l-0.4,0.5l-1.1,0.5l-1.3,0.3l-0.3,0.1l-0.9,0.5l-0.4,1.2l-1.1-0.2l-0.6,0.2l-0.1,0.7
		l0.1,0.3l0.5,0.2l0.1,0.3l1.3,0.6l1.4,1.6l1.1,0.5l0.1,0.6l-0.2,0.7l-0.3,0.4l0.5,0.6l0.2,0.7l-0.2,0.3l0.5,0.6l-0.1,0.5l-0.5,0.1
		l-0.6,0.6l-0.5,0.4l-1-0.6l-0.3-0.4l0.4-0.6l0.5-0.2l0.6-0.6l0-0.2l-0.3-0.3l-0.8-0.5l-0.8-0.3l-0.3,0.7l-0.6,0.9l-0.3,0.2l-2.7,0
		l-0.5-0.4l-0.3,0.1l-0.2-0.1l-1-0.4l-0.7-0.3l-0.6-0.2l-0.1-0.4l-0.3-0.1l-0.5,0.3l-0.9-0.7l0.1-0.2l0.3-0.5l0.2-0.4l-0.4-0.3
		l-0.3-0.2l-1.4-0.3l-0.9-0.1l-0.7-0.3l-0.3-0.4l0-0.4l-0.1-0.6l-0.3-0.4l-0.2-0.6l-0.5-0.3l-0.4-0.6l-0.7-0.4l-0.7-0.3l-0.9-0.1
		l-0.7-0.3l0-0.3l0.3-0.4l0.2,0l0.4,0l0.4,0.1l0.6,0.1l0.6,0l0.1-0.4l-0.2-0.2l-0.1-0.3l0.2-0.2l-0.1-0.2l-0.4,0l-0.5,0.2l-0.8,0.2
		l-0.5,0l-0.5-0.1l-0.4-0.3l-0.4-0.2l-0.3,0.4l-0.2,0.6l-0.2,0.6l-0.6-0.1l-1.1,1.6l0.6,1l1.1,0.5l0.4,0.9l0.5-0.2l0.2,0.1l0.1,0.1
		l0.4-0.6l0.2,0l0.2,0l0.4-0.2l0.3-0.2l0.5,0.4l0.5,0.3l0.3,0.1l-0.1,0.4l-0.1,0.5l-0.2,0.4l-0.6,0.2l-0.3,0.1l-0.3,0.6l-0.3,0.6
		l-0.1,0.5l0,0.3l-0.1,0.1l-0.1,0.2l-0.3,0.1l-0.2,0l-0.2,0.3l-0.1,0.3l0.3,0l0.4,0l0.3,0.1l0.4,0l0.1-0.4l0.3-0.2l0.5,0l0.5,0.1
		l0.3,0.3l0,0.3l0.7,0.3l0.8,0.4l0.4,0.3l0.5,0.5l0.5,0.6l0.4,0.4l0.8,0.4l0.4,0.4l0.2,0.5l0,0.5l0.2,0.2l0.5-0.2l0.7-0.4l0.5,0.1
		l0.1,0.2l0.1,0.2h0.4l0.2-0.2l0.2-0.6l0.3-0.3l0.4-0.1l0.6,0.2l0.5,0.4l0.4,0.2l0.7,0.3l0.3,0.5l0.1,0.2l-0.2,0.4l0,0.7l0.5,0.8
		l0,0.8l0.5,0.4l0.5,0.1l0.3-0.1l0.4-0.1l0.1-0.3l0.1-0.2l0.7-0.5l0.3,0l0.2,0.2l-0.6,1.1l0.1,0.3l2.2,1.2l0.3-0.1l0.1,0l0.3-0.3
		l0.8,0.4l0.9,0l0.4-0.3l0.2-0.5l0.6-0.8l0.5,0l1,0.8l0.9,0.9l1.1,0.5l0.6,0.7l0.2,0.5l0.9,0.8l0.1,0l3,1.2l0.6,0.2l0.6,0l1.5,0.1
		l1-0.1l1.5-0.4l0-0.2l0.3-0.1l0.9-0.1l1.1-0.3l0.9,0.5l0.6-0.2l0.2,0.1l0.2,0.4l0,0.5l-0.1,0.2l0,1l-0.7,1l-0.1,0.3l-0.9,0.5
		l-1.7,0.4l-0.6-0.1l-0.4,0.1l-0.9,0.6l-0.6,0.2l-1.8,0l-0.3,0.3l-0.6,1.8l-0.9,1.2l-0.7,1.6l-0.9,3.2l-1,0.3l-0.8,0.7L244,442
		l-0.8-0.5l-0.2-0.3l-0.8,1.2l-0.3,0.3l-1,0.6l-0.8,0l-0.6,0.1l-0.2-0.1l-0.7-0.5l-0.5,0.1l-0.2,0.1l-0.8,1.1l-0.1,1l1.5,0.9
		l1.2,0.2l1.1,0.9l1,0.4l0.6,0.7l0.2,0.2l-0.1,0.6l-0.5,0.8l0.3,0.6l1,0.4l0.4,0.3l0.1,0.5l0,0.3l0,0.3l-0.8,0.5l-1.3-0.2l-1-0.2
		l-0.4,0.1l-1.6,1.3l-0.7-0.6l-1.4-0.1l-0.7-0.1l-1.1,0.4l-0.1-0.3l-0.2-0.1l-0.2-1.1l-3,1.3l-0.1,0l-0.8-0.7l-1.2-1.1l-1-0.8
		l-0.9-0.5l-0.3,0.1l-0.1,0.3l-0.2,0.4l-0.1,0.5l-0.4,0.5l-0.3,0.5l-0.2,0.5l0.3,0.8l0,0.2l0.1,0.5l-1.3-0.1l-0.8,0l-0.2,0.8
		l-0.9-0.1l-0.6,0.3l-0.5-0.1l-0.8-0.2l-0.6-0.4l-0.1-0.3l0.2-0.6l-0.7-0.4l-0.8-0.4l-0.7-0.3l-0.6-0.4l-0.2-0.6l-0.1-0.6l0.2-0.5
		l0.6-0.1l0.5,0l0.7-0.2l0.1-0.5l-0.4-0.3l-0.3-0.4l0-0.7l0.1-0.6l-0.1-0.8l0.1-0.6l-0.2-0.6l-0.5-0.5l-0.2-0.4l0.2-0.3l-0.3-0.4
		l0.3-0.3l0.2-0.6l-1.1-0.4l-0.6,0.9l-0.5,0.2l-0.8-0.2l-0.8-0.5l-0.7-0.2l-0.5,0.8l-0.5,0.9l-0.7,1.3l-0.6-0.4l-0.4-0.2l-0.3,0.4
		l-0.3,0.2l-0.4,0.1l-0.1,0.4l0.5,0.4l-0.2,0.7l0.6,0.3l0.5,0.6l-0.2,0.8l-0.1,0.8l0,0.2l-0.1,0.4l-0.3,0.6l-0.4,0.4l-0.6,0.2
		l-0.7,0l-0.6,0l0,0.4l0.2,0.6l0.1,0.3l0.1,0.3l0,0.6l-0.2,0.5l-0.7,1.1l0.1,0.3l0.3,0.6l0.3,0.7l0.2,0.5l0.6-0.1l0.4,0.1l0.2,0.3
		l-0.2,0.4l0,0.7l0,0.9l-0.1,1l-0.2,0.8l-0.5,1.4l-1.4-0.1l-0.8-0.4l-0.1-0.9l-0.2-0.6l-0.5-0.5l-0.5-0.7l-0.2-0.5l0.4-1l0.3-0.8
		l0.4-0.6l-0.3-0.3l-0.8-0.2l-0.5-0.3l-0.3-0.5l-0.2-0.4l-0.4-0.1l-0.3,0.7l-0.4,0.9l-0.1,0.7l0,0.5l-0.4,0.3l-0.5-0.1l-0.8,0
		l-0.6,0.2l-1,0.2l-0.5,0.3l-0.9,0l-1.1-0.2l-0.9-0.3l-0.6,0.3l-0.7,0.1l-1.2-0.2l-1.1-0.4l-0.6-0.3l-1-0.1l-0.8,0.1l-0.8,0.1
		l-0.7,0.2l-0.7,0.2l-0.3,0.7l-0.2,0.5l-0.1,0.5l-0.2,0.6l-0.3,0.1l-0.4-0.3l-0.4-0.1l-0.5-0.1l-0.9,0.2l-0.6,0.1l-0.7,0.1l-0.4-0.3
		l-0.4-0.2l-0.1-0.3l0.1-0.4l0.1-0.3l-0.2-0.2l-0.3-0.2l-0.4-0.2l0.3-0.7l0.2-0.5l0-0.3l0-0.3l-0.3-0.2l-0.5-0.1l-0.3-0.1l-0.1-0.3
		l0.2-0.9l0.3-0.6l0.4-0.5l0.3-0.5l0.6-0.5l0.5-0.7l0.4-0.4l0.8-0.9l-1.1-0.2l-0.7-0.2l-0.9-0.4l-0.5-0.3l-0.6-0.2l-0.5-0.2l-0.6,0
		l-0.7,0l-0.7,0l-0.7,0l-0.6,0l-0.6,0.1l-0.5,0.2l-0.4-0.1l-0.6-0.1l-0.5,0l0,0.8l-0.7,0l-0.5-0.2l-0.6-0.3l-0.3,0.7l-0.2,0.6
		l-0.2,0.6l-0.3,0.6l-0.3,0.4l0.1,0.4l0.6,0.4l0.2,0.3l0.2,0.3l-0.2,0.4l-0.1,0.2l-0.3,0.2l0,0.4l0.1,0.3l-0.2,0.4l-0.3-0.1
		l-0.5-0.4l-0.7,0.1l-0.8,0.1l-0.7,0.2l-0.3,0.3l-0.5,0.6l-0.5,0.4l-0.7,0l-1,0.1l-0.6,0.1l-0.8,0.2l-0.6,0.3l-0.4,0.3l-0.5,0.5
		l-0.2,1l-0.6,0.1l-0.2,1l-0.7,0.4l0,0.5l0,0.6l-0.1,0.1l-1.1,0.1l-1-0.4l-1.1-0.6l-0.6-0.7l-0.4-1.1l-0.4-1.3l-0.2-1l-0.1-1.1
		l0-0.5l-0.3-0.5l-0.7,0.1l-0.9,0.3l-1.5,0.6l-0.3,2.2l-0.2,1.6l-0.4,0.9l-0.2,0.6l-0.1,0.6l-0.9-0.3l-0.5,0.5l-0.8,0.3l-0.7,0.9
		l-1,0.6l-0.5,0.6l-0.5,0.7l-0.5-0.1l-0.7-0.4l-0.6-0.2l-1.1-0.1l-0.3,0.3l-0.2,0.5l-0.4-0.2l-0.4-0.3l-0.4-0.2l-0.9-0.2l-1.2-0.1
		l-1.2-0.1l-1.4,0.2l-0.7-1.1l0.1-0.8l0-0.8l0-1l0.1-1.3l0.2-1.2l0.2-1.1l0.1-1.3l-0.1-1.1l0-1.1l-0.2-1l-0.5-0.8l-0.3-0.8l-0.3-1
		l-0.2-0.7l-0.4-0.5l-0.6-0.1l-0.5,0.1l-0.8,0.5l-0.7,0.5l-0.4,0.7l-0.5,1.1l-0.4,0.8l-0.5,0.8l-0.6,0.4l-1,0.4l-1,0.4l-0.5,0.5
		l-0.4,0.8l-0.6,0.9l-0.7,0.6l-0.6,0.2l-1.2-0.3l-0.9-0.9l-0.4-0.5l0.3-0.7l0.4-0.8l0-1.1l-0.1-1.2l-0.2-1.2l-0.2-0.8l-0.2-1
		l-0.7,0.1l-0.5,0.1l-0.8,0l-0.9,0l-0.5-0.2l-0.2-0.5l0.1-0.7l0.2-0.8l0.5-0.4l0.1-0.8l-0.2-0.9l-0.3-0.4l-0.4-0.4l-0.7-0.1
		l-0.5,0.2l-0.3,0.6l-0.3,0.7l-0.3,0.8l-0.4,0.6l-0.5,0.3l-0.5,0.2l-0.4,0l0.1-0.5l0.2-0.5l0.2-0.5l0.4-0.6l0.3-0.9l0.5-0.9
		l-0.3-0.2l-1.3-0.4l-0.5-0.4l-0.1-0.6l0.1-0.9l0.2-0.9l0.4-0.4l0.7-0.5l0.6-0.5l0.2-0.7l0.1-0.8l0.1-0.6l0.4-0.3l0.7-0.3l0.3-0.5
		l0-1l0.2-0.8l0.2-0.6l0.3-1.1l0.7,0.2l0.9,0.1l0.5-0.1l0.2-0.6l0.3-0.9l0.2-0.8l0.4-0.8l0.5-0.5l0.6-0.9l0.7-1l0.6-0.7l0.4-0.6
		l-0.2-0.5l-0.5-0.3l0.1-0.6l0.7-0.3l0.4-0.2l0.3-0.5l0.5-0.8l0.4-0.6l0.7-0.6l0.8-0.3l0.4-1.5l0.1-0.7l-0.2-1.3l-0.3-0.8l-0.2-0.5
		l0.2-0.6l0-1.1l-0.3-0.3l-0.4-0.1l-0.4-0.2l0.2-0.3l0.4,0l0.5-0.2l0.5-0.5l0.2-0.9l0.6-0.5l0.5-1l0.3-1l0.1-1.1l-0.1-0.8l-0.6-0.9
		l-0.5-0.5l0-0.7l0.1-0.8l-1-0.8l-0.8-0.2l-0.8-0.3l-0.6-0.2l0-1.1l0.2-1l-0.1-0.9l-0.1-0.9l-0.2-1l-0.3-1l-0.2-1l-0.2-1.1l-0.1-0.6
		l-0.6-0.6l-0.2-1.1l0.1-1l0.3-0.2l0.7,0l0.3-0.2l0.1-0.4l0.7-0.1l1,0.2l1,0.2l0.9,0.1l0.7-0.3l0.4-0.5l0.3-0.8l-0.1-0.7l0.1-0.9
		l0.2-0.7l-0.1-0.7l-0.4-0.5l-0.4-0.2l-0.5-0.1l-0.3-0.5l0.4-0.3l0.4,0.1l0.6,0.1l0.7,0l0-0.6l-0.6-0.3l-0.5-0.2l-0.3-0.3l0.1-0.5
		l0.4-0.2l0.4-0.1l0.5-0.2l0.1-0.5l0.1-0.8l-0.2-0.9l-0.3-0.7l-0.1-0.7l0-0.7l0-0.7l-0.4-0.8l-0.3-0.7l-0.4-0.6l-0.1-0.8l0-0.8
		l0.1-0.7l0.5-0.3l0.8-0.2l0.6-0.1l0.7-0.8l0.3-0.5l0.3-0.6l0.4-0.5l0.3-0.5l-0.1-0.7l0-0.4l0.1-0.6l0.2-0.1l1.7,0.3l-0.5-0.8
		l-0.8-0.6l-1.2-0.9l-0.9-0.5l-0.2-0.6l0.4-0.5l0.2-0.7l-0.6-0.6l-0.8-0.7l-1-0.5l-0.7-0.1l-0.8,0.8l-0.9,1l-1.7-0.5l-0.6-0.4
		l-0.1-1l-0.8-0.5l-0.8-0.6l-0.2-0.7l-0.3-0.9l0.2-0.7l0.5-0.3l0.7-0.5l0.1-0.6l-0.2-0.9l-1-0.5l-1.1-0.3l-1-0.3l-0.7-0.3l-0.4-0.7
		l-0.1-0.8l0.2-1l0.4-0.6l0.6-1l0.2-0.9l0.1-0.9l-0.1-0.8l0.2-0.8l0.2-0.7l-0.7-0.3l-0.9-0.5l-0.8-0.1l0.2-1.1l-1.1-0.6l0.1-0.8
		l0.5-0.7l1.4-1.6l0.6-0.7l0.7-0.2l0.6,0l0.9,0.3l0.7,0l0.6-0.5l0.4-0.6l1.4-0.2l0-1.1l-1.2-0.3l-0.8,1l-0.6,0l-1.3-1l-0.8-0.8
		l-0.2-0.7l0.2-0.6l0,0l2-0.1l0.9-0.1l0.5,0.2l0.1,0.1l0.5,0.4l2.3,0l1-0.2l0.3-0.3l1.1-1.3l1-0.3l1.8,0.3l0.9,0.3l1.3,1l1.1,1.3
		l-0.3,0.9l0.3,1.6l0.9,0.5l2.6,0.7l0.9-0.4l0.8-0.1l0.9-0.6l0.6-0.8l0.6-1.3l0.6-1.7l0.3-0.9l0.2-1.1l-0.5-0.2l-0.8,0.3l-0.9,0.1
		L144,333l-0.1-0.6l-0.3-0.8L143,331l-0.6-0.3l-0.9,0l-0.8-0.2l-1.3-0.6l0.5-0.7l0.9-0.7l0.8-0.1l2.3,0.7l1-0.4l0.5-0.5l1.6-2
		l-0.8-0.5l-0.8-0.1l-0.7-0.3l-0.9-0.5l-1.1-1.3l-0.7-0.5l-0.8-0.2l-0.4,0.5l-0.9,0l-0.7-0.5l-0.1-0.3l0.4-0.3l0-0.4l-0.7-0.4
		l-1.9-0.4l-0.2-0.5l0.3-0.8l1.3-0.5l1.2,0l0.9-0.1l0.5,0.1l2.3,0.8l1.3,0l0.9,0.4l1.4,1l0.4,0.8l0.2,1.6l0.3,0.6l2.2,0.7l1-0.2
		l0.6,0l0.6-0.2l0.5-0.9l2,0l2,0.2l0.5-0.2l0.8-0.6l2.5,0.1l0.7-0.1l0.5-0.4l0.8,0.1l0.2,0.7l-0.3,1.5l0.4,0.4l0.5,0.1l0.8,0l0.2,0
		l0.6,0.2l-0.5,0.7l0.2,0.7l1.5,0l-0.1,0.9l0.1,1.2l-1.2,0.2l-1.5-0.2l-0.6-0.9l-0.8,0l-0.7,0.1l-0.5,0.2l-0.4,0.6l-0.4,1.1
		l-0.3,0.6l0.6,0.7l0.7,0.4l0.6,0.1l0.8-0.3l2.1,1.5l1.2,1l0.3,0.4l-0.4,0.5l-0.7,0.2l-0.2,0l-0.5,0.1l-0.4-0.1l-1.3-0.3l-1.7-0.1
		l-0.2,0.4l-0.3,0.5l0,0.7l0.3,0.4l0.8,0.2l1.8,0.1l1-0.3l1.2-0.1l0.5,0.5l0.3,0.5l0.1,0.5l0.8,0.2l0.8,0l0.9-0.5l1-0.9l0.7,0.3
		l1,0.5l-0.4,1.8l0.4,1.2l0,0.6l-0.1,0.6l0.1,0.3l-0.3,0.1l-0.1,1.5l-0.5,1l-0.1,0.8l0.3,0.7l0.6,0.4l1.1-0.1l0.9-0.5l0.8-0.9l1-0.2
		l0.8-0.7l0.5-0.8l0.9-0.7l1-0.4l0.5-0.3l0.5-0.5l0.6-0.1l1.6-0.1l1.2,0.1l1.5,0l1.3-0.3l1-0.4l0.7-0.5l0.3-0.5l-0.1-0.8l-0.2-0.6
		l-0.8-0.8l-0.3-0.6l0.1-1.4l-0.2-0.5l-0.2-0.4l-0.1-0.8l0-1.5l-0.1-0.8l0.1-0.9l0.4-0.6l0.9-0.3l0.8,0.2l1.8,0l0.6,0l0.5-1.2
		l0.5-0.9l0.1-0.2l0.6-0.1l0.5-0.1l0.9-1.6l0.5-0.5l0.1-0.1l1.3,0.1l1.5,0.4l0.2,0l0.8-0.1l2.1-2.3l0.9-0.4l1.4-0.2l1.3-0.6l1.1-0.2
		l0.6-1.7l-0.5-0.7l0-1l-0.3-1.4l0.4-0.6l0.1-0.2l0.5,0.7l0.6-0.2l0.4-0.6l-0.4-0.6l-0.1-0.9l0.6-0.6l1-0.1l0.8,0.2l0.6,0l0.4-0.4
		l0.8-1l2.2-0.2L212.6,313.5"/>
	<path id="path78" inkscape:connector-curvature="0" class="st3" d="M258.9,369.3l1.3,0.7l0.7-0.3l0.6,0.2l0.2,0.4l-0.2,0.6l0.6,0.4
		l0.4,0l0.8-0.6l0.9-0.4l0.6-0.5l0.5-1l0.1-0.5l0.6-0.9l0.7,0.5l1.1,0.7l0.5,0.5l1.5,0.1l0.6,0.2l0.3,0.3l0.4,0.5l0.4,0.7l-0.1,1.6
		l-0.3,0.6l0,0.4l0.2,0.6l0,0.5l-0.1,0.1l0,0.5l0.5,1l0.1,0.6l0.5,0.2l0.3,0.3l0,0.2l-0.2,0.2l-1.9,0.9l0.2,1.5l0.6,0.7l0.8-0.1
		l1.2,0.4l0.4-0.2l0.5-0.1l0.8,0.3l0.4,0.4l0.1,1.1l0.3,0.4l0,1.4l-0.2,0.5l0.3,0.7l0,0.8l0.3,1l0.4,0.7l-0.1,0.5l-1.3,2l-2.5,2.7
		l-0.3,0.7l1.9,1.9l0.3,0.1l0.9-0.7l2,1.1l-0.2,0.4l-0.6,0.6l-0.7,1.2l-0.7,0.1l-0.3,0.3l-0.1,0.3l0.1,0.3l-0.1,0.6l0.4,1.2l0.6,0.7
		l0.2,0.4l-0.6,0.7l-0.4,0.4l0.3,1.1l0.7,0.7l1.6,0.6l0.8,0.1l0.4,0.1l2,0l0.8,0.3l0.1,0.7l0.8,0.8l0.3,0.4l-0.1,1.1l0.1,1l0.2,0.5
		l0.4,0.5l1.4,0.2l0.5,0.5l0.5,0.9l1.3,0.2l0.5,0.4l-0.1,0.9l-0.2,0.6l-0.6,0.2l-0.3,0.3l-0.3,0.7l-0.2,0.5l-0.2,1.7l1.3,0.9
		l0.2,0.3l0.4,1.5l-0.1,0.1l0.3,0.7l0.5,0.3l1,0.5l2.4,0.8l0.7,0.4l1.2-0.5l1.5,0.3l1.4,0.6l0.7,0.5l0.2,0.4l0.5,0.2l0.2,0.7
		l0.8,0.7l0.8,0.7l1.1,0.6l0.6,0l0.5,0l0.2,0.7l0.3,0.7l2.5,0.9l0.7,0.2l0.1,0l0.7,0.4l0.2,0.4l0.8-0.2l0.2-0.4l0.6-0.5l0.8-0.4
		l1.6,0l0.4-0.6l0.4-0.3l0.5,0.1l0.3,0.7l-0.1,0.5l0,1.2l-0.3,1.4l-0.6,0.4l-0.7,0.3l-0.4,0.7h-0.4l-0.7,0.3l0,0.3l0.9,0.6l0.6,0.2
		l0.8,0.9l0,0.8l0.6,0.3l-0.4,0.6l-0.6,0.2l0.3,1l0.5,0.6l1.4-0.5l0.3,0.2l0.5,0.9l0.6,0.2l0.6,0.9l0,0l-0.1,0.6l0.1,0.2l0.8,0.2
		l-0.1,0.9l-0.5,1.1l0,0.8l0.3,0.3l0.8,0l1,0.4l0.2-0.2l1.4,0.8l0.8,0.9l-0.1,0.7l-0.9,1.2l-0.5,0.4l-0.9,0.9l-1.5,0.2l-1,0.6
		l-0.7,0l-0.3-0.4l-0.4-0.2l-0.4-0.1l-1,0l-1.3,0.8l-0.1,0.5l0.2,0.7l0.1,0.6l-1.1,0.8l-0.6,0l-0.2,0.4l0,0.6l0.5,0.4l-0.2,0.5
		l0.4,0.6l-0.2,0.4l-0.6,0.4l-0.6-0.2l-0.3,0.5l-1.1-0.2l-2.4,0.8l-1.4,0.1l-0.2-0.1l-0.7,0.6l-1,0.2l-0.4,0.7l-1.1-0.2l-0.9-0.3
		l-0.7,0.7l-0.8,0.5l-0.4,0.4l-0.1,0.1l0.1,0.2l1.5,0l0.5,0.3l-0.1,0.1l0.5,0.2l0.1,0.2l-0.1,1.1l-0.4,0.7l-0.1,0.5l0.9,0.4l0.7,0.1
		l0.3-0.1l0.6-0.4l1-1l0.6-0.4l1,0.5l1.2-0.2l0.3,0.1l0.4,0.7l-0.4,0.5l0.2,0.4l0,0.8l-0.2,0.8l-0.5,0.3l-0.3,0.4l-0.2,1.6l0.4,0.2
		l1-0.5l0.9-0.3l1.2,0.3l0.6,0.3l0.2,0.7l0.5,0.1l0.6,0.3l0.6,0l1.6,0.2l0.5,0.3l0.3,0.4l0.3,0.7l0.4,0.2l0.5-1l0.4-0.5l1.2,0
		l1.1,0.6l0.7,0l0.4-0.3l0.5-0.7l1-2.4l0.3-0.4l0.6,0.1l0.8,0.7l0.1,0.7l-0.4,0.9l1.5,1.8l0.3,0.5l0.1,1.2l0.3,0.2l0.6,0.7l0.7-0.1
		l0.7,0.4l0.5-0.3l0.6,0l0.1-0.5l-0.3-0.2l-0.1-1.1l0.3-1.6l0.6-0.7l1.2-0.3l0.4,0.1l0.1,0.7l0.2,0.3l0.4,0.2l1.2,0l0.2,0.1l-1,0.7
		l-0.3,0.6l0.1,0.3l-0.1,0.3l-0.4,0.3l0,0.1l0.5,0.4l0.2,0.6l-0.6,0.1l-0.5,0l-0.1,0.9l-0.4,0.4l-1.7,0l-1.1-0.4l-0.6,0.5l-1.1,0.4
		l-1.2,0.7l-2.8,0.2l-0.2,1l-0.4,0.3l-0.7-0.2l-0.4-0.8l-0.5-0.1l-0.5,0.1l-0.9,0.9l-4.9,2.8l-0.9,0.7l-0.6,0.3l-0.3-0.8l-0.6-0.1
		l-0.4,0.3l-0.7,1.5l-2.9,0.6l-1.6,0.5l-3.5,0.9l-3,1.3l-1.8,0.3l-1.1,0.5l-1.2,0.9l-1.3,0.4l0,1.2l-0.2,0.5l-0.5,0.2l-1.1-0.3
		l-0.7,1.3l-0.6,0.3l-0.7-0.1h-0.5l0.1,1.2l0.4,0.6l-0.6,0.6l-0.5,0.8l0.7,0.8l0.4,0.1l0.2,0.5l0.9,0.8l0.7,0.8l-0.1,1.3l-0.8,2.2
		l-0.4,0.9l-0.2,1.3l0.2,0.8l0.7-0.3l0.6-0.4l0.8-0.2l0.7-0.4l0.7,0l1.1,1.4l-0.3,0.5l-0.6,0.5l-1.2,2l-1.1,0.4l-1.4,1.3l-1.6,0.9
		l-1.4,0.5l-2.9,0.8l-1,0.6l-1.8,0l-2.8-0.6l0-2l0.2-1.5l-0.2-0.7l0-0.6l0.3-0.8l-0.7-0.4l-1-0.9l0.3-0.3l0.4-0.1l0.7-1.3l0.7-0.8
		l-0.5-0.3l1-1.2l-0.4-0.7l-0.5-0.6l-0.3,0.4l-0.4,0.2l-0.4-0.1l-0.4-0.6l-0.5,0.1l0.2,0.7l-0.3,0.3l-0.4-0.3l-1.8,0.9l-0.3,0.9
		l-2,0.8l-0.9,0.1l-2.7-3.5l-0.8-0.9l-1.1-0.7l-4,3.2l-1.4,0.8l-1.7,0.9l-0.8-1.3v-0.5l0.2-0.5l1.2-1.5l-2.6-1.2l-2.3-0.5l-0.2-0.8
		l-0.4-0.4l-0.7,0.3l-0.7,0.9l-0.3-0.6l-2.6-1.5l-0.4-1.2l-1.1-0.6l-1.4-1.5l-0.6-0.8l-0.4-0.4l-0.4,0.4l-0.3,1.2l-2.8,0.3l-0.4-1.1
		l-0.9-1.1l-0.2-0.8l-0.4-0.8v-0.8l0.2-0.9l-0.3-0.4l-0.1-0.6l-0.4-0.5l-0.6,0.2l-0.6-0.1l-0.1,0l-0.4,0.4l-0.3,0.2l-0.4-0.7
		l-0.6-0.5l-1.3-0.7l-1.3-0.8l-0.1-0.5l0.9-0.6l0.6-0.8l-0.2-0.3l-0.4-0.3l-0.2-0.5l-0.1-1.6l-0.3-1.1l-0.4-0.7l-0.3-0.1l-0.3-0.1
		l-0.4,0.2l-0.1-0.6l0.2-2.4l-0.2-0.3l-0.8-0.5l-0.6-0.4l-0.5-1l-0.5-0.4l-0.2-0.5l0.5-0.4l0.6-0.2l0.8,1l0.3,0.1l0.2,0.1l0.1,0.2
		l0.2,0l0.2,0l0.4-0.3l0.1-0.2l-0.2-0.3l0-0.5l-1.1-1.8l-0.1-0.1l0-0.5l-0.3-0.5l-0.7-0.5l-0.7-0.5l-0.5-0.4l-0.6-0.5l-0.4-0.7
		l-0.1-0.4l-0.1-0.4l0.7-0.4l0.5,0l0.6-0.3l0.5-0.5l-0.3-0.5l-0.4-0.7l-0.4-0.7l0.2-0.5l0.5-0.1l0.5,0l0.3-0.3l-0.4-0.5l-0.5-0.4
		l-0.6-0.3L228,458l-0.6-0.5l-0.5-0.2l-0.7,0l-0.3-0.2l0-0.3l0.2-0.5l0-0.4l0-0.2l-0.2-0.5l0.2-0.6l-0.1-0.5l0-0.2l-0.3-0.8l0.2-0.5
		l0.3-0.5l0.4-0.5l0.1-0.5l0.2-0.4l0.1-0.3l0.3-0.1l0.9,0.5l1,0.8l1.2,1.1l0.8,0.7l0.1,0l3-1.3l0.2,1.1l0.2,0.1l0.1,0.3l1.1-0.4
		l0.7,0.1l1.4,0.1l0.7,0.6l1.6-1.3l0.4-0.1l1,0.2l1.3,0.2l0.8-0.5l0-0.3l0-0.3l-0.1-0.5l-0.4-0.3l-1-0.4l-0.3-0.6l0.5-0.8l0.1-0.6
		l-0.2-0.2l-0.6-0.7l-1-0.4l-1.1-0.9l-1.2-0.2l-1.5-0.9l0.1-1l0.8-1.1l0.2-0.1l0.5-0.1l0.7,0.5l0.2,0.1l0.6-0.1l0.8,0l1-0.6l0.3-0.3
		l0.8-1.2l0.2,0.3l0.8,0.5l1.2-0.4l0.8-0.7l1-0.3l0.9-3.2l0.7-1.6l0.9-1.2l0.6-1.8l0.3-0.3l1.8,0l0.6-0.2l0.9-0.6l0.4-0.1l0.6,0.1
		l1.7-0.4l0.9-0.5l0.1-0.3l0.7-1l0-1l0.1-0.2l0-0.5l-0.2-0.4l-0.2-0.1l-0.6,0.2l-0.9-0.5l-1.1,0.3l-0.9,0.1l-0.3,0.1l0,0.2l-1.5,0.4
		l-1,0.1l-1.5-0.1l-0.6,0l-0.6-0.2l-3-1.2l-0.1,0l-0.9-0.8l-0.2-0.5l-0.6-0.7l-1.1-0.5l-0.9-0.9l-1-0.8l-0.5,0l-0.6,0.8l-0.2,0.5
		l-0.4,0.3l-0.9,0l-0.8-0.4l-0.3,0.3l-0.1,0l-0.3,0.1l-2.2-1.2l-0.1-0.3l0.6-1.1l-0.2-0.2l-0.3,0l-0.7,0.5l-0.1,0.2l-0.1,0.3
		l-0.4,0.1l-0.3,0.1l-0.5-0.1l-0.5-0.4l0-0.8l-0.5-0.8l0-0.7l0.2-0.4l-0.1-0.2l-0.3-0.5l-0.7-0.3l-0.4-0.2l-0.5-0.4l-0.6-0.2
		l-0.4,0.1l-0.3,0.3l-0.2,0.6l-0.2,0.2h-0.4l-0.1-0.2l-0.1-0.2l-0.5-0.1l-0.7,0.4l-0.5,0.2l-0.2-0.2l0-0.5l-0.2-0.5l-0.4-0.4
		l-0.8-0.4l-0.4-0.4l-0.5-0.6l-0.5-0.5l-0.4-0.3l-0.8-0.4l-0.7-0.3l0-0.3l-0.3-0.3l-0.5-0.1l-0.5,0l-0.3,0.2l-0.1,0.4l-0.4,0
		l-0.3-0.1l-0.4,0l-0.3,0l0.1-0.3l0.2-0.3l0.2,0l0.3-0.1l0.1-0.2l0.1-0.1l0-0.3l0.1-0.5l0.3-0.6l0.3-0.6l0.3-0.1l0.6-0.2l0.2-0.4
		l0.1-0.5l0.1-0.4l-0.3-0.1l-0.5-0.3l-0.5-0.4l-0.3,0.2l-0.4,0.2l-0.2,0l-0.2,0l-0.4,0.6l-0.1-0.1l-0.2-0.1l-0.5,0.2l-0.4-0.9
		l-1.1-0.5l-0.6-1l1.1-1.6l0.6,0.1l0.2-0.6l0.2-0.6l0.3-0.4l0.4,0.2l0.4,0.3l0.5,0.1l0.5,0l0.8-0.2l0.5-0.2l0.4,0l0.1,0.2l-0.2,0.2
		l0.1,0.3l0.2,0.2l-0.1,0.4l-0.6,0l-0.6-0.1l-0.4-0.1l-0.4,0l-0.2,0l-0.3,0.4l0,0.3l0.7,0.3l0.9,0.1l0.7,0.3l0.7,0.4l0.4,0.6
		l0.5,0.3l0.2,0.6l0.3,0.4l0.1,0.6l0,0.4l0.3,0.4l0.7,0.3l0.9,0.1l1.4,0.3l0.3,0.2l0.4,0.3l-0.2,0.4l-0.3,0.5l-0.1,0.2l0.9,0.7
		l0.5-0.3l0.3,0.1l0.1,0.4l0.6,0.2l0.7,0.3l1,0.4l0.2,0.1l0.3-0.1l0.5,0.4l2.7,0l0.3-0.2l0.6-0.9l0.3-0.7l0.8,0.3l0.8,0.5l0.3,0.3
		l0,0.2l-0.6,0.6l-0.5,0.2l-0.4,0.6l0.3,0.4l1,0.6l0.5-0.4l0.6-0.6l0.5-0.1l0.1-0.5l-0.5-0.6l0.2-0.3l-0.2-0.7l-0.5-0.6l0.3-0.4
		l0.2-0.7l-0.1-0.6l-1.1-0.5l-1.4-1.6l-1.3-0.6l-0.1-0.3l-0.5-0.2l-0.1-0.3l0.1-0.7l0.6-0.2l1.1,0.2l0.4-1.2l0.9-0.5l0.3-0.1
		l1.3-0.3l1.1-0.5l0.4-0.5l-0.1-0.4l0-0.1l-0.9-0.8l-0.2,0l-0.4,0.2l-0.8,0l-0.8-0.1l-0.7-0.4l-0.3-0.4l0.1-0.1l0.8,0.1l0.9-0.1
		l0.2-0.2l-0.2-0.7l-1.1-0.2l-0.6,0.4l-0.9-0.2l-1-0.4l-0.7-0.6l-0.8-0.3l-0.6-0.3l-0.5,0.1l-0.1,0.7l0.1,1.1l1,1l1.2,0.3l0.5,0.6
		l-0.7,0.4l-1.3,0.2L231,404l-0.3,0l-0.2-0.1l-0.7-0.1l-0.8-0.3l-0.4-0.7l-0.8-0.6l-0.5-0.2l-0.8,0.4l-0.2,0.8l-0.4,0.1l-0.5-0.7
		l-0.3-0.6l-0.6-0.5l-0.3-0.5l0.5-0.2l0.5,0.2l0.5-0.1l0.2-0.7l0-0.5l-0.2-0.4l-0.1-0.4l-1-0.4l-0.5,0.7l-0.8-0.3l0.6-1.2l-0.2-0.6
		l-0.6-0.8l-0.5-0.9l0.1-0.9l-0.1-1l1.7-0.2l1.7,0.1l1.5,0.1l1.3-0.1l0.2-0.6l-0.1-1l0-1.3l-0.9-0.7l0.2-1.5l0-1.1l0.3-1l0.1-1
		l0.4-1.6l0.4-1.7l0.5-1.6l0.6-1.4l0.2-0.6l0.3-0.3l0.3-0.7l0.1,0l0.9,0.5l0.3,0l0.2-0.1l0.8-1l0.7-0.2l1.1,0.1l0.5-0.3l0.4,0.1
		l0.6,0.5l0.4,0.4l0.1,0.4l0.3,0.3l0.2,0.5l0.8,0.5l0.3,0l0.8-0.5l0.8-0.1l0.7-0.4l0.9-0.2l0.2-0.1l0-0.2l-0.1-0.4l-0.8-0.8
		l-0.2-0.4l-0.1-0.9l-0.4-0.6l-0.7-0.3l-0.8,0.2l-0.2,0.3l-0.5,0.1l-0.4-0.9l-1-0.9l-1.4-0.7l-0.2,0.3l-0.3,0.1l-0.2-0.1l-0.3,0
		l-0.1-0.3l0.4-0.9l0.1-1.4l0.8-1.7l0.5-0.1l0.1-0.2l0-0.3l0.4-0.4l0.9,0.4l0.2-0.1l0.7,0.4l0.6,0.5l1.2-0.1l0.4,0.1l0.5,0.3
		l0.2,0.7l0.3,0.4l0.5,0.1l1.8,1.4l1,0.6l0.2,0l0.6-0.2l1-0.4l0.3,0l0.3,0.1l0.3,0.2l0.3,0.5l0.1,1l0.2,0.1l1.2-1l0.8-0.3l0.8-0.1
		l0.5-0.7l0.2-0.8l0-0.6l-0.5-1.3l0.1-0.4l0.2,0l0.6,0.3l0.6,0.1l1.5-0.4l0.5,0.2l0.6,0.8l0,0.6l-0.3,0.3l-1.2,0.3l-0.3,0.6
		l-0.6,0.7l0.2,0.5l0.6,0.3l0.9-0.3l1.8-1.5l-0.3-1.6l0.1-0.6l0.8-0.9l0.4,0.3l0.7,0.9l0.5,0.9L258.9,369.3"/>
</g>
<g id="g98" transform="scale(0.999751)">
	<path id="path82" inkscape:connector-curvature="0" class="st4" d="M249,199.3l-1-0.9l-0.3-0.6l0.3-1l1.6-1.9l0.3-0.9l-1.6-2.5
		l0.1-1.2l0.7-1.2l1-1.3l-0.2-2.5l-0.3-0.8l-0.5-0.7l-0.6-0.7l-0.3-0.8l0.3-0.4l2-1.3l0.2-0.7l-0.2-1.1l-1-2l-0.7-0.8l1.1-1.9
		l0.9-1.1l-0.3-0.7l0.9,0.3l2.9,0.5l0.6,0.4l0.1,0.5l-0.1,0.5l1.6,0.6l1,0.2l2.3-0.3l2-0.5l0.9,0l1,0.2l0.2,0.3l0,0.7l0.1,0.4
		l0.4,0.2l0.8,0.1l0.6,0.2l1.6-0.3l0.5,0.2l0.9,0.7l0.8,0.3l1-0.4l0.4-0.1l0.8,0.2l1,0.4l0.3,0.3l1,0.7l3,1.2l1.2-0.1l0.9,0.1
		l1.4,0.4l0.2-0.2l0.3-0.7l0.4-0.6l0.3-0.2l0.6,0l0.9,0.3l1,0.1l1.7,1l0.7,0.8l1,0.1l0.9,0.6l0.9,0.1l0.9-0.1l0.5-0.2l0.2,0.2
		l-0.1,0.2l0.3,0.5l1.3,1l0.2,0.6l1,0.6l0.4,0.4l0.2,0.5l0.2-0.1l-0.8,2.1l-1.8,3.4l-0.7,1.9l-1.2,1.9l-0.5,1.6v1.6v1.2v0.7l0.1,0.7
		l0.1,1l0.6,1.1l-0.1,0.3l0.3,1.6l-0.5,1.8l-0.1,0.9l1.4,0.5l-0.1,0.8l0,0.3l1.2,1.8l0.1,0.3l0.8,1.3l0.4,0.3l-0.6,2.1l0.3,0.7
		l-0.2,0.9l-1.3,1.5l-0.6,2.8l-0.6,0.3l-0.7-0.1l-1,0.2l-0.4,0.4l0.1,0.6l-0.5,0.4l-0.2,0.8l-0.7,0.7l0,0.6l-0.5,1l-0.6,0.7
		l-0.4,0.8l-2,0.7l0.1,3.5l1.3,0.7l-0.3,1l-1,0.2l-1.6,0.7l1.5,1.4l0,0.8l-0.6,0.3l0,0.8l1,1.7l0,1.2l-0.6,0.7l-3.1-0.6l-1.9-0.5
		l-0.6-0.8l-0.2-1.4l-1.3-0.4l-0.6,0.9l-0.5,0.3l-1.7-0.7l-0.6,0.2L273,238l-0.9,0.3l-1.4,0.2l-0.4-0.8l0-0.6l0.1-0.9l-0.6-0.3
		l-0.3-1.9l-0.4-0.5l-0.6-0.5l-0.6-0.2l-1.5,0.1l-0.9,0.2l-0.9,0l-0.2,0.5l-0.4,0.5l-0.5,0.2l-1.3,0.2l-0.9-0.3l-0.3-0.2l-0.1-0.4
		l-1-0.3l-0.9-1.3l0.1-1.3l-0.5-0.7l-0.4-0.4l-0.7-0.3l-0.8-0.1l-0.9-0.2l-0.5-0.7l-0.6-1.1l0-0.7l0.5-0.6l2.3-0.4l0.8-0.3l1.5-0.8
		l0.6-0.5l0-0.5l-0.7-0.4l-1.8-0.5l-0.7-0.7l1.1-2l-0.1-0.5l-1.8-0.9l-0.1-1.2l0.1-0.8l1.7-2.7l0.5-1.1l0.8-2l0-0.1l-0.4-0.6l-1-0.7
		l-1.6-0.6l-2-2l-1.8-1.6l-0.1-0.5l0.1-1.7l-0.7-1.6l-1-0.7l-1-0.5L249,199.3"/>
	<path id="path84" inkscape:connector-curvature="0" class="st4" d="M358.9,249.3l1.1,1.2l0.4,0l1.3-0.2l1.3,0.4l0.2,0.5l0.2,1.4
		l0.8,0.6l1,1l1.1,0.7l2.4,1.4l1.6,0.5l0.6-0.7l0.4-0.2l1,0.6l0.5,0.4l0.1,1.4l0.3,0.3l0.6,0.4l3.7,1l1,0.5l1.2-1.1l0.9,0.2l0.7-0.2
		l2.6,1.6l1,0l0.7,0.2l3.7,0.1l0.9,2l1.8,3.5l-1.8,3.1l0.2,1.1l0.3,1l0.2,0.4l-0.7,0.8l0,0.3l0.2,0.5l0.1,1.9l0.2,0.6l0.7,0.6
		l0.9,0.2l2.9,0l2.4,0.5l0.5,0.3l0.2,0.5l0,1.9l0.5,0.4l3.1,1.1l0.1,0.4l0,0.8l-0.4,0.4l-2,1.2l-0.5,0.5l-0.3,0.8l-0.1,0.9l0.2,1
		l0.3,0.7l0.8,0.6l0.6,0.5l0.3,0.6l-0.1,0.7l-0.4,0.8l-1.3,1.5l1,1.6l0.9,2l0.7,1.1l0.1,0.8l0.7,1l0,0.9l0.2,0.9l1.4,2.5l1.9,1.8
		l2.8,1.1l1.3,0.2l1,0.4l0.7,1l0.3,2.1l0.7,0.4l1,1.3l0.8,1.4l1.2,2.5l0.6,0.3l0.6,0.6l0.6,0.2l1.7,2l1.5,0.7l1,1.2l0.6,1.3l0.7,1
		l2.6,2.2l-1.6,1.8l-1.6,1.7l-1.3,0l-1.5-0.6l-0.7,0.6l-0.8,0.5l-0.6-0.7l-0.7,0.1l-0.6-0.6l0-0.6l-1.4-0.9l-1.1,1.1l-0.7,0.3
		l-0.4-0.4l0.8-1.9l0-0.4l-0.8-0.5l0.2-0.9l-0.3-0.6l-0.7-0.4l-0.7-0.3l-0.5-0.4l-0.4-0.5l-0.6,0.3l-0.6-0.3l-0.9,0.4l-0.7,1.3
		l-0.3,0.4l-0.6,0l-0.5,0.8l-0.6,0.3l-0.5-0.2L404,326l-2,0.8l-0.9,0.1l-0.5-0.6l-0.8,0l-1,0.3l-0.3,0.3l-0.8,0.4l-1.8-0.2l-0.9,0.2
		l-0.2,0.8l-0.3,0.3l-1.2,0.5l-0.2,0.3l-0.6,0.2l-0.3-0.1l-1.1-1.2l-0.4,0l-1.8,2l-1.1,0.9l-0.9,0.3l-0.9,0l-0.6-0.3l-0.4,0.1
		l-1,1.2l-1.2,0.9l-1.1,0l-1-0.3l-0.5-0.4l-0.2-0.4l0.8-1.4l-0.1-0.8l-0.8-1.3l-1.1-0.4l-0.7-1l-0.8,0.1l-1.3,0.8l-0.8,0l-0.3-0.4
		l0.6-1.3l-0.2-0.3l-1.1,0.8l-0.8-0.2l-0.7,0.1l-0.3-0.6l-0.8-0.5l-0.9,0.1l-2.2-0.5l-1.8,1.1l-0.3,1.4l-1.3,1l-2.5,1.7l0,1.5
		l-0.6,0.6l-0.8-0.2l-0.9-0.7l-0.7,0l-0.7,0.2l-0.4,0.2L358,332l-0.4-0.4l-0.5-0.2l-0.7,0.5l-1-0.2l-0.7,0.4l-0.8,0.1l-0.3-0.4
		l0.3-1.1l-1.5-1.1l-1.1,0.4l-0.7-0.9l-1-0.8l-1.3-0.2l-2.8-1.9l-0.7-0.9l-0.5-0.2l-0.7,0.1l-1.3,0.5l-0.8-0.8l0.5-1l0.6-0.6
		l0.2-0.5l-0.8-1.2l0.5-0.1l-0.1-0.7l-0.7-1l-0.4,0.2l-0.6,0.5l-0.1,0.3l-0.4,0.3l-0.6,0l-0.5,0.6l-0.6,0.2l-0.4,0.2l-1,0.1l0.4,0.7
		l0.1,1h-0.9l-0.9,0.3l-0.7,0l-0.6-0.1l-0.6,0.2l-1.1,1.3l-0.4-0.2l-0.3-0.5l-0.2-0.6l-0.7-1l0.1-0.9l-0.4,0l-0.1-0.7l-1.3-2.8
		l-1.3-1.8l-2.2-2.8l-2.1-1.8l-1.9-1.8l-0.7-1.2l0.2-0.1l-2.1-1.5l-0.4-1.3l0.3-2.1l0.1-1.3v-1.9l-1-1.8l-0.1-2.6l-0.1-2.2l-1.5-2.1
		l-2.9-2.3l-2.8-1l-1.2-1.2l-0.7-1.5l-0.1-0.9l0.6-0.4l0.5-0.1l1,0.1l1.5-0.7l0.2-0.3l0.1-0.3l-0.6-0.8l-0.8-0.7l0.2-0.9l0.3-0.5
		l0-0.4l1.7-1l0.8-0.3l0.2-0.2l0.7-0.4l0.6-0.5l0.6,0l0.5-0.1l0.4-0.8l1-0.3l0.5-0.3l0-0.4l0.2-0.4l1.8-0.7l0.4-0.1l0-0.6l-0.2-0.8
		l0.1-0.8l0.3-0.3l0.5-0.3l-0.4-1.1l-0.2-1.1l-0.4-0.7l1-0.3l1,0.2l1.1-0.1l0.5,0.1l0.5,0.8l0.2,0l0.4,0.1l0.6-0.5l0.3-0.4l0.6-0.3
		l1.5-0.2l0.6-0.3l0.6-0.6l-0.2-1.3l0.3-0.7l0.6-0.2l0.9-0.5l1.2,0.2l0.6-0.3l0.4-0.5l0.5-1.3l1.2-2.1l1.3-0.9l0.8-0.3l0.5,0
		l1.4-0.4l0.4-0.3l0.7,0l1.1-0.9l0.7-1.4l0.6-0.5l1.8,1l0.5,0l0.5,0.6l0.8,0.2l1.1,0.5l1.2,0.3l0-0.9l0.9-0.9l0.4-0.7l-0.9-0.5
		l-0.3-0.3l-0.2-0.4l0.2-0.5l0.4-0.4l0.5,0.2l0.5,0l0.4-0.5l-0.6-0.6l0.2-0.2l0.2-0.2l0.5-0.6l1.6-2.3l0.6-0.7l1-0.1l0.6,0.1
		l0.4-0.2l0.5-0.6l0.6-0.5l0.9-0.3l0.9,0.3L358.9,249.3"/>
	<path id="path86" inkscape:connector-curvature="0" class="st4" d="M280.2,252.9l0.5,0.5l0.5,0.1l1.1-0.5l0.7-0.1l0.8,0.3l0.5,0.6
		l-0.3,0.5l-0.6,0.6l-0.6,1.4l0.3,0.7l-0.2,1.5l0.1,0.4l0.5,0.4l0.2,0.4l1.8,0.2l1.1,0.5l1.2,0.3l0.9-0.1l2.7-1.4l0.6,0.3l0.4,0.5
		l0.5,0.2l1-0.5l0.5-0.4l1.7-1.1l0.5-0.5l0.3,0l1,0.6l0.5-0.2l0.2-0.5l0.3-0.2l0.4,0l0.5,0.2l0.1,0.3l0.5,0.3l0.3,0.1l0.7,0.7
		l0.3,0.5l0.4-0.1l0.5-0.1l0.3,0.3l-0.2,0.4l0.8,0.8l1,0.6l0.3,0l0.8-1l0.4-0.3l0.4,0l2.4,1.2l0.9,0.8l0.5,1.1l0.1,0.8l0.1,0.3
		l1.7,1.7l0.3,0.7l1.2-0.4l0.7-0.4l0.6-0.7l1.5-1l0.3,0.1l0.7,0.5l0.9,0.9l0.7,0.9l0.4,1.7l0.3,0.6l0.3,0.4l0.7,0.5l0.4,0.7l0.2,1.1
		l0.4,1.1l-0.5,0.3l-0.3,0.3l-0.1,0.8l0.2,0.8l0,0.6l-0.4,0.1l-1.8,0.7l-0.2,0.4l0,0.4l-0.5,0.3l-1,0.3l-0.4,0.8l-0.5,0.1l-0.6,0
		l-0.6,0.5l-0.7,0.4l-0.2,0.2l-0.8,0.3l-1.7,1l0,0.4l-0.3,0.5l-0.2,0.9l0.8,0.7l0.6,0.8l-0.1,0.3l-0.2,0.3l-1.5,0.7l-1-0.1l-0.5,0.1
		l-0.6,0.4l0.1,0.9l0.7,1.5l1.2,1.2l2.8,1l2.9,2.3l1.5,2.1l0.1,2.2l0.1,2.6l1,1.8v1.9l-0.1,1.3l-0.3,2.1l0.4,1.3l2.1,1.5l-0.2,0.1
		l0.7,1.2l1.9,1.8l2.1,1.8l2.2,2.8l1.3,1.8l1.3,2.8l0.1,0.7l-0.2,0l-1.9,1.2l0.3,1l-0.3,0.6l-0.6,0.5l-0.9,0.4l0.4,1l-0.2,0.7
		l-0.6,0.6l-0.2,0.4l0.7,1.9l-1.3,0.8l-0.6,0l-0.6,0.3l-0.4,0.1l-0.2-0.2l-0.9-0.1l-0.7,0.4L322,332l-0.9-0.9l-0.8-1.1l-1.1-1.1
		l-0.2-0.7l-1.1-0.1l-0.4-0.2l-0.5-0.1l-0.6,1.1l-0.7,0.3l-0.2,0.6l-0.4,0.4l-0.3,0l-0.9-0.5l-0.3-0.1l-1.2,0.1l-0.5,0.4l-0.5-1
		l-0.1,0.1l-0.8-0.9l-0.8,0.9l-0.6,0.4l-0.2,0.2l-0.5,0.1l-1.1,0.7l-1,1.3l-0.5,0.2l-2.4,0l-0.7,0.1l-1.4-0.3l-1.7,0.5l-1-0.4
		l-1.4,0.5l-0.8,0.1l-0.6-0.3l-0.7-0.1l-1.5,0l-0.1-0.3l0.5-2.3l0.2-0.1l0.5-0.5l0.6,0l0.4,1.4l0.5,0.3l0.3-0.4l0.2-0.6l-0.1-0.8
		l-0.2-0.6l1.1-1.3l0-0.6l-0.2-1.1l-1.4-0.4l-0.1-0.3l0.3-0.4l0.7-0.2l0.1-1.8l0.3-0.4l1.7-0.2l2.6-0.7l1.4-1.5l-0.6-1.2l-1-0.3
		l-1.2,0.2l-2-0.5l-0.5,1.1l-1.2,0.3l-0.2-1l-0.2-2.5l1.1-0.1l1.7,0.9l0.3,0.6l0.8,0l0.5-0.7l-0.2-1.3l-0.6-0.5l-0.2-1.1l2.6-1.4
		l0.7-0.9l-0.3-0.9l-1.8,0.1l-1.7-0.1l-0.1,0l-0.1,0l-1.1-0.4l-2-0.5l-2.6-1l-0.3-1l1-0.5l2.1,0.3l0.6-0.2l0.3-1.6l-0.1-1l0.2-0.9
		l-1.8-2.2l-1.1-0.6l-1-0.8l-0.3-0.5l0.4-0.4l2.5-1.2l1.2-1.1l-0.3-1.5l-0.8-1.3l-2.1-1.9l-0.4-0.7l0.9-0.5l0.1-1.3l-0.8-0.5
		l-1.7-0.5l-0.6-0.5l-1-0.5l-1.1-0.3l-1-1.6l-0.3-1.4l-1-0.2l-1.3,0l-1.4-0.4l-0.4-0.5l0.7-0.5l-0.3-0.6l-1.3-0.2l-1.6-0.4l-0.9-0.6
		l-0.7-0.7l0-1l-0.5-0.7l-2.3-0.8l-0.7-0.7l-0.1-0.9l-0.4-0.7l-0.5-0.4l-1.2-1.5l-0.9-0.7l-0.5-0.3l-1-0.9l-1-1.4l-0.2-0.7l0-1.7
		l0.2-0.4l1.6-1.9l0.4-0.3l0.9-0.1l1.4-0.6l0.7-0.2l0.4-0.3l0.2-1.1l-0.1-0.6l-0.4-0.7l-0.5-0.6l-1.2-0.6l-1-0.9l-0.3-0.2l0.2-0.3
		l0.3-0.6l0-1.6l0.3-1.1l0-1l1-0.4l0.2-0.3l0.4,0.2l0.2,0.4l1.7,0.1l0.4-0.2l0.8-0.1l0.2-0.4l0.3,0.1l0.8-0.3L280.2,252.9"/>
	<path id="path88" inkscape:connector-curvature="0" class="st4" d="M320.9,242.2l-1.5,1.7l-4.3,2.4l-2.9,1.4l-0.1,0.7l-1.3,0.6
		l-0.4,0.3l-0.3,0.4l0.4,0.3l-1.4,0.2l-1.7,0l-0.9,0.2l-0.7-0.1l-1.4,2l-1.3-0.1l-0.3,0.5l-0.1,0.7l0.4,0.3l0,0.5l-0.1,0.7l1,0.2
		l0.6,0.4l0.5,0.4l0.2,0.6l0.4,0.3l-0.4,0.2l-0.1,0.3l-0.6-0.2l-0.6-0.3l-0.3,0.1l-1.1-0.3l0.1,0.9l0.4,0.3l0.2,0.4l-0.8,0.8
		l-0.5,0.1l-0.4,0.1l-0.3-0.5l-0.7-0.7l-0.3-0.1l-0.5-0.3l-0.1-0.3l-0.5-0.2l-0.4,0l-0.3,0.2l-0.2,0.5l-0.5,0.2l-1-0.6l-0.3,0
		l-0.5,0.5l-1.7,1.1l-0.5,0.4l-1,0.5l-0.5-0.2l-0.4-0.5l-0.6-0.3l-2.7,1.4l-0.9,0.1l-1.2-0.3l-1.1-0.5l-1.8-0.2l-0.2-0.4l-0.5-0.4
		l-0.1-0.4l0.2-1.5l-0.3-0.7l0.6-1.4l0.6-0.6l0.3-0.5l-0.5-0.6l-0.8-0.3l-0.7,0.1l-1.1,0.5l-0.5-0.1l-0.5-0.5l-0.7,0l-0.8,0.3
		l-0.3-0.1l-0.2,0.4l-0.8,0.1l-0.4,0.2l-1.7-0.1l-0.2-0.4l-0.4-0.2l0.1-0.9l-0.9-1l-0.1-0.5l0.2-1.1l0.2-0.5l-0.8-0.2l-1.4-0.1
		l-0.6,0.1l-0.8,0.5l-0.4,0.4l-1.1-0.4l-0.2-0.9l0.1-0.7l-0.5-0.8l-0.5-0.6l-0.8-0.5l-0.6-0.1l-0.8,0.2l-0.5-0.2l-0.6-0.7l0.2-1
		l-0.6-0.6l-0.3,0l-1-0.2l-1.2-1.7l-1.1-0.7l-0.5-0.5l0.7-0.3l0.3-0.5h-0.8l-0.7,0.2l-0.6-0.1l-0.8-0.3l-0.8-0.8l-0.3-0.9l0-1.7
		l2.5,0.2l0.5-2.9l1,0.3l0.1,0.4l0.3,0.2l0.9,0.3l1.3-0.2l0.5-0.2l0.4-0.5l0.2-0.5l0.9,0l0.9-0.2l1.5-0.1l0.6,0.2l0.6,0.5l0.4,0.5
		l0.3,1.9l0.6,0.3l-0.1,0.9l0,0.6l0.4,0.8l1.4-0.2l0.9-0.3l0.4-0.5l0.6-0.2l1.7,0.7l0.5-0.3l0.6-0.9l1.3,0.4l0.2,1.4l0.6,0.8
		l1.9,0.5l3.1,0.6l0.6-0.7l0-1.2l-1-1.7l0-0.8l0.6-0.3l0-0.8l-1.5-1.4l1.6-0.7l1-0.2l0.3-1l-1.3-0.7l-0.1-3.5l2-0.7l0.4-0.8l0.6-0.7
		l0.5-1l0-0.6l0.7-0.7l0.2-0.8l0.5-0.4l-0.1-0.6l0.4-0.4l1-0.2l0.7,0.1l0.4,1.2l0.1,0.5l-0.2,0.9l1,0.2l0.6,0l2.4,0.5l0.7,0.5
		l1.3-0.6l1.3,0.8l1.6,0.4l0.7,0.4l1.7-0.2l0.5-0.5l0.7-0.2l0.7,0.5l0.9,0.5l1.4,0.1l0.8-0.6l0.5,0.2l0.4,1.6l0.4,0.5l2.8-0.5l0.7,0
		l4.1,0l0.5,0.4l-0.1,0.4l0.2,0.5l0.6,0l1.4-0.4l0.8-0.6l0.8-0.2l0.8,0.3l0.5,0.8l0.1,0.7l0.3,0.7l0.5,0.5l0.4,0.8l-0.3,0.3l0.4,1.2
		l-0.1,0.6l-0.5,1.1l1.7,1.3l0.3,0.6l0,1.2l-0.2,1l0.1,0.2l-0.1,0.4l-0.9,0.7l-1.1,1h-0.8l-0.3,0.5l-0.2,0.8L320.9,242.2"/>
	<path id="path90" inkscape:connector-curvature="0" class="st4" d="M351.5,229.8l0.6,0.2l0.4,0.7l-0.1,0.3l0.3,0.2l0.1,0.3
		l-0.3,0.1l0,0.5l0.8,0.4l1.4-1.1l0.7-0.2l0.9,0.1l0.5,0.5l0.9-0.2l0.6-1.2l0.5-0.5l1,0l0.4-0.2l1,0.8l0.6,0.2l0.7-0.1l-0.2-0.6
		l1.1-0.7l0.7,0.2l0.6-0.3l0.9,0.2l0.8-0.4l1.1,0.3l2,0.9l1.3,0l1.3,0.3l1.4,0.1l0.4-0.5l0.9-0.1l1.2,0l1,0l0.4,1.8l-0.6,0.8
		l-0.1,0.5l-0.2,0.6l0.6,0.4l-0.1,0.7l0.4,0.3l-0.1,1.1l0.3,1.6l-0.3,1.2l0.1,0.8l0.6,0.8l1.3,0.7l0,0.8l0.2,1l0.8,1.9l-0.1,0.6
		l0.1,1l0,1.2l0.7,1.2l0.8,0.7l2.9,2l1.2,1.9l1.2,1l0.5,1.6l0,0.7l1.7,4.9l-3.7-0.1l-0.7-0.2l-1,0l-2.6-1.6l-0.7,0.2l-0.9-0.2
		l-1.2,1.1l-1-0.5l-3.7-1l-0.6-0.4l-0.3-0.3l-0.1-1.4l-0.5-0.4l-1-0.6l-0.4,0.2l-0.6,0.7l-1.6-0.5l-2.4-1.4l-1.1-0.7l-1-1l-0.8-0.6
		l-0.2-1.4l-0.2-0.5l-1.3-0.4l-1.3,0.2l-0.4,0l-1.1-1.2l-0.6-0.4l-0.9-0.3l-0.9,0.3l-0.6,0.5l-0.5,0.6l-0.4,0.2l-0.6-0.1l-1,0.1
		l-0.6,0.7l-1.6,2.3l-0.5,0.6l-0.2,0.2l-0.2,0.2l0.6,0.6l-0.4,0.5l-0.5,0l-0.5-0.2l-0.4,0.4l-0.2,0.5l0.2,0.4l0.3,0.3l0.9,0.5
		l-0.4,0.7l-0.9,0.9l0,0.9l-1.2-0.3l-1.1-0.5l-0.8-0.2l-0.5-0.6l-0.5,0l-1.8-1l-0.6,0.5l-0.7,1.4l-1.1,0.9l-0.7,0l-0.4,0.3l-1.4,0.4
		l-0.5,0l-0.8,0.3l-1.3,0.9l-1.2,2.1l-0.5,1.3l-0.4,0.5l-0.6,0.3l-1.2-0.2l-0.9,0.5l-0.6,0.2l-0.3,0.7l0.2,1.3l-0.6,0.6l-0.6,0.3
		l-1.5,0.2l-0.6,0.3l-0.3,0.4l-0.6,0.5l-0.4-0.1l-0.2,0l-0.5-0.8l-0.5-0.1l-1.1,0.1l-1-0.2l-1,0.3l-0.7-0.5l-0.3-0.4l-0.3-0.6
		l-0.4-1.7l-0.7-0.9l-0.9-0.9l-0.7-0.5l-0.3-0.1l-1.5,1l-0.6,0.7l-0.7,0.4l-1.2,0.4l-0.3-0.7l-1.7-1.7l-0.1-0.3l-0.1-0.8l-0.5-1.1
		l-0.9-0.8l-2.4-1.2l-0.4,0l-0.4,0.3l-0.8,1l-0.3,0l-1-0.6l-0.8-0.8l0.2-0.4l-0.3-0.3l0.8-0.8l-0.2-0.4l-0.4-0.3l-0.1-0.9l1.1,0.3
		l0.3-0.1l0.6,0.3l0.6,0.2l0.1-0.3l0.4-0.2l-0.4-0.3l-0.2-0.6l-0.5-0.4l-0.6-0.4l-1-0.2l0.1-0.7l0-0.5l-0.4-0.3l0.1-0.7l0.3-0.5
		l1.3,0.1l1.4-2l0.7,0.1l0.9-0.2l1.7,0l1.4-0.2l-0.4-0.3l0.3-0.4l0.4-0.3l1.3-0.6l0.1-0.7l2.9-1.4l4.3-2.4l1.5-1.7l0.1,0.6l0.6,0.8
		l0.3,1.1l0.3,0.3l0.5,0.3l0.7,0l0.7-0.2l1.9,0.5l0.6,0l0.7-0.7l1.2-0.8l0.7-0.2l0.7,0.2l0.6,0l0.5-0.7l0.3-0.4l1.4-0.4l0.5-0.3
		l0.5-0.4l0.3-0.4l-0.1-0.3l-0.4-0.5l-0.1-0.3l0.7-0.9l0.5-0.4l0.6-0.1l0.9,0.4l0.8-0.2l0.3-0.9l1.6-0.1l0.6-0.5l1.9-0.2l0.4-0.5
		l1.1,0.1l1.8,0.9l0.4-0.7l-0.3-1.2l0.1-1l-0.3-0.8l0.4-0.8l-0.6-0.2l-0.7-0.5l0-0.4l0.3-0.4l0-1l-0.2-0.8l0.3-0.6l0.5-0.6l0.6-0.2
		l0.8,0.3l0.6,0.6l0.7,0l-0.1-0.6l0.4-0.4l0.8-0.2l1.8,0.8L351.5,229.8"/>
	<path id="path92" inkscape:connector-curvature="0" class="st4" d="M371.1,176.6l1.3,0.2l1.4,0.6l1.1,0.1l0.5,0.2l0.5,0.4l0.7-0.4
		l0.7,0l2.3,0.1l-0.6,1.5l-0.1,0.5l-0.2,0.3l0.1,0.8l-0.3,0.9l0.1,0.2l-0.3,0.5l0.2,0.7l0,0.9l1.7,1.8l0.3,0.8l0.1,0.7l-0.2,0.6
		l-0.4,0.7l-0.3,0.7l-0.4,0.3l-1,0.1l-0.8,0.3l-1,1.5l-0.3,1l0.2,2.5l0.1,0.4l0.8,0.9l0,0.5l-0.3,1.3l-1.3,1.8l-1.7,0.7l-0.2,0.8
		l-0.5,0.2l-0.2,0.2l-0.2,0.2l0.1,0.5l0.3,0.6l1.4,0.9l0,0.3l-0.3,0.5v0.6l0.3,0.1l0,0.4l-0.1,0.4l0.5,1.2l-0.8,3.3l0.3,2.1
		l-0.4,0.9l-1.3,0.9l-0.8,0.4l-1.7,1.4l-0.7,1.5l-0.2,1l1.6,2.9l-1.1,1.9l-0.1,0.5l0.3,0.5l1.4,1l1.2,0.6l1.1,0.3l1.1,0l0.7,0.1
		l0.6,0.6l0.6,1l0.4,1.2l-1,0l-1.2,0l-0.9,0.1l-0.4,0.5l-1.4-0.1l-1.3-0.3l-1.3,0l-2-0.9l-1.1-0.3l-0.8,0.4l-0.9-0.2l-0.6,0.3
		l-0.7-0.2l-1.1,0.7l0.2,0.6l-0.7,0.1l-0.6-0.2l-1-0.8l-0.4,0.2l-1,0l-0.5,0.5l-0.6,1.2l-0.9,0.2l-0.5-0.5l-0.9-0.1l-0.7,0.2
		l-1.4,1.1l-0.8-0.4l0-0.5l0.3-0.1l-0.1-0.3l-0.3-0.2l0.1-0.3l-0.4-0.7l-0.6-0.2l-1.6-0.5l-1.8-0.8l-0.8,0.2l-0.4,0.4l0.1,0.6
		l-0.7,0l-0.6-0.6l-0.8-0.3l-0.6,0.2l-0.5,0.6l-0.3,0.6l0.2,0.8l0,1l-0.3,0.4l0,0.4l0.7,0.5l0.6,0.2l-0.4,0.8l0.3,0.8l-0.1,1
		l0.3,1.2l-0.4,0.7l-1.8-0.9l-1.1-0.1l-0.4,0.5l-1.9,0.2l-0.6,0.5l-1.6,0.1l-0.3,0.9l-0.8,0.2l-0.9-0.4l-0.6,0.1l-0.5,0.4l-0.7,0.9
		l0.1,0.3l0.4,0.5l0.1,0.3l-0.3,0.4l-0.5,0.4l-0.5,0.3l-1.4,0.4l-0.3,0.4l-0.5,0.7l-0.6,0l-0.7-0.2l-0.7,0.2l-1.2,0.8l-0.7,0.7
		l-0.6,0l-1.9-0.5l-0.7,0.2l-0.7,0l-0.5-0.3l-0.3-0.3l-0.3-1.1l-0.6-0.8l-0.1-0.6l0.3-0.3l0.2-0.8l0.3-0.5h0.8l1.1-1l0.9-0.7
		l0.1-0.4l-0.1-0.2l0.2-1l0-1.2l-0.3-0.6l-1.7-1.3l0.5-1.1l0.1-0.6l-0.4-1.2l0.3-0.3l-0.4-0.8l-0.5-0.5L322,229l-0.1-0.7l-0.5-0.8
		l-0.8-0.3l-0.8,0.2L319,228l-1.4,0.4l-0.6,0l-0.2-0.5l0.1-0.4l-0.5-0.4l-4.1,0l-0.7,0l-2.8,0.5l-0.4-0.5l-0.4-1.6l-0.5-0.2
		l-0.8,0.6l-1.4-0.1l-0.9-0.5l-0.7-0.5l-0.7,0.2l-0.5,0.5l-1.7,0.2l-0.7-0.4l-1.6-0.4l-1.3-0.8l-1.3,0.6l-0.7-0.5l-2.4-0.5l-0.6,0
		l-1-0.2l0.2-0.9l-0.1-0.5l-0.4-1.2l0.6-0.3l0.6-2.8l1.3-1.5l0.2-0.9l-0.3-0.7l0.6-2.1l-0.4-0.3l-0.8-1.3l-0.1-0.3l-1.2-1.8l0-0.3
		l0.1-0.8l-1.4-0.5l0.1-0.9l0.5-1.8l-0.3-1.6l0.1-0.3l-0.6-1.1l-0.1-1l-0.1-0.7v-0.7v-1.2v-1.6l0.5-1.6l1.2-1.9l0.7-1.9l1.8-3.4
		l0.8-2.1l0.6-0.3l0.5,0.1l1.3,1l0.5,0.1l0.5-1.1l0.5-0.5l0.4-0.2l0.5,0.1l0.9-0.1l0.1-0.7l0.5-0.6l0.8-0.2l0.3-0.3l0.3-0.5l0.3-0.3
		l0.8,0.1l0.6-0.6l1.2-0.6l0.1-0.3l-0.3-0.6l0.2-0.3l0.7-0.6l0.1-0.5l1.5-1l0.2-0.7l0.6,0.2l0.5,0.6l0.8,0.4l0.9,0.1l0.8,0.2
		l0.9,0.4l0.3,1.4l0.4,0.8l0.4,0.7l0.8,0.4l1.5,0.1l0.7-2.8l1-0.9l0.8,0l1.1,0.3l0.7,0.3l-0.1,0.7l1.4,0.8l0.1,0.6l-0.2,0.8l0.9,0.1
		l1.1,0.3l0.5-0.2l0.9-0.1l2.2,1l0.4-0.1l0.7,0.3l0.5-0.3l0.3,0.1l2.4,1.5l2.1,1l0,0.4l-0.3,0.8l-0.1,0.5l0.1,0.3l0.4,0l0.7-0.2
		l1.1,0.1l0.7,0l1-2l0.6-0.1l0.8,0.2l1.5-0.2l1,0l0.4,0.2l0.7-0.4l0.3,0l0.6-0.8l0.1-0.5l0.3-0.2l0.4-1l0.4-0.5l0.4-0.2l0.4,0.1
		l0.6,0.4l0.8,0.6l1.2,0.2l1.3,0.8l0.3-0.1l0.5-0.5l0.5-0.3l0.9,0.3l0.6-0.1l0.5,0.2l0.4-0.2l0.1-0.2l0.2-0.5l0.1-0.7l0.4-0.6
		l0.6-0.4l0.7-0.3l0.8-0.1l0.7,0l1.1,0.4l0.3-0.2l0.1-0.3l0.7-0.1l0.9-0.6l0.8,0.3l0.9,0.2l0.6-0.8l0.3-0.9l0.2-0.2l0.1-0.1l3,0.1
		l0.3-0.3l0.4-0.3l1.2-1.3l4.2,0.1L371.1,176.6"/>
	<path id="path94" inkscape:connector-curvature="0" class="st4" d="M355.3,117.9l0.2,0.3l0.9,0.6l0.3,0.3l-0.8,0.2l-0.5,0.2
		l-0.2,0.3l0.3,0.4l0.4,0.2l-0.4,0.2l0,0.3l0.2,0l-0.1,0.3l0.1,0l0.1,0.3l0.2,0l0.6,0.2l0.3,0.6l0.3,0.3l0.2,0.3l0.4,0.6l0.1,0.3
		l0.1,0l0.8-0.5l0.3-0.3l0.1,0l0,0.1l0.1,0.3l-0.1,0.3l-0.2,0.3l-0.1,0.3l0,0.3l0,0.3l-0.1,0.1l-0.2,0.3l-0.2,0.5l0.3,0.8l0.5,0.6
		l0.4,0l0.1,0l0.2,0.3l-0.3,0.5l-0.2,0.8l0.1,0.7l0.2,0.6l0.1,0.6l0.2,0.6l-0.3,0.4l-0.6-0.3l-0.5,0.2l-0.5,0.2l-0.3-0.3l-0.2-0.3
		l-0.3-0.3l-0.5,0.1l-0.3,0.4l0.1,0.3l0.1,0.4l0.2,0.6l0.1,0.1l-0.3,0.5l-0.3,0.4l0,0.3l0,0.3l-0.1,0.1l0.1,0l0.2,0.3l0.2,0.2
		l0.2,0.3l0.4,0l0.5-0.2l0.2,0l0.2,0.3l0.4-0.1l0.1-0.2l0.3,0.1l0.4,0.3l0,0l0.5,0l0.2-0.3l0.3-0.3l0.2-0.2l0.2,0.1l0.1,0.5
		l-0.1,0.6l-0.4,1.5l-0.3,0.1l-0.3,0.6l0,0.8l0.2,0.5l1.2,1.1l-0.4,0.1l-0.2,0.2l-0.2,1.9l-0.1,2.1l-0.1,1.9l0.2,1l0.2,0.5l0.5,0.8
		l0.5,0.2l0.5,0.7l0.2,0.1l1.1-0.3l0.2,0.1l0.2,0.3l0,0.3l-0.5,0.3l1.6,1.2l0.4,0.6l0.3,1.7l0.5,0.7l0.9,0.6l0.7,0.8l0.6,0.9
		l0.4,0.1l0.8,0l0.2,0.4l0.2,0.6l0,0.3l-1.8,1.2l-0.4,0.5l0.3,0.8l0,0.7l1.4,0.9l0.5,1.2l0.4,0.3l1.5,0l0.5,0.2l0.2,0.3l0.4,1.9
		l0.4,0.5l0.4,0.2l0.7,0.6l0.6,0.6l0.6,0.4l0.3,0.7l0.1,1l0.8,1.5l0.3,1.4l0.8,0.9l0.9,2.1l0.3,0.7l0,0.9l-2.3-0.1l-0.7,0l-0.7,0.4
		l-0.5-0.4l-0.5-0.2l-1.1-0.1l-1.4-0.6l-1.3-0.2l-0.5,0.1l-4.2-0.1l-1.2,1.3l-0.4,0.3l-0.3,0.3l-3-0.1l-0.1,0.1l-0.2,0.2l-0.3,0.9
		l-0.6,0.8l-0.9-0.2l-0.8-0.3l-0.9,0.6l-0.7,0.1l-0.1,0.3l-0.3,0.2l-1.1-0.4l-0.7,0l-0.8,0.1l-0.7,0.3l-0.6,0.4l-0.4,0.6l-0.1,0.7
		l-0.2,0.5l-0.1,0.2l-0.4,0.2l-0.5-0.2l-0.6,0.1l-0.9-0.3l-0.5,0.3l-0.5,0.5l-0.3,0.1l-1.3-0.8l-1.2-0.2l-0.8-0.6l-0.6-0.4l-0.4-0.1
		L344,182l-0.4,0.5l-0.4,1l-0.3,0.2l-0.1,0.5l-0.6,0.8l-0.3,0l-0.7,0.4l-0.4-0.2l-1,0l-1.5,0.2l-0.8-0.2l-0.6,0.1l-1,2l-0.7,0
		l-1.1-0.1l-0.7,0.2l-0.4,0l-0.1-0.3l0.1-0.5l0.3-0.8l0-0.4l-2.1-1l-2.4-1.5l-0.3-0.1l-0.5,0.3l-0.7-0.3l-0.4,0.1l-2.2-1l-0.9,0.1
		l-0.5,0.2l-1.1-0.3l-0.9-0.1l0.2-0.8l-0.1-0.6l-1.4-0.8l0.1-0.7l-0.7-0.3l-1.1-0.3l-0.8,0l-1,0.9l-0.7,2.8l-1.5-0.1l-0.8-0.4
		l-0.4-0.7l-0.4-0.8l-0.3-1.4l-0.9-0.4l-0.8-0.2l-0.9-0.1l-0.8-0.4l-0.5-0.6l-0.6-0.2l-0.2,0.7l-1.5,1l-0.1,0.5l-0.7,0.6l-0.2,0.3
		l0.3,0.6l-0.1,0.3l-1.2,0.6l-0.6,0.6l-0.8-0.1l-0.3,0.3l-0.3,0.5l-0.3,0.3l-0.8,0.2l-0.5,0.6l-0.1,0.7l-0.9,0.1l-0.5-0.1l-0.4,0.2
		l-0.5,0.5l-0.5,1.1l-0.5-0.1l-1.3-1l-0.5-0.1l-0.6,0.3l-0.2,0.1l-0.2-0.5l-0.4-0.4l-1-0.6l-0.2-0.6l-1.3-1l-0.3-0.5l0.1-0.2
		l-0.2-0.2l-0.5,0.2l-0.9,0.1l-0.9-0.1l-0.9-0.6l-1-0.1l-0.7-0.8l-1.7-1l-1-0.1l-0.9-0.3l-0.6,0l-0.3,0.2l-0.4,0.6l-0.3,0.7
		l-0.2,0.2l-1.4-0.4l-0.9-0.1l-1.2,0.1l-3-1.2l-1-0.7l-0.3-0.3l-1-0.4l-0.8-0.2l-0.4,0.1l-1,0.4l-0.8-0.3l-0.9-0.7l-0.5-0.2
		l-1.6,0.3l-0.6-0.2l-0.8-0.1l-0.4-0.2l-0.1-0.4l0-0.7l3-1l2.3-0.1l1.1,0.7l1.2,0.7l1,0.5l0.9-0.8l0.4-0.8l-0.1-1.4l0.1-1.5l1.3-1.7
		l1.6,0.6l1.4,0.6l0.9-0.8l0.9-0.9l0.6-0.9l1.9-0.2l1.7-1.4l1.4-1.8l1.2-4.6l0.5-1.5l0.5-0.1l0.1-1.7l0.2-0.9l0.2-0.6l0.9-0.9
		l1.7-0.8l0.8-1.2l0.1-0.4l-0.3-0.5l-0.5-0.3l-0.3,0.3l-0.9-0.5l-2-1.4l1.6-1.3l0.7-1.2l0.6-1.4l0.3-0.3l1.1-0.2l0.2-0.5l0.2-0.5
		l-0.1-0.3l-1.5-0.7l-0.8-0.6l1.1-1.2l-0.2-0.4l0.8-0.5l0.9,0.2l0.6-0.1l0.4-0.8l0.1-0.6l-0.2-0.3l-0.1-0.8l0.1-0.7l1.1-0.3l0.6,0.1
		l0.6-0.3l0.2-0.4l-1.6-1.2l0.6-0.7l0.5-0.9l1.1-1.2l-1.1-0.6l-0.2-0.3L295,131l0.2-1l-0.3-0.3l-0.6-0.1l-0.2-0.4l0.3-0.6l0-0.6
		l0.7,0.5l0.9,0.4l1,0.2l0.5-0.1l0.4-0.4l0.7,0.6l0.7,0.4l0.9,0l-0.1-1.2l0.8-0.6l1,0.2l1,0.7l1.9,0.1l3.1,0.7l1.1-0.2l2,0.9
		l1.2,0.4l0.3,1l0.3,0.5l0.5,0.2l2.2,1.6l0,1.2l0.2,0.8l0.3,0.8l0.6,0.7l0.5,0.1l0.6-1.7l0.7-0.6l1.8-2.2l1.5-2.5l2.9,0.8l0.4-0.4
		l0.1-0.7l0.5-0.1l0.4,0.6l0.7,0.3l1.2,0.9l0.5-0.4l1.4-0.7l0.8-1.1l1.1-0.4l0.5-0.6l0.7-0.4l1.1,0.5l0.6-1.1l2.3-2.5l1.2-1.5
		l1.3,0.5l1,0l0.7-0.3l0.5-0.5l0.3-0.5l0.3-0.3l0.5,0.1l0.2-0.5l0.7-0.6l0.6,0.1l1-0.7l0.5-0.1l0-0.6l0.5-0.4l0.4,0.2l0.7,0.1
		l0.6-0.1l1.7,0.4l1.3-0.1l-0.7-0.5l0.2-0.2l0.3,0.2l0.2-0.1l-0.2-0.2l0.2-0.1l0.1,0.1l0.7-0.8l0.5-0.3l0.6,0.2l0.3-0.3l0.4,0.2
		l0.8-0.1l0.3-0.1L355.3,117.9"/>
	<path id="path96" inkscape:connector-curvature="0" class="st4" d="M261,120.9l3,1.8l0.3-0.2l0.7,0.3l0.6,0.4l0.4,0.4l0.8,0.2
		l0.4-0.1l0.1-0.6l0.4-0.5l0.3,0l0.4,0.2l1.2,0.1l0.5,0.3l0.1,0.5l0.8,0.6l2,0.7l0.6,0.4l0.4,0.4l0.6,0.3l0.4,0.1l0.8-0.7l1.1,0.2
		l0.4-0.4l0.7,0.2l0.4-0.5l0.9,0.2l0.6,0.4l0.7,0.3l0.9,0.2l0.6-0.3l1-0.8l0.3,0.2l0.6,0.1l0.5-0.4l0.5-0.3l1.4,0.8l0.7,0.2l0.7-0.6
		l0.4-0.6l0-0.7l0.3-0.5l0.4-0.3l0.9-0.2l0.8,0.3l1.6,1.5l0.6,0.2l1.3,0l0.2,0.4l-0.2,0.5l0.1,0.3l0.6,0.6l-0.2,1.3l0,0.6l-0.3,0.6
		l0.2,0.4l0.6,0.1l0.3,0.3l-0.2,1l0.2,0.7l0.2,0.3l1.1,0.6l-1.1,1.2l-0.5,0.9l-0.6,0.7l1.6,1.2l-0.2,0.4l-0.6,0.3l-0.6-0.1l-1.1,0.3
		l-0.1,0.7l0.1,0.8l0.2,0.3l-0.1,0.6l-0.4,0.8l-0.6,0.1l-0.9-0.2l-0.8,0.5l0.2,0.4l-1.1,1.2l0.8,0.6l1.5,0.7l0.1,0.3l-0.2,0.5
		l-0.2,0.5l-1.1,0.2l-0.3,0.3l-0.6,1.4l-0.7,1.2l-1.6,1.3l2,1.4l0.9,0.5l0.3-0.3l0.5,0.3l0.3,0.5l-0.1,0.4l-0.8,1.2l-1.7,0.8
		l-0.9,0.9l-0.2,0.6l-0.2,0.9l-0.1,1.7l-0.5,0.1l-0.5,1.5l-1.2,4.6l-1.4,1.8l-1.7,1.4l-1.9,0.2l-0.6,0.9l-0.9,0.9l-0.9,0.8l-1.4-0.6
		l-1.6-0.6l-1.3,1.7l-0.1,1.5l0.1,1.4l-0.4,0.8l-0.9,0.8l-1-0.5l-1.2-0.7l-1.1-0.7l-2.3,0.1l-3,1l-0.2-0.3l-1-0.2l-0.9,0l-2,0.5
		l-2.3,0.3l-1-0.2l-1.6-0.6l0.1-0.5l-0.1-0.5l-0.6-0.4l-2.9-0.5l-0.9-0.3l1.6-2l-0.1-0.7l-0.3-0.4l-0.1-0.8l0.5-0.5l-0.3-0.5
		l-0.7-0.8l-2.5,0.1l-0.5-0.1l-0.5-0.6l-0.3-1l0.2-0.6l-0.3-1.4l0-0.5l0.5-0.3l1.4-0.3l1-0.4l1.1-0.8l-0.1-0.4l-0.8-0.3l-0.9-0.5
		l-0.6-0.5l-0.4-1.1l-0.1-1.5l1.4-1.3l0.4-0.6l0.1-0.7l-0.2-0.6l-0.8-0.5l-1-0.3l-0.8-0.5l-0.5-0.7l0-1.1l0.2-0.7l0.6-0.6l0.4-0.8
		l-0.5-1.5l-0.7-0.8l-1.5-0.8l-0.8-0.3l-1.5-2.1l-0.2-0.7l0.2-0.8l0.4-0.7l0.8-0.4l1.2-0.2l0.7-0.5l-0.4-1.8l-0.6-1.4l-1.1-1.3
		l-0.5-0.4l-0.4-0.8l-0.2-0.6l0.9-1l0.2-0.6l0.1-0.6l0.8-0.6l0.1-0.3l-0.1-1.1l0.5-0.3l0.4-0.6l0.2-1l1.6-0.8l1-0.7l0.2-0.6l0-0.4
		l-1.5-1.8l-0.1-0.7l0.3-0.8l0.6-0.7l0.9-0.3l0.6,0.6l1,0.4l0.8-0.5l0.8,0.2l0.9,0.4l1.1,0.4l1.3,0.1l1.4,0.3l0.3-0.8l0.4-0.1l1-0.5
		l0.6-0.3l0.3-0.4l1,1L261,120.9"/>
</g>
<g id="g100" transform="scale(11.8081)">
</g>
<g id="g102" transform="scale(11.8081)">
</g>
<g id="g104" transform="scale(11.8081)">
</g>
<g id="g106">
</g>
<g id="g108" transform="scale(11.8081)">
</g>
<g id="g110" transform="scale(11.8081)">
</g>
<g id="g112" transform="scale(11.8081)">
</g>
<g id="g114" transform="scale(11.8081)">
</g>
<g id="g116" transform="scale(11.8081)">
</g>
<g id="g118" transform="scale(11.8081)">
</g>
<g id="g120">
</g>

</svg>
