<?xml version="1.0"?>
<svg xmlns="http://www.w3.org/2000/svg" version="1.2" baseProfile="tiny" width="800" height="759" viewBox="0 0 800 759" stroke-linecap="round" stroke-linejoin="round">
<g title="Delhi Lok Sabha Seats">
<path title="North West Delhi" id="U05P05" d="M 386.8125 1 L 373.54297 26.326172 L 352.36914 20.820312 L 336.69141 46.001953 L 318.37305 82.162109 L 292.45508 71.125 L 246.10938 69.300781 L 223.46289 98.757812 L 203.76367 88.630859 L 195.12109 109.30273 L 178.22266 104.98438 L 163.71875 135.34375 L 182.07617 147.80664 L 174.90039 167.68555 L 185.55078 184.54297 L 175.88477 192.2793 L 167.1582 206.07031 L 189.79297 222.50977 L 185.63672 229.78516 L 192.00781 239.5957 L 173.56445 271.0957 L 205.48438 292.52148 L 188.53516 316.5918 L 186.93359 334.68164 L 237.47266 342.18945 L 247.82422 365.08594 L 268.52734 335.80469 L 297.51953 339.22852 L 321.80664 332.51562 L 331.81445 352.51172 L 345.08398 354.26562 L 351.66016 388.44531 L 373.49219 374.52148 L 389.33398 363.0332 L 401.32031 364.68555 L 405.96875 320.49805 L 409.375 299.99609 L 428.17578 290.11133 L 441.60547 284.90234 L 447.41797 280.61914 L 471.88477 243.8418 L 479.09961 239.20508 L 488.34766 233.26172 L 498.85547 244.67383 L 516.37305 242.96289 L 512.20312 237.60547 L 522.55664 227.47461 L 511.59375 221.95117 L 535.28516 197.98242 L 458.73047 183.2832 L 460.93359 175.95508 L 450.68164 178.67969 L 451.25195 173.32422 L 476.90234 164.44727 L 477.60352 152.37109 L 502.7793 141.27539 L 555.63086 148.11523 L 556.34961 156.5332 L 570.70117 163.67773 L 594.12109 155.9375 L 571.375 136.58008 L 573.47266 114.96289 L 601.37891 119.05469 L 607.91016 80.111328 L 598.00781 67.257812 L 598.45312 50.542969 L 586.28711 40.330078 L 532.31641 39.476562 L 505.10547 74.345703 L 486.61523 73.498047 L 478.34375 35.183594 L 464.1543 32.466797 L 448.07812 40.902344 L 429.80273 22.421875 L 400.26172 17.748047 L 386.8125 1 z "/>
<path title="Chandni Chowk" id="U05P01" d="M 488.34766 233.26172 L 479.09961 239.20508 L 471.88477 243.8418 L 447.41797 280.61914 L 441.60547 284.90234 L 428.17578 290.11133 L 409.375 299.99609 L 405.96875 320.49805 L 401.32031 364.68555 L 416.33789 355.40625 L 432.57617 354.64453 L 443.54883 352.26758 L 436.64453 346.80469 L 437.58203 329.41211 L 458.97266 331.61328 L 507.56836 333.21289 L 512.69141 335.85352 L 529.27539 347.23047 L 536.99414 348.29297 L 531.6543 352.77344 L 538.83203 358.85938 L 549.12891 350.62695 L 579.40625 358.67188 L 581.85156 373.4082 L 602.96289 386.28125 L 605.56836 386.48633 L 610.09375 396.51172 L 642.73242 412.99023 L 636.625 386.37109 L 633.93164 378.46875 L 654.03125 377.58594 L 660.82227 366.32227 L 646.05664 354.63672 L 629.93359 341.59766 L 627.43164 329.76172 L 628.65625 290.83398 L 617.00977 288.6543 L 588.73828 345.36914 L 576.72656 338.85352 L 589.08203 326.51367 L 578.07227 311.85352 L 566.19141 318.63281 L 562.99023 311.23633 L 574.01367 294.8418 L 548.31836 283.62305 L 548.21484 276.34375 L 560.35742 262.05859 L 579.64844 261.13086 L 545.0918 244.19141 L 516.37305 242.96289 L 498.85547 244.67383 L 488.34766 233.26172 z "/>
<path title="West Delhi" id="U05P06" d="M 437.58203 329.41211 L 436.64453 346.80469 L 443.54883 352.26758 L 432.57617 354.64453 L 416.33789 355.40625 L 401.32031 364.68555 L 389.33398 363.0332 L 373.49219 374.52148 L 351.66016 388.44531 L 345.08398 354.26562 L 331.81445 352.51172 L 321.80664 332.51562 L 297.51953 339.22852 L 268.52734 335.80469 L 247.82422 365.08594 L 237.47266 342.18945 L 186.93359 334.68164 L 181.85742 342.92578 L 151.83398 343.44336 L 136.08203 371.0957 L 167.37305 396.94922 L 152.30664 420.26953 L 124.67773 399.05273 L 107.33203 412.36133 L 78.966797 398.96484 L 71.578125 410.35547 L 41.007812 471.76758 L 1 477.83203 L 10.230469 528.27734 L 39.673828 538.17188 L 53.716797 556.05469 L 60.316406 568.53906 L 76.960938 576.45898 L 65.953125 598.66797 L 74.197266 606.4375 L 84.6875 607.23438 L 109.82031 586.41602 L 133.26758 596.28906 L 155.13867 591.33203 L 168.33008 600.97461 L 182.60352 600.00977 L 221.7832 574.4707 L 241.64258 586.31641 L 250.62305 576.61719 L 267.94727 585.21094 L 277.18555 571.9375 L 252.11133 557.10156 L 262.29688 542.35547 L 277.14648 545.49805 L 302.10156 502.20312 L 320.95508 523.97852 L 348.20898 527.83008 L 362.64648 502.33594 L 359.4375 491.69922 L 349.2793 487.51172 L 336.6582 479.43359 L 347.14844 469.27148 L 324.52344 448.28125 L 342.64453 445.25781 L 342.83984 437.68164 L 362.01367 437.62891 L 357.89062 450.17773 L 366.16797 448.12695 L 381.26953 464.4043 L 392.60547 465.45508 L 385.48047 468.06445 L 389.31836 473.73047 L 397.51758 475.46875 L 407.76953 454.81836 L 419.57422 459.26562 L 431.2168 445.66797 L 468.24023 400.83203 L 469.73828 385.83203 L 460.40625 369.4707 L 477.85156 354.16992 L 465.70898 352.95312 L 473.74609 341.35938 L 458.97266 331.61328 L 437.58203 329.41211 z"/>
<path title="New Delhi" id="U05P04" d="M 458.97266 331.61328 L 473.74609 341.35938 L 465.70898 352.95312 L 477.85156 354.16992 L 460.40625 369.4707 L 469.73828 385.83203 L 468.24023 400.83203 L 431.2168 445.66797 L 419.57422 459.26562 L 389.18359 493.33008 L 373.38672 512.92383 L 383.39453 527.71484 L 416.43945 524.85156 L 423.17383 536.35547 L 440.89258 543.20508 L 463.27148 529.72852 L 467.81055 521.28125 L 497.63281 518.92578 L 509.21484 525.28125 L 504.64453 531.49219 L 512.68555 537.92188 L 522.07812 526.10547 L 533.52148 531.62695 L 545.55273 528.08398 L 534.77344 546.15625 L 547.71484 566.80664 L 597.5625 568.32422 L 600.75977 567.12695 L 621.66797 566.65039 L 638.61328 577.22852 L 645.07227 586.31445 L 660.72266 572.26367 L 662.56641 559.92578 L 645.30078 544.50781 L 659.24219 539.29492 L 661.83594 531.21289 L 646.91992 523.39258 L 657.66016 518.375 L 658.75781 506.83984 L 633.48438 500.74805 L 649.77734 485.72656 L 643.35352 463.61719 L 649.26562 461.70312 L 639.49219 445.31055 L 642.73242 412.99023 L 610.09375 396.51172 L 605.56836 386.48633 L 602.96289 386.28125 L 581.85156 373.4082 L 579.40625 358.67188 L 549.12891 350.62695 L 538.83203 358.85938 L 531.6543 352.77344 L 536.99414 348.29297 L 529.27539 347.23047 L 512.69141 335.85352 L 507.56836 333.21289 L 458.97266 331.61328 z"/>
<path title="South Delhi" id="U05P07" d="M 362.01367 437.62891 L 342.83984 437.68164 L 342.64453 445.25781 L 324.52344 448.28125 L 347.14844 469.27148 L 336.6582 479.43359 L 349.2793 487.51172 L 359.4375 491.69922 L 362.64648 502.33594 L 348.20898 527.83008 L 320.95508 523.97852 L 302.10156 502.20312 L 277.14648 545.49805 L 328.5957 575.09766 L 324.97656 581.49219 L 357.75195 588.91797 L 365.46875 575.9707 L 407.81836 590.45117 L 404.83203 598.55859 L 442.91797 613.42969 L 440.61523 623.19141 L 431.82422 648.17578 L 427.2793 653.34961 L 444.75586 673.87305 L 448.78906 695.08984 L 510.26953 721.41406 L 513.73438 742.86523 L 530.30078 757.60547 L 543.04297 750.47461 L 553.2793 755.35156 L 581.49023 751.44141 L 606.51172 747.55664 L 647.20508 727.45703 L 651.82227 714.01953 L 645.99414 713.48633 L 641.93945 682.79297 L 635.24805 677.1582 L 622.86133 679.76953 L 621.1582 671.01953 L 632.76562 646.38672 L 685.89844 629.54688 L 693.44727 618.95312 L 723.77344 614.85156 L 733.17969 624.60938 L 757.59961 631.7793 L 772.98242 623.44727 L 799 591.28711 L 787.12695 566.68945 L 764.80469 573.9043 L 726.93555 573.37695 L 719.55078 562.31641 L 701.87305 564.72852 L 693.61719 544.29688 L 707.84766 538.48047 L 672.37891 494.96484 L 658.75781 506.83984 L 657.66016 518.375 L 646.91992 523.39258 L 661.83594 531.21289 L 659.24219 539.29492 L 645.30078 544.50781 L 662.56641 559.92578 L 660.72266 572.26367 L 645.07227 586.31445 L 638.61328 577.22852 L 621.66797 566.65039 L 600.75977 567.12695 L 597.5625 568.32422 L 547.71484 566.80664 L 534.77344 546.15625 L 545.55273 528.08398 L 533.52148 531.62695 L 522.07812 526.10547 L 512.68555 537.92188 L 504.64453 531.49219 L 509.21484 525.28125 L 497.63281 518.92578 L 467.81055 521.28125 L 463.27148 529.72852 L 440.89258 543.20508 L 423.17383 536.35547 L 416.43945 524.85156 L 383.39453 527.71484 L 373.38672 512.92383 L 389.18359 493.33008 L 419.57422 459.26562 L 407.76953 454.81836 L 397.51758 475.46875 L 389.31836 473.73047 L 385.48047 468.06445 L 392.60547 465.45508 L 381.26953 464.4043 L 366.16797 448.12695 L 357.89062 450.17773 L 362.01367 437.62891 z"/>
<path title="East Delhi" id="U05P03" d="M 781.38086 313.80078 L 736.78125 335.40625 L 729.13477 341.60938 L 699.62891 343.18164 L 687.78516 341.94531 L 646.05664 354.63672 L 660.82227 366.32227 L 654.03125 377.58594 L 633.93164 378.46875 L 636.625 386.37109 L 642.73242 412.99023 L 639.49219 445.31055 L 649.26562 461.70312 L 643.35352 463.61719 L 649.77734 485.72656 L 633.48438 500.74805 L 658.75781 506.83984 L 672.37891 494.96484 L 707.84766 538.48047 L 693.61719 544.29688 L 701.87305 564.72852 L 719.55078 562.31641 L 726.93555 573.37695 L 764.80469 573.9043 L 787.12695 566.68945 L 735.125 524.04883 L 731.10938 508.05859 L 725.36719 503.16211 L 728.07617 480.31836 L 750.4043 456.82227 L 795.62695 441.32227 L 797.64453 414.44531 L 784.35352 405.0293 L 756.08594 384.80273 L 762.75781 357.37891 L 764.29883 347.71875 L 768.22656 327.48438 L 783.41016 321.33398 L 781.38086 313.80078 z"/>
<path title="North East Delhi" id="U05P02" d="M 502.7793 141.27539 L 477.60352 152.37109 L 476.90234 164.44727 L 451.25195 173.32422 L 450.68164 178.67969 L 460.93359 175.95508 L 458.73047 183.2832 L 535.28516 197.98242 L 511.59375 221.95117 L 522.55664 227.47461 L 512.20312 237.60547 L 516.37305 242.96289 L 545.0918 244.19141 L 579.64844 261.13086 L 560.35742 262.05859 L 548.21484 276.34375 L 548.31836 283.62305 L 574.01367 294.8418 L 562.99023 311.23633 L 566.19141 318.63281 L 578.07227 311.85352 L 589.08203 326.51367 L 576.72656 338.85352 L 588.73828 345.36914 L 617.00977 288.6543 L 628.65625 290.83398 L 627.43164 329.76172 L 629.93359 341.59766 L 646.05664 354.63672 L 687.78516 341.94531 L 699.62891 343.18164 L 729.13477 341.60938 L 736.78125 335.40625 L 781.38086 313.80078 L 772.10352 299.51953 L 768.25195 294.91992 L 770.08203 279.29297 L 780.23633 271.04102 L 739.31836 270.08203 L 724.93164 284.44727 L 709.21289 269.4082 L 716.10352 257.11719 L 709.1543 252.37109 L 692.08984 234.63281 L 669.09961 237.05664 L 660.44336 229.625 L 661.08008 202.5 L 627.96289 194.51172 L 628.63867 178.61328 L 606.54102 168.06641 L 624.88477 158.12305 L 594.43359 156.00781 L 594.12109 155.9375 L 570.70117 163.67773 L 556.34961 156.5332 L 555.63086 148.11523 L 502.7793 141.27539 z"/>
</g>
</svg>
